<svg width="476" height="164" viewBox="0 0 476 164" fill="none" xmlns="http://www.w3.org/2000/svg">
<g opacity="0.5">
<path d="M77.1479 36.8001V40.0591H95.6149V36.8001H77.1479Z" fill="#47E6B1"/>
<path d="M88.011 29.196H84.752V47.663H88.011V29.196Z" fill="#47E6B1"/>
</g>
<g opacity="0.5">
<path d="M362.148 122.8V126.059H380.615V122.8H362.148Z" fill="#47E6B1"/>
<path d="M373.011 115.196H369.752V133.663H373.011V115.196Z" fill="#47E6B1"/>
</g>
<path opacity="0.5" d="M193.125 101.537C193.125 97.9371 190.207 95.019 186.607 95.019C183.007 95.019 180.089 97.9371 180.089 101.537C180.089 105.137 183.007 108.055 186.607 108.055C190.207 108.055 193.125 105.137 193.125 101.537Z" fill="#F55F44"/>
<path opacity="0.5" d="M276.713 2.14095C275.903 3.99981 273.829 4.9563 271.889 4.36495C271.745 4.31862 271.597 4.28944 271.446 4.27798C270.561 4.21904 269.743 4.74976 269.436 5.58181C269.13 6.41386 269.408 7.34851 270.119 7.87795C270.241 7.96675 270.373 8.04094 270.512 8.09896C272.371 8.90881 273.327 10.9835 272.736 12.9229C272.69 13.0667 272.661 13.2154 272.649 13.3659C272.59 14.2507 273.121 15.0687 273.953 15.3755C274.785 15.6822 275.719 15.4043 276.249 14.693C276.338 14.5711 276.412 14.4392 276.47 14.3C277.28 12.4411 279.355 11.4846 281.294 12.076C281.438 12.1222 281.586 12.1515 281.737 12.163C282.622 12.2219 283.44 11.6911 283.746 10.8591C284.053 10.027 283.775 9.09239 283.064 8.56295C282.942 8.47374 282.81 8.39924 282.671 8.34097C280.812 7.53112 279.856 5.45639 280.447 3.51693C280.493 3.37319 280.523 3.22451 280.534 3.07394C280.593 2.18912 280.062 1.37118 279.23 1.06448C278.398 0.757776 277.463 1.03559 276.934 1.74697C276.845 1.86916 276.771 2.00139 276.713 2.14095Z" fill="#4D8AF0"/>
<path opacity="0.5" d="M7.71303 150.141C6.90318 152 4.82851 152.956 2.88905 152.365C2.74532 152.319 2.59652 152.289 2.44594 152.278C1.56113 152.219 0.743115 152.75 0.436415 153.582C0.129715 154.414 0.407652 155.349 1.11903 155.878C1.24093 155.967 1.37265 156.041 1.51185 156.099C3.3707 156.909 4.32732 158.983 3.73598 160.923C3.68962 161.067 3.6605 161.215 3.64906 161.366C3.59013 162.251 4.12073 163.069 4.95277 163.375C5.78482 163.682 6.71947 163.404 7.24891 162.693C7.3378 162.571 7.41193 162.439 7.46986 162.3C8.27971 160.441 10.3546 159.485 12.2941 160.076C12.4378 160.122 12.5864 160.151 12.737 160.163C13.6218 160.222 14.4398 159.691 14.7465 158.859C15.0532 158.027 14.7752 157.092 14.0639 156.563C13.942 156.474 13.8103 156.399 13.671 156.341C11.8122 155.531 10.8556 153.456 11.4469 151.517C11.4932 151.373 11.5226 151.225 11.5341 151.074C11.593 150.189 11.0622 149.371 10.2301 149.064C9.39807 148.758 8.46341 149.036 7.93397 149.747C7.84506 149.869 7.77094 150.001 7.71303 150.141Z" fill="#4D8AF0"/>
<path opacity="0.5" d="M475.403 53.9249C475.403 50.3251 472.485 47.4069 468.885 47.4069C465.285 47.4069 462.367 50.3251 462.367 53.9249C462.367 57.5247 465.285 60.4429 468.885 60.4429C472.485 60.4429 475.403 57.5247 475.403 53.9249Z" fill="#4D8AF0"/>
</svg>
