<svg width="469" height="164" viewBox="0 0 469 164" fill="none" xmlns="http://www.w3.org/2000/svg">
<path d="M155.824 36.7991V40.0581H174.291V36.7991H155.824Z" fill="#47E6B1"/>
<path d="M166.687 29.1951H163.428V47.6621H166.687V29.1951Z" fill="#47E6B1"/>
<path opacity="0.5" d="M355.389 2.14096C354.579 3.99981 352.504 4.9563 350.565 4.36495C350.421 4.31861 350.273 4.2895 350.122 4.27804C349.237 4.21911 348.419 4.74983 348.112 5.58187C347.806 6.41392 348.084 7.34858 348.795 7.87802C348.917 7.96682 349.049 8.04093 349.188 8.09896C351.047 8.90881 352.003 10.9835 351.412 12.9229C351.365 13.0667 351.336 13.2154 351.325 13.3659C351.266 14.2507 351.797 15.0688 352.629 15.3755C353.461 15.6822 354.395 15.4043 354.925 14.693C355.014 14.5711 355.088 14.4393 355.146 14.3C355.956 12.4412 358.03 11.4847 359.97 12.076C360.113 12.1223 360.263 12.1514 360.413 12.1629C361.298 12.2219 362.116 11.6911 362.422 10.8591C362.729 10.027 362.451 9.09239 361.74 8.56295C361.618 8.47374 361.486 8.3993 361.347 8.34103C359.488 7.53118 358.532 5.45639 359.123 3.51693C359.169 3.37319 359.198 3.22451 359.21 3.07394C359.269 2.18913 358.738 1.37124 357.906 1.06454C357.074 0.757841 356.139 1.03566 355.61 1.74704C355.521 1.86922 355.447 2.00139 355.389 2.14096Z" fill="#4D8AF0"/>
<path opacity="0.5" d="M86.3888 150.141C85.579 152 83.5045 152.956 81.5651 152.365C81.4213 152.319 81.2728 152.29 81.1222 152.278C80.2374 152.219 79.4191 152.75 79.1124 153.582C78.8057 154.414 79.0837 155.349 79.7951 155.878C79.917 155.967 80.0489 156.041 80.1881 156.099C82.047 156.909 83.0031 158.983 82.4118 160.923C82.3654 161.067 82.3363 161.215 82.3248 161.366C82.2659 162.251 82.797 163.069 83.629 163.375C84.4611 163.682 85.3955 163.404 85.9249 162.693C86.0138 162.571 86.0882 162.439 86.1461 162.3C86.956 160.441 89.0304 159.485 90.9699 160.076C91.1136 160.122 91.2627 160.151 91.4132 160.163C92.298 160.222 93.1158 159.691 93.4225 158.859C93.7292 158.027 93.4513 157.092 92.7399 156.563C92.6181 156.474 92.4861 156.399 92.3468 156.341C90.488 155.531 89.5318 153.456 90.1232 151.517C90.1695 151.373 90.1986 151.225 90.2101 151.074C90.269 150.189 89.7384 149.371 88.9064 149.065C88.0743 148.758 87.1394 149.036 86.61 149.747C86.5211 149.869 86.4467 150.001 86.3888 150.141Z" fill="#4D8AF0"/>
<path opacity="0.5" d="M468.079 81.9248C468.079 78.325 465.161 75.4069 461.561 75.4069C457.961 75.4069 455.043 78.325 455.043 81.9248C455.043 85.5246 457.961 88.4429 461.561 88.4429C465.161 88.4429 468.079 85.5246 468.079 81.9248Z" fill="#4D8AF0"/>
<path opacity="0.5" d="M13.8022 55.5371C13.8022 51.9373 10.884 49.0192 7.28418 49.0192C3.68439 49.0192 0.766113 51.9373 0.766113 55.5371C0.766113 59.1369 3.68439 62.0552 7.28418 62.0552C10.884 62.0552 13.8022 59.1369 13.8022 55.5371Z" fill="#F55F44"/>
</svg>
