<svg width="289" height="60" viewBox="0 0 289 60" fill="none" xmlns="http://www.w3.org/2000/svg">
<path opacity="0.5" d="M7.41406 44.8223C11.0139 44.8223 13.932 41.904 13.932 38.3042C13.932 34.7044 11.0139 31.7861 7.41406 31.7861C3.81427 31.7861 0.895996 34.7044 0.895996 38.3042C0.895996 41.904 3.81427 44.8223 7.41406 44.8223Z" fill="#F55F44"/>
<path d="M281.152 0.845703H277.893V19.3127H281.152V0.845703Z" fill="#47E6B1"/>
<path d="M288.756 11.7087V8.44971H270.289V11.7087H288.756Z" fill="#47E6B1"/>
<path opacity="0.5" d="M135.81 52.3877C133.951 51.5779 132.995 49.5029 133.586 47.5635C133.633 47.4198 133.662 47.2712 133.673 47.1206C133.732 46.2358 133.201 45.4176 132.369 45.1109C131.537 44.8042 130.603 45.0821 130.073 45.7935C129.984 45.9154 129.91 46.0473 129.852 46.1865C129.042 48.0454 126.968 49.002 125.028 48.4107C124.885 48.3643 124.736 48.3352 124.585 48.3237C123.7 48.2648 122.882 48.7954 122.576 49.6275C122.269 50.4595 122.547 51.3939 123.258 51.9234C123.38 52.0122 123.512 52.0866 123.651 52.1445C125.51 52.9544 126.466 55.0293 125.875 56.9688C125.829 57.1125 125.8 57.2611 125.788 57.4116C125.729 58.2964 126.26 59.1142 127.092 59.4209C127.924 59.7276 128.859 59.4502 129.388 58.7388C129.477 58.617 129.552 58.485 129.61 58.3457C130.42 56.4869 132.495 55.5303 134.434 56.1216C134.578 56.1679 134.727 56.197 134.877 56.2085C135.762 56.2674 136.58 55.7368 136.887 54.9048C137.193 54.0727 136.916 53.1379 136.204 52.6084C136.082 52.5195 135.95 52.4456 135.81 52.3877Z" fill="#4D8AF0"/>
</svg>
