<svg width="436" height="140" viewBox="0 0 436 140" fill="none" xmlns="http://www.w3.org/2000/svg">
<path opacity="0.5" d="M343.493 133.132C343.493 129.532 340.575 126.614 336.975 126.614C333.375 126.614 330.457 129.532 330.457 133.132C330.457 136.732 333.375 139.65 336.975 139.65C340.575 139.65 343.493 136.732 343.493 133.132Z" fill="#47E6B1"/>
<path opacity="0.5" d="M312.713 2.14096C311.903 3.99981 309.828 4.95629 307.889 4.36495C307.745 4.31861 307.597 4.28938 307.446 4.27792C306.561 4.21899 305.743 4.74971 305.437 5.58175C305.13 6.4138 305.408 7.34858 306.119 7.87802C306.241 7.96682 306.373 8.04093 306.512 8.09896C308.371 8.90881 309.327 10.9835 308.736 12.9229C308.69 13.0667 308.66 13.2154 308.649 13.3659C308.59 14.2507 309.121 15.0688 309.953 15.3755C310.785 15.6822 311.719 15.4043 312.249 14.693C312.338 14.5711 312.412 14.4393 312.47 14.3C313.28 12.4412 315.355 11.4847 317.294 12.076C317.438 12.1223 317.586 12.1514 317.737 12.1629C318.622 12.2219 319.44 11.6911 319.746 10.8591C320.053 10.027 319.775 9.09239 319.064 8.56295C318.942 8.47374 318.81 8.39918 318.671 8.34091C316.812 7.53106 315.856 5.45639 316.447 3.51693C316.493 3.37319 316.522 3.22451 316.534 3.07394C316.593 2.18913 316.062 1.37112 315.23 1.06442C314.398 0.757718 313.463 1.03553 312.934 1.74691C312.845 1.86909 312.771 2.00139 312.713 2.14096Z" fill="#4D8AF0"/>
<path opacity="0.5" d="M436.001 34.9249C436.001 31.3251 433.083 28.407 429.483 28.407C425.883 28.407 422.965 31.3251 422.965 34.9249C422.965 38.5247 425.883 41.4429 429.483 41.4429C433.083 41.4429 436.001 38.5247 436.001 34.9249Z" fill="#4D8AF0"/>
<path opacity="0.5" d="M13.1251 21.5371C13.1251 17.9373 10.2068 15.0192 6.60706 15.0192C3.00726 15.0192 0.0891113 17.9373 0.0891113 21.5371C0.0891113 25.1369 3.00726 28.0552 6.60706 28.0552C10.2068 28.0552 13.1251 25.1369 13.1251 21.5371Z" fill="#F55F44"/>
<g opacity="0.5">
<path d="M133.148 79.8001V83.0591H151.615V79.8001H133.148Z" fill="#47E6B1"/>
<path d="M144.011 72.196H140.752V90.663H144.011V72.196Z" fill="#47E6B1"/>
</g>
</svg>
