<svg width="423" height="83" viewBox="0 0 423 83" fill="none" xmlns="http://www.w3.org/2000/svg">
<g opacity="0.5">
<path d="M11.6421 13.8472H8.38306V32.3142H11.6421V13.8472Z" fill="#47E6B1"/>
<path d="M19.2461 24.7102V21.4512H0.779095V24.7102H19.2461Z" fill="#47E6B1"/>
</g>
<path opacity="0.5" d="M415.905 13.8232C419.505 13.8232 422.423 10.905 422.423 7.30518C422.423 3.70538 419.505 0.787109 415.905 0.787109C412.305 0.787109 409.387 3.70538 409.387 7.30518C409.387 10.905 412.305 13.8232 415.905 13.8232Z" fill="#F55F44"/>
<path opacity="0.5" d="M153.3 75.3892C151.441 74.5793 150.485 72.5044 151.076 70.565C151.122 70.4212 151.151 70.2727 151.163 70.1221C151.222 69.2373 150.691 68.419 149.859 68.1123C149.027 67.8056 148.092 68.0836 147.563 68.7949C147.474 68.9168 147.4 69.0488 147.342 69.188C146.532 71.0469 144.457 72.0035 142.518 71.4121C142.374 71.3658 142.226 71.3366 142.075 71.3252C141.19 71.2663 140.372 71.7969 140.065 72.6289C139.759 73.461 140.037 74.3954 140.748 74.9248C140.87 75.0137 141.002 75.0881 141.141 75.146C143 75.9559 143.956 78.0308 143.365 79.9702C143.319 80.114 143.289 80.2625 143.278 80.4131C143.219 81.2979 143.75 82.1157 144.582 82.4224C145.414 82.7291 146.349 82.4516 146.878 81.7402C146.967 81.6184 147.042 81.4865 147.1 81.3472C147.91 79.4883 149.984 78.5317 151.924 79.1231C152.068 79.1693 152.216 79.1985 152.367 79.21C153.252 79.2689 154.07 78.7383 154.376 77.9063C154.683 77.0742 154.405 76.1393 153.694 75.6099C153.572 75.521 153.44 75.4471 153.3 75.3892Z" fill="#4D8AF0"/>
</svg>
