<svg width="733" height="105" viewBox="0 0 733 105" fill="none" xmlns="http://www.w3.org/2000/svg">
<g opacity="0.5">
<path d="M500.709 46.7058V43.4468H482.242V46.7058H500.709Z" fill="#47E6B1"/>
<path d="M489.846 54.3098H493.105V35.8428H489.846V54.3098Z" fill="#47E6B1"/>
</g>
<path opacity="0.5" d="M610.734 97.9692C610.734 101.569 613.652 104.487 617.252 104.487C620.852 104.487 623.77 101.569 623.77 97.9692C623.77 94.3694 620.852 91.4512 617.252 91.4512C613.652 91.4512 610.734 94.3694 610.734 97.9692Z" fill="#F55F44"/>
<path opacity="0.5" d="M725.468 13.3649C726.278 11.5061 728.353 10.5496 730.292 11.1409C730.436 11.1872 730.584 11.2164 730.735 11.2278C731.62 11.2867 732.438 10.756 732.745 9.92399C733.051 9.09194 732.773 8.15728 732.062 7.62784C731.94 7.53904 731.808 7.46493 731.669 7.4069C729.81 6.59705 728.853 4.52226 729.445 2.5828C729.491 2.43908 729.521 2.29039 729.532 2.13981C729.591 1.255 729.06 0.437107 728.228 0.130407C727.396 -0.176293 726.462 0.101522 725.932 0.812902C725.843 0.934742 725.769 1.0666 725.711 1.20585C724.901 3.0647 722.827 4.02118 720.887 3.42985C720.743 3.38356 720.594 3.35432 720.444 3.34281C719.559 3.28388 718.741 3.8146 718.435 4.64664C718.128 5.47869 718.406 6.41347 719.117 6.94291C719.239 7.03212 719.371 7.10656 719.51 7.16483C721.369 7.97468 722.325 10.0493 721.734 11.9888C721.688 12.1325 721.658 12.2812 721.647 12.4318C721.588 13.3166 722.119 14.1346 722.951 14.4413C723.783 14.748 724.718 14.4702 725.247 13.7588C725.336 13.6366 725.41 13.5045 725.468 13.3649Z" fill="#4D8AF0"/>
<path opacity="0.5" d="M8.14379 61.3639C8.95364 59.5051 11.0285 58.5486 12.968 59.1399C13.1117 59.1863 13.2603 59.2154 13.4109 59.2269C14.2957 59.2858 15.1139 58.7551 15.4206 57.9231C15.7273 57.091 15.4494 56.1564 14.738 55.6269C14.6161 55.5381 14.4842 55.4639 14.345 55.4059C12.4861 54.5961 11.5295 52.5213 12.1208 50.5819C12.1672 50.4382 12.1968 50.2895 12.2082 50.1389C12.2672 49.2541 11.7361 48.4361 10.904 48.1294C10.072 47.8227 9.13758 48.1005 8.60814 48.8119C8.51925 48.9338 8.44488 49.0657 8.38695 49.2049C7.5771 51.0638 5.50268 52.0203 3.56322 51.4289C3.41948 51.3826 3.27043 51.3534 3.11986 51.3419C2.23505 51.283 1.41728 51.8137 1.11058 52.6458C0.803883 53.4778 1.08182 54.4125 1.7932 54.9419C1.91501 55.0311 2.04699 55.1056 2.18627 55.1639C4.04512 55.9738 5.00124 58.0484 4.4099 59.9879C4.36362 60.1316 4.33449 60.2803 4.32298 60.4309C4.26405 61.3157 4.79466 62.1337 5.6267 62.4404C6.45875 62.7471 7.39364 62.4693 7.92308 61.7579C8.01199 61.6357 8.08588 61.5035 8.14379 61.3639Z" fill="#4D8AF0"/>
</svg>
