<?xml version="1.0" encoding="UTF-8"?>
<svg fill="none" viewBox="0 0 203 164" xmlns="http://www.w3.org/2000/svg">
<path d="m80 163c44.183 0 80-35.817 80-80 0-44.183-35.817-80-80-80-44.183 0-80 35.817-80 80 0 44.183 35.817 80 80 80z" fill="#fff"/>
<path d="m80 162c43.63 0 79-35.369 79-79 0-43.63-35.37-79-79-79-43.63 0-79 35.37-79 79 0 43.631 35.37 79 79 79z" stroke="currentColor" stroke-width="2"/>
<path d="m27 58.999c14.912 0 27-12.088 27-27s-12.088-27-27-27-27 12.088-27 27 12.088 27 27 27z" fill="#fff"/>
<path d="m30.568 28.079c2.944 0.48 5.2 1.584 6.768 3.312 1.568 1.696 2.352 3.808 2.352 6.336 0 1.952-0.512 3.76-1.536 5.424-1.024 1.632-2.592 2.944-4.704 3.936-2.08 0.992-4.64 1.488-7.68 1.488-2.368 0-4.704-0.304-7.008-0.912-2.272-0.64-4.208-1.536-5.808-2.688l3.024-5.952c1.28 0.96 2.752 1.712 4.416 2.256 1.696 0.512 3.424 0.768 5.184 0.768 1.952 0 3.488-0.368 4.608-1.104 1.12-0.768 1.68-1.84 1.68-3.216 0-2.752-2.096-4.128-6.288-4.128h-3.552v-5.136l6.912-7.824h-14.304v-6.24h23.52v5.04l-7.584 8.64z" fill="currentColor"/>
<path d="m100.8 63.396c-7.1859-2.326-14.784-4.275-22.549-4.075-11.416 0.3-22.392 5.616-27.805 13.479-4.576 6.663-5.187 14.494-7.184 21.9-2.461 9.1277-7.132 17.79-12.118 26.262-2.678 4.55-5.5 9.2-5.969 14.2-0.639 6.941 3.567 13.881 10.2 18.532 6.6331 4.651 15.455 7.13 24.32 7.709 4.7169 0.306 9.6469 0.07 13.847-1.629 4.443-1.791 7.691-5.067 12.152-6.838 4.1339-1.639 8.953-1.85 13.59-1.61 6.0059 0.304 11.954 1.323 17.719 3.036 6.464 1.934 12.47 4.717 18.92 6.679s13.66 3.072 20.269 1.494c6.205-1.48 11.127-5.129 15.566-8.825 7.153-5.942 13.804-12.464 19.885-19.5 4.009-4.653 7.743-9.568 9.534-15 3.42-10.4-1.162-22.169-11.414-29.329-8.493-5.935-19.919-8.555-31.108-10.146-10.2-1.466-22.01-1.612-31.389-5.346-8.946-3.576-17.083-7.957-26.466-10.993z" fill="currentColor" opacity=".1"/>
<path d="m174.79 100.98c2.539 0 4.598-0.448 4.598-0.9998 0-0.5523-2.059-1-4.598-1s-4.598 0.4477-4.598 1c0 0.5518 2.059 0.9998 4.598 0.9998z" fill="#6C63FF" opacity=".1"/>
<path d="m154.04 98.566c2.54 0 4.598-0.4478 4.598-1 0-0.5523-2.058-1-4.598-1-2.539 0-4.598 0.4477-4.598 1 0 0.5522 2.059 1 4.598 1z" fill="#6C63FF" opacity=".1"/>
<path d="m181.84 106.07c1.806 0 3.269-0.447 3.269-1 0-0.552-1.463-1-3.269-1-1.805 0-3.269 0.448-3.269 1 0 0.553 1.464 1 3.269 1z" fill="#6C63FF" opacity=".1"/>
<path d="m174.69 99.836s6.45-21.141-1.009-29.608c-5.571-6.335-11.913-5.571-14.748-4.793-1.485 0.3953-2.722 1.4231-3.382 2.8109-0.995 2.139-0.812 5.61 6.187 9.6631 11.72 6.786 12.45 16.1 12.45 16.1l0.502 5.8271z" fill="currentColor"/>
<path d="m159.94 68.437s19.012 5.945 14.748 31.4" stroke="#565987"/>
<path d="m171.04 70.568s-2.618 1.765-1.791 4.415" stroke="#565987"/>
<path d="m161.85 72.134c0.931-0.9282 2.325-1.215 3.547-0.73" stroke="#565987"/>
<path d="m169.36 80.325s2.809-1.424 3.535 0.36" stroke="#565987"/>
<path d="m176.31 83.296s-2.111-0.167-2.149 0.842" stroke="#565987"/>
<path d="m174.95 100.01s-7.56-15.365-9.627-15.029c-0.995 0.159-1.44 1.13-1.645 2.1-0.254 1.2592-0.11 2.5664 0.412 3.74 2.055 4.5398 6.043 7.9143 10.86 9.1887z" fill="currentColor"/>
<path d="m165.38 87.897s7.928 11.5 9.46 12" stroke="#565987"/>
<path d="m164.65 89.691h1.85" stroke="#565987"/>
<path d="m166.86 93.897 2.901 0.123" stroke="#565987"/>
<path d="m168.63 90.533-0.314 1.51" stroke="#565987"/>
<path d="m171.71 95.13-0.056 1.373" stroke="#565987"/>
<path d="m174.72 100.01s7.56-15.365 9.627-15.029c0.995 0.159 1.44 1.13 1.645 2.1 0.255 1.2592 0.111 2.5664-0.412 3.74-2.054 4.5398-6.043 7.9143-10.86 9.1887z" fill="currentColor"/>
<path d="m184.3 87.897s-7.928 11.5-9.46 12" stroke="#565987"/>
<path d="m185.02 89.691h-1.85" stroke="#565987"/>
<path d="m182.81 93.897-2.901 0.123" stroke="#565987"/>
<path d="m181.04 90.533 0.314 1.51" stroke="#565987"/>
<path d="m177.96 95.13 0.058 1.373" stroke="#565987"/>
<path d="m180.94 103.6c-0.205-0.168-0.355-0.394-0.43-0.649-0.069-0.264 0.056-0.54 0.3-0.663 0.298-0.056 0.603 0.051 0.8 0.281 0.194 0.227 0.474 0.362 0.772 0.372-0.306-0.277-0.444-0.695-0.364-1.1 0.014-0.082 0.048-0.16 0.1-0.225 0.153-0.163 0.432-0.092 0.615 0.036 0.538 0.485 0.816 1.195 0.75 1.916 0.032-0.265 0.036-0.534 0.01-0.8-0.023-0.269 0.09-0.531 0.3-0.7 0.138-0.075 0.295-0.112 0.452-0.107 0.263-0.037 0.53 0.039 0.734 0.209 0.197 0.272 0.185 0.642-0.03 0.9-0.217 0.242-0.473 0.445-0.758 0.6-0.218 0.129-0.403 0.306-0.543 0.517-0.016 0.03-0.029 0.061-0.04 0.092h-1.643c-0.371-0.179-0.716-0.407-1.025-0.679z" fill="currentColor"/>
<path d="m153.74 91.088s-0.617 0.806 0.284 2.021 1.641 2.244 1.343 3c0 0-1.359-2.258-2.465-2.29s-0.38-1.372 0.838-2.731z" fill="currentColor"/>
<path d="m153.74 91.088c-0.054 0.0777-0.097 0.163-0.127 0.253-1.078 1.267-1.653 2.451-0.617 2.481 0.967 0.028 2.127 1.755 2.4 2.188-5e-3 0.035-0.016 0.0688-0.032 0.1 0 0-1.359-2.258-2.465-2.29s-0.377-1.373 0.841-2.732z" fill="#000" opacity=".1"/>
<path d="m152.6 92.115c0 0.285 0.032 0.513 0.072 0.513s0.07-0.229 0.07-0.513-0.04-0.149-0.078-0.149-0.064-0.134-0.064 0.149z" fill="#FFD037"/>
<path d="m152.2 92.453c0.249 0.137 0.468 0.219 0.485 0.185s-0.167-0.173-0.416-0.308-0.151-0.038-0.171 0-0.147-0.013 0.102 0.123z" fill="#FFD037"/>
<path d="m156.99 91.088s0.617 0.806-0.284 2.021-1.641 2.244-1.341 3c0 0 1.357-2.258 2.463-2.29s0.38-1.372-0.838-2.731z" fill="currentColor"/>
<path d="m156.99 91.088c0.055 0.0777 0.097 0.1629 0.127 0.253 1.078 1.267 1.653 2.451 0.617 2.481-0.967 0.028-2.127 1.755-2.4 2.188 9e-3 0.0341 0.021 0.0675 0.034 0.1 0 0 1.357-2.258 2.463-2.29s0.377-1.373-0.841-2.732z" fill="#000" opacity=".1"/>
<path d="m158.14 92.115c0 0.285-0.032 0.513-0.072 0.513s-0.07-0.229-0.07-0.513 0.04-0.149 0.078-0.149 0.064-0.134 0.064 0.149z" fill="#FFD037"/>
<path d="m158.53 92.453c-0.249 0.137-0.468 0.219-0.485 0.185s0.167-0.173 0.416-0.308 0.151-0.038 0.171 0 0.146-0.013-0.102 0.123z" fill="#FFD037"/>
<path d="m157.94 96.006c-0.766-0.0031-1.525-0.1461-2.24-0.422-0.519-0.37-2.65-0.812-2.785-0.219s-2.586 2.948-0.645 2.964c1.701 0.0553 3.4-0.1535 5.037-0.619 0.517-0.315 0.633-1.704 0.633-1.704z" fill="#A8A8A8"/>
<path d="m152.24 98.123c1.701 0.0554 3.4-0.1534 5.037-0.6189 0.4-0.239 0.551-1.1 0.6-1.5h0.056s-0.107 1.393-0.627 1.705c-1.637 0.4637-3.336 0.6724-5.037 0.6189-0.561 0-0.754-0.2-0.744-0.5 0.078 0.186 0.297 0.293 0.715 0.295z" fill="#000" opacity=".2"/>
<path d="m118.52 9.9131c2.377 0 4.303-1.9265 4.303-4.303s-1.926-4.303-4.303-4.303c-2.376 0-4.303 1.9265-4.303 4.303s1.927 4.303 4.303 4.303z" fill="#6C63FF" opacity=".1"/>
<path d="m32.552 94.685c3.9831 0 7.212-3.2289 7.212-7.212 0-3.983-3.2289-7.212-7.212-7.212s-7.212 3.229-7.212 7.212c0 3.9831 3.2289 7.212 7.212 7.212z" fill="#6C63FF" opacity=".1"/>
<path d="m167.62 63.272c3.983 0 7.212-3.2289 7.212-7.212 0-3.983-3.229-7.212-7.212-7.212s-7.212 3.229-7.212 7.212c0 3.9831 3.229 7.212 7.212 7.212z" fill="#6C63FF" opacity=".1"/>
<path d="m107.99 69.566c-0.255 0.024-0.513 0.012-0.766 0.052-0.424 0.0842-0.829 0.2467-1.194 0.479-1.881 0.9337-3.388 2.4822-4.269 4.389-0.061 0.1194-0.081 0.256-0.056 0.388 0.045 0.1089 0.117 0.2039 0.211 0.275l0.7 0.641c0.089 0.0924 0.195 0.1668 0.312 0.219 0.19 0.0496 0.391 0.0434 0.577-0.018 1.936-0.444 3.993-0.955 5.352-2.4 0.645-0.686 1.239-1.631 2.188-1.657 0.391 0.0439 0.779 0.1106 1.162 0.2 0.398 0.0838 0.799-0.1258 0.957-0.5 0.03-0.19 8e-3 -0.3847-0.064-0.563l-0.585-1.948c-0.159-0.533-1.765-0.561-2.3-0.466-0.811 0.133-1.36 0.829-2.225 0.909z" fill="#65617D"/>
<path d="m114.88 80.535c0.013 0.6678-0.015 1.3357-0.084 2-0.098 0.5204-0.266 1.025-0.5 1.5-0.358 0.7654-0.813 1.4816-1.353 2.1311-0.474 0.629-1.116 1.1118-1.852 1.3929-0.758 0.2685-1.603 0.0451-2.129-0.563-0.328-0.5508-0.459-1.197-0.37-1.832 0.015-1.5766 0.362-3.1324 1.019-4.5659 0.3-0.6 0.686-1.1661 0.995-1.7691 0.645-1.251 1.013-2.736 2.125-3.6 0.698 0.3225 1.444 0.5275 2.208 0.6071 0.3 0.032 1.144 0.0519 1.243 0.4319 0.068 0.257-0.489 0.975-0.6 1.228-0.422 0.9602-0.66 1.991-0.702 3.039z" fill="#65617D"/>
<path d="m106.99 51.844c0.288 0.5861 0.49 1.2104 0.6 1.854 0.04 0.4 0 0.8 0 1.194 0.034 0.545 0.125 1.0849 0.271 1.611l1.108 4.536c0.205 0.6686 0.288 1.3688 0.245 2.067-0.103 0.4524-0.178 0.911-0.223 1.373 0.021 0.3516 0.077 0.7003 0.167 1.041 0.21 1.0517 0.152 2.1392-0.167 3.163-0.033 0.0772-0.045 0.1617-0.034 0.245 0.028 0.129 0.153 0.209 0.267 0.271 1.193 0.6527 2.494 1.0859 3.84 1.279 1.215-2.8903 2.064-5.9212 2.527-9.022 0.282-1.878 0.42-3.78 0.782-5.644 8e-3 -0.1079 0.054-0.2094 0.129-0.287 0.135-0.113 0.34-0.042 0.5 0.034 2.033 0.9776 3.989 2.1082 5.851 3.382 1.326-1.7164 1.821-3.9328 1.351-6.05-0.234-0.901-0.568-1.773-0.995-2.6-0.455-1.0069-1.022-1.9593-1.691-2.839-1.566-1.7934-3.597-3.12-5.869-3.834-1.355-0.489-2.75-0.852-4.142-1.222-0.78-0.209-2.087-0.889-2.845-0.36-0.784 0.7683-1.353 1.7285-1.651 2.785-0.403 1.0757-0.622 2.2115-0.649 3.36-0.034 1.2504 0.179 2.4953 0.628 3.663z" fill="#3F3D56"/>
<path d="m122.98 57.313c-0.416 0.454-0.066 1.178-0.145 1.791-0.052 0.2767-0.151 0.5425-0.292 0.786l-1.9 3.738c-0.318 0.5612-0.556 1.164-0.708 1.791-0.261 1.349 0.275 2.865-0.41 4.057-0.276 0.3464-0.497 0.7337-0.655 1.148-0.028 0.3215-0.04 0.6443-0.034 0.967-0.087 0.3685-0.207 0.7286-0.358 1.076-0.087 0.3478-0.149 0.7014-0.185 1.058-0.241 1.5215-1.038 2.8996-2.236 3.868-0.686 0.582-1.568 0.8822-2.467 0.84-0.914-0.0476-1.697-0.6702-1.95-1.55-0.013-0.3029-0.093-0.599-0.235-0.867-0.263-0.344-0.816-0.358-1.068-0.71l0.979-1.612c0.341-0.4752 0.569-1.0227 0.664-1.6 0.06-0.714-0.284-1.426-0.161-2.133 0.105-0.607 0.541-1.112 0.672-1.713 0.055-0.7639-0.062-1.5305-0.34-2.244-0.279-1.8728-0.095-3.7855 0.535-5.571 0.527-2.4505 1.403-4.8129 2.6-7.015 2.595 1.395 4.983 2.738 7.694 3.895z" fill="#3F3D56"/>
<path d="m123.01 19.418c0.107 0.4379 0.121 0.8932 0.042 1.337-0.07 0.995 0.141 1.99 0.094 3-0.108 0.9983-0.299 1.9858-0.573 2.952-0.611 2.8-0.464 5.716-1.017 8.527-0.682 3.482-2.427 6.725-2.771 10.258 0.026 1.1312-0.217 2.2524-0.71 3.271-3.653-1.608-7.107-3.6364-10.29-6.044 0.829-5.178 1.263-10.411 1.3-15.655-0.047-0.634-3e-3 -1.2713 0.129-1.893 0.166-0.5202 0.404-1.0144 0.708-1.468 0.77-1.251 1.617-2.453 2.463-3.653 0.825-1.8347 2.945-2.6983 4.817-1.962l3.394 0.621c0.707 0.134 2.111-0.113 2.414 0.709z" fill="currentColor"/>
<path d="m95.766 39.322c-0.4642-0.4642-0.9704-0.8843-1.512-1.255 0.706-0.859 0.5669-2.1 0.7399-3.2 0.142-0.7147 0.3574-1.4127 0.643-2.083 0.072-0.189 0.173-0.4 0.37-0.448 0.121-0.0149 0.2436 0.0045 0.354 0.056 0.6 0.211 1.8421 0.2 2.3061 0.585 0.559 0.47 0.048 1.452-0.163 2.039-0.15 0.391-2.441 4.605-2.738 4.306z" fill="#BE6F72"/>
<path d="m97.499 76.477c0.2997 0.4852 0.4955 1.0273 0.575 1.592 0.0739 0.5742-0.172 1.1428-0.641 1.482-0.5543 0.246-1.1853 0.2533-1.745 0.02-2.4577-0.7996-4.4581-2.6088-5.5-4.974-0.1792-0.7688-0.7162-1.4051-1.444-1.711-0.8146-0.3961-1.4806-1.0431-1.9-1.846-0.4041-0.8341-0.1751-1.8369 0.551-2.413 0.4721-0.2732 1.0342-0.3453 1.56-0.2 0.5185 0.1475 1.0149 0.3637 1.476 0.643 0.8356 0.3719 1.6347 0.8208 2.387 1.341 0.5911 0.535 1.1398 1.1151 1.641 1.735 0.5831 0.6662 1.1296 1.3635 1.637 2.089 0.165 0.209 1.54 2.049 1.403 2.242z" fill="#65617D"/>
<path d="m82.916 72.301c-0.0676 1.0009-0.2443 1.9915-0.527 2.954-0.1167 0.5564-0.404 1.0626-0.822 1.448-0.3785 0.2455-0.8074 0.4028-1.255 0.46-0.4431 0.1531-0.9296-0.0597-1.118-0.489-0.7122-0.8459-1.253-1.8224-1.592-2.875-0.3166-1.5821-0.0726-3.2251 0.69-4.647 0.248-0.5823 0.6098-1.1093 1.064-1.55 0.5615-0.4613 1.2362-0.7641 1.954-0.877 0.734-0.147 1.635-0.462 1.689 0.432 0.0784 1.7151 0.0504 3.4334-0.084 5.145l1e-3 -1e-3z" fill="#65617D"/>
<path d="m93.924 34.906c1.373 0.71 2.9 1.6131 3.183 3.1311 0.0246 0.9409-0.0111 1.8825-0.107 2.8189 0.1635 0.8125 0.2817 1.6334 0.354 2.4591-0.0469 0.3911-0.1136 0.7796-0.2 1.1639-0.0699 0.7392-0.0959 1.4818-0.078 2.224-0.1986 1.6596-0.4992 3.3054-0.9 4.928-0.1914 1.1777-0.2361 2.3744-0.133 3.563 0.066 0.768 0.2 1.532 0.2 2.3 1e-4 0.5562-0.0457 1.1114-0.137 1.66-0.2668 1.7229-0.8041 3.3928-1.592 4.948-0.957 1.884-0.822 4.3151-0.72 6.4261 0.0443 0.2907 0.0073 0.588-0.107 0.8589-0.251 0.456-0.875 0.521-1.393 0.4771-1.9184-0.1753-3.6975-1.0763-4.974-2.5191-0.1861-0.1812-0.3124-0.415-0.362-0.67-0.044-0.426 0.3-0.7759 0.545-1.128 0.84-1.194 0.627-2.811 0.726-4.277 0.0725-1.0668 0.3276-2.1133 0.754-3.0939 0.2952-0.5448 0.5014-1.1332 0.611-1.743 0.0123-0.5786-0.0897-1.1539-0.3-1.6931l-0.6-1.894c-0.8435-2.9688-1.9329-5.8621-3.257-8.65-0.9188 0.5979-1.5764 1.5221-1.84 2.586-0.521 1.874 0.221 3.9671-0.489 5.77-0.1175 0.25-0.2151 0.5088-0.292 0.774-0.0419 0.2289-0.058 0.4616-0.048 0.694 0.0185 1.9382 0.1366 3.8741 0.354 5.8 0.0107 0.2921 0.0928 0.577 0.239 0.83 0.117 0.1691 0.288 0.294 0.414 0.456 0.2834 0.5005 0.3554 1.0933 0.2 1.6471l-0.4 2.6619c-7e-3 0.135-0.0517 0.2653-0.129 0.3761-0.0938 0.0908-0.2107 0.1541-0.338 0.183-1.2641 0.3924-2.5967 0.5144-3.911 0.358-0.3904-0.0907-0.7546-0.2704-1.064-0.525-0.034-0.4001 0.462-0.663 0.479-1.058-0.018-0.2341-0.1255-0.4522-0.3-0.609-0.74-0.836-1.623-1.7231-1.615-2.839 0-0.292 0.07-0.5851 0.06-0.8771-0.167-0.7283-0.4096-1.4371-0.724-2.115-0.1049-0.9151-0.0416-1.8416 0.187-2.734 0.0961-1.2367 0.0289-2.4808-0.2-3.7l-0.666-4.5c-0.0776-0.699-0.2161-1.39-0.414-2.065-0.2508-0.6646-0.5451-1.312-0.881-1.938-0.637-1.293-1.16-2.638-1.681-3.979-0.1656-0.3643-0.2696-0.7536-0.308-1.152 0.0171-0.6897 0.2876-1.349 0.76-1.852 0.8197-0.976 1.9385-1.6544 3.183-1.93 0.2081-0.0581 0.4268-0.067 0.639-0.0259 0.1799 0.0588 0.3488 0.147 0.5 0.2609 3.1178 2.0394 7.0108 2.5009 10.519 1.247 0.2543 0.1236 0.5528 0.1154 0.8-0.0219 0.6132-0.3378 1.1899-0.7379 1.721-1.194 1.1068-0.8547 2.3769-1.4737 3.732-1.8191z" fill="#3F3D56"/>
<path d="m52.688 86.003c0.1054 0.3049 0.2642 0.5886 0.469 0.838 0.8439 0.8323 1.5791 1.768 2.188 2.785 0.1 0.235 0.169 0.481 0.259 0.72 0.2723 0.7205 0.7161 1.3637 1.293 1.874 0.4403 0.3653 0.9188 0.6822 1.427 0.945 0.8494 0.5376 1.8247 0.8434 2.829 0.887 0.2019-0.0043 0.4029-0.0284 0.6-0.072 0.3108-0.0644 0.6103-0.1743 0.889-0.326 0.6855-0.3141 1.1086-1.0162 1.066-1.769-0.0254-0.1384-0.0688-0.2729-0.129-0.4-0.1055-0.2013-0.2272-0.3936-0.364-0.575-0.3048-0.4878-0.7039-0.9097-1.174-1.241-0.6023-0.2364-1.1862-0.5172-1.747-0.84-0.1951-0.1779-0.3635-0.3831-0.5-0.609-0.4509-0.6929-0.7869-1.454-0.995-2.254-0.0754-0.6141-0.3129-1.197-0.688-1.689-0.6578-0.4338-1.4242-0.6743-2.212-0.694-0.281 0.0581-0.5721 0.0437-0.846-0.042-0.267-0.133-0.356-0.322-0.678-0.3-0.2567 0.033-0.4991 0.1369-0.7 0.3-0.805 0.5388-1.1968 1.5163-0.987 2.462z" fill="#3F3D56"/>
<path d="m59.756 86.904c0.0692 0.6889 0.3687 1.3343 0.85 1.832 0.332 0.286 0.8 0.466 0.961 0.869 0.1103 0.4539-0.0102 0.9331-0.322 1.281-0.3504 0.4679-0.7848 0.8667-1.281 1.176-0.4064 0.2949-0.9124 0.4185-1.409 0.344-0.3876-0.1278-0.7353-0.3542-1.009-0.657-0.7221-0.5864-1.32-1.3109-1.759-2.131-0.4-0.891-0.418-1.924-0.852-2.8-0.3128-0.4768-0.5806-0.9817-0.8-1.508-0.0687-0.1986-0.0687-0.4145 0-0.613 0.1513-0.2898 0.4532-0.4694 0.78-0.464 0.3204 0.011 0.6363 0.0787 0.933 0.2 0.8981 0.3202 1.8173 0.5775 2.751 0.77 0.372 0.07 0.6 0.068 0.8 0.428 0.1841 0.4033 0.3046 0.8327 0.357 1.273z" fill="#FBBEBE"/>
<path d="m62.064 92.606c-0.1473 0.2256-0.2517 0.4765-0.308 0.74-0.047 0.2051-0.0544 0.4172-0.022 0.625 0.3108-0.0644 0.6103-0.1742 0.889-0.326 0.6856-0.3141 1.1086-1.0161 1.066-1.769-0.0254-0.1384-0.0687-0.2728-0.129-0.4-0.1931-0.0432-0.3947 0.0196-0.529 0.165-0.3706 0.2693-0.6969 0.5949-0.967 0.965z" fill="#FBBEBE"/>
<path d="m54.933 77.489c-0.0873 0.1872-0.1132 0.3972-0.074 0.6 0.091 0.4 0.5 0.627 0.867 0.808l3.5 1.711c0.2427 0.1124 0.4791 0.2379 0.708 0.376 0.5691 0.3978 1.0971 0.8514 1.576 1.354 0.4829 0.5033 1.0853 0.8762 1.751 1.084 0.6735 0.1475 1.3774 0.0552 1.99-0.261 0.3301-0.1645 0.6365-0.3727 0.911-0.619 0.2379-0.2083 0.4577-0.4365 0.657-0.682 0.1712-0.1807 0.2937-0.402 0.356-0.643 0.0304-0.3706-0.0867-0.7382-0.326-1.023-0.1221-0.1731-0.2557-0.3378-0.4-0.493-1.4692-1.4022-3.3547-2.2885-5.372-2.525-0.7367-0.1547-1.461-0.3636-2.167-0.625-0.7083-0.2612-1.4661-0.3609-2.218-0.292-0.7601 0.0768-1.426 0.5424-1.759 1.23z" fill="#3F3D56"/>
<path d="m54.933 77.489c-0.0873 0.1872-0.1132 0.3972-0.074 0.6 0.091 0.4 0.5 0.627 0.867 0.808l3.5 1.711c0.2427 0.1124 0.4791 0.2379 0.708 0.376 0.5691 0.3978 1.0971 0.8514 1.576 1.354 0.4829 0.5033 1.0853 0.8762 1.751 1.084 0.6735 0.1475 1.3774 0.0552 1.99-0.261 0.3301-0.1645 0.6365-0.3727 0.911-0.619 0.2379-0.2083 0.4577-0.4365 0.657-0.682 0.1712-0.1807 0.2937-0.402 0.356-0.643 0.0304-0.3706-0.0867-0.7382-0.326-1.023-0.1221-0.1731-0.2557-0.3378-0.4-0.493-1.4692-1.4022-3.3547-2.2885-5.372-2.525-0.7367-0.1547-1.461-0.3636-2.167-0.625-0.7083-0.2612-1.4661-0.3609-2.218-0.292-0.7601 0.0768-1.426 0.5424-1.759 1.23z" fill="#000" opacity=".1"/>
<path d="m63.695 78.582c0.2693 0.3023 0.4909 0.6439 0.657 1.013 0.1495 0.2418 0.2026 0.5309 0.149 0.81-0.0782 0.1877-0.2036 0.352-0.364 0.477l-0.348 0.322c-0.1051 0.1095-0.2273 0.201-0.362 0.271-0.1914 0.072-0.3958 0.1027-0.6 0.09-0.4687 0.052-0.9418-0.0464-1.351-0.281-0.4945-0.4354-0.647-1.1425-0.376-1.743 0.2802-0.5795 0.7044-1.0774 1.232-1.446 0.404-0.329 1.075 0.186 1.363 0.487z" fill="#FBBEBE"/>
<path d="m65.816 80.639c-0.0644 0.3302-0.0331 0.6719 0.09 0.985 0.088 0.3 0.173 0.6 0.259 0.9v0.012c0.2378-0.2084 0.4576-0.4365 0.657-0.682 0.1711-0.1808 0.2936-0.402 0.356-0.643 0.0304-0.3706-0.0868-0.7383-0.326-1.023-0.1222-0.1731-0.2558-0.3378-0.4-0.493-0.094 0.121-0.175 0.241-0.243 0.318-0.1739 0.1785-0.3079 0.3918-0.393 0.626z" fill="#FBBEBE"/>
<path d="m56.674 65.811c-0.3213 1.7542-0.3274 3.5516-0.018 5.308 0.2683 1.3325 0.2533 2.7066-0.044 4.033-0.2108 0.4618-0.3101 0.9667-0.29 1.474 0.169 0.941 1.3 1.3 2.242 1.48 0.271 0.069 0.5527 0.086 0.83 0.05 0.2783-0.0764 0.5364-0.2129 0.756-0.4 1.335-0.9704 2.3488-2.3183 2.911-3.87 0.3166-1.0526 0.5108-2.138 0.579-3.235 0.2589-1.8307 0.2925-3.6862 0.1-5.525-0.08-0.537-0.2-1.068-0.249-1.609-0.0627-0.9412-0.0106-1.8864 0.155-2.815 0.3427-2.3004 0.8615-4.5711 1.552-6.792-1.8945 0.2514-3.8202-0.0965-5.507-0.995 0.326 0.175-0.048 2.966-0.088 3.358-0.1208 1.1685-0.3318 2.326-0.631 3.462-0.56 2.125-1.795 3.967-2.298 6.076z" fill="#3F3D56"/>
<path d="m56.674 65.811c-0.3213 1.7542-0.3274 3.5516-0.018 5.308 0.2683 1.3325 0.2533 2.7066-0.044 4.033-0.2108 0.4618-0.3101 0.9667-0.29 1.474 0.169 0.941 1.3 1.3 2.242 1.48 0.271 0.069 0.5527 0.086 0.83 0.05 0.2783-0.0764 0.5364-0.2129 0.756-0.4 1.335-0.9704 2.3488-2.3183 2.911-3.87 0.3166-1.0526 0.5108-2.138 0.579-3.235 0.2589-1.8307 0.2925-3.6862 0.1-5.525-0.08-0.537-0.2-1.068-0.249-1.609-0.0627-0.9412-0.0106-1.8864 0.155-2.815 0.3427-2.3004 0.8615-4.5711 1.552-6.792-1.8945 0.2514-3.8202-0.0965-5.507-0.995 0.326 0.175-0.048 2.966-0.088 3.358-0.1208 1.1685-0.3318 2.326-0.631 3.462-0.56 2.125-1.795 3.967-2.298 6.076z" fill="#000" opacity=".1"/>
<path d="m67.007 55.668c0.6623 2.3577 0.7572 4.8386 0.277 7.24-0.4781 2.3915-0.7126 4.8253-0.7 7.264 0.1467 0.9461 0.1243 1.9107-0.066 2.849-0.1549 0.4455-0.3599 0.8719-0.611 1.271l-6.349 10.978c-0.3289 0.579-0.9275 0.9531-1.592 0.9952-0.6826 0.0067-1.3582-0.1381-1.978-0.4242-0.4205-0.1394-0.8112-0.3561-1.152-0.639-0.3429-0.2858-0.524-0.7213-0.485-1.166 0.284-1.906 0.712-3.858 1.029-5.77 0.2152-1.2974 0.6845-2.5395 1.381-3.655 0.491-0.8 1.1-1.51 1.52-2.338 1.218-2.371 0.8-5.264-0.143-7.759s-2.338-4.811-3.084-7.361c-0.2211-0.7096-0.3476-1.4453-0.376-2.188-0.0187-1.5492 0.5796-3.0423 1.663-4.15 0.1563-0.178 0.3537-0.3153 0.575-0.4 0.2585-0.06 0.5278-0.0551 0.784 0.014 3.53 0.689 8.136 1.833 9.307 5.239z" fill="#3F3D56"/>
<path d="m124.07 21.244c0.068 0.8843-0.159 1.7662-0.647 2.507-1.836 2.8705-5.453 4.0292-8.615 2.759-1.217-0.6054-2.338-1.3879-3.326-2.322-0.37-0.2714-0.671-0.6251-0.881-1.033-0.246-0.7919 0.02-1.6537 0.67-2.169 0.643-0.4952 1.385-0.8474 2.175-1.033 2.581-0.802 10.01-3.337 10.624 1.291z" fill="#FBBEBE"/>
<path d="m122.56 18.479c2.655 1.9421 5.477 3.6457 8.432 5.091 0.97 0.3567 1.769 1.0678 2.236 1.99 0.137 0.5351 0.157 1.0933 0.06 1.637-0.061 1.0618-0.275 2.1093-0.635 3.11-0.572 1.1044-1.244 2.1544-2.007 3.137-1.194 1.826-1.894 3.979-3.368 5.593 1.128 3.2605 1.944 6.6205 2.437 10.035 0.02 0.0945 9e-3 0.1928-0.03 0.281-0.041 0.0578-0.093 0.1059-0.155 0.141l-2.475 1.623c-0.27 0.1584-0.511 0.3613-0.714 0.6-0.438 0.569-0.38 1.369-0.651 2.031-0.3 0.6536-0.853 1.1566-1.532 1.393-0.676 0.2331-1.397 0.3094-2.107 0.223-0.904-0.0569-1.774-0.3632-2.515-0.885-0.604-0.5121-1.116-1.1236-1.514-1.808-0.323-0.4502-0.591-0.9369-0.8-1.45-0.228-0.7476-0.319-1.53-0.271-2.31 7e-3 -1.4842 0.149-2.9646 0.424-4.423 0.115-0.579 0.259-1.15 0.35-1.733 0.183-1.174 0.147-2.371 0.283-3.551 0.185-1.3269 0.481-2.6358 0.885-3.913 0.221-0.7911 0.394-1.5949 0.517-2.407 0.272-1.4221 0.66-2.8195 1.16-4.178l0.8-2.35c0.169-0.507 0.34-1.013 0.541-1.508 0.446-0.8921 0.776-1.8374 0.983-2.813 0.141-1.076-1.021-2.354-0.629-3.364 0.032-0.116 0.205-0.264 0.295-0.192z" fill="#3F3D56"/>
<path d="m132.59 25.004c0.528 0.3096 0.908 0.8202 1.052 1.4149 0.444 1.2915 0.551 2.6748 0.31 4.0191-0.078 0.338-0.131 0.6812-0.159 1.0269 4e-3 0.4007 0.043 0.8002 0.117 1.194 0.2 1.522 0 3.0681 0.066 4.6001 0.068 1.727 0.444 3.551-0.281 5.1209-0.555 1.0098-1.34 1.8742-2.292 2.523-3.348 2.6095-7.042 4.7415-10.976 6.335 0.639-0.8749 0.731-2.0349 0.239-3-0.5-0.9414-1.259-1.72-2.188-2.244 1.142-0.2538 2.248-0.6488 3.293-1.176 2.041-1.1447 3.934-2.5357 5.636-4.1419 0.26-0.1872 0.463-0.4436 0.585-0.7401 0.179-0.6-0.314-1.164-0.657-1.687-1.036-1.592-0.8-3.671-0.362-5.513 0.407-2.0438 1.256-3.9737 2.489-5.654 0.772-1.0325 1.877-1.7666 3.128-2.0779z" fill="#3F3D56"/>
<path d="m120.25 51.293c-0.179 0.2914-0.411 0.5465-0.684 0.752-0.658 0.3285-1.436 0.315-2.083-0.036-0.619-0.2626-1.191-0.6262-1.691-1.076-0.215-0.2286-0.469-0.4172-0.75-0.557-0.521-0.2-1.249-0.05-1.542-0.529-0.034-0.0503-0.051-0.1103-0.048-0.171 0.018-0.173 0.245-0.221 0.42-0.231 0.812-0.0539 1.599-0.2971 2.3-0.71-0.224-0.1628-0.416-0.3664-0.565-0.6-0.064-0.0807-0.099-0.1802-0.1-0.283 0.024-0.1111 0.085-0.2109 0.173-0.283 1.308-1.2343 3.232-1.5552 4.87-0.812 0.157 0.0633 0.295 0.1668 0.4 0.3 0.074 0.1227 0.123 0.2585 0.145 0.4 0.129 0.557 0.6 1.393 0.428 1.956-0.332 0.6846-0.76 1.3178-1.273 1.88z" fill="#FBBEBE"/>
<path d="m106.69 48.781c2.475-2.859 3.581-6.621 4.608-10.26l0.734-2.586 1.771-6.229c0.261-0.919 0.521-1.838 0.694-2.775 0.259-1.6245 0.362-3.27 0.306-4.914-0.025-0.6814-0.181-1.3516-0.46-1.974-0.173-0.43-0.257-0.887-0.4-1.331-0.18-0.6188-0.45-1.2079-0.8-1.749-0.097-0.161-0.218-0.306-0.36-0.43-0.245-0.1664-0.522-0.2789-0.814-0.33-0.632-0.1893-1.288-0.2903-1.948-0.3001-0.668-0.0039-1.308 0.2691-1.767 0.7541-0.279 0.4169-0.523 0.856-0.73 1.313-0.119 0.1767-0.227 0.3607-0.324 0.551-0.109 0.288-0.169 0.5921-0.179 0.9-0.103 1.2533-0.192 2.508-0.265 3.764-0.034 0.571-0.064 1.146-0.042 1.719 0.018 0.446 0.066 0.889 0.113 1.333l0.472 4.345c0.109 1.021 0.032 1.976 0.123 3 0.099 2.4831-0.189 4.9664-0.854 7.361-0.21 1.1641-0.575 2.2948-1.086 3.362-0.491 0.923-1.228 1.86-1.033 2.889 0.112 0.346 0.204 0.6979 0.277 1.054-0.013 0.2241 9e-3 0.4489 0.066 0.666 0.167 0.3031 0.51 0.4645 0.85 0.4 0.396-0.067 0.761-0.2529 1.048-0.533z" fill="#3F3D56"/>
<path d="m106.99 37.34c0.076 0.571 0.018 1.15 0.046 1.725 0.063 0.7404 0.197 1.4731 0.4 2.188 0.103 0.8302 0.516 1.5907 1.156 2.129 0.175 0.0916 0.342 0.1973 0.5 0.316 0.16 0.1265 0.225 0.3387 0.163 0.533l-0.547-0.092c0.163 0.1315 0.238 0.3434 0.194 0.548s-0.199 0.3672-0.402 0.4204c-0.202 0.0532-0.417-0.0119-0.556-0.1684 0.021 0.1792 4e-3 0.3607-0.05 0.533-0.056 0.1745-0.217 0.2946-0.4 0.3-0.103-0.016-0.2-0.0568-0.284-0.119l-1.428-0.885c-0.428-0.2304-0.784-0.5748-1.029-0.995l-0.625-0.941c-0.138-0.1824-0.247-0.3847-0.324-0.6-0.233-0.8 0.418-1.679 0.08-2.429-0.102-0.1847-0.221-0.3592-0.356-0.521-0.604-1.0899-0.815-2.3538-0.6-3.581 0.026-0.416 0.1-0.909 0.477-1.09 0.319-0.1088 0.671-0.0465 0.933 0.165 0.256 0.2098 0.537 0.3869 0.836 0.527 0.2 0.068 0.418 0.076 0.617 0.147 0.279 0.1 0.537 0.477 0.724 0.7 0.267 0.3445 0.431 0.7567 0.475 1.19z" fill="#FBBEBE"/>
<path d="m89.555 19.46c-0.1689 0.3877-0.406 0.742-0.7 1.046-0.2994 0.3089-0.7277 0.4574-1.154 0.4-0.4321-0.1412-0.8045-0.4228-1.058-0.8-0.8029-0.8653-1.4922-1.8294-2.051-2.869-0.6772-1.6695-1.0246-3.4544-1.023-5.256-0.1335-0.5223-0.0348-1.0768 0.2706-1.521 0.3055-0.4442 0.7879-0.73475 1.3234-0.79703l3.034-1.134c0.1869-0.08846 0.3939-0.12606 0.6-0.109 0.476 0.08 0.651 0.653 0.78 1.116 0.2314 0.83303 0.6159 1.6157 1.134 2.308 0.68 0.907 2.206 2.129 1.335 3.261-0.9741 1.3645-1.8087 2.8235-2.491 4.355z" fill="#BE6F72"/>
<path d="m93.437 14.283c1.2574 1.3526 1.8815 3.1755 1.717 5.015-0.174 1.8139-0.4602 3.6154-0.857 5.394-0.3956 1.7939-0.2437 3.6653 0.436 5.372 0.3129 0.5439 0.5876 1.1089 0.822 1.691 0.1568 0.5917 0.2099 1.2061 0.157 1.816-0.0032 0.643-0.126 1.2798-0.362 1.878-0.5067 0.9025-1.2407 1.6567-2.129 2.188-1.6363 1.3188-3.4696 2.3724-5.433 3.122-1.3662 0.3976-2.7777 0.6184-4.2 0.657-0.9592 0.0763-1.9238 0.0488-2.877-0.082-1.6675-0.278-3.1998-1.0892-4.367-2.312-0.205-0.1966-0.3742-0.4274-0.5-0.682-0.1216-0.3313-0.1802-0.6823-0.173-1.035-0.048-1.3067-0.04-2.613 0.024-3.919 0.0364-1.2452 0.2077-2.4828 0.511-3.691 0.38-1.393 1.039-2.7 1.538-4.055 1.739-4.717 1.564-10.085 3.979-14.49 0.521-0.951 1.393-1.952 2.467-1.8 0.2067 0.01259 0.4011 0.10214 0.545 0.251 0.1239 0.18103 0.1933 0.39376 0.2 0.61305 0.1609 2.1707 0.7128 4.2945 1.629 6.269 0.4 0.758 0.995 1.912 1.912 2.115s1.458-0.672 1.95-1.293c0.8635-1.1383 1.8766-2.1548 3.012-3.022h-1e-3z" fill="#E3E8F4"/>
<path d="m99.797 11.062c0.2709 0.1464 0.5239 0.324 0.7539 0.529 0.566 0.6081 0.859 1.4207 0.812 2.25-0.05 0.8192-0.158 1.6339-0.323 2.438-0.197 2.212-0.17 4.4383 0.08 6.645 0.039 0.3577 0.017 0.7194-0.064 1.07-0.1 0.334-0.3 0.629-0.428 0.953-0.38 0.959-0.093 2.053-0.316 3.06-0.239 1.072-1.0559 2.047-0.8999 3.135 0.062 0.426 0.267 0.818 0.354 1.239 0.1274 0.4217-0.0115 0.8786-0.352 1.158-0.364 0.227-0.893 0.062-1.327 0.187-0.1761 0.0651-0.3475 0.1423-0.513 0.231-0.6947 0.274-1.4751 0.226-2.131-0.131-0.6474-0.3534-1.2295-0.8151-1.721-1.365-0.8045-0.7338-1.4287-1.6434-1.824-2.658-0.3481-1.5473-0.1817-3.1659 0.474-4.61 0.6553-1.4344 1.0164-2.9857 1.062-4.562-0.1094-0.8767-0.2764-1.7453-0.5-2.6-0.207-1.2019-0.2811-2.4229-0.221-3.641-0.0259-0.8951 0.1341-1.7859 0.47-2.616 0.5557-1.0927 1.6292-1.8275 2.849-1.95 1.3557-0.00451 2.6765 0.42975 3.765 1.238z" fill="#3F3D56"/>
<path d="m96.035 30.292c0.014 0.6365 0.1281 1.2669 0.338 1.868 0.3033-0.8351 0.4543-1.7177 0.446-2.606 0.2699-2.9934 0.8026-5.9571 1.592-8.857-0.4989 0.576-0.8637 1.2557-1.068 1.99-0.9949 2.4065-1.4418 5.0043-1.308 7.605z" fill="#000" opacity=".1"/>
<path d="m82.624 9.0962c-0.9302 0.34207-1.8385 0.74082-2.72 1.194-0.983 0.3476-1.9913 0.6191-3.0159 0.812-2.3952 0.4376-4.5593 1.7055-6.112 3.581-0.8994 1.5323-1.6329 3.1561-2.188 4.844-0.686 1.3218-1.2976 2.6809-1.8321 4.071-0.4809 1.8883-0.6057 3.8498-0.368 5.784 0.0259 1.5896 0.3703 3.1578 1.0131 4.612 0.378 0.7399 0.9 1.4 1.277 2.143 0.454 0.889 0.692 1.87 1.07 2.785 0.325 0.9518 0.9631 1.7653 1.8099 2.3079l1.452-0.8499c2.167-1.267 4.3331-2.5371 6.4321-3.9131 1.923-1.0711 3.5278-2.6328 4.6509-4.5259 0.7834-1.7848 1.0355-3.7576 0.726-5.682-0.223-1.924-0.7319-3.806-0.9949-5.724-0.3347-2.414-0.2844-4.8658 0.1489-7.264 0.2-1.082 0.728-2.2 0.838-3.279 0.122-1.153-1.358-1.115-2.187-0.896z" fill="#3F3D56"/>
<path d="m73.645 40.723c1.112 1.052 2.712 1.359 4.1 1.99 1.0335 0.4798 1.964 1.1557 2.74 1.99 0.4982 0.4158 0.7371 1.0655 0.627 1.705-0.2554 0.4874-0.7095 0.8402-1.245 0.967-0.6101 0.3046-1.3096 0.3788-1.97 0.209-0.3532-0.1797-0.6908-0.3888-1.009-0.625-0.834-0.5-1.884-0.5-2.74-0.955-1.206-0.645-1.806-2.063-2.941-2.829-0.621-0.418-1.478-0.76-1.5421-1.506-0.0029-0.2698 0.0542-0.5369 0.1671-0.782 0.229-0.609 0.619-2.7 1.49-2.644 0.952 0.061 1.616 1.977 2.323 2.48z" fill="#FBBEBE"/>
<path d="m67.817 31.398c0.4395 1.2909 1.1512 2.4722 2.087 3.464 0.721 0.6694 1.1949 1.5627 1.345 2.535-0.0362 0.9413-0.5655 1.794-1.393 2.244-0.8189 0.4325-1.7281 0.6661-2.654 0.682-0.7368 0.071-1.4802 0.0193-2.2-0.153-1.818-0.493-3.08-2.079-4.51-3.3-0.9068-0.6543-1.7311-1.4158-2.455-2.268-0.727-0.887-0.8395-2.1276-0.284-3.131 0.2322-0.299 0.5009-0.5678 0.8-0.8 1.0867-0.942 2.0134-2.0542 2.744-3.293 0.2421-0.528 0.6102-0.9885 1.072-1.341 0.7731-0.3295 1.6455-0.3381 2.425-0.024 0.873 0.229 3.334 0.676 3.506 1.791 0.07 0.458-0.5 1.17-0.583 1.661-0.1106 0.6438-0.0764 1.3041 0.1 1.933z" fill="#FBBEBE"/>
<path d="m72.318 33.893c0.2608 0.4723 0.4754 0.9686 0.641 1.482 0.607 2.109-0.477 4.281-0.995 6.414-0.661 2.732-0.38 5.589-0.412 8.4 0.1278 1.292-0.2588 2.5822-1.076 3.591-0.2619 0.1983-0.493 0.4342-0.686 0.7-0.0997 0.2101-0.1739 0.4313-0.221 0.659-0.2862 0.9958-1.0116 1.8064-1.9697 2.2008-0.9581 0.3945-2.0439 0.3298-2.9483-0.1758-0.754-0.42-1.409-1.148-2.272-1.17-0.2716 0.0133-0.5421 0.0433-0.81 0.09-0.8667 0.0164-1.7253-0.1702-2.507-0.545-0.1923-0.0609-0.3716-0.1568-0.529-0.283-0.145-0.133-0.239-0.312-0.372-0.456-0.491-0.529-1.331-0.438-2.039-0.585-1.079-0.2413-1.9216-1.084-2.163-2.163-0.0978-0.6944-0.0639-1.4011 0.1-2.083l0.533-3.076c0.2239-1.1282 0.3789-2.2689 0.464-3.416 0.0655-1.2963-0.0455-2.5955-0.33-3.862-0.2903-1.0204-0.5279-2.0551-0.712-3.1-0.2218-1.8898 0.2755-3.7939 1.393-5.334 0.2369-0.4138 0.6407-0.7054 1.108-0.8 0.3844 0.0085 0.7568 0.1356 1.066 0.364 2.8667 1.698 5.7554 3.3607 8.666 4.988 0.7796 0.4828 1.6204 0.8588 2.5 1.118 0.267 0.068 0.649 0.04 0.686-0.231 0.0048-0.103-0.0225-0.205-0.078-0.292-0.5-0.957-1.218-1.779-1.791-2.69-0.6366-0.8825-0.9366-1.9636-0.846-3.048 0.231-1.464 1.592-2.433 2.7-1.285 1.1831 1.3814 2.1599 2.9267 2.9 4.588z" fill="#F86D70"/>
<path d="m63.407 52.462c2.3436 0.0207 4.6678 0.4261 6.88 1.2 0.6529 0.3807 1.4084 0.5481 2.161 0.479 0.3635-0.1105 0.7016-0.2916 0.995-0.533 0.8997-0.6597 1.7496-1.3846 2.543-2.169-0.08-0.436-0.67-0.5-1.112-0.491-1.0784 0.0071-2.1423-0.2482-3.1-0.744-0.3144-0.1892-0.6479-0.3448-0.995-0.464-0.945-0.261-1.908 0.237-2.857 0.479-1.4297 0.2637-2.8974 0.2427-4.319-0.062l-3.872-0.571c-0.3539-0.0984-0.7324-0.052-1.052 0.129-0.1914 0.1808-0.3227 0.4161-0.376 0.674-0.474 1.592-0.247 1.725 1.329 1.824l3.775 0.249z" fill="#FBBEBE"/>
<path d="m116.27 24.838c3.516 0 6.366-2.8502 6.366-6.366s-2.85-6.366-6.366-6.366-6.366 2.8502-6.366 6.366 2.85 6.366 6.366 6.366z" fill="#000" opacity=".1"/>
<path d="m116.23 24.562c3.516 0 6.366-2.8501 6.366-6.366 0-3.5158-2.85-6.366-6.366-6.366s-6.366 2.8502-6.366 6.366c0 3.5159 2.85 6.366 6.366 6.366z" fill="#FBBEBE"/>
<path d="m121.6 10.113c0.537 0.27 0.993 0.678 1.321 1.182 0.15 0.3593 0.264 0.7324 0.34 1.114 0.348 1.194 1.275 2.23 1.331 3.474-0.079 1.3855-0.885 2.6259-2.119 3.261-0.264 0.1946-0.583 0.3016-0.911 0.306-0.331-0.0679-0.647-0.1924-0.935-0.368-1.307-0.581-2.769 0.155-4.154 0.493-1.439 0.3474-2.949 0.2586-4.337-0.255-0.764-0.2482-1.437-0.7152-1.938-1.343-0.503-0.6413-0.595-1.5138-0.237-2.246 0.2-0.354 0.529-0.674 0.507-1.078-0.051-0.2374-0.118-0.4713-0.2-0.7-0.02-0.387 0.1-0.7683 0.338-1.074 0.921-1.4815 2.084-2.7976 3.442-3.893 0.377-0.36368 0.86-0.59769 1.379-0.668 1.047-0.046 1.946 0.734 3.022 0.738 1.133 0.02864 2.23 0.39689 3.151 1.057z" fill="#3F3D56"/>
<path d="m92.79 16.85c3.6257 0 6.565-2.9392 6.565-6.565 0-3.6257-2.9393-6.565-6.565-6.565-3.6258 0-6.565 2.9393-6.565 6.565 0 3.6258 2.9392 6.565 6.565 6.565z" fill="#000" opacity=".1"/>
<path d="m92.905 16.689c3.6257 0 6.565-2.9392 6.565-6.565 0-3.6257-2.9393-6.565-6.565-6.565-3.6258 0-6.565 2.9392-6.565 6.565 0 3.6258 2.9392 6.565 6.565 6.565z" fill="#BE6F72"/>
<path d="m96.412 13.833c0.9725 0.4539 2.0776 0.5353 3.106 0.229 0.587-0.1102 1.143-0.3448 1.631-0.688 0.492-0.3511 0.795-0.9085 0.822-1.512 0-0.666-0.438-1.267-0.491-1.934-0.066-0.84 0.481-1.615 0.539-2.459-0.022-0.8339-0.288-1.6431-0.764-2.328-0.634-1.2798-1.4743-2.4467-2.487-3.454-1.0372-1.0143-2.4957-1.4737-3.927-1.237-0.6594 0.24104-1.333 0.44142-2.017 0.6-0.6231-0.00157-1.2442-0.071658-1.852-0.209-0.616-0.13373-1.2596 0.012787-1.757 0.4-0.243 0.239-0.4 0.575-0.682 0.75-0.1939 0.0892-0.3945 0.16309-0.6 0.221-0.6716 0.39795-1.1437 1.0612-1.3 1.826l-1.707 4.892c0.6047 0.34239 1.2345 0.63825 1.884 0.885 0.6578 0.25626 1.1597 0.80286 1.359 1.48 0.1 0.519-0.088 1.116 0.215 1.55 0.3325 0.3647 0.8379 0.5182 1.317 0.4 0.4678-0.1224 0.9508-0.176 1.434-0.159 1.194 0.181 1.637 0.913 2.742 0s1.509 0.17 2.535 0.747z" fill="#3F3D56"/>
<path d="m65.005 30.9c3.2966 0 5.969-2.6725 5.969-5.969 0-3.2966-2.6724-5.969-5.969-5.969s-5.969 2.6724-5.969 5.969c0 3.2965 2.6724 5.969 5.969 5.969z" fill="#000" opacity=".1"/>
<path d="m65.236 30.576c3.2966 0 5.969-2.6724 5.969-5.969s-2.6724-5.969-5.969-5.969-5.969 2.6724-5.969 5.969 2.6724 5.969 5.969 5.969z" fill="#FBBEBE"/>
<path d="m69.805 18.771c-1.4209-1.0902-3.0175-1.9299-4.721-2.483-1.0747-0.4269-2.2529-0.5214-3.382-0.271-1.5 0.428-3.507 1.066-4.437 2.322-0.4931 0.5922-0.8795 1.2655-1.142 1.99-0.442 1.484 0.187 3.066 0.145 4.614-0.186 1.807-0.8992 3.5193-2.051 4.924-1.044 1.472-1.255 3.581-1.872 5.28-0.211 0.583-0.279 1.393 0.265 1.685 0.477 0.265 1.054-0.066 1.5-0.384l2.656-1.92c0.3113-0.292 0.7306-0.4403 1.1562-0.4089 0.4257 0.0313 0.8187 0.2395 1.0838 0.5739l5.565 3.939c0.2229-0.4549 0.2324-0.9853 0.026-1.448 0.4961 0.2343 0.9553 0.5399 1.363 0.907 0.4327 0.3675 1.0704 0.3581 1.492-0.022 0.2642-0.4632 0.1395-1.0509-0.29-1.367-0.372-0.35-0.861-0.559-1.226-0.919-0.722-0.718-0.8-1.852-1.251-2.759-0.4054-0.589-0.7677-1.2066-1.084-1.848-0.2265-1.1582-0.0125-2.3592 0.6-3.368 0.4418-1.3277 1.3008-2.4772 2.449-3.277 0.412-0.223 0.867-0.354 1.289-0.557 1.2065-0.6183 2.2059-1.5759 2.875-2.755 0.448-0.946-0.243-1.859-1.009-2.448z" fill="#3F3D56"/>
<path d="m60.771 38.495c0.571 0.364 1.216 0.6 1.777 0.977 0.5947 0.3444 0.9909 0.9502 1.068 1.633-0.0626 0.6499-0.3448 1.259-0.8 1.727l-4.846 6.36 2.471 0.655c-0.3333 0.5904-0.5716 1.2296-0.706 1.894-0.1429 0.6745-0.6152 1.2321-1.257 1.484-0.6 0.153-1.222-0.161-1.838-0.125-0.456 0.028-0.885 0.243-1.341 0.261-0.5909-0.0309-1.1574-0.2452-1.621-0.613-1.09-0.73-2.173-1.777-2.165-3.09 0.0261-0.4437 0.1153-0.8814 0.265-1.3 0.5777-2.3736 1.5714-4.6261 2.935-6.653 0.8255-1.0085 1.7435-1.9375 2.742-2.775 0.2213-0.2226 0.4816-0.4026 0.768-0.531 0.6728-0.1303 1.3695-0.0438 1.99 0.247 0.659 0.191 1.488 0.219 1.868-0.344" fill="#000" opacity=".1"/>
<path d="m60.562 38.103c0.571 0.362 1.216 0.6 1.777 0.977 0.5941 0.3444 0.9907 0.949 1.07 1.631-0.0563 0.6521-0.3394 1.2639-0.8 1.729l-4.848 6.355 2.471 0.655c-0.3336 0.5902-0.5719 1.2294-0.706 1.894-0.1424 0.6748-0.6148 1.2325-1.257 1.484-0.6 0.153-1.222-0.161-1.838-0.125-0.456 0.026-0.885 0.243-1.341 0.259-0.5908-0.031-1.1574-0.2452-1.621-0.613-1.09-0.728-2.173-1.777-2.163-3.088 0.0241-0.4438 0.1127-0.8817 0.263-1.3 0.5769-2.3739 1.5707-4.6265 2.935-6.653 0.8274-1.0098 1.7452-1.942 2.742-2.785 0.2223-0.2214 0.4824-0.4012 0.768-0.531 0.673-0.1306 1.37-0.0434 1.99 0.249 0.659 0.193 1.488 0.219 1.868-0.344" fill="#F86D70"/>
<g fill="#000" opacity=".1">
<path d="m110.4 16.659c0.501 0.6277 1.174 1.0947 1.938 1.343 1.388 0.5156 2.898 0.6044 4.337 0.255 1.393-0.338 2.847-1.074 4.154-0.493 0.287 0.1761 0.603 0.3013 0.933 0.37 0.329-0.0059 0.648-0.1135 0.913-0.308 0.83-0.4818 1.493-1.2058 1.9-2.075-2e-3 0.0446 2e-3 0.0894 0.012 0.133-0.079 1.3855-0.885 2.6258-2.119 3.261-0.264 0.1946-0.583 0.3016-0.911 0.306-0.33-0.068-0.647-0.1925-0.935-0.368-1.307-0.581-2.769 0.155-4.154 0.493-1.439 0.3473-2.949 0.2585-4.337-0.255-0.764-0.2483-1.437-0.7153-1.938-1.343-0.503-0.6414-0.595-1.5138-0.237-2.246l0.03-0.05c0.064 0.3521 0.206 0.6857 0.414 0.977z"/>
<path d="m110.67 13.334c-0.022 0.3051-0.144 0.5945-0.346 0.824-0.025-0.065-0.044-0.1319-0.058-0.2-0.024-0.3633 0.083-0.723 0.3-1.015 0.054 0.1242 0.09 0.2561 0.104 0.391z"/>
</g>
<path d="m87.1 3.3843-1.7069 4.89c0.6042 0.34319 1.234 0.63907 1.884 0.885 0.6581 0.25572 1.1602 0.80251 1.359 1.48 0.1 0.519-0.088 1.116 0.215 1.552 0.3329 0.3639 0.8378 0.5173 1.317 0.4 0.4679-0.1215 0.9508-0.175 1.434-0.159 1.194 0.181 1.6369 0.913 2.7419 0.01s1.5 0.169 2.531 0.746c0.972 0.4557 2.0778 0.5373 3.106 0.229 0.586-0.1096 1.143-0.3435 1.631-0.686 0.07-0.0568 0.137-0.1172 0.2-0.181-0.152 0.3261-0.381 0.6103-0.668 0.828-0.488 0.3432-1.044 0.5778-1.631 0.688-1.0284 0.3067-2.1336 0.2252-3.1059-0.229-1.027-0.577-1.448-1.629-2.531-0.746s-1.5521 0.171-2.7421 0c-0.4831-0.0169-0.9662 0.0367-1.4339 0.159-0.4792 0.1184-0.9847-0.0351-1.3171-0.4-0.3-0.434-0.117-1.031-0.215-1.55-0.1987-0.6775-0.7008-1.2243-1.359-1.48-0.6495-0.24677-1.2793-0.54262-1.884-0.885l1.715-4.9c0.1594-0.55534 0.4378-1.0693 0.8161-1.506-0.1384 0.27642-0.2573 0.5621-0.3561 0.855z" fill="#000" opacity=".1"/>
<g fill="#000" opacity=".1">
<path d="m65.04 37.399c0.407 0.2496 0.9315 0.1907 1.273-0.143 0.2491-0.4654 0.1266-1.0427-0.29-1.367-0.372-0.352-0.861-0.559-1.225-0.919-0.722-0.716-0.8-1.85-1.251-2.757-0.4051-0.5899-0.7673-1.2082-1.084-1.85-0.2265-1.1575-0.0125-2.358 0.6-3.366 0.4417-1.3277 1.3008-2.4772 2.449-3.277 0.412-0.223 0.867-0.354 1.289-0.557 1.2066-0.619 2.2059-1.5773 2.875-2.757 0.432-0.9-0.177-1.769-0.9-2.36 0.352 0.229 0.7 0.47 1.031 0.726 0.766 0.6 1.456 1.5 0.995 2.443-0.6692 1.1791-1.6685 2.1367-2.875 2.755-0.422 0.2-0.877 0.334-1.289 0.557-1.1482 0.7998-2.0073 1.9493-2.449 3.277-0.6144 1.0081-0.8285 2.2098-0.6 3.368 0.3162 0.6414 0.6785 1.259 1.084 1.848 0.462 0.907 0.529 2.041 1.251 2.759 0.364 0.36 0.853 0.567 1.226 0.919 0.4148 0.3254 0.537 0.9013 0.29 1.367-0.306 0.406-1.035 0.322-1.492 0.022-0.308-0.209-0.589-0.482-0.908-0.688z"/>
<path d="m52.977 35.634 2.656-1.918c0.3105-0.2934 0.7302-0.4427 1.1564-0.4113 0.4261 0.0313 0.8194 0.2405 1.0836 0.5763l5.571 3.939c0.2229-0.4556 0.2324-0.9866 0.026-1.45 0.4825 0.229 0.9294 0.5264 1.327 0.883-0.0648-0.0294-0.1317-0.0541-0.2-0.074 0.2064 0.4627 0.1968 0.9931-0.026 1.448l-5.571-3.939c-0.2651-0.3344-0.6582-0.5426-1.0838-0.574-0.4257-0.0313-0.845 0.117-1.1562 0.409l-2.656 1.92c-0.442 0.318-1.019 0.649-1.5 0.384-0.266-0.1632-0.4246-0.456-0.416-0.768 0.2835-0.0996 0.5497-0.243 0.789-0.425z"/>
</g>
<path d="m119.33 48.628s-11.4 0.913-13.668-0.7l10.429-1.608 3.239 2.308z" fill="#E3E8F4"/>
<path d="m119.33 48.628s-11.4 0.913-13.668-0.7l10.429-1.608 3.239 2.308z" fill="#000" opacity=".1"/>
<path d="m119.33 48.627-3.193-2.021s-9.526 2.738-12.136 1.608l2.656-3.726 9.438 1.84 3.235 2.299z" fill="#E3E8F4"/>
<path d="m105.17 21.825c-0.352 0.4447-0.635 0.9404-0.838 1.47-0.092 0.281-0.137 0.573-0.215 0.857-0.218 0.7086-0.555 1.3753-0.995 1.972-0.981 1.426-2.206 2.8-2.453 4.516-0.084 0.8517-0.023 1.7114 0.179 2.543 0.091 0.5525 0.248 1.0918 0.47 1.606 0.253 0.545 0.629 1.025 0.917 1.552 0.263 0.5177 0.485 1.0553 0.664 1.608 0.307-0.3722 0.58-0.7719 0.814-1.194 0.243-0.4238 0.673-0.7068 1.158-0.762 0.553 0 1.009 0.458 1.556 0.529 0.086 0.0172 0.174 0.0089 0.255-0.024 0.2-0.094 0.215-0.362 0.2-0.577-0.157-1.5-1.017-2.984-0.611-4.441 0.374-1.347 1.711-2.188 2.413-3.4 0.455-0.9114 0.727-1.9031 0.8-2.919 0.21-1.1977 0.299-2.4135 0.265-3.629-0.038-0.611-0.523-4.47-1.411-4.067-0.308 0.139-0.577 0.73-0.77 0.995l-0.8 1.128-1.598 2.237z" fill="#3F3D56"/>
<path d="m81.354 46.724-6.4 5.2111-8.235-1.472 5.545-4.353 9.09 0.6139z" fill="#E3E8F4"/>
<path d="m81.585 46.4-6.3999 5.211-8.235-1.472 5.5449-4.353 9.09 0.614z" fill="#000" opacity=".1"/>
<path d="m81.542 46.123-6.4 5.209-8.237-1.47 5.547-4.355 9.09 0.616z" fill="#E3E8F4"/>
<path d="m81.724 45.515-6.4 5.211-8.235-1.472 5.547-4.353 9.088 0.614z" fill="#000" opacity=".1"/>
<path d="m81.677 45.244-6.4 5.2111-8.235-1.472 5.54-4.354 9.095 0.6149z" fill="#E3E8F4"/>
<path d="m165.87 116.44c0.307-0.149 0.667-0.136 0.963 0.033 0.295 0.169 0.488 0.474 0.515 0.813l0.356 4.618-2.113 0.382-1.114-3.339 1.393-2.507z" fill="#3F3D56"/>
<path d="m91.947 85.487-32.336 16.409c-0.7564 0.386-1.2313 1.165-1.2279 2.014s0.4844 1.624 1.2439 2.003l69.643 34.95c2.516 1.26 5.494 1.185 7.944-0.2l29.333-16.541c0.725-0.413 1.162-1.195 1.134-2.029-0.028-0.835-0.516-1.585-1.267-1.95l-72.48-34.678c-0.6299-0.3013-1.364-0.2932-1.987 0.0221z" fill="#3F3D56"/>
<path d="m59.394 99.042-1.013 0.752-0.0804 3.5998c-0.0118 0.573 0.3032 1.103 0.8124 1.365l70.833 36.348c0.327 0.169 0.718 0.155 1.032-0.036 0.315-0.191 0.506-0.533 0.506-0.901v-5.23l-72.09-35.898z" fill="#3F3D56"/>
<path d="m91.946 81.313-32.336 16.407c-0.757 0.3845-1.233 1.1625-1.2309 2.0116s0.482 1.6241 1.2409 2.0051l69.649 34.95c2.517 1.259 5.494 1.184 7.944-0.2l29.333-16.544c0.725-0.413 1.162-1.195 1.134-2.029-0.028-0.835-0.516-1.585-1.267-1.95l-72.48-34.677c-0.6302-0.3008-1.3643-0.2919-1.987 0.024v2e-3z" fill="#E3E8F4"/>
<path d="m98.639 84.292-35.628 18.091 61.235 30.619 36.742-18.65-62.349-30.06z" fill="#3F3D56"/>
<path d="m146.65 127.43c2.075 0 3.758-0.996 3.758-2.226 0-1.229-1.683-2.226-3.758-2.226s-3.758 0.997-3.758 2.226c0 1.23 1.683 2.226 3.758 2.226z" fill="#3F3D56"/>
<path d="m78.111 91.067c0.5523 0 1-0.4477 1-1 0-0.5522-0.4477-1-1-1s-1 0.4478-1 1c0 0.5523 0.4477 1 1 1z" fill="#3F3D56"/>
<path d="m77.069 93.781c0.5523 0 1-0.4477 1-1 0-0.5522-0.4477-1-1-1s-1 0.4478-1 1c0 0.5523 0.4477 1 1 1z" fill="#3F3D56"/>
<path d="m78.599 92.085 4.176-1.948" stroke="#3F3D56"/>
<path d="m115.59 101.14-11.789 6.806c-1.712 0.989-2.299 3.179-1.31 4.892 0.988 1.712 3.179 2.299 4.891 1.31l11.789-6.806c1.712-0.989 2.299-3.179 1.31-4.891-0.988-1.713-3.179-2.3-4.891-1.311z" fill="currentColor"/>
<path d="m126.14 106.51-11.789 6.806c-1.712 0.989-2.299 3.179-1.31 4.892 0.988 1.712 3.179 2.299 4.891 1.31l11.789-6.806c1.712-0.989 2.299-3.179 1.31-4.891-0.988-1.713-3.179-2.3-4.891-1.311z" fill="currentColor"/>
<path d="m106.04 94.975-11.789 6.8062c-1.7128 0.989-2.2996 3.179-1.3107 4.892 0.9888 1.712 3.1789 2.299 4.8917 1.31l11.789-6.806c1.712-0.989 2.299-3.1787 1.31-4.8915-0.988-1.7127-3.179-2.2996-4.891-1.3107z" fill="currentColor"/>
</svg>
