<?xml version="1.0" encoding="UTF-8"?>
<svg fill="none" viewBox="0 0 226 165" xmlns="http://www.w3.org/2000/svg">
<path d="m103.02 6.9993c-10.526 0-20.736 2.062-30.347 6.1288-4.6194 1.9546-9.075 4.3741-13.243 7.1912-4.1289 2.7906-8.0116 5.9955-11.54 9.5256-3.5286 3.5302-6.7321 7.4146-9.5215 11.545-2.8159 4.1698-5.2343 8.6273-7.1881 13.249-4.065 9.6149-6.1262 19.83-6.1262 30.36 0 10.531 2.0612 20.746 6.1262 30.361 1.9538 4.621 4.3722 9.079 7.1881 13.248 2.7894 4.131 5.9929 8.015 9.5215 11.546 3.5286 3.53 7.4113 6.735 11.54 9.525 4.1679 2.817 8.6235 5.237 13.243 7.191 9.6107 4.067 19.821 6.129 30.347 6.129 10.526 0 20.737-2.062 30.347-6.129 4.62-1.954 9.075-4.374 13.243-7.191 4.129-2.79 8.012-5.995 11.541-9.525 3.528-3.531 6.732-7.415 9.521-11.546 2.816-4.169 5.234-8.627 7.188-13.248 4.065-9.615 6.126-19.83 6.126-30.361 0-10.531-2.061-20.746-6.126-30.36-1.954-4.6214-4.372-9.0789-7.188-13.249-2.789-4.1306-5.993-8.015-9.521-11.545-3.529-3.5301-7.412-6.735-11.541-9.5256-4.168-2.8171-8.623-5.2366-13.243-7.1912-9.61-4.0668-19.821-6.1288-30.347-6.1288zm0-2c44.164 0 79.965 35.817 79.965 80 0 44.183-35.801 80-79.965 80-44.164 0-79.965-35.817-79.965-80 0-44.183 35.802-80 79.965-80z" fill="currentColor"/>
<path d="m51.038 6.9993c14.905 0 26.988 12.088 26.988 27s-12.083 27-26.988 27c-14.905 0-26.988-12.088-26.988-27s12.083-27 26.988-27z" fill="#fff"/>
<path d="m67.684 42.943h-5.472v7.056h-7.584v-7.056h-18.096v-5.232l15.84-21.312h8.16l-14.688 20.208h9.024v-6.288h7.344v6.288h5.472v6.336z" fill="currentColor"/>
<path d="m208.89 131.92c-0.703 0.618-1.422 1.218-2.156 1.8-0.124 0.1-0.251 0.2-0.376 0.3-2.619 2.033-5.369 3.891-8.232 5.562l-0.535 0.312c-0.129 0.078-0.257 0.151-0.392 0.223-2.992 1.727-6.094 3.317-9.234 4.822l-0.033 0.018-0.237 0.112c-2.533 1.214-5.104 2.376-7.711 3.485l-0.063 0.024c-1.176 0.496-2.352 0.978-3.529 1.447-0.48 0.2-0.963 0.378-1.445 0.565-0.908 0.347-1.817 0.688-2.735 1.015l-0.114 0.043-0.2 0.069-0.245 0.09c-2.392 0.855-4.817 1.644-7.274 2.368l-0.043 0.012c-1.713 0.5-3.437 0.962-5.172 1.386l-0.237 0.059c-2.548 0.616-5.138 1.145-7.743 1.568l-0.6 0.1c-1.905 0.3-3.823 0.544-5.755 0.733-10.857 1.049-21.844 0.2-32.635-1.266-21.789-2.956-43.29-8.5-62.901-17.184-3.7637-1.666-7.454-3.45-11.071-5.352-0.029-0.016-0.055-0.031-0.084-0.045-2.1652-1.138-4.301-2.324-6.4074-3.558-0.618-0.357-1.2309-0.721-1.8409-1.088-0.7499-0.452-1.4968-0.909-2.2408-1.372-0.9799-0.611-1.9601-1.238-2.9407-1.88l-0.459-0.306-0.176-0.12c-0.2489-0.167-0.4939-0.333-0.7409-0.5-9.2132-6.273-17.428-13.875-21.309-23.389-4.4846-10.978-1.6149-24.9 9.4932-31.385 3.8186-2.235 8.2562-3.448 12.741-4.45l0.459-0.1c0.7589-0.167 1.5168-0.3269 2.2718-0.4879 2.6447-0.561 5.2995-1.1171 7.9353-1.7391 1.3718-0.323 2.7307-0.663 4.0806-1.029l0.553-0.153c3.257-0.8738 6.4424-1.9958 9.5281-3.356h0.02c0.3333-0.1473 0.66-0.2996 0.9799-0.457 0.208-0.1 0.416-0.1999 0.623-0.2999 3.5271-1.7109 6.7593-3.9725 9.5751-6.7001 0.218-0.22 0.429-0.443 0.635-0.6669 0.1589-0.174 0.3159-0.3511 0.4669-0.5271 1.881-2.0179 3.0935-4.5673 3.4717-7.3 0.0844-0.8788 0.0447-1.7652-0.118-2.633-0.308-1.645-0.6059-3.2539-0.8249-4.8239-0.4829-2.81-0.4761-5.6824 0.02-8.4901 0.6489-3.0512 2.1766-5.8457 4.3946-8.039 0.378-0.392 0.7849-0.784 1.2209-1.176 2.0244-1.7761 4.3151-3.2233 6.7884-4.289l0.9229-0.392c6.8764-2.784 15.139-3.364 22.858-2.98 7.212 0.3713 14.378 1.3683 21.417 2.98 0.559 0.125 1.117 0.257 1.672 0.392 5.988 1.4508 11.88 3.273 17.641 5.456 14.972 5.632 29.103 13.452 42.304 22.081l0.392 0.255c0.552 0.3594 1.1 0.72 1.645 1.082 1.055 0.6993 2.1 1.403 3.137 2.111l0.7 0.476c0.345 0.2354 0.688 0.4714 1.029 0.708l1.051 0.727c0.049 0.0298 0.096 0.0632 0.141 0.1l0.894 0.619c0.518 0.361 1.031 0.723 1.546 1.088l1.106 0.784c0.229 0.165 0.461 0.3271 0.69 0.4941l1.176 0.8589 0.263 0.2c0.055 0.039 0.11 0.078 0.163 0.122l0.033 0.0221c3.188 2.339 6.3 4.7639 9.213 7.3339l0.376 0.333 0.039 0.035c0.318 0.282 0.635 0.568 0.947 0.857 3.771 3.3598 7.129 7.1554 10.005 11.307 12.803 19.015 9.003 45.341-8.809 60.999z" fill="currentColor" opacity=".1"/>
<path d="m217.28 77.176c0.125-0.341-0.812-2.235-0.812-2.329s-0.979-1.147-0.979-1.739-1.28-1.862-1.28-1.862c-0.964-0.4039-1.675-1.2473-1.909-2.266-0.188-1.551-1.992-1.584-2.062-1.586 0 0 0-0.141 0.012-0.357 0.031-0.6139-0.047-1.2284-0.231-1.815-0.223-0.4275-0.604-0.7506-1.063-0.9-0.077-0.5607-0.269-1.0994-0.565-1.582-0.425-0.4463-0.59-1.0811-0.435-1.678 0.085-0.4968-2e-3 -1.0076-0.245-1.449-0.165-0.4035-0.499-0.714-0.914-0.849h-0.033c-0.9-0.218-1.899-0.551-1.899-0.551s-0.1 0.02-0.253 0.041l-0.125-0.041c-0.217 0.0402-0.436 0.0676-0.655 0.082-0.192 0.0066-0.38-0.0551-0.531-0.174-1.044-0.5078-2.164-0.8435-3.315-0.994-0.628-0.1323-1.238-0.3408-1.815-0.621l-1.343-1.025c-0.454-0.4931-0.849-1.0378-1.176-1.623l-0.016-0.022c-0.098-0.222-0.18-0.4506-0.247-0.684-0.014-0.043-0.024-0.086-0.037-0.133 0.273-0.2854 0.523-0.592 0.747-0.917v-0.01c0.061-0.084 0.118-0.176 0.174-0.265 0.083-0.1333 0.161-0.2687 0.235-0.406 0.031-0.061 0.061-0.123 0.092-0.182 0.068-0.0023 0.135-0.0134 0.2-0.033l0.084-0.031c0.078-0.0355 0.15-0.0809 0.216-0.135l0.063-0.057c0.177-0.1661 0.311-0.3717 0.392-0.6 0.022-0.067 0.041-0.135 0.057-0.2 3e-3 -0.0243 9e-3 -0.0481 0.018-0.071 6e-3 -0.022 0.021-0.094 0.029-0.143l0.012-0.078c4e-3 -0.0469 0.011-0.0934 0.023-0.139 4e-3 -0.0265 4e-3 -0.0534 0-0.08 0-0.057 0.016-0.118 0.022-0.176 0.027-0.222 0.051-0.439 0.1-0.655 1e-3 -0.0033 1e-3 -0.0067 0-0.01 0.103-0.4154 0.258-0.816 0.463-1.192 0.2-0.378 0.412-0.751 0.588-1.141 0.051-0.112 0.1-0.225 0.143-0.339s0.086-0.251 0.125-0.378c5e-3 -0.0396 0.014-0.0785 0.027-0.116 0.026-0.0921 0.047-0.1856 0.063-0.28 0.011-0.0408 0.019-0.0822 0.024-0.124 0.023-0.129 0.039-0.259 0.051-0.392 0.063-0.7424-0.046-1.4893-0.321-2.182-0.233-0.588-0.588-1.108-0.821-1.69-0.359-0.884-0.453-1.884-0.892-2.727-0.735-1.4137-2.387-2.0855-3.899-1.586-0.678 0.251-1.268 0.743-1.96 0.964-0.949 0.1941-1.929 0.1733-2.868-0.061-0.954-0.2302-1.962-0.0566-2.784 0.48-0.884 0.719-1.127 2.072-1.96 2.86-0.202 0.1828-0.421 0.3468-0.653 0.49-0.169 0.116-0.339 0.229-0.5 0.361-0.258 0.2053-0.458 0.4759-0.577 0.784-9e-3 0.0219-0.016 0.0443-0.021 0.067-0.01 0.0262-0.017 0.0529-0.022 0.08-3e-3 0.0309-8e-3 0.0616-0.014 0.092-2e-3 0.0216-2e-3 0.0434 0 0.065-3e-3 0.047-3e-3 0.0941 0 0.141v0.024c3e-3 0.053 0.012 0.1055 0.025 0.157v0.043c9e-3 0.0441 0.022 0.0872 0.039 0.129 1e-3 0.0087 1e-3 0.0174 0 0.026 0.016 0.048 0.035 0.0951 0.057 0.141 5e-3 0.025 0.014 0.049 0.027 0.071 0.011 0.0185 0.02 0.0383 0.027 0.059 0.121 0.2289 0.218 0.4699 0.289 0.719 0.039 0.1587 0.029 0.3252-0.028 0.478-0.031 0.0762-0.073 0.1472-0.125 0.21-0.068 0.0855-0.141 0.1666-0.219 0.243-0.623 0.6475-1.104 1.4171-1.413 2.26-0.035 0.1-0.069 0.2-0.1 0.292l0.041 0.012 0.041 0.01c0.076 0.0231 0.154 0.0395 0.233 0.049 0.052 0.0089 0.104 0.0149 0.157 0.018 0.214 0.0113 0.429-0.0058 0.639-0.051 0.033-0.0062 0.067-0.0142 0.1-0.024 0.01-0.0018 0.021-0.0052 0.031-0.01h0.02c0.175-0.0455 0.347-0.105 0.514-0.178 0.039-0.018 0.08-0.033 0.119-0.053v0.729c0.148 2.5093 1.564 4.7705 3.756 6 0.112 0.065 0.221 0.125 0.335 0.182 0.01 0.067 0.02 0.135 0.027 0.2s0.016 0.112 0.022 0.169l-0.086-0.08c-0.073-0.0318-0.153-0.0478-0.233-0.047-0.13 4e-4 -0.259 0.0348-0.372 0.1-0.2 0.1151-0.368 0.2788-0.488 0.476-0.389 0.529-0.921 0.9367-1.533 1.176 0 0-5.684 0.9-5.907 1.645l-2.658 0.157s-0.939 0.124-1.031 2.08v0.045c-0.014 0.233-0.031 0.441-0.053 0.627v0.027c-0.165 1.3-0.537 1.443-0.537 1.443-0.534 0.8922-0.875 1.8867-1 2.919 1e-3 8e-3 1e-3 0.016 0 0.024 0.013 0.1339 4e-3 0.2689-0.026 0.4-0.123 0.4462-0.417 0.8258-0.819 1.057l-0.123 1.764c-0.653-0.0661-1.238 0.4049-1.312 1.057-0.121 0.6411-0.389 1.2452-0.784 1.764 0 0-1.719 1.429-1.813 2.639l-1.064 0.653s-2.468-0.559-3.033-1.553c0 0-0.067-0.067-0.172-0.163l-0.016-0.024v0.012c-0.319-0.3309-0.665-0.6359-1.033-0.912 0.073 0.1563 0.091 0.3324 0.051 0.5l-0.184-0.2-0.492-0.549s-0.7-0.659-1.694-1.445c-0.225-0.18-0.464-0.3643-0.715-0.553-1.142-0.9579-2.481-1.6527-3.921-2.035-0.024-0.047-0.118-0.4-0.339-0.4-0.093 0.0081-0.18 0.0509-0.243 0.12-0.668 0.6144-1.05 1.4793-1.054 2.3869-4e-3 0.9077 0.37 1.7759 1.033 2.3961l0.257 0.239 0.8 0.745 2.686 2.509c0.033 0.024 0.065 0.049 0.1 0.071l0.159 0.2 0.124 0.159 0.214 0.272 0.308 0.392c-0.016 0.041-0.033 0.08-0.047 0.12-0.116 0.282-0.216 0.557-0.3 0.808v0.027c-0.02 0.063-0.039 0.122-0.057 0.18-4e-3 0.0212-0.011 0.0416-0.02 0.061-0.02 0.059-0.035 0.118-0.053 0.171-0.011 0.0328-0.02 0.0662-0.027 0.1-6e-3 0.0207-0.013 0.0411-0.02 0.061-0.088 0.312-0.143 0.551-0.172 0.684l-0.208-0.065 0.2 0.088v0.033l-0.012 0.063c0.061 0.029 0.125 0.057 0.2 0.084l0.045 0.02 0.768 0.339c0.154 0.069 0.322 0.141 0.499 0.223s0.32 0.143 0.494 0.218c1.722 0.7072 3.399 1.5204 5.02 2.435 1.178 1.0163 2.844 1.2465 4.254 0.588 1.061-0.5071 1.879-1.4111 2.279-2.517 0.689-0.9196 1.316-1.8838 1.878-2.886 0.047-0.286 0.886-0.61 1.274-0.745l0.037-0.012 0.157-0.051v0.474c0.025 1.3917-0.071 2.7829-0.286 4.158-1e-3 4e-3 -1e-3 0.0081 0 0.012-0.062 0.3576-0.167 0.7064-0.312 1.039-0.719 1.521-2.062 8.261-2.062 8.261h0.031c0.078-0.0141 0.157-0.0182 0.235-0.012-0.027 0.125-0.045 0.224-0.059 0.29s-0.02 0.1-0.02 0.1h0.024c0.075-0.0142 0.151-0.019 0.227-0.014 0.026 0.0013 0.051 0.0047 0.076 0.01-4e-3 0.0474-0.01 0.0944-0.02 0.141v0.049c0 8e-3 -0.012 0.061-0.016 0.094-0.163 1.121-0.633 4.04-0.633 4.04-0.078 0.7415-0.246 1.4708-0.5 2.172-0.164 0.5068-0.253 1.0352-0.263 1.568 0 0.1-0.014 0.2-0.022 0.3-0.051 0.8308-0.059 1.6088-0.059 1.6088l-0.014 0.051-0.461 2.09c8e-3 0.02 0.016 0.039 0.025 0.057 0.033 0.063 0.086 0.171 0.163 0.3l0.024 0.051c0.278 0.565 0.644 1.081 1.086 1.529 0.103 0.102 0.213 0.195 0.329 0.28-2e-3 0.024-7e-3 0.047-0.014 0.069 0 0.02-0.012 0.074-0.018 0.11-0.04 0.27-0.114 0.533-0.222 0.784-0.122 0.27-0.199 0.56-0.225 0.855-0.023 0.211-0.03 0.423-0.02 0.635l-0.026 0.116c-0.069 0.32-0.265 1.257-0.37 2.019-0.026 0.174-0.049 0.343-0.063 0.5-0.013 0.146-0.013 0.292 0 0.437 0.012 0.245-1e-3 0.491-0.039 0.733-3e-3 0.073-0.012 0.145-0.026 0.216-0.106 0.69-0.28 1.413-0.28 1.413l-0.563 5.4v0.32c2e-3 0.048-2e-3 0.095-0.012 0.141 0 0.127-0.02 0.278-0.032 0.455-1e-3 0.067-5e-3 0.134-0.012 0.2 1e-3 0.062-3e-3 0.125-0.013 0.186v0.1c2e-3 0.052-2e-3 0.104-9e-3 0.155-5e-3 0.05-5e-3 0.1 0 0.149v0.139c-0.018 0.288-0.038 0.6-0.052 0.915v0.3c2e-3 0.1-2e-3 0.201-0.013 0.3v2c4e-3 0.209 0.019 0.417 0.047 0.623 0.021 0.153 0.036 0.314 0.044 0.478v0.227c2e-3 0.038 2e-3 0.076 0 0.114v0.878c-0.049 0.674-0.141 1.221-0.155 1.308v0.184c0 0.049 0.013 0.112 0.019 0.18v0.1c-2e-3 0.039 2e-3 0.077 0.011 0.114 0.012 0.039 0 0.037 0 0.059 3e-3 0.074 0.01 0.147 0.021 0.22 8e-3 0.076 0.017 0.159 0.022 0.241l0.013 0.155c0 0.075 0.015 0.153 0.021 0.229v0.078c0 0.053 0.013 0.1 0.017 0.159l0.018 0.241c0 0.053 0.011 0.108 0.015 0.161 3e-3 0.027 3e-3 0.055 0 0.082l0.025 0.318c-1e-3 0.053 2e-3 0.105 0.01 0.157 3e-3 0.082 0.01 0.164 0.02 0.245 8e-3 0.078 0 0.18 0.014 0.263 0.01 0.079 0.014 0.159 0.012 0.239 0.023 0.221 0.023 0.444 0 0.665-0.051 0.224-0.215 0.849-0.309 1.527 0 0.061-0.018 0.122-0.024 0.184-4e-3 0.037-4e-3 0.074 0 0.11l-0.012 0.147c0 0.118-0.014 0.237-0.014 0.353-9e-3 0.264 0.02 0.529 0.088 0.784 0.045 0.17 0.079 0.343 0.1 0.518-2e-3 0.029 2e-3 0.058 0.01 0.086 0 0.063 0.013 0.127 0.019 0.2s0.011 0.133 0.015 0.2c0 0.137 0.012 0.278 0.018 0.421v0.284c0.014 0.827-0.027 1.637-0.038 1.845v0.051s0.2 3.48 0.406 4.6c0.027 0.147 0.047 0.3 0.061 0.449-1e-3 0.057 2e-3 0.115 0.01 0.171 0.028 0.646-0.017 1.293-0.133 1.929-0.058 0.802-0.162 1.6-0.311 2.39-0.191 0.27-0.29 0.595-0.28 0.925v0.016c-0.015 0.888 0.361 1.736 1.028 2.321l0.094 0.092 0.114-0.043c0.917-0.327 1.827-0.668 2.735-1.015 0.482-0.186 0.964-0.372 1.445-0.565 1.187-0.466 2.363-0.949 3.529-1.447-0.056-0.029-0.096-0.08-0.112-0.141-0.079-0.732-0.031-1.472 0.143-2.188 0.055-0.227 0.563-5.064 0.563-5.064-0.106-0.721-0.085-1.456 0.063-2.17 0.259-0.651-0.314-3.17-0.314-3.17-0.114-0.236-0.049-0.519 0.157-0.682 0.353-0.372 0.22-3.7 0.22-3.7s-0.031-1.678-0.031-2.113c0.091-0.884 0.334-1.746 0.718-2.548 0.201-0.707 0.245-1.45 0.127-2.176l0.02-0.125c5e-3 -0.058 0.014-0.116 0.027-0.174l0.029-0.167c0.148-0.911 0.351-1.813 0.608-2.7 0.407-1.3 0.875-3.6 0.875-3.6l2.735-7.334 0.09-0.227 0.033-0.09c0.779 1.483 1.236 3.112 1.343 4.783 0.159 1.163 0.243 2.335 0.253 3.509 0.022 1.422 0.115 2.842 0.28 4.254 0 0 0.4 5.032 0.4 5.248 0.15 1.577 0.423 3.14 0.816 4.675 0.314 0.588-0.314 2.392-0.5 2.578-0.073 1.584-0.052 3.171 0.063 4.752 0 0-0.473 3.6-0.565 4.346-0.018 0.135-0.045 0.339-0.074 0.588 3.136-1.506 6.243-3.1 9.234-4.823 0.129-0.073 0.257-0.145 0.392-0.223l0.022-4.456c0.117-0.971 0.106-1.953-0.031-2.921-0.251-0.841-0.5-2.45-0.155-2.886s0.031-2.452 0.031-2.452 0-4.256 0.469-5.311 0.314-7.732 0.314-7.732l0.124-4.379s1-0.945 0.784-5.84v-0.185c0.832-0.113 1.677-0.098 2.505 0.045 0.929 0.726 2.085 1.1 3.263 1.055 0.215-0.041 0.42-0.126 0.6-0.249 0.545-0.374 1.069-0.778 1.568-1.211l-0.5-8.3768-0.053-0.931c0.094 0.143 0.176 0.271 0.247 0.392 0.2 0.3 0.3 0.48 0.3 0.48 0-1.3 3.691-5.526 3.691-5.526 1.306-1.7304 2.704-3.3892 4.189-4.969 0.877-1.0096 1.623-2.1261 2.22-3.323 0.217-0.5331 0.468-1.0518 0.751-1.553 0.337-0.56-0.794-2.052-0.669-2.393zm-11.006 5.96c-0.068 0.3087-0.211 0.5959-0.416 0.837-0.016-0.2-0.031-0.378-0.047-0.574v-0.051c-0.221-2.1132-0.337-4.2362-0.347-6.361 0.1-0.5272 0.143-1.0636 0.129-1.6 0.014-0.751 0-1.466 0-1.466l0.035-0.049c0.632 1.5443 1.506 2.9777 2.59 4.246 0 0 0.345 0.994 0.751 1.025s0.249 1.3 0.249 1.3c-0.189 0.0315-0.37 0.0994-0.533 0.2-0.193 0.1113-0.378 0.2364-0.553 0.374-0.776 0.5516-1.412 1.2774-1.858 2.119z" fill="url(#b)"/>
<path d="m159.09 79.736s1.141-5.979 4.807-6.01l2.682 5.516-1.8 1.225s-3.878 0.124-5.689-0.731z" fill="#65617D"/>
<path d="m166.57 79.235-1.8 1.2329c-1.572 0.0435-3.143-0.0879-4.685-0.3919-0.344-0.0798-0.679-0.1933-1-0.339 2e-3 -0.0341 8e-3 -0.0678 0.02-0.1001-1e-3 -0.0076-1e-3 -0.0153 0-0.023 0.168-0.7516 0.4-1.4876 0.694-2.1999 0.112-0.269 0.241-0.5451 0.378-0.8211 0.488-1.0724 1.301-1.9639 2.325-2.548 0.381-0.1871 0.796-0.296 1.221-0.32h0.163l0.061 0.1221 0.906 1.864 1.717 3.524z" fill="#000" opacity=".1"/>
<path d="m197.02 104.08s3.852-0.369 4.191-0.092 2.527 1.7 3.822 0.8c1.296-0.9 0.431-4.007 0.431-4.13s-0.124-4.5298-0.124-4.5298l-2.31-3.113-2.9-5.454-5.916-0.588 0.153 8.661-0.03 4.4378 2.683 4.008z" fill="#65617D"/>
<path d="m197.02 104.08s3.852-0.369 4.191-0.092 2.527 1.7 3.822 0.8c1.296-0.9 0.431-4.007 0.431-4.13s-0.124-4.5298-0.124-4.5298l-2.31-3.113-2.9-5.454-5.916-0.588 0.153 8.661-0.03 4.4378 2.683 4.008z" fill="#000" opacity=".1"/>
<path d="m163.12 73.565s-0.3 3.76-2.656 3.819c-0.536-0.3286-1.056-0.6843-1.556-1.066-2.058-1.539-5.322-4.5-4.421-7.253 1.294-3.944 7.581 3.333 7.581 3.333l0.484 0.541 0.568 0.626z" fill="#A5636D"/>
<path d="m163.12 73.565s-0.3 3.7601-2.656 3.8191c-0.537-0.3292-1.056-0.6857-1.556-1.068l-0.201-0.2571c0.398 0.2084 0.836 0.3268 1.284 0.347 0.726 0.0369 1.397-0.3861 1.676-1.0569 0.246-0.4839 0.463-0.9822 0.65-1.492 0.11-0.2991 0.189-0.6093 0.234-0.9251l0.569 0.633z" fill="#000" opacity=".1"/>
<path d="m162.1 80.375-0.527-0.6781-1.765-2.284-0.915-1.167c0.396 0.2075 0.834 0.3252 1.281 0.345 0.727 0.0378 1.398-0.3855 1.676-1.0569 0.247-0.4836 0.464-0.9819 0.65-1.492 0.292-0.831 0.286-1.2591 0.182-1.4001 0.361 0.2771 0.701 0.5799 1.018 0.906l0.014 0.0121 0.17 0.1609 0.065 0.125 0.892 1.786v0.0741c0.082 0.564 0.382 4.159-2.741 4.669z" fill="#E7EFFD"/>
<path d="m179.99 148.54c-0.057-0.048-0.118-0.089-0.184-0.122h-0.016c-0.369-0.155-0.031-2.066 0.031-2.313s0.554-5.015 0.554-5.015c-0.099-0.717-0.077-1.446 0.064-2.156 0.054-1.055-0.05-2.113-0.31-3.137-0.106-0.235-0.043-0.512 0.155-0.678 0.338-0.371 0.216-3.668 0.216-3.668s-0.03-1.662-0.03-2.1c0.089-0.877 0.329-1.731 0.708-2.527 0.201-0.7 0.243-1.437 0.124-2.156l0.018-0.125c0.01-0.045 0.018-0.1 0.028-0.172l0.029-0.165c4e-3 -0.042 0.012-0.084 0.022-0.125 0.018-0.1 0.037-0.2 0.059-0.322 0.012-0.071 0.025-0.145 0.041-0.22 0.045-0.235 0.1-0.494 0.155-0.759 0.018-0.082 0.037-0.167 0.057-0.249s0.047-0.2 0.073-0.3c0.016-0.061 0.029-0.12 0.047-0.18 0.045-0.18 0.094-0.355 0.147-0.521 0.392-1.3 0.865-3.576 0.865-3.576l2.864-7.524 0.033-0.09 0.09 0.174c0.722 1.422 1.142 2.978 1.233 4.57 0.157 1.154 0.239 2.318 0.247 3.482 0.02 1.412 0.113 2.821 0.278 4.223 0 0 0.392 4.991 0.392 5.207 0.147 1.57 0.414 3.126 0.8 4.654 0.118 0.881-0.055 1.776-0.494 2.549-0.074 1.572-0.053 3.148 0.063 4.717 0 0-0.463 3.574-0.557 4.313-0.02 0.176-0.059 0.472-0.1 0.835l0.237-0.112 0.033-0.018c3.137-1.506 6.243-3.1 9.234-4.823l0.025-4.726c0.115-0.964 0.105-1.938-0.029-2.9-0.245-0.831-0.494-2.435-0.157-2.868s0.033-2.433 0.033-2.433 0-4.223 0.461-5.269 0.31-7.675 0.31-7.675l0.122-4.344s1.006-0.959 0.768-5.961c-0.025-0.533-0.065-1.112-0.12-1.743-0.171-1.888-0.343-3.5997-0.5-5.0767-0.014-0.127-0.027-0.253-0.041-0.374-0.016-0.165-0.035-0.327-0.051-0.486-0.037-0.335-0.073-0.657-0.108-0.963-0.012-0.09-0.022-0.178-0.031-0.267-0.051-0.4394-0.098-0.8444-0.143-1.2151-0.016-0.145-0.035-0.2879-0.051-0.4229-0.026-0.2-0.049-0.392-0.071-0.574-3e-3 -0.0434-9e-3 -0.0865-0.018-0.129-4e-3 -0.0756-0.013-0.1507-0.027-0.225-0.1-0.8-0.163-1.237-0.163-1.237h-0.027l-3.1 0.027-6.764 0.065h-0.2l-3.529 0.033h-0.216l-1.694 0.018h-0.288l-3.528 0.033h-0.214l-1.449 5.971-2.958 6.7807s-0.045 0.743-0.149 1.468v0.043c2e-3 0.025-2e-3 0.049-0.012 0.071-0.01 0.036-0.016 0.073-0.018 0.11-0.041 0.329-0.124 0.652-0.249 0.959-0.099 0.215-0.167 0.442-0.2 0.676-0.039 0.249-0.054 0.5-0.045 0.751v0.041s-0.235 1.068-0.373 1.978c-0.025 0.174-0.049 0.343-0.063 0.5-0.026 0.19-0.035 0.383-0.027 0.574 0.011 0.197 3e-3 0.393-0.022 0.588-3e-3 0.073-0.012 0.145-0.025 0.216-0.1 0.721-0.29 1.529-0.29 1.529l-0.557 5.364c1e-3 6e-3 1e-3 0.012 0 0.018v0.224c2e-3 0.048-2e-3 0.095-0.012 0.141 0 0.127-0.02 0.278-0.033 0.455 0 0.067-4e-3 0.134-0.012 0.2 2e-3 0.063-2e-3 0.125-0.012 0.186v0.1c1e-3 0.052-2e-3 0.104-0.01 0.155-5e-3 0.05-5e-3 0.1 0 0.149v0.139c-0.016 0.288-0.035 0.6-0.049 0.916v0.3c2e-3 0.1-2e-3 0.201-0.014 0.3v2.011c3e-3 0.219 0.018 0.438 0.047 0.655 0.02 0.145 0.035 0.294 0.045 0.447v1.219c-0.049 0.674-0.141 1.221-0.155 1.308v0.184c0 0.049 0.012 0.112 0.018 0.18v0.1c-1e-3 0.039 3e-3 0.077 0.012 0.114 0.012 0.039 0 0.037 0 0.059 0 0.071 0.012 0.143 0.02 0.22s0.016 0.159 0.023 0.241l0.012 0.155c0 0.074 0.016 0.153 0.022 0.229v0.078c0 0.053 0.012 0.1 0.016 0.159l0.018 0.241c0 0.053 0.012 0.108 0.016 0.161v0.082l0.026 0.318c-1e-3 0.053 2e-3 0.105 0.01 0.157 0 0.082 0.012 0.167 0.02 0.245s0 0.18 0.014 0.263c0.01 0.08 0.014 0.159 0.012 0.239 0.02 0.214 0.02 0.429 0 0.643-0.129 0.511-0.231 1.028-0.306 1.549 0 0.061-0.018 0.122-0.024 0.184-3e-3 0.037-3e-3 0.074 0 0.11l-0.012 0.147c0 0.118-0.014 0.237-0.014 0.353-5e-3 0.25 0.025 0.498 0.088 0.739 0.054 0.214 0.09 0.432 0.108 0.651 0.016 0.125 0.026 0.259 0.033 0.392s0.012 0.278 0.018 0.422v0.284c0.012 0.931-0.039 1.821-0.039 1.821v0.024 0.016c0.02 0.392 0.2 3.484 0.392 4.523 0.034 0.184 0.057 0.37 0.069 0.557-1e-3 0.057 2e-3 0.115 0.01 0.171 0.014 0.603-0.032 1.206-0.139 1.8-0.081 0.805-0.208 1.604-0.38 2.394-0.211 0.316-0.308 0.694-0.276 1.072v0.016c0.032 0.827 0.4 1.606 1.017 2.156l0.22 0.22c0.917-0.327 1.827-0.669 2.735-1.016 0.482-0.186 0.964-0.372 1.445-0.565 1.186-0.466 2.363-0.949 3.529-1.447l0.074-0.042z" fill="#3F3D56"/>
<path d="m196.16 55.935-4.565 4.872s-5.854-2.352-5.238-3.137c0.229-0.7701 0.251-1.5868 0.063-2.368-0.216-1.707-0.678-3.674-0.678-3.674s10.231-1.664 9.367 0.063c-0.276 0.6503-0.299 1.3805-0.065 2.047 0.253 0.7871 0.63 1.5289 1.116 2.197z" fill="#A5636D"/>
<path d="m195.11 51.683c-0.314 0.629-0.465 0.69-0.268 1.372-1.337 1.435-3.039 3.005-5.154 3.005-1.133 2e-3 -2.251-0.26-3.266-0.765-0.216-1.707-0.678-3.674-0.678-3.674s10.23-1.665 9.366 0.062z" fill="#000" opacity=".1"/>
<path d="m197.02 48.54c0.031 2.6411-1.36 5.095-3.642 6.4245s-5.103 1.3295-7.385 0-3.673-3.7834-3.643-6.4245v-0.106c0.019-2.6206 1.435-5.032 3.713-6.3258 2.279-1.2939 5.075-1.2737 7.335 0.053s3.64 3.7583 3.621 6.3788h1e-3z" fill="#A5636D"/>
<path d="m198.08 96.929c-0.98 0-4.207 0.035-7.821 0.092h-0.045l-1.194 0.02h-0.037c-4.287 0.069-8.511-0.768-10.207-0.61-3.607 0.339 1.294-3.333 1.294-3.333 2.686 0.6518 5.45 0.9314 8.213 0.831l1.037-0.055c2.789-0.0738 5.564-0.4119 8.289-1.01 0.12 0.958 0.294 2.344 0.471 4.065z" fill="#000" opacity=".1"/>
<path d="m198.08 96.744c-0.98 0-4.207 0.033-7.821 0.092h-0.045l-1.194 0.02h-0.037c-4.287 0.069-8.511-0.768-10.207-0.61-3.607 0.337 1.294-3.333 1.294-3.333 2.686 0.6518 5.45 0.9307 8.213 0.829l1.037-0.053c2.789-0.0747 5.564-0.4129 8.289-1.01 0.12 0.958 0.294 2.348 0.471 4.065z" fill="#5F5D7E"/>
<path d="m187.71 57.976-5.671 2.65-4.373 33.832s2.588-1.176 4.067-0.431c1.48 0.745 6.04 0.063 6.04 0.063s3.333-0.2 3.821 0.184 6.288-1.541 6.288-1.541 1.047-2.343 0.245-2.711 0.247-4.013 0.247-4.013l-0.492-24.408-0.98-3.137-2.65-1.6-2.71 2.156-1.294 0.186-2.538-1.23z" fill="#000" opacity=".1"/>
<path d="m187.71 57.6-5.669 2.65-4.374 33.84s2.588-1.176 4.068-0.431c1.479 0.745 6.039 0.061 6.039 0.061s3.333-0.184 3.821 0.184 6.288-1.541 6.288-1.541 1.047-2.341 0.245-2.711 0.247-4.007 0.247-4.007l-0.492-24.408-0.98-3.137-2.65-1.6-2.71 2.156-1.294 0.184-2.539-1.24z" fill="#E7EFFD"/>
<path d="m187.62 59.172s1.635 1.941 1.6 2.343-0.092 1.355-0.092 1.355l-1.223 2.5s-0.678 3.113-0.678 3.76-1.078 6.255-1.078 6.255l-1.294 8.626-1.635 11.308 1.664 2.866 1.972-1.664 2.617-20.152 0.555-3.976s0.588-7.149 0.588-7.888c-0.065-0.8994-0.178-1.7947-0.339-2.682 0.247-1.0668 1.029-1.9297 2.066-2.28 1.664-0.431-0.124-0.094-0.124-0.094l-0.955-0.77-0.833 0.339s-2.32-0.709-2.811 0.154z" fill="#000" opacity=".1"/>
<path d="m187.43 58.988s1.633 1.941 1.6 2.341-0.094 1.357-0.094 1.357l-1.233 2.5s-0.678 3.111-0.678 3.758-1.078 6.257-1.078 6.257l-1.3 8.6259-1.626 11.306 1.664 2.8659 1.972-1.664 2.617-20.151 0.555-3.976s0.588-7.1489 0.588-7.8899c-0.064-0.8988-0.178-1.7934-0.339-2.68 0.242-1.0692 1.025-1.9346 2.064-2.2821 1.672-0.431-0.122-0.0919-0.122-0.0919l-0.957-0.7701-0.831 0.339s-2.311-0.7089-2.802 0.1551z" fill="currentColor"/>
<path d="m186.36 55.751s-0.247 0.184-0.308 1.417c-0.196 1.3592-0.505 2.6995-0.925 4.007 0 0 3.205-2.219 4.809-1.972l-3.576-3.452z" fill="#000" opacity=".1"/>
<path d="m186.36 55.381s-0.247 0.186-0.308 1.417c-0.196 1.3591-0.506 2.6995-0.925 4.0071 0 0 3.205-2.2191 4.809-1.9721l-3.576-3.452z" fill="#E7EFFD"/>
<path d="m195.11 54.765-5.046 4.438c1.659 0.957 3.265 2.0043 4.809 3.137 0.555 0.61 1.11-6.0399 1.11-6.0399l-0.873-1.5351z" fill="#000" opacity=".1"/>
<path d="m195.29 54.395-5.054 4.438c1.658 0.957 3.263 2.0043 4.807 3.137 0.555 0.61 1.11-6.042 1.11-6.042l-0.863-1.533z" fill="#E7EFFD"/>
<path d="m186.53 55.751s-0.555-0.278-1.078 0.523c-0.384 0.5242-0.907 0.9313-1.509 1.1759 0 0-5.61 0.894-5.825 1.633l-2.619 0.153s-0.925 0.1121-1.012 2.0721-0.588 2.125-0.588 2.125c-0.528 0.8866-0.862 1.8749-0.98 2.8999 0.028 0.6119-0.295 1.1861-0.833 1.4801l3.86 10.006s0.123 4.1301-0.588 5.6401-2.035 8.2-2.035 8.2 0.555-0.1231 0.523 0.2469-0.678 4.4071-0.678 4.4071c-0.073 0.7363-0.239 1.4606-0.492 2.156-0.24 1.1346-0.353 2.2927-0.339 3.4517l-0.508 2.1s1.176 2.619 2.96 2.249 5.022-7.3648 5.022-7.3648l2.063-7.549 1.6-7.4589 0.463-5.0541 0.739-11.188 1.078-7.4s1.216-3.9799 0.776-4.5039z" fill="#000" opacity=".1"/>
<path d="m186.36 55.381s-0.555-0.276-1.078 0.525c-0.385 0.5245-0.908 0.9317-1.511 1.176 0 0-5.608 0.894-5.823 1.633l-2.619 0.155s-0.925 0.124-1.017 2.064-0.588 2.127-0.588 2.127c-0.527 0.887-0.86 1.8752-0.98 2.9 0.029 0.611-0.294 1.1847-0.831 1.478l3.846 10.01s0.123 4.13-0.588 5.64-2.033 8.2-2.033 8.2 0.555-0.124 0.523 0.247-0.678 4.407-0.678 4.407c-0.073 0.7364-0.238 1.4607-0.492 2.156-0.24 1.1346-0.353 2.2926-0.339 3.4516l-0.49 2.105s1.176 2.619 2.958 2.25 5.024-7.3666 5.024-7.3666l2.064-7.549 1.599-7.449 0.461-5.054 0.741-11.186 1.078-7.4s1.205-3.991 0.773-4.52z" fill="#65617D"/>
<path d="m166.57 79.235-1.8 1.2329c-1.572 0.0435-3.143-0.088-4.685-0.3919l-1-0.4411-0.2-0.0879 0.206 0.065c0.793 0.2838 1.654 0.3145 2.466 0.0879 2.531-0.851 2.25-5.0279 2.156-5.9729-1e-3 -0.0599-7e-3 -0.1196-0.02-0.1781-1e-3 -4e-3 -1e-3 -8e-3 0-0.0119l0.016 0.023c0.033 0.0576 0.072 0.1122 0.116 0.1629 0.035 0.0424 0.073 0.0825 0.114 0.12l0.892 1.786v0.074l1.739 3.5321z" fill="#000" opacity=".1"/>
<path d="m172.77 67.19-0.863 0.247-0.124 1.764c-0.646-0.0642-1.223 0.4038-1.293 1.049-0.12 0.6388-0.383 1.242-0.77 1.764 0 0-1.7 1.417-1.788 2.619l-1.049 0.647s-2.435-0.555-2.99-1.541c0 0 1.11 7.951-4.806 6.01 0 0 6.625 2.9 6.933 3.3 1.16 1.0028 2.8 1.2329 4.191 0.588 1.053-0.5129 1.862-1.421 2.249-2.527 0.679-0.9134 1.297-1.8709 1.849-2.866 0.061-0.371 1.449-0.8 1.449-0.8l2.65-6.408-5.638-3.846z" fill="#65617D"/>
<path d="m194.4 58.465 0.894-4.068c0.156 0.5919 0.428 1.1469 0.8 1.633 0.41 0.308 1.325 1.017 1.325 1.017 0.568 0.2786 1.167 0.4861 1.786 0.618 1.134 0.1507 2.237 0.4815 3.268 0.98 0.308 0.333 1.54 0.092 1.54 0.092s1.017 0.339 1.911 0.555 1.325 1.7 1.139 2.28c-0.151 0.5919 0.012 1.2199 0.431 1.664 0.294 0.4773 0.484 1.0119 0.555 1.568 0.454 0.1478 0.831 0.4692 1.049 0.894 0.198 0.7005 0.271 1.4302 0.216 2.156l-4.591 6.469c0.041 1.0184 0 2.0384-0.124 3.05-0.184 0.555 0.647 9.986 0.647 9.986l0.955 16.21c-0.49 0.429-1.004 0.83-1.541 1.2-0.278 0.124-0.555-5.7318-0.555-5.9478s-7.117-10.664-7.117-10.664c-0.387-0.5894-0.708-1.2199-0.957-1.88 0-0.339-0.894-3.45-0.894-3.45l-1.351-6 0.614-18.362z" fill="#000" opacity=".1"/>
<path d="m209.7 67.51c0 0.212-0.012 0.353-0.012 0.353l-4.589 6.469c0.042 1.0189 2e-3 2.0396-0.121 3.052-0.108 0.322 0.127 3.638 0.344 6.361 0.155 1.96 0.3 3.623 0.3 3.623l0.4 6.877 0.549 9.3347c-0.49 0.429-1.003 0.83-1.538 1.2-0.276 0.124-0.555-5.7317-0.555-5.9497s-7.124-10.666-7.124-10.666c-0.386-0.5903-0.707-1.2215-0.955-1.882 0-0.339-0.894-3.452-0.894-3.452l-1.355-6.008 0.616-18.369 0.523-4.0679c0.328 0.5879 0.723 1.1359 1.176 1.6329 0.406 0.306 1.323 1.0171 1.323 1.0171 0.568 0.2784 1.169 0.4857 1.788 0.617 1.134 0.1506 2.238 0.4814 3.268 0.98 0.31 0.333 1.541 0.092 1.541 0.092s1.015 0.339 1.908 0.555 1.325 1.7 1.141 2.28c-0.152 0.5918 0.011 1.2204 0.431 1.664 0.294 0.4776 0.483 1.012 0.555 1.568 0.454 0.1483 0.831 0.4696 1.049 0.894 0.183 0.5902 0.261 1.2078 0.231 1.825z" fill="#65617D"/>
<path d="m176.4 150.02c-0.48 0.2-0.963 0.378-1.445 0.565-1.511-0.441-2.923-0.961-2.923-0.961 1.463 0.054 2.921 0.187 4.368 0.4v-4e-3z" fill="#000" opacity=".1"/>
<path d="m190.98 133.57s3.668 0.863 3.883 1.449l-3.883-1.449z" fill="#000" opacity=".1"/>
<path d="m176.83 136.22s-1.911 0.555-0.061 1.664 0.061-1.664 0.061-1.664z" fill="#000" opacity=".1"/>
<path d="m185.31 106.59c0.216 0 3.576-1.109 4.746-0.616 0.839 0.314 1.726 0.48 2.621 0.492l-7.367 0.124z" fill="#000" opacity=".1"/>
<path d="m185.75 110.12-0.033 0.306-2.874 7.516s-0.463 2.28-0.865 3.574c-0.252 0.88-0.453 1.773-0.6 2.676l2.548-15.773 1.824 1.701z" fill="#000" opacity=".1"/>
<path d="m190.21 96.836-1.194 0.0199h-0.037l-0.7-3.107c0.343-0.016 0.69-0.033 1.037-0.055l0.894 3.1421z" fill="#3F3D56"/>
<path d="m204.75 93.066-0.767 0.633-2.554 2.111s-6.933 3.7-8.842 0.184c-1.684-3.1 6.176-5.3 8.07-5.787 0.257-0.065 0.4-0.1 0.4-0.1l3.693 2.959z" fill="#A5636D"/>
<path d="m175.14 62.777s1.355 0.618 1.662 1.48-1.662-1.48-1.662-1.48z" fill="#000" opacity=".1"/>
<path d="m170.95 72.024s-1.972 2.4-1.176 3.333 1.176-3.333 1.176-3.333z" fill="#000" opacity=".1"/>
<path d="m206.2 64.134s-1.849 0.184-1.911 1.788l1.911-1.788z" fill="#000" opacity=".1"/>
<path d="m189.07 89.405c0.2-0.184 4.438-6.469 5.424-5.916l-5.424 5.916z" fill="#000" opacity=".1"/>
<path d="m197.02 48.539c1e-3 1.208-0.297 2.3975-0.868 3.462h-0.053c-0.465-0.1-0.706-0.639-1.061-0.98-0.448-0.4253-1.116-0.5189-1.664-0.233-0.551 0.3292-0.867 0.9423-0.817 1.582-0.235-0.98-0.161-2.037-0.392-3.025s-0.918-1.99-1.863-2.007c-0.408 0-0.882 0.151-1.176-0.155-0.178-0.184-0.214-0.474-0.347-0.7-0.676-1.092-2.731-0.539-3.57 0.022-0.9 0.7189-1.854 1.3659-2.856 1.935 0.03-4.051 3.337-7.3113 7.388-7.282 4.05 0.0293 7.31 3.337 7.281 7.388l-2e-3 -7e-3z" fill="#000" opacity=".1"/>
<path d="m188.78 46.29c0.133 0.223 0.169 0.514 0.347 0.7 0.294 0.3 0.768 0.147 1.176 0.155 0.945 0.016 1.635 1.017 1.864 2.005s0.155 2.039 0.392 3.025c-0.05-0.6392 0.267-1.2514 0.817-1.58 0.547-0.2862 1.215-0.1926 1.662 0.233 0.355 0.337 0.588 0.878 1.063 0.98s0.914-0.349 1.082-0.839c0.118-0.506 0.207-1.0186 0.265-1.535 0.328-0.9148 0.721-1.805 1.176-2.664 0.413-1.1121 0.402-2.3376-0.031-3.442-0.231-0.588-0.574-1.1-0.81-1.678-0.353-0.878-0.447-1.868-0.878-2.705-0.716-1.3988-2.347-2.0649-3.837-1.568-0.67 0.253-1.253 0.741-1.933 0.959-0.935 0.192-1.901 0.1718-2.827-0.059-0.941-0.228-1.935-0.0557-2.745 0.476-0.872 0.714-1.112 2.054-1.931 2.839-0.345 0.329-0.772 0.539-1.135 0.843-0.398 0.2923-0.634 0.7568-0.634 1.251 0.055 0.639 0.679 1.219 0.448 1.809-0.083 0.1718-0.199 0.3251-0.342 0.451-0.686 0.7204-1.197 1.5892-1.492 2.539 1.65 0.516 3.434-1.3 4.725-2.156 0.849-0.575 2.904-1.13 3.578-0.039z" fill="#4C3E42"/>
<path d="m204.75 93.066-0.766 0.633c-1.027-1.2466-2.185-2.3791-3.454-3.378l0.12-0.116c0.257-0.065 0.4-0.1 0.4-0.1l3.7 2.961z" fill="#000" opacity=".1"/>
<path d="m205.49 91.931s-0.276 0.686-0.561 1.28-0.588 1.131-0.612 0.694c-0.031-0.865-3.605-3.762-3.605-3.762l0.484-0.47 0.563-0.547 3.731 2.805z" fill="#E7EFFD"/>
<path d="m205.62 87.37 0.4 6.8769c-0.957-1.488-3.586-5.3-5.275-5.181l4.1-4.7c0.171-0.1883 0.329-0.3888 0.471-0.5999 0.157 1.947 0.304 3.604 0.304 3.604z" fill="#000" opacity=".1"/>
<path d="m205.49 91.931s-0.276 0.686-0.561 1.28c-1.074-1.474-2.549-3.213-3.725-3.538l0.563-0.547 3.723 2.805z" fill="#000" opacity=".1"/>
<path d="m208.58 66.994 1.11 0.8631s1.849 0.031 2.033 1.568c0.229 1.0085 0.928 1.8456 1.88 2.25 0 0 1.264 1.263 1.264 1.849s0.955 1.6329 0.955 1.7249 0.924 1.9721 0.799 2.3111c-0.124 0.339 0.98 1.8189 0.647 2.3739-0.278 0.4977-0.525 1.0124-0.738 1.5411-0.587 1.1886-1.323 2.2975-2.19 3.2999-1.465 1.5669-2.844 3.2127-4.129 4.93 0 0-3.636 4.1911-3.636 5.4891 0 0-3.543-5.918-5.639-5.763l4.1-4.7151s0.707-0.7699 0.738-1.2329 1.972-2.5901 2.9-2.6821c0 0 0.153-1.264-0.247-1.294s-0.739-1.0169-0.739-1.0169-2.712-3.205-2.743-5.24 3.635-6.2561 3.635-6.2561z" fill="#65617D"/>
<path d="m210.21 69.934s-2.59 1.9091-2.035 2.5271 2.035-2.5271 2.035-2.5271z" fill="#000" opacity=".1"/>
<path d="m210.33 77.816s4.807-1.541 5.293 0h-5.293z" fill="#000" opacity=".1"/>
<path d="m176.42 69.558s0 7.026-0.6 7.72 0.6-7.72 0.6-7.72z" fill="#000" opacity=".1"/>
<path d="m204.2 71.822 0.893 2.511s0.356-2.464-0.893-2.511z" fill="#000" opacity=".1"/>
<g fill="#000" opacity=".1">
<path d="m182.42 44.885c0.225-0.578-0.365-1.145-0.443-1.764-0.078 0.1748-0.113 0.366-0.1 0.557 0.039 0.469 0.392 0.9 0.476 1.337 0.026-0.0411 0.049-0.0846 0.067-0.13z"/>
<path d="m192.64 51.523c-0.222-0.98-0.157-2-0.38-2.972s-0.919-1.992-1.864-2.007c-0.408 0-0.882 0.149-1.176-0.155-0.178-0.184-0.214-0.474-0.347-0.7-0.674-1.092-2.729-0.539-3.57 0.022-1.26 0.837-2.99 2.59-4.608 2.194-0.077 0.186-0.149 0.374-0.21 0.568 1.651 0.516 3.434-1.3 4.725-2.156 0.841-0.559 2.893-1.113 3.57-0.02 0.133 0.223 0.169 0.514 0.347 0.7 0.294 0.3 0.768 0.147 1.176 0.155 0.945 0.016 1.635 1.017 1.864 2.005s0.155 2.039 0.392 3.025c-0.018-0.2229 0.01-0.4469 0.081-0.659z"/>
<path d="m197.27 50.367c-0.169 0.49-0.608 0.939-1.082 0.839s-0.706-0.639-1.061-0.98c-0.449-0.4241-1.117-0.5168-1.664-0.231-0.524 0.3119-0.836 0.8831-0.817 1.492 0.123-0.3764 0.381-0.694 0.725-0.892 0.546-0.2862 1.215-0.1926 1.662 0.233 0.355 0.337 0.588 0.878 1.063 0.98s0.914-0.349 1.082-0.839c0.087-0.2886 0.143-0.5856 0.169-0.886-0.021 0.0959-0.046 0.1907-0.076 0.284h-1e-3z"/>
<path d="m198.72 46.169c-0.463 0.8542-0.856 1.7444-1.176 2.662-0.043 0.2-0.067 0.392-0.09 0.588 0.328-0.9116 0.721-1.7985 1.176-2.654 0.155-0.4105 0.25-0.8407 0.284-1.278-0.046 0.2321-0.111 0.4602-0.194 0.682z"/>
</g>
<path d="m154.18 69.407c0.552 0 1-0.4477 1-1s-0.448-1-1-1-1 0.4477-1 1 0.448 1 1 1z" fill="#E6E8EC"/>
<path d="m92.584 111.42c1.2887-0.887 2.9236-1.106 4.4-0.588 0 0-0.627 1.329-3.411 1.312l-0.989-0.724z" fill="currentColor"/>
<path d="m92.314 111.51c-0.3104 1.531 0.1263 3.118 1.176 4.275 0 0 0.98-1.1-0.131-3.652l-1.045-0.623z" fill="currentColor"/>
<path d="m89.457 109.15s0.08-2.19 5.038-1.654c-0.0401 0.985-0.6895 1.84-1.627 2.143-1.1178 0.622-2.5129 0.422-3.411-0.489z" fill="currentColor"/>
<path d="m89.153 109.14s-2.058 0.749-0.024 5.3c0.9257-0.34 1.5399-1.222 1.537-2.209 0.241-1.252-0.3761-2.513-1.513-3.091z" fill="currentColor"/>
<path d="m86.244 106.16s-0.42-3.582 4.634-3.407c0 0 0.482 3.239-3.711 4.236l-0.923-0.829z" fill="currentColor"/>
<path d="m82.758 102.23s0.5351-4.0996 5.6181-3.0776c0 0 0.1529 3.5286-4.7601 4.0166l-0.858-0.939z" fill="currentColor"/>
<path d="m80.166 98.128s1-4.019 6.04-3.013c0 0-1.051 3.611-5.685 3.725l-0.355-0.712z" fill="currentColor"/>
<path d="m77.698 94.121s0.98-4.16 5.836-3.107c0 0-1.458 3.972-5.489 3.8l-0.347-0.693z" fill="currentColor"/>
<path d="m76.057 90.289s0.676-5.064 5.216-4.127c0 0-1.129 4.63-4.854 4.846l-0.362-0.719z" fill="currentColor"/>
<path d="m74.481 85.641s0.849-5.115 5.446-3.813c0 0-1.6 4.864-5.1 4.509l-0.346-0.696z" fill="currentColor"/>
<path d="m73.448 81.304s1.462-5.138 4.983-5.136c0 0-1.49 5.424-4.65 6.142l-0.333-1.006z" fill="currentColor"/>
<path d="m72.736 77.052s1.568-6.177 4.446-5.816c0 0-1.068 4.717-4.313 6.763l-0.133-0.947z" fill="currentColor"/>
<path d="m72.228 71.965s1.494-5.156 4.313-5.465c0 0-0.959 5.052-4.2 6.785l-0.113-1.32z" fill="currentColor"/>
<path d="m71.705 67.232s1.911-5.175 3.774-5.362c0 0-0.723 5.0519-3.556 6.1909l-0.218-0.8289z" fill="currentColor"/>
<path d="m71.302 62.82s1.084-5.585 2.929-6.114c0 0-0.08 4.536-2.725 6.52l-0.204-0.406z" fill="currentColor"/>
<path d="m70.378 57.063s1.194-4.464 2.678-5.193c0 0-0.1 5.2109-2.286 6.2569l-0.392-1.0639z" fill="currentColor"/>
<path d="m69.651 53.285-0.572-7.7689s3.04 5.7629 0.825 9.1269l-0.253-1.358z" fill="currentColor"/>
<path d="m67.175 45.638s-2.247-5.6-2.745-5.9c0 0 4.117 3.529 3.921 8.286l-1.176-2.386z" fill="currentColor"/>
<path d="m86.104 106.14s-3.591-0.329-3.291 4.717c0 0 3.25 0.392 4.144-3.815l-0.853-0.902z" fill="currentColor"/>
<path d="m82.585 102.1s-4.13 0.145-3.6 5.293c0 0 3.489 0.486 4.448-4.356l-0.848-0.937z" fill="currentColor"/>
<path d="m80.139 98.466s-3.817-1.615-6.042 3.0128c0 0 3.519 1.333 6.4-2.2937l-0.358-0.7191z" fill="currentColor"/>
<path d="m77.616 94.162s-3.911-1.723-5.995 2.8c0 0 4.052 1.223 6.338-2.105l-0.343-0.695z" fill="currentColor"/>
<path d="m76.111 90.397s-3.829-3.387-6.64 0.294c0 0 3.885 2.758 6.84 0.484l-0.2-0.778z" fill="currentColor"/>
<path d="m74.688 85.514s-3.856-3.468-6.636 0.419c0 0 4.285 2.8 6.8 0.331l-0.164-0.75z" fill="currentColor"/>
<path d="m73.825 81.141s-3.037-4.4-6.367-3.262c0 0 3.152 4.658 6.375 4.313l-8e-3 -1.051z" fill="currentColor"/>
<path d="m72.82 77.021s-3.1-5.567-5.793-4.477c0 0 2.247 4.283 5.9 5.428l-0.107-0.951z" fill="currentColor"/>
<path d="m72.416 71.668s-3.1371-4.354-5.8931-3.7c0 0 2.6001 4.436 6.2301 4.983l-0.337-1.283z" fill="currentColor"/>
<path d="m72.016 67.12s-2.49-4.924-4.362-4.9c0 0 1.3 4.936 4.238 5.746l0.124-0.846z" fill="currentColor"/>
<path d="m71.391 62.707s-2.744-4.9789-4.67-4.9149c0 0 1.4741 4.291 4.6001 5.365l0.0699-0.4501z" fill="currentColor"/>
<path d="m70.8 57.357s-2.072-4.129-3.672-4.542c0 0 1.151 5.083 3.505 5.665l0.167-1.123z" fill="currentColor"/>
<path d="m69.419 53.146-4.521-6.344s1.3411 6.375 5.1911 7.557l-0.6701-1.213z" fill="currentColor"/>
<path d="m66.217 46.199s-5.1-3.237-5.293-3.782c0 0 2.717 4.7 7.43 5.369l-2.137-1.587z" fill="currentColor"/>
<path d="m65.861 44.673s-5.909-5.26-7.363-5.2c3.1688 0.2486 5.9921 2.0959 7.489 4.9l-0.126 0.3z" fill="currentColor"/>
<path d="m70.777 58.172-0.208 0.0349c-1.392-8.341-3.137-13.236-4.93-13.781l0.061-0.2c1.899 0.576 3.65 5.4011 5.077 13.946z" fill="#444053"/>
<path d="m73.117 78.156-0.312 0.039c-0.1-0.784-0.176-1.58-0.243-2.376-0.565-6.928-1.272-13.281-2.064-18.035l0.173-0.231c0.784 4.762 1.641 11.3 2.207 18.231 0.063 0.802 0.145 1.6 0.239 2.372z" fill="#444053"/>
<path d="m98.589 115.19c-4.3067-1.953-8.2418-4.639-11.63-7.939-3.4878-3.314-6.4287-7.159-8.7132-11.394-2.927-5.7123-4.795-11.908-5.5135-18.286l0.3329 0.1411c1.2012 11.086 6.2089 21.413 14.17 29.221 3.3527 3.267 7.2455 5.929 11.506 7.867l-0.152 0.39z" fill="#444053"/>
<g fill="currentColor" opacity=".7">
<path d="m102.49 108.8c1.492-0.462 3.116-0.186 4.372 0.743 0 0-0.994 1.084-3.646 0.237l-0.726-0.98z"/>
<path d="m102.21 108.8c-0.752 1.371-0.806 3.018-0.145 4.434 0 0 1.26-0.759 0.961-3.529l-0.816-0.905z"/>
<path d="m100.18 105.7s0.729-2.068 5.293-0.08c-0.331 0.929-1.206 1.555-2.192 1.568-1.251 0.26-2.521-0.349-3.101-1.488z"/>
<path d="m99.895 105.61s-2.19 0.1-1.6 5.056c0.9834-0.052 1.831-0.71 2.123-1.651 0.61-1.123 0.396-2.516-0.523-3.405z"/>
<path d="m98.003 101.89s0.667-3.5438 5.4381-1.874c0 0-0.5 3.235-4.8001 2.941l-0.638-1.067z"/>
<path d="m95.845 97.096s1.731-3.754 6.2728-1.266c0 0-0.9 3.405-5.7378 2.417l-0.535-1.151z"/>
<path d="m94.588 92.408s2.156-3.538 6.6646-1.08c0 0-2.0776 3.137-6.5356 1.874l-0.129-0.794z"/>
<path d="m93.426 87.848s2.168-3.682 6.5-1.231c0 0-2.574 3.358-6.375 1.992l-0.125-0.761z"/>
<path d="m93 83.696s2.156-4.636 6.2-2.388c0 0-2.456 4.083-6.077 3.182l-0.123-0.794z"/>
<path d="m92.877 78.795s2.333-4.63 6.334-2.019c0 0-2.974 4.168-6.21 2.778l-0.124-0.759z"/>
<path d="m93.184 74.343s2.925-4.47 6.285-3.421c0 0-3.037 4.736-6.273 4.481l-0.012-1.06z"/>
<path d="m93.768 70.076s3.333-5.432 5.975-4.229c0 0-2.425 4.183-6.126 5.173l0.151-0.944z"/>
<path d="m94.798 65.067s2.96-4.475 5.7398-3.934c0 0-2.4168 4.538-6.0258 5.23l0.286-1.296z"/>
<path d="m95.704 60.394s3.366-4.374 5.1998-4c0 0-2.1938 4.607-5.2358 4.854l0.036-0.854z"/>
<path d="m96.631 56.061s2.7-5.009 4.6167-4.966c0 0-1.4267 4.313-4.5437 5.414l-0.073-0.448z"/>
<path d="m97.464 50.29s2.466-3.905 4.0999-4.162c0 0-1.6469 4.946-4.0439 5.293l-0.056-1.131z"/>
<path d="m97.892 46.466 1.764-7.585s1.1899 6.4-1.921 8.965l0.157-1.38z"/>
<path d="m97.803 38.43s-0.478-6.016-0.868-6.45c0 0 2.888 4.6 1.274 9.076l-0.406-2.626z"/>
<path d="m97.878 101.82s-3.333-1.386-4.544 3.529c0 0 2.982 1.351 5.1-2.409l-0.556-1.12z"/>
<path d="m95.719 96.919s-3.985-1.09-5.009 3.9907c0 0 3.186 1.5 5.544-2.8347l-0.535-1.156z"/>
<path d="m94.464 92.721s-3.162-2.678-6.665 1.08c0 0 2.962 2.319 6.793-0.286l-0.128-0.794z"/>
<path d="m93.334 87.864s-3.219-2.809-6.553 0.89c0 0 3.5 2.372 6.677-0.127l-0.124-0.763z"/>
<path d="m93.019 83.819s-2.648-4.374-6.426-1.7c0 0 2.888 3.791 6.385 2.5l0.041-0.8z"/>
<path d="m93.113 78.733s-2.65-4.456-6.469-1.568c0 0 3.258 3.95 6.391 2.339l0.078-0.771z"/>
<path d="m93.588 74.302s-1.59-5.1-5.109-5.009c0 0 1.625 5.387 4.8 6.024l0.309-1.015z"/>
<path d="m93.856 70.07s-1.308-6.238-4.2-6c0 0 0.87 4.758 4.023 6.938l0.177-0.938z"/>
<path d="m95.063 64.838s-1.7-5.1-4.526-5.293c0 0 1.161 5.011 4.466 6.612l0.06-1.319z"/>
<path d="m96.033 60.378s-0.912-5.442-2.707-5.973c0 0-0.231 5.1 2.339 6.748l0.368-0.775z"/>
<path d="m96.758 55.979s-1.143-5.571-3-6.077c0 0 0.129 4.534 2.8 6.491l0.2-0.414z"/>
<path d="m97.777 50.697s-0.751-4.558-2.156-5.432c0 0-0.414 5.2 1.66 6.453l0.496-1.021z"/>
<path d="m97.711 46.265-2.429-7.4s-0.617 6.487 2.707 8.761l-0.278-1.361z"/>
<path d="m96.722 38.684s-3.9-4.607-3.921-5.187c0 0 1.194 5.293 5.489 7.336l-1.568-2.149z"/>
<path d="m96.836 37.114s-4.076-6.781-5.489-7.155c2.9508 1.1801 5.0948 3.7853 5.685 6.908l-0.196 0.247z"/>
<path d="m97.516 51.472-0.208-0.029c1.153-8.377 0.937-13.572-0.608-14.624l0.12-0.173c1.633 1.111 1.874 6.236 0.696 14.826z"/>
<path d="m93.802 71.249-0.31-0.057c0.141-0.774 0.3-1.568 0.476-2.341 1.521-6.781 2.744-13.058 3.393-17.839l0.233-0.169c-0.659 4.781-1.8 11.28-3.321 18.069-0.171 0.78-0.332 1.562-0.471 2.337z"/>
<path d="m107.1 114.18c-3.53-3.146-6.488-6.881-8.74-11.039-2.3479-4.2011-4.0145-8.7483-4.9375-13.472-1.0946-6.325-1.0356-12.796 0.1739-19.1l0.276 0.233c-2.1514 10.942-0.4425 22.292 4.8356 32.115 2.227 4.118 5.153 7.817 8.646 10.933l-0.254 0.33z"/>
</g>
<path d="m60.26 96.118c-0.4608 0.1898-0.9395 0.3329-1.4289 0.427-0.8554 0.1601-1.7235 0.2421-2.5938 0.245 0.025 0.229 0.045 0.443 0.065 0.637 0.047 0.5331 0.075 0.9 0.075 0.9l-0.9189-0.063-7.5823-0.518-4.4336-0.657c0.2153 0.2873 0.4491 0.5601 0.6999 0.817 0.2583 0.2734 0.5571 0.5055 0.8859 0.688 0 0 3.9997 3.2397 4.6926 3.2697 0.1 0 0.129 0.1 0.114 0.253 1.6839 0 6.9194 0.245 5.4665 3.16-0.2402 0.52-0.664 0.933-1.1899 1.159-1.6798 0.712-4.2146-0.569-5.5195-1.355-0.127 0.249-0.249 0.48-0.357 0.678-0.2219 0.418-0.3759 0.694-0.3759 0.694l-0.131-0.094-6.7274-4.791-1.4739-1.251c-0.4329-0.02-0.8616-0.094-1.2759-0.222l-0.1999-0.063c-0.0087 0.017-0.0161 0.035-0.022 0.053-0.0538 0.153-0.094 0.31-0.12 0.47v0.071c-0.0276 0.183-0.0459 0.367-0.055 0.551 0 0.125-0.01 0.259-0.01 0.392 0.1305 2.349 0.4851 4.68 1.0589 6.961 0 0 2.7737 7.075 1.7898 8.708-0.0518 0.084-0.1198 0.156-0.2 0.212-0.3653 0.314-0.6015 0.752-0.6629 1.229-0.1677 1.464-0.0743 2.947 0.276 4.378 0 0-0.059 0.1-0.159 0.251-0.2163 0.346-0.46 0.674-0.7289 0.98-0.041 0.047-0.084 0.1-0.129 0.141-0.1214 0.128-0.2525 0.246-0.392 0.353 0.025 0.076 0.053 0.155 0.08 0.239s0.063 0.216 0.09 0.333c0.2184 0.964 0.1328 1.971-0.245 2.884-0.2569 0.666-0.423 1.363-0.494 2.072-0.1273 1.3-0.0937 2.609 0.1 3.9-0.029-0.016-0.055-0.031-0.0839-0.045-2.1679-1.133-4.305-2.316-6.4115-3.55-0.6179-0.357-1.2309-0.721-1.8408-1.088-0.75-0.452-1.4969-0.909-2.2408-1.372-0.9799-0.611-1.9602-1.238-2.9407-1.88l-0.459-0.306-0.176-0.12c-0.249-0.167-0.494-0.333-0.7409-0.5-1.0135-1.31-1.9394-2.685-2.7718-4.117-0.139-0.249-0.265-0.486-0.3689-0.7v-0.014l-0.067-0.143-0.276-0.1c-0.519-0.182-0.8489-0.31-0.8489-0.31 0.2397-0.874 0.3545-1.779 0.3409-2.686 0.033-2.262-0.8783-4.437-2.5147-6-1.9704-1.68-3.2006-4.068-3.4247-6.648v-0.2c-1e-3 -0.09 3e-3 -0.179 0.012-0.269l0.2269-0.218c-0.5759-0.116-1.1169-0.169-1.1169-0.169s1.9719-7.1357 5.2926-9.5167c1.6401-1.3205 2.9956-2.9599 3.9846-4.819 1.7666-3.0391 3.7502-5.9466 5.9355-8.7l0.5999-0.755 0.174-0.222 0.037-0.045 0.047-0.063c-0.0813-0.1226-0.1637-0.2443-0.247-0.365l-0.055-0.08c-0.2883-0.3541-0.4467-0.7963-0.4489-1.253v-0.114c0.0082-0.078 0.0226-0.1552 0.043-0.231 0.0068 0.0124 0.0149 0.0242 0.024 0.035 0.2799-0.816 1.3598-1.176 2.1558-1.627 1.8758-1.055 2.6757-3.362 3.0777-5.509 0.312-1.67 0.57-3.542 1.8638-4.615 0.835-0.69 1.9599-0.917 2.8048-1.6 0.4888-0.4319 0.893-0.9511 1.1919-1.531 0.2-0.333 0.3649-0.678 0.5469-1.012 0.7872-1.5385 1.9522-2.8519 3.3857-3.817 1.4426-0.956 3.245-1.1946 4.8866-0.647 0.6139 0.233 1.1759 0.588 1.7638 0.849 0.363 0.1481 0.738 0.2649 1.1209 0.349 1.2186 0.1716 2.4185 0.4572 3.5837 0.853 1.8288 0.812 3.0187 2.607 4.0997 4.313 0.7603 1.0909 1.4129 2.253 1.9488 3.47v-0.135c0.2415 0.5704 0.3744 1.1809 0.3919 1.8 0.0099 0.264-0.0184 0.5281-0.084 0.784-0.1854 0.6206-0.6297 1.1309-1.2188 1.4l-0.092 0.045c-0.1236 0.0637-0.2504 0.1208-0.38 0.171-0.02 0.108-0.041 0.218-0.065 0.323-0.01 0.045-0.022 0.092-0.033 0.137-0.025 0.11-0.055 0.218-0.086 0.325-0.4181 1.4028-1.2352 2.6536-2.3518 3.6-0.7729 0.6613-1.6661 1.1672-2.6308 1.49-0.0689 0.024-0.1409 0.041-0.2099 0.063-0.0583 0.1642-0.1416 0.3183-0.247 0.457-0.0765 0.0978-0.1663 0.1844-0.267 0.257-0.0639 0.0427-0.1307 0.0808-0.2 0.114-0.0166 0.0103-0.0344 0.0187-0.053 0.025-0.8029 0.2599-1.6824 0.1081-2.3517-0.406-0.035-0.024-0.069-0.051-0.1-0.076-0.0032 0.1178-0.0155 0.2352-0.037 0.351-0.02 0.122-0.033 0.2-0.055 0.3s-0.029 0.151-0.043 0.224-0.024 0.122-0.035 0.178l-0.024 0.1c-0.3883 1.8923-1.1291 3.6947-2.1838 5.313-0.1542 0.232-0.3212 0.4554-0.5 0.669l-0.4859 0.741v0.1c0.0435 1.6443-0.3944 3.2654-1.2599 4.664-0.2651 0.4535-0.5562 0.8912-0.8719 1.311l0.1099 0.065c1.1 0.625 3.2617 1.737 4.6296 1.643 0 0 5.1746 0.668 5.7745 0.333 0.082-0.047 0.163 0.018 0.237 0.157 1.3009-0.85 2.7548-1.4386 4.2806-1.733 0.4919-0.1274 1.0151-0.0239 1.4214 0.2813 0.4063 0.3051 0.6516 0.7788 0.6664 1.2867 0.1309 1.1799-0.594 2.2866-1.7278 2.638z" fill="url(#a)"/>
<path d="m31.933 123.08c0.671 1.146 0.7751 2.537 0.282 3.77-0.4108 1.213-0.574 2.497-0.48 3.774-0.6179-0.357-1.2308-0.721-1.8408-1.088-0.7499-0.452-1.4969-0.909-2.2408-1.372-0.9799-0.611-1.9601-1.238-2.9407-1.88l-0.459-0.306-0.176-0.12c-0.0154-0.028-0.0346-0.054-0.057-0.078-0.9947-1.316-1.8968-2.699-2.6997-4.14-0.165-0.306-0.308-0.588-0.421-0.847v-0.014c-0.1692-0.284-0.2489-0.613-0.229-0.943 0.1441-0.505 0.4874-0.929 0.951-1.176 1.1289-0.588 2.9407-0.045 4.7315 0.819 1.5416 0.779 3.0191 1.68 4.4186 2.692l0.159 0.116 0.016 0.012c0.588 0.418 0.9289 0.694 0.9289 0.694 0.0206 0.028 0.0397 0.057 0.057 0.087z" fill="#FBBEBE"/>
<path d="m31.635 122.82c0.6723 1.147 0.7764 2.54 0.282 3.774-0.4109 1.214-0.5741 2.498-0.4799 3.776-0.6166-0.359-1.2303-0.722-1.8409-1.09-0.7512-0.452-1.4982-0.909-2.2408-1.372-0.9799-0.614-1.9598-1.241-2.9307-1.882l-0.459-0.306-0.176-0.12c-0.0159-0.028-0.035-0.054-0.0569-0.078-0.9957-1.315-1.8979-2.698-2.6998-4.14-0.165-0.306-0.308-0.588-0.421-0.847v-0.012c-0.1692-0.285-0.249-0.614-0.229-0.945 0.1448-0.504 0.4879-0.929 0.951-1.176 1.1289-0.588 2.9407-0.045 4.7315 0.819 1.5417 0.78 3.0192 1.68 4.4187 2.692l0.1589 0.116 0.016 0.012c0.588 0.417 0.9289 0.694 0.9289 0.694s0.0131 0.028 0.047 0.085z" fill="#000" opacity=".05"/>
<path d="m38.852 127.57c-0.0569 0.336-0.1494 0.664-0.276 0.98-0.217 0.569-0.3664 1.161-0.4449 1.764-0.1543 1.281-0.1489 2.577 0.016 3.856-2.1678-1.133-4.305-2.316-6.4115-3.55-0.6179-0.357-1.2309-0.721-1.8408-1.088-0.0365-0.758-0.2252-1.502-0.555-2.186-1.0961-1.443-2.0904-2.96-2.9757-4.542-0.133-0.235-0.249-0.463-0.357-0.678v-0.01c-0.041-0.086-0.08-0.169-0.1179-0.251-0.2276-0.367-0.3439-0.793-0.335-1.225 0.1377-0.464 0.4209-0.872 0.8079-1.164 1.7388-1.27 5.3535 0.449 8.1293 2.156l0.069 0.041c0.5249 0.327 1.0229 0.651 1.4698 0.953l0.261 0.176c1.1489 0.784 1.9108 1.394 1.9108 1.394 0.1895 0.293 0.3417 0.607 0.453 0.937 0.0656 0.186 0.12 0.376 0.163 0.568 0.1353 0.615 0.1469 1.25 0.034 1.869z" fill="#FBBEBE"/>
<path d="m21.328 121.64c1.5029 0.584 3.0724 0.979 4.6726 1.176 0.1186 4e-3 0.2373-2e-3 0.355-0.018 1.8612-0.036 3.7226 0.056 5.5715 0.273 0.9139 0.08 1.7938 0.165 2.5207 0.239l1.8269 0.2v-0.706c-0.508-0.349-1.0999-0.737-1.7289-1.129-2.7857-1.721-6.4454-3.48-8.1992-2.2-2.4678-1.192-4.9726-1.764-5.6845 0.357 0.0636 0.65 0.2929 1.272 0.6659 1.808z" fill="#000" opacity=".1"/>
<path d="m14.482 105.2c0.2052 2.529 1.377 4.882 3.2716 6.569 3.6187 3.529 2.0759 8.6 2.0759 8.6s4.3126 1.694 6.1724 1.739c0.1186 4e-3 0.2373-2e-3 0.355-0.018 2.7076 8e-3 5.4123 0.179 8.0993 0.512l1.8268 0.2v-15l-19.982-4.854-1.8089 1.8c-0.0131 0.15-0.0163 0.301-0.0099 0.452z" fill="#5C5C8E"/>
<g fill="#000" opacity=".1">
<path d="m35.954 122.62 0.327 0.033v0.161l-1.827-0.2c-1.829-0.184-4.624-0.447-6.469-0.523 2.6639 0.033 5.3241 0.21 7.969 0.529z"/>
<path d="m14.488 104.76 1.8088-1.8 1.2079 0.292-1.5078 1.511c-0.0096 0.151-0.0096 0.301 0 0.451 0.2056 2.529 1.3772 4.882 3.2717 6.569 3.6187 3.529 2.0758 8.6 2.0758 8.6 1.8185 0.724 3.696 1.289 5.6115 1.69-0.1965-1e-3 -0.3928 0.01-0.5879 0.033-0.1177 0.016-0.2364 0.022-0.355 0.018-1.8599-0.047-6.1725-1.741-6.1725-1.741s1.5429-5.071-2.0758-8.6c-1.9004-1.682-3.0776-4.033-3.2857-6.563-7e-3 -0.153-4e-3 -0.307 9e-3 -0.46z"/>
</g>
<path d="m54.419 94.607s6.044-4.191 6.485-0.419-6.485 3.246-6.485 3.246v-2.827z" fill="#FBBEBE"/>
<path d="m43.998 91.832s3.2677 2.156 5.0766 2.029c0 0 4.9395 0.663 5.5135 0.331 0.5739-0.332 0.9269 4.7869 0.9269 4.7869l-8.1173-0.5739-5.2065-0.794s-2.5998-1.588-2.5998-2.956 4.4066-2.823 4.4066-2.823z" fill="#F7CDDD"/>
<path d="m43.998 91.832s3.2677 2.156 5.0766 2.029c0 0 4.9395 0.663 5.5135 0.331 0.5739-0.332 0.9269 4.7869 0.9269 4.7869l-8.1173-0.5739-5.2065-0.794s-2.5998-1.588-2.5998-2.956 4.4066-2.823 4.4066-2.823z" fill="currentColor"/>
<path d="m48.789 102.74s7.349-0.3 5.7 3.119-7.214-0.733-7.214-0.733l1.514-2.386z" fill="#FBBEBE"/>
<path d="m41.399 95.448s5.956-4.456 5.118-9.882-5.118 4.148-5.118 4.148v5.734z" fill="#5C5C8E"/>
<path d="m43.049 70.848c0.0018 3.0651 1.8599 5.8237 4.6996 6.977 0.314 0.1316 0.6376 0.2392 0.9679 0.322 0.3508 0.0919 0.7076 0.1588 1.0679 0.2 0.259 0.025 0.5199 0.039 0.7839 0.039 0.8423-0.0016 1.6782-0.1467 2.4718-0.429 3.6218-1.2592 5.7182-5.0399 4.8683-8.7792-0.85-3.7394-4.3747-6.2421-8.1849-5.8118-3.8101 0.4304-6.6879 3.6563-6.6825 7.491l8e-3 -9e-3z" fill="#FBBEBE"/>
<path d="m14.482 105.2c0.6739 0.124 1.5078 0.351 1.5078 0.7 0 0.588 9.4092 3.766 9.4092 3.766s-0.353 0.821 0.5879 2.235c0.941 1.414 8.5913 9.529 8.5913 9.529l-0.025 0.239-0.1 0.935-0.467 4.472c1.2478-0.48 2.5525-0.796 3.8817-0.941 0.3608-7e-3 0.7017-0.167 0.9389-0.439-0.1124-0.533-0.3204-1.041-0.614-1.5 0 0-0.7629-0.6-1.9128-1.394v-15l-19.982-4.854-1.8088 1.8c-0.012 0.151-0.0144 0.301-7e-3 0.452z" fill="#000" opacity=".1"/>
<path d="m13.634 104.38s2.3518 0.233 2.3518 0.823 9.4092 3.766 9.4092 3.766-0.353 0.821 0.5879 2.235 8.5912 9.529 8.5912 9.529l-0.5879 5.646c1.2477-0.48 2.5525-0.796 3.8817-0.941 0.4209 0.053 0.8859-0.337 1.2699-0.784 0.3187-0.377 0.6029-0.782 0.8489-1.21 0 0-1.0609-4.474 0.3529-5.532 1.4139-1.058-1.5288-8.822-1.5288-8.822s-1.3309-5.52-0.9389-7.888c0.025-0.158 0.0631-0.313 0.1139-0.465 0.0024-0.018 0.0085-0.036 0.018-0.053 0.839-2.2618 9.8642-21.24 9.8642-21.24-0.0059-0.5381-0.044-1.0754-0.114-1.609-0.018-0.149-0.041-0.3-0.071-0.459-0.0455-0.2821-0.1062-0.5615-0.182-0.837-0.051-0.18-0.106-0.353-0.171-0.518-0.278-0.717-0.7059-1.268-1.3449-1.282-0.6508-0.5846-1.4789-0.9339-2.3517-0.992-1.8209-0.1439-3.6474 0.1985-5.2926 0.992-5.5275 2.352-6.8214 2.47-6.8214 2.47l-2.7797 3.64-0.572 0.749c-2.0917 2.7278-3.9853 5.6018-5.6665 8.6-0.9376 1.8286-2.2323 3.4506-3.8076 4.77-3.1757 2.355-5.0596 9.4118-5.0596 9.4118z" fill="currentColor"/>
<path d="m34.254 90.773s-7.853 1.941-10.9 6.838l10.9-6.838z" fill="#3D3691" opacity=".1"/>
<path d="m31.825 99.375s-1.484 9.9698-1.072 10.721 1.072-10.721 1.072-10.721z" fill="#3D3691" opacity=".1"/>
<path d="m32.357 104.49c0.572 0.749 2.892 6.53 2.892 6.53l-0.67 9.706-0.588 5.646c1.2482-0.48 2.5534-0.796 3.883-0.941 0.42 0.053 0.886-0.335 1.27-0.784-0.612-3.307-1.917-10.225-2.156-10.359-0.312-0.176-1.9-5.736-1.984-7.281s-2.3-5.026-2.3-5.026-0.926 1.759-0.347 2.509z" fill="#3D3691" opacity=".1"/>
<path d="m34.578 94.964c0.143 0.441 0.3709 3 0.3709 3 0.0861 1.6337 1.3077 2.9827 2.9248 3.2287 0.025-0.158 0.0631-0.313 0.114-0.465 0.7059-1.9998 9.8811-21.293 9.8811-21.293-0.0097-0.9793-0.1328-1.9542-0.367-2.9051-1.9998-0.588-5.1615 0.318-5.1615 0.318-0.9139-0.12-3.8997 5.81-3.8997 5.81s-1.9878 4.5421-2.2048 5.1601c-0.0886 0.6587-0.118 1.324-0.088 1.9879-0.088 0.353-1.0169 0.659-1.1489 1.147-0.1319 0.488-0.045 1.453-0.133 1.629-0.2305 0.7719-0.3279 1.5775-0.2879 2.3821z" fill="#3D3691" opacity=".1"/>
<path d="m35.283 94.611c0.145 0.441 0.3699 3 0.3699 3 0.0514 1.418 0.9954 2.6477 2.3518 3.0637 0.4541 0.162 0.9294 0.257 1.4109 0.282l1.4189 1.231 6.5494 4.832s2.4428-4.509 1.7798-4.538c-0.6629-0.029-4.4826-3.2347-4.4826-3.2347-1.1758-0.623-2.3407-2.709-2.8837-3.78 0.0322-0.129 0.0559-0.2599 0.071-0.392 0.237-2 5.1765-9.645 5.1765-9.645 1.392-1.8909 2.3027-4.0923 2.6538-6.414 0.022-0.094 0.035-0.2 0.053-0.292 0.021-0.1297 0.0341-0.2606 0.039-0.392 0.088-1.6-1.0759-2.184-2.4598-2.323-0.7189-0.0557-1.4417-0.0333-2.1558 0.067-0.7144 0.0894-1.4217 0.2284-2.1168 0.416-0.588-0.076-2.0508 2.384-3.0067 4.127-0.516 0.945-0.886 1.684-0.886 1.684s-1.9998 4.544-2.2208 5.162c-0.0916 0.6584-0.121 1.324-0.088 1.988-0.0879 0.355-1.0169 0.659-1.1469 1.147-0.1299 0.488-0.047 1.453-0.1349 1.629-0.2299 0.7721-0.3286 1.5773-0.292 2.382z" fill="currentColor"/>
<path d="m27.683 84.441c1.359 1.1647 3.2789 1.4132 4.8896 0.633 1.5716-0.792 3.0764-1.71 4.4996-2.745 0.9799-0.588 2.0068-1.0841 2.9677-1.7001 0.141-0.092 0.278-0.184 0.412-0.278 1.1099-0.784 2.0678-1.7899 3.2147-2.5089 0.7686-0.5086 1.6628-0.7948 2.5838-0.8271 0.4249-0.0042 0.8456 0.0843 1.2329 0.2591 0.0689 0.0286 0.1357 0.062 0.2 0.0999 0.3768 0.2182 0.7257 0.4814 1.0389 0.784 0.3229 0.292 0.6349 0.6001 0.9799 0.8741 0.022-0.094 0.035-0.2 0.053-0.292 0.021-0.1298 0.034-0.2607 0.039-0.3921 0.259 0.025 0.5189 0.039 0.7839 0.039 0.8442-0.0044 1.6815-0.1528 2.4758-0.4389 0.0029-0.0338 0.0089-0.0674 0.018-0.1001 0.1416-1.5006 0.8513-2.8904 1.9838-3.885 0.8794-0.4434 1.8022-0.7949 2.7538-1.0489 0.9119-3.1755-0.3531-6.5746-3.1191-8.3811s-6.3865-1.5982-8.9272 0.5136c-2.5406 2.1118-3.4075 5.6335-2.1375 8.6835-1.8209-0.1439-3.6473 0.1984-5.2925 0.992-5.5275 2.352-6.8214 2.4699-6.8214 2.4699l-2.7637 3.646c0.3447 0.4163 0.5755 0.9149 0.6699 1.4471 0.055 0.999-0.9019 1.684-1.7349 2.156z" fill="#000" opacity=".1"/>
<path d="m55.057 73.267c-1.1297 0.9959-1.8388 2.3839-1.9839 3.883-0.0481 0.4682-0.2038 0.9189-0.4549 1.317-0.6329 0.821-1.9068 0.588-2.7348 0-0.7381-0.7077-1.5417-1.3439-2.3998-1.9-1.2878-0.4501-2.7146-0.2369-3.8146 0.57-1.1469 0.719-2.1068 1.725-3.2167 2.507-1.0719 0.757-2.2678 1.3-3.3857 1.976-1.4213 1.0377-2.9264 1.9555-4.4996 2.744-1.6095 0.7794-3.5278 0.5317-4.8866-0.631 0.8329-0.463 1.7899-1.1471 1.7249-2.1371s-1.2189-1.733-1.1409-2.7449c0.078-1.012 1.2719-1.415 2.1288-1.913 1.7938-1.043 2.5477-3.333 2.9407-5.45 0.3-1.653 0.543-3.5 1.7798-4.562 0.8-0.684 1.8759-0.908 2.6778-1.584 0.7029-0.729 1.2662-1.5808 1.6619-2.513 0.7411-1.5117 1.8525-2.8113 3.2307-3.778 1.3664-0.9437 3.1004-1.1802 4.6696-0.637 0.5879 0.229 1.1129 0.588 1.6898 0.837 1.4309 0.619 3.0717 0.537 4.4906 1.188 1.7469 0.8 2.8817 2.58 3.9207 4.266 0.8879 1.441 2.6247 3.991 2.1388 5.854-0.492 1.902-3.2407 1.8-4.5366 2.708z" fill="#7C5C5C"/>
<g fill="#000" opacity=".1">
<path d="m28.27 78.73c0.0064-0.0774 0.0201-0.1541 0.041-0.229 0.3761 0.4521 0.6329 0.9912 0.747 1.568 0.0089 0.1343-0.0022 0.2691-0.033 0.4-0.4289-0.4854-0.6931-1.0942-0.755-1.739z"/>
<path d="m32.219 82.836c1.5716-0.7917 3.0765-1.7097 4.4996-2.745 1.1169-0.68 2.3128-1.219 3.3857-1.976 1.1099-0.784 2.0698-1.79 3.2167-2.507 1.1004-0.8058 2.5267-1.0189 3.8146-0.57 0.8593 0.5545 1.663 1.1908 2.3998 1.9 0.8329 0.6 2.0998 0.831 2.7348 0.01 0.2519-0.3969 0.4077-0.8472 0.4549-1.315 0.142-1.5005 0.8516-2.8902 1.9839-3.885 1.2998-0.906 4.0436-0.8 4.5416-2.715 0.083-0.339 0.105-0.6902 0.0649-1.037 0.3412 0.7682 0.4423 1.6215 0.29 2.448-0.4999 1.911-3.2457 1.809-4.5436 2.715-1.1294 0.997-1.8384 2.3855-1.9838 3.885-0.0471 0.4675-0.2022 0.9177-0.453 1.315-0.6349 0.821-1.9088 0.588-2.7437-0.01-0.7372-0.7087-1.5409-1.345-2.3998-1.9-1.2879-0.4489-2.7142-0.2358-3.8147 0.57-1.1469 0.717-2.1068 1.725-3.2167 2.507-1.0719 0.759-2.2678 1.3-3.3857 1.976-1.4208 1.0385-2.9259 1.9563-4.4996 2.744-1.6099 0.779-3.5282 0.5305-4.8865-0.633 0.3206-0.1724 0.6251-0.3732 0.9099-0.6 1.1924 0.3775 2.4806 0.3147 3.6307-0.177z"/>
</g>
<path d="m159.88 63.591-8.037-8.0829c-0.796-0.8136-1.883-1.2756-3.021-1.2834-1.138-0.0076-2.232 0.4396-3.039 1.2424l-50.467 50.044-21.338-21.507c-1.6499-1.6734-4.3438-1.6926-6.0175-0.0429l-8.1232 8.037c-1.6701 1.6686-1.6884 4.3699-0.041 6.0609l32.405 32.664c1.6679 1.671 4.369 1.69 6.0604 0.043l61.574-61.116c0.813-0.7953 1.275-1.8825 1.284-3.0201 8e-3 -1.1376-0.438-2.2316-1.239-3.0389h-1e-3z" fill="#3ACC6C"/>
<g opacity=".5">
<path d="m147.77 128.4s-5.995-0.361-5.293 3.84c-0.074 0.437 0.141 0.872 0.533 1.078 0 0 0-0.312 0.614-0.206 0.216 0.037 0.435 0.047 0.653 0.031 0.296-0.018 0.577-0.133 0.8-0.327 0 0 1.684-0.7 2.341-3.452 0 0 0.484-0.6 0.465-0.755l-1.012 0.433c0.195 0.419 0.221 0.897 0.074 1.335 0 0-0.033-1.31-0.227-1.278-0.039 0-0.525 0.253-0.525 0.253 0.324 0.689 0.376 1.475 0.145 2.2 0 0 0.171-1.568-0.331-2.1l-0.712 0.416c0.386 0.735 0.466 1.591 0.223 2.384 0.079-0.78-0.05-1.567-0.374-2.282l-0.645 0.5c0.351 0.672 0.442 1.45 0.255 2.184 0 0-0.051-1.913-0.392-2.058-0.245 0.206-0.463 0.441-0.651 0.7 0 0 0.447 0.939 0.171 1.435 0 0-0.171-1.276-0.31-1.28-0.293 0.432-0.503 0.913-0.621 1.421 0.028-0.533 0.195-1.05 0.484-1.5-0.324 0.063-0.623 0.218-0.861 0.447 0 0 0.086-0.588 1-0.651 0.17-0.247 0.367-0.475 0.588-0.678-0.492-0.042-0.988 0.016-1.458 0.169 0.446-0.389 1.066-0.506 1.623-0.308l0.637-0.52c-0.564-0.087-1.138-0.081-1.7 0.016 0.568-0.341 1.264-0.391 1.874-0.135l0.694-0.414c-0.534-0.117-1.081-0.164-1.627-0.141 0.592-0.222 1.246-0.212 1.831 0.029l0.5-0.223s-0.747-0.147-0.966-0.169-0.229-0.084-0.229-0.084c0.472-0.078 0.957-0.023 1.4 0.157 0.356-0.124 0.701-0.281 1.029-0.467z" fill="currentColor"/>
</g>
<g opacity=".5">
<path d="m137.01 99.063s-3.044 5.1768 1.021 6.4548c0.355 0.263 0.839 0.269 1.2 0.016 0 0-0.272-0.151 0.094-0.641 0.131-0.176 0.24-0.366 0.325-0.567 0.115-0.271 0.139-0.573 0.069-0.859 0 0 0.143-1.817-2.013-3.6518 0 0-0.316-0.706-0.461-0.759l-0.075 1.0998c0.462 0.018 0.9 0.212 1.223 0.541 0 0-1.176-0.565-1.243-0.378-0.012 0.039-0.014 0.588-0.014 0.588 0.76 0.022 1.484 0.332 2.023 0.867 0 0-1.317-0.863-2.025-0.659l0.047 0.823c0.83-0.011 1.63 0.306 2.227 0.882-0.659-0.422-1.417-0.664-2.2-0.7l0.155 0.8c0.758-0.011 1.493 0.261 2.06 0.763 0 0-1.727-0.821-2.011-0.588 0.078 0.311 0.188 0.613 0.329 0.9 0 0 1.041 0.027 1.357 0.5 0 0-1.213-0.427-1.282-0.306 0.252 0.456 0.584 0.863 0.98 1.2-0.463-0.267-0.849-0.652-1.119-1.115-0.096 0.32-0.096 0.661 0 0.98 0 0-0.492-0.349-0.124-1.176-0.144-0.264-0.258-0.543-0.339-0.833-0.259 0.419-0.433 0.885-0.512 1.372-0.143-0.574 0.034-1.181 0.463-1.588l-0.172-0.8c-0.333 0.464-0.589 0.979-0.759 1.525-0.047-0.661 0.225-1.304 0.731-1.731l-0.055-0.806c-0.346 0.422-0.637 0.887-0.863 1.384 0.07-0.628 0.376-1.206 0.855-1.617l0.027-0.543s-0.47 0.6-0.588 0.784-0.178 0.167-0.178 0.167c0.144-0.456 0.412-0.863 0.774-1.176 0.059-0.3813 0.083-0.7671 0.073-1.1528z" fill="currentColor"/>
</g>
<g opacity=".5">
<path d="m117.97 57.757s-3.042 5.179 1.021 6.455c0.355 0.264 0.839 0.2705 1.2 0.016 0 0-0.272-0.151 0.1-0.641 0.13-0.1757 0.238-0.366 0.323-0.567 0.116-0.2713 0.14-0.5728 0.069-0.859 0 0 0.145-1.817-2.013-3.652 0 0-0.316-0.7-0.461-0.757l-0.075 1.1c0.462 0.0177 0.9 0.2112 1.223 0.541 0 0-1.176-0.565-1.241-0.378-0.014 0.039-0.014 0.588-0.014 0.588 0.76 0.0213 1.482 0.331 2.021 0.866 0 0-1.317-0.863-2.025-0.659l0.049 0.823c0.829-0.011 1.629 0.3061 2.225 0.882-0.659-0.4214-1.418-0.6627-2.2-0.7l0.155 0.8c0.759-0.0106 1.494 0.2622 2.062 0.765 0 0-1.729-0.823-2.013-0.588 0.078 0.3112 0.189 0.613 0.331 0.9 0 0 1.039 0.027 1.355 0.5 0 0-1.213-0.427-1.28-0.306 0.251 0.4567 0.583 0.8634 0.98 1.2-0.464-0.2669-0.85-0.6506-1.121-1.113-0.093 0.3158-0.093 0.6521 0 0.968 0 0-0.492-0.349-0.124-1.186-0.144-0.2637-0.258-0.5432-0.339-0.833-0.26 0.4189-0.434 0.8852-0.512 1.372-0.143-0.5745 0.035-1.1816 0.465-1.588l-0.174-0.8c-0.333 0.4639-0.589 0.979-0.757 1.525-0.048-0.6605 0.223-1.3042 0.729-1.731l-0.055-0.806c-0.347 0.4216-0.637 0.8869-0.863 1.384 0.07-0.6273 0.376-1.2047 0.855-1.615l0.027-0.545s-0.47 0.6-0.588 0.784-0.178 0.167-0.178 0.167c0.148-0.4571 0.419-0.8642 0.784-1.176 0.054-0.3761 0.074-0.7563 0.059-1.136z" fill="currentColor"/>
</g>
<g opacity=".5">
<path d="m54.316 0.62427s-11.331 8.233-3.831 14.756c0.5139 0.8979 1.5467 1.3638 2.56 1.155 0 0-0.443-0.576 0.8-1.282 0.4411-0.2537 0.8504-0.5592 1.219-0.91 0.4987-0.4697 0.8311-1.0888 0.947-1.764 0 0 2-3.752-0.9-9.684 0 0-0.018-1.8-0.282-2.051l-1.176 2.278c0.9718 0.46921 1.7277 1.292 2.113 2.3 0 0-2-2.311-2.305-1.96-0.061 0.069-0.572 1.235-0.572 1.235s2.958 1.408 3.519 3.736c0 0-2.015-3.074-3.725-3.3l-0.665 1.805s3.2 1.335 3.938 3.962c0 0-2.219-3.137-4.058-3.558l-0.416 1.864s3.093 1.362 3.7 3.552c0 0-2.941-3.368-3.762-3.119-0.1338 0.73493-0.1777 1.4834-0.131 2.229 0 0 2.2 1.029 2.435 2.333 0 0-2.2-2.043-2.456-1.847 0.1132 1.211 0.4488 2.3907 0.99 3.48-0.7441-1.0043-1.2126-2.1857-1.359-3.427-0.4916 0.5925-0.8001 1.3152-0.888 2.08 0 0-0.729-1.206 0.837-2.652-0.0626-0.6998-0.0441-1.4045 0.055-2.1-0.9493 0.65423-1.7579 1.4921-2.378 2.464 0 0 0.037-1.733 2.47-2.962l0.376-1.88c-1.144 0.67959-2.1703 1.5401-3.039 2.548 0 0 0.312-1.764 3.172-3.023l0.635-1.774c-1.134 0.58084-2.1884 1.3055-3.137 2.156 0 0 0.641-1.568 3.333-2.66l0.563-1.137s-1.568 0.843-1.99 1.125-0.539 0.2-0.539 0.2c0.7339-0.84399 1.6882-1.4672 2.756-1.8 0.4668-0.75222 0.8654-1.5447 1.191-2.368z" fill="currentColor"/>
</g>
<g opacity=".5">
<path d="m32.649 30.135s-5.1995-12.011-12.667-6.5c-0.9235 0.2848-1.5573 1.1336-1.5678 2.1 0 0 0.6159-0.286 0.9999 0.994 0.1443 0.4549 0.3417 0.8912 0.5879 1.3 0.3284 0.5524 0.8279 0.9825 1.4229 1.225 0 0 3.0107 2.592 9.0172 1.155 0.6289 0.1604 1.2799 0.2155 1.9268 0.163l-1.8368-1.543c-0.6246 0.7907-1.5279 1.3123-2.5248 1.458 0 0 2.5148-1.353 2.2618-1.7-0.051-0.071-1.0079-0.772-1.0079-0.772s-1.8878 2.407-4.1166 2.445c0 0 3.2127-1.212 3.7616-2.715l-1.5088-0.98s-1.8999 2.652-4.4416 2.792c0 0 3.3127-1.382 4.0716-2.974l-1.6129-0.751s-1.8738 2.548-3.9926 2.645c0 0 3.6677-1.984 3.6107-2.794-0.6424-0.272-1.3157-0.4641-2.0048-0.572 0 0-1.3859 1.794-2.6228 1.743 0 0 2.3108-1.586 2.1838-1.862-1.1286-0.1432-2.2739-0.0754-3.3777 0.2 1.067-0.4724 2.239-0.6576 3.3997-0.537-0.4383-0.5708-1.0346-1.0002-1.7149-1.235 0 0 1.2489-0.418 2.2468 1.3 0.6496 0.0859 1.287 0.2463 1.8999 0.478-0.4026-0.9995-1.0025-1.9075-1.7639-2.67 0 0 1.5679 0.392 2.1998 2.856l1.6369 0.727c-0.3858-1.1827-0.9623-2.2944-1.7069-3.291 0 0 1.5429 0.643 2.1069 3.509l1.4878 0.939c-0.2975-1.1528-0.7436-2.2621-1.3269-3.3 0 0 1.2999 0.906 1.7449 3.585l0.9209 0.745s-0.451-1.6-0.6209-2.043c-0.17-0.443-0.063-0.529-0.063-0.529 0.6182 0.8412 0.9907 1.8376 1.0759 2.878 0.5903 0.5676 1.2313 1.08 1.9148 1.531z" fill="currentColor"/>
</g>
<g opacity=".5">
<path d="m133.93 36.388s-1.225-5.881-5.1-4.1c-0.442 0.0432-0.805 0.3663-0.9 0.8 0 0 0.3-0.073 0.361 0.539 0.022 0.217 0.068 0.4308 0.139 0.637 0.098 0.2781 0.283 0.5172 0.527 0.682 0 0 1.114 1.443 3.942 1.353 0 0 0.708 0.31 0.853 0.251l-0.684-0.863c-0.353 0.297-0.807 0.4476-1.268 0.421 0 0 1.255-0.374 1.176-0.555-0.018-0.037-0.382-0.441-0.382-0.441-0.577 0.4946-1.321 0.751-2.08 0.717 0 0 1.555-0.247 1.943-0.872l-0.588-0.578c-0.607 0.5654-1.413 0.8677-2.243 0.841 0.774-0.1294 1.5-0.4602 2.105-0.959l-0.655-0.49c-0.556 0.5141-1.283 0.805-2.041 0.817 0 0 1.833-0.553 1.882-0.921-0.264-0.1819-0.549-0.3307-0.849-0.443 0 0-0.784 0.678-1.339 0.541 0 0 1.176-0.5 1.155-0.635-0.494-0.1694-1.015-0.2456-1.537-0.225 0.524-0.1132 1.068-0.0881 1.578 0.073-0.144-0.2974-0.372-0.5457-0.657-0.714 0 0 0.6-0.073 0.89 0.784 0.285 0.0985 0.557 0.2301 0.81 0.392-0.089-0.4888-0.274-0.955-0.545-1.372 0.492 0.3292 0.768 0.8979 0.723 1.488l0.668 0.478c-0.064-0.5679-0.22-1.1215-0.463-1.639 0.477 0.4551 0.708 1.1106 0.621 1.764l0.588 0.561c-0.026-0.5456-0.124-1.0855-0.29-1.606 0.368 0.5098 0.529 1.1401 0.451 1.764l0.345 0.421s-0.053-0.759-0.088-0.98 0.02-0.245 0.02-0.245c0.202 0.4374 0.277 0.9222 0.218 1.4 0.211 0.3251 0.45 0.631 0.714 0.914z" fill="currentColor"/>
</g>
<g opacity=".5">
<path d="m112.83 145.41s-1.223-5.881-5.1-4.1c-0.441 0.044-0.804 0.367-0.9 0.8 0 0 0.3-0.073 0.361 0.539 0.021 0.218 0.069 0.431 0.141 0.637 0.098 0.278 0.282 0.517 0.525 0.682 0 0 1.114 1.443 3.944 1.353 0 0 0.708 0.31 0.851 0.251l-0.682-0.863c-0.354 0.298-0.808 0.448-1.27 0.421 0 0 1.255-0.374 1.176-0.555-0.016-0.037-0.382-0.441-0.382-0.441-0.577 0.495-1.32 0.751-2.08 0.717 0 0 1.557-0.247 1.943-0.872l-0.588-0.588c-0.602 0.569-1.407 0.871-2.235 0.839 0.774-0.129 1.5-0.46 2.105-0.959l-0.655-0.49c-0.556 0.515-1.282 0.806-2.039 0.817 0 0 1.833-0.551 1.882-0.921-0.264-0.181-0.549-0.33-0.849-0.443 0 0-0.784 0.678-1.341 0.541 0 0 1.176-0.5 1.155-0.635-0.494-0.169-1.015-0.245-1.537-0.225 0.524-0.113 1.069-0.088 1.58 0.073-0.145-0.296-0.373-0.545-0.657-0.714 0 0 0.6-0.073 0.888 0.784 0.285 0.099 0.558 0.23 0.812 0.392-0.089-0.488-0.274-0.955-0.545-1.372 0.492 0.329 0.768 0.898 0.721 1.488l0.67 0.478c-0.065-0.568-0.222-1.121-0.465-1.639 0.478 0.455 0.71 1.111 0.623 1.764l0.588 0.561c-0.026-0.545-0.124-1.085-0.292-1.605 0.37 0.51 0.532 1.14 0.453 1.764l0.345 0.421s-0.055-0.759-0.09-0.98 0.02-0.243 0.02-0.243c0.201 0.436 0.276 0.918 0.218 1.394 0.211 0.328 0.447 0.639 0.706 0.929z" fill="currentColor"/>
</g>
<defs>
<linearGradient id="b" x1="185.98" x2="185.98" y1="151.65" y2="36.52" gradientUnits="userSpaceOnUse">
<stop stop-color="#808080" stop-opacity=".251" offset="0"/>
<stop stop-color="#808080" stop-opacity=".122" offset=".54"/>
<stop stop-color="#808080" stop-opacity=".102" offset="1"/>
</linearGradient>
<linearGradient id="a" x1="37.264" x2="37.264" y1="134.21" y2="56.999" gradientUnits="userSpaceOnUse">
<stop stop-color="#808080" stop-opacity=".251" offset="0"/>
<stop stop-color="#808080" stop-opacity=".122" offset=".54"/>
<stop stop-color="#808080" stop-opacity=".102" offset="1"/>
</linearGradient>
</defs>
</svg>
