<?xml version="1.0" encoding="UTF-8"?>
<svg fill="none" viewBox="0 0 200 162" xmlns="http://www.w3.org/2000/svg">
<path d="m80 161c43.63 0 79-35.369 79-79 0-43.63-35.37-79-79-79-43.63 0-79 35.37-79 79 0 43.631 35.37 79 79 79z" stroke="currentColor" stroke-width="2"/>
<path d="m27 57.999c14.912 0 27-12.088 27-27s-12.088-27-27-27-27 12.088-27 27 12.088 27 27 27z" fill="#fff"/>
<path d="m32.832 13.399v33.6h-7.776v-27.36h-6.72v-6.24h14.496z" fill="currentColor"/>
<path d="m61.697 23.862c6.779-6.056 17.422-7.29 27.108-6.808 30.425 1.515 57.889 16.224 81.645 32.864 8.6 6.024 17.067 12.521 22.655 20.811 11.365 16.886 7.993 40.28-7.808 54.191-5.377 4.734-11.895 8.362-18.585 11.579-11.9 5.719-24.73 10.308-38.234 11.615-9.629 0.931-19.369 0.172-28.949-1.125-26.745-3.633-53-11.663-75-25.409-9.655-6.027-18.751-13.521-22.729-23.277-3.978-9.756-1.435-22.103 8.419-27.879 4.076-2.388 8.948-3.465 13.719-4.478 7.023-1.489 14.157-2.959 20.495-5.988 6.546-3.129 14.295-9.18 13-16.106-1.391-7.426-2.5061-13.952 4.2639-19.99z" fill="currentColor" opacity=".1"/>
<path d="m44.393 93.195c1.0686-0.7358 2.4239-0.9182 3.649-0.491 0 0-0.519 1.1-2.831 1.089l-0.818-0.598z" fill="currentColor"/>
<path d="m44.17 93.266c-0.2577 1.272 0.1067 2.5907 0.981 3.5499 0 0 0.809-0.9109-0.111-3.0319l-0.87-0.518z" fill="currentColor"/>
<path d="m41.799 91.302s0.066-1.818 4.182-1.373c-0.0343 0.8168-0.5732 1.5261-1.351 1.778-0.9272 0.5183-2.0864 0.3524-2.831-0.405z" fill="currentColor"/>
<path d="m41.545 91.297s-1.71 0.6229-0.019 4.3999c0.7664-0.2843 1.275-1.0155 1.275-1.833 0.2044-1.0405-0.309-2.0898-1.256-2.5669z" fill="currentColor"/>
<path d="m39.129 88.806s-0.346-2.974 3.846-2.829c0 0 0.4 2.689-3.08 3.518l-0.766-0.689z" fill="currentColor"/>
<path d="m113.97 69.041c0.93-0.9051 2.236-1.3133 3.516-1.0992 0 0-0.326 1.1764-2.61 1.5547l-0.906-0.4555z" fill="currentColor"/>
<path d="m113.77 69.15c-0.039 1.2968 0.541 2.5348 1.564 3.3334 0 0 0.639-1.0308-0.616-2.9703l-0.948-0.3631z" fill="currentColor"/>
<path d="m111.1 67.62s-0.24-1.8037 3.89-2.0582c0.107 0.8121-0.305 1.6044-1.031 1.9841-0.828 0.6644-1.997 0.6947-2.859 0.0741z" fill="currentColor"/>
<path d="m110.85 67.66s-1.575 0.8988 0.723 4.3451c0.709-0.4099 1.087-1.2181 0.948-2.0251 0.028-1.0612-0.656-2.0106-1.671-2.32z" fill="currentColor"/>
<path d="m108.05 65.615s-0.843-2.8702 3.313-3.4358c0 0 0.848 2.5826-2.443 3.9855l-0.87-0.5497z" fill="currentColor"/>
<path d="m104.65 62.884s-0.135-3.4252 4.166-3.3036c0 0 0.618 2.8589-3.332 3.9538l-0.834-0.6502z" fill="currentColor"/>
<path d="m101.95 59.898s0.26-3.4322 4.522-3.3143c-0.393 2.0435-2.06 3.5998-4.126 3.852l-0.396-0.5377z" fill="currentColor"/>
<path d="m99.372 56.965s0.2159-3.541 4.3421-3.3586c0 0-0.637 3.4539-3.9625 3.8745l-0.3796-0.5159z" fill="currentColor"/>
<path d="m97.495 54.057s-0.1543-4.2412 3.6889-4.104c0 0-0.278 3.9462-3.2943 4.6426l-0.3946-0.5386z" fill="currentColor"/>
<path d="m95.556 50.474s-0.0211-4.3035 3.9231-3.88c0 0-0.6286 4.2025-3.5457 4.396l-0.3774-0.516z" fill="currentColor"/>
<path d="m94.104 47.065s0.4723-4.4057 3.3585-4.8976c0 0-0.4606 4.6466-2.9443 5.6753l-0.4142-0.7777z" fill="currentColor"/>
<path d="m92.934 43.685s0.4183-5.2737 2.8262-5.3805c0 0-0.2164 4.0092-2.5794 6.1403l-0.2468-0.7598z" fill="currentColor"/>
<path d="m91.801 39.6s0.5039-4.4273 2.7615-5.076c0 0-0.0709 4.2662-2.4833 6.1396l-0.2782-1.0636z" fill="currentColor"/>
<path d="m90.711 35.796s0.8378-4.5077 2.3388-4.9144c0 0 0.114 4.2348-2.0454 5.5629l-0.2934-0.6485z" fill="currentColor"/>
<path d="m89.766 32.244s0.1095-4.7146 1.5424-5.4133c0 0 0.5664 3.7237-1.3178 5.722l-0.2246-0.3087z" fill="currentColor"/>
<path d="m88.205 27.661s0.3542-3.818 1.4634-4.6278c0 0 0.6471 4.2786-0.9971 5.4396l-0.4663-0.8118z" fill="currentColor"/>
<path d="m87.08 24.672-1.5513-6.2802s3.2911 4.2916 1.9504 7.3519l-0.3991-1.0717z" fill="currentColor"/>
<path d="m83.987 18.76s-2.6228-4.2686-3.0763-4.4494c0 0 3.8718 2.3123 4.3645 6.2352l-1.2882-1.7858z" fill="currentColor"/>
<path d="m107.93 65.621s-2.992 0.2347-2.033 4.3196c0 0 2.715-0.1249 2.857-3.7002l-0.824-0.6194z" fill="currentColor"/>
<path d="m104.49 62.809s-3.358 0.6964-2.202 4.841c0 0 2.925-0.0884 3.03-4.1858l-0.828-0.6552z" fill="currentColor"/>
<path d="m101.98 60.177s-3.3474-0.7881-4.5229 3.3126c2.0671 0.2416 4.0539-0.879 4.9159-2.7731l-0.393-0.5395z" fill="currentColor"/>
<path d="m99.311 57.009s-3.4408-0.863-4.5142 3.1251c0 0 3.4867 0.4354 4.8934-2.6057l-0.3792-0.5194z" fill="currentColor"/>
<path d="m97.555 54.138s-3.6078-2.2346-5.3945 1.1685c0 0 3.5671 1.7144 5.6643-0.5574l-0.2698-0.6111z" fill="currentColor"/>
<path d="m95.706 50.34s-3.6395-2.297-5.3695 1.2703c0 0 3.8975 1.702 5.6039-0.6759l-0.2344-0.5944z" fill="currentColor"/>
<path d="m94.387 46.884s-3.0966-3.1719-5.6629-1.7745c0 0 3.2327 3.373 5.8216 2.6453l-0.1587-0.8708z" fill="currentColor"/>
<path d="m92.992 43.653s-3.3184-4.1228-5.3656-2.8541c0 0 2.4375 3.1912 5.5892 3.6167l-0.2236-0.7626z" fill="currentColor"/>
<path d="m91.913 39.329s-3.1763-3.1257-5.3419-2.2062c0 0 2.7462 3.2684 5.7967 3.209l-0.4548-1.0028z" fill="currentColor"/>
<path d="m90.95 35.662s-2.7217-3.6828-4.2584-3.3947c0 0 1.7503 3.8578 4.271 4.1088l-0.0126-0.7141z" fill="currentColor"/>
<path d="m89.821 32.14s-2.9467-3.6905-4.5087-3.3705c0 0 1.8065 3.3052 4.5164 3.747l-0.0077-0.3765z" fill="currentColor"/>
<path d="m88.59 27.844s-2.2717-3.0883-3.6397-3.2049c0 0 1.6498 4 3.6661 4.1488l-0.0264-0.9439z" fill="currentColor"/>
<path d="m86.867 24.585-4.5852-4.5582s1.9823 5.0337 5.3044 5.4588l-0.7192-0.9006z" fill="currentColor"/>
<path d="m83.28 19.353s-4.6221-1.9366-4.8623-2.3552c0 0 2.8806 3.4705 6.8283 3.3568l-1.966-1.0016z" fill="currentColor"/>
<path d="m82.775 18.152s-5.5716-3.4786-6.7526-3.2259c2.6283-0.239 5.197 0.8787 6.8136 2.9647l-0.061 0.2612z" fill="currentColor"/>
<path d="m88.682 28.512-0.1695 0.0594c-2.3008-6.6323-4.4175-10.394-5.957-10.59l0.0237-0.1737c1.6335 0.2103 3.7422 3.9125 6.1028 10.704z" fill="#444053"/>
<path d="m93.398 44.548-0.2512 0.0752c-0.1863-0.6256-0.3683-1.2713-0.5315-1.9109-1.4293-5.5893-2.8952-10.689-4.2097-14.467l0.1102-0.2155c1.3186 3.7928 2.921 9.0212 4.3535 14.617 0.1555 0.6357 0.3384 1.272 0.5287 1.9012z" fill="#444053"/>
<path d="m119.42 71.28c-3.799-0.9976-7.396-2.645-10.633-4.8695-3.317-2.2237-6.261-4.9594-8.721-8.105-3.1927-4.2654-5.5862-9.0739-7.0646-14.193l0.2913 0.0693c2.5366 8.9027 8.0773 16.652 15.681 21.932 3.199 2.2074 6.758 3.8409 10.517 4.8274l-0.071 0.3382z" fill="#444053"/>
<g opacity=".7">
<path d="m109.63 67.445c1.24-0.384 2.589-0.1549 3.632 0.617 0 0-0.825 0.9-3.028 0.2l-0.604-0.817z" fill="currentColor"/>
<path d="m109.39 67.448c-0.623 1.1378-0.667 2.5044-0.119 3.68 0 0 1.038-0.628 0.8-2.926l-0.681-0.754z" fill="currentColor"/>
<path d="m107.71 64.877s0.605-1.7159 4.4-0.0669c-0.273 0.772-1 1.2912-1.819 1.3-1.039 0.2158-2.095-0.2886-2.581-1.2331z" fill="currentColor"/>
<path d="m107.47 64.795s-1.816 0.086-1.328 4.2c0.817-0.043 1.521-0.59 1.764-1.371 0.509-0.9336 0.33-2.0918-0.436-2.829z" fill="currentColor"/>
<path d="m105.9 61.702s0.552-2.94 4.512-1.556c0 0-0.417 2.686-3.986 2.442l-0.526-0.886z" fill="currentColor"/>
<path d="m104.11 57.726s1.435-3.113 5.212-1.051c0 0-0.747 2.828-4.764 2.01l-0.448-0.959z" fill="currentColor"/>
<path d="m103.07 53.837s1.79-2.94 5.534-0.9c-1.279 1.6412-3.47 2.2698-5.425 1.556l-0.109-0.656z" fill="currentColor"/>
<path d="m102.1 50.056s1.8-3.058 5.394-1.022c0 0-2.136 2.788-5.29 1.653l-0.104-0.631z" fill="currentColor"/>
<path d="m101.75 46.613s1.788-3.85 5.15-1.982c0 0-2.039 3.39-5.043 2.641l-0.107-0.659z" fill="currentColor"/>
<path d="m101.65 42.54s1.935-3.844 5.257-1.676c0 0-2.468 3.459-5.155 2.307l-0.102-0.631z" fill="currentColor"/>
<path d="m101.9 38.845s2.421-3.711 5.216-2.84c0 0-2.52 3.931-5.2 3.72l-0.016-0.88z" fill="currentColor"/>
<path d="m102.39 35.301s2.767-4.508 4.962-3.511c0 0-2.013 3.474-5.086 4.3l0.124-0.789z" fill="currentColor"/>
<path d="m103.24 31.146s2.459-3.716 4.766-3.268c0 0-2.006 3.768-5 4.342l0.234-1.074z" fill="currentColor"/>
<path d="m103.99 27.259s2.793-3.632 4.315-3.317c0 0-1.821 3.825-4.348 4.028l0.033-0.711z" fill="currentColor"/>
<path d="m104.76 23.668s2.238-4.15 3.832-4.123c0 0-1.186 3.575-3.772 4.5l-0.06-0.377z" fill="currentColor"/>
<path d="m105.45 18.876s2.049-3.241 3.405-3.459c0 0-1.366 4.106-3.358 4.394l-0.047-0.935z" fill="currentColor"/>
<path d="m105.81 15.7 1.465-6.3s0.987 5.318-1.6 7.436l0.135-1.136z" fill="currentColor"/>
<path d="m105.74 9.0312s-0.4-4.994-0.721-5.361c0 0 2.4 3.818 1.058 7.537l-0.337-2.176z" fill="currentColor"/>
<path d="m105.8 61.655s-2.767-1.148-3.772 2.926c0 0 2.475 1.121 4.225-2l-0.453-0.926z" fill="currentColor"/>
<path d="m104 57.585s-3.308-0.9-4.1588 3.313c0 0 2.6458 1.249 4.5998-2.354l-0.441-0.959z" fill="currentColor"/>
<path d="m102.96 54.101s-2.625-2.222-5.5338 0.9c1.732 1.1538 4.0108 1.0572 5.6388-0.239l-0.105-0.661z" fill="currentColor"/>
<path d="m102.03 50.069s-2.6738-2.331-5.4408 0.735c0 0 2.909 1.971 5.5428-0.1l-0.102-0.635z" fill="currentColor"/>
<path d="m101.76 46.712s-2.1998-3.632-5.3368-1.408c0 0 2.4 3.147 5.2998 2.075l0.037-0.667z" fill="currentColor"/>
<path d="m101.84 42.488s-2.1998-3.7-5.3608-1.306c0 0 2.7 3.286 5.2998 1.942l0.061-0.636z" fill="currentColor"/>
<path d="m102.24 38.81s-1.319-4.232-4.2399-4.15c0 0 1.349 4.472 3.9859 5l0.254-0.85z" fill="currentColor"/>
<path d="m102.46 35.298s-1.086-5.179-3.4849-4.979c0 0 0.723 3.95 3.3379 5.76l0.147-0.781z" fill="currentColor"/>
<path d="m103.46 30.956s-1.411-4.227-3.7579-4.391c0 0 0.9629 4.159 3.7079 5.491l0.05-1.1z" fill="currentColor"/>
<path d="m104.27 27.251s-0.757-4.517-2.248-4.958c0 0-0.192 4.232 1.94 5.6l0.308-0.642z" fill="currentColor"/>
<path d="m104.86 23.601s-0.949-4.626-2.487-5.05c0 0 0.109 3.765 2.323 5.389l0.164-0.339z" fill="currentColor"/>
<path d="m105.71 19.214s-0.623-3.784-1.788-4.508c0 0-0.346 4.313 1.383 5.361l0.405-0.853z" fill="currentColor"/>
<path d="m105.66 15.528-2.016-6.143s-0.519 5.385 2.248 7.272l-0.232-1.129z" fill="currentColor"/>
<path d="m104.84 9.2384s-3.239-3.824-3.263-4.306c0 0 0.991 4.4 4.56 6.091l-1.297-1.785z" fill="currentColor"/>
<path d="m104.93 7.9393s-3.384-5.629-4.552-5.94c2.45 0.98027 4.232 3.1424 4.725 5.735l-0.173 0.205z" fill="currentColor"/>
<path d="m105.49 19.851-0.173-0.024c0.956-6.954 0.778-11.267-0.5-12.14l0.1-0.144c1.355 0.929 1.553 5.185 0.573 12.308z" fill="#444053"/>
<path d="m102.42 36.28-0.258-0.047c0.118-0.642 0.249-1.3 0.394-1.944 1.264-5.629 2.272-10.838 2.817-14.8l0.2-0.142c-0.547 3.978-1.492 9.364-2.757 15-0.151 0.636-0.282 1.286-0.396 1.933z" fill="#444053"/>
<path d="m113.46 71.913c-2.932-2.6134-5.389-5.7145-7.263-9.166-1.947-3.4882-3.328-7.2631-4.092-11.184-0.909-5.2497-0.86-10.621 0.145-15.853l0.228 0.194c-1.781 9.0848-0.36 18.506 4.019 26.662 1.848 3.4191 4.277 6.4903 7.179 9.076l-0.216 0.271z" fill="#444053"/>
</g>
<path d="m189.44 132.79s-4.121-0.247-3.632 2.641c-0.053 0.301 0.095 0.601 0.365 0.742 0 0 9e-3 -0.214 0.424-0.142 0.148 0.026 0.298 0.033 0.448 0.022 0.202-0.013 0.395-0.093 0.547-0.227 0.873-0.501 1.467-1.376 1.61-2.373 0 0 0.334-0.413 0.32-0.519l-0.692 0.3c0.133 0.289 0.151 0.617 0.05 0.918 0 0-0.022-0.9-0.156-0.879-0.028 0-0.362 0.173-0.362 0.173 0.224 0.473 0.259 1.012 0.1 1.51 0 0 0.118-1.077-0.228-1.446l-0.489 0.285c0.265 0.505 0.321 1.094 0.154 1.639 0.053-0.537-0.036-1.078-0.258-1.57l-0.443 0.346c0.241 0.462 0.302 0.996 0.173 1.5 0 0-0.036-1.314-0.271-1.415-0.168 0.142-0.318 0.304-0.448 0.482 0 0 0.308 0.647 0.118 0.988 0 0-0.118-0.877-0.213-0.88-0.202 0.297-0.346 0.629-0.427 0.979 0.019-0.369 0.134-0.727 0.334-1.038-0.223 0.042-0.429 0.149-0.593 0.306 0 0 0.061-0.41 0.692-0.446 0.115-0.17 0.249-0.327 0.4-0.467-0.338-0.028-0.678 0.011-1 0.116 0.307-0.267 0.734-0.348 1.117-0.213l0.439-0.356c-0.388-0.059-0.784-0.055-1.171 0.012 0.389-0.237 0.869-0.271 1.288-0.093l0.477-0.285c-0.367-0.081-0.743-0.115-1.119-0.1 0.407-0.152 0.856-0.145 1.257 0.021l0.346-0.154s-0.519-0.1-0.664-0.116-0.159-0.059-0.159-0.059c0.325-0.054 0.659-0.017 0.965 0.107 0.243-0.081 0.478-0.184 0.701-0.309z" fill="currentColor"/>
<path d="m186.6 137.42c1.611 0 2.917-0.447 2.917-1 0-0.552-1.306-1-2.917-1s-2.917 0.448-2.917 1c0 0.553 1.306 1 2.917 1z" fill="currentColor" opacity=".1"/>
<path d="m165.11 135.3s-4.977-0.3-4.389 3.187c-0.065 0.364 0.114 0.728 0.441 0.9 0 0 0-0.258 0.51-0.173 0.179 0.03 0.36 0.04 0.541 0.028 0.244-0.017 0.476-0.113 0.661-0.273 1.055-0.605 1.772-1.662 1.944-2.866 0 0 0.4-0.5 0.386-0.626l-0.839 0.358c0.161 0.349 0.183 0.746 0.061 1.11 0 0-0.026-1.088-0.188-1.062-0.033 0-0.436 0.209-0.436 0.209 0.27 0.571 0.313 1.222 0.121 1.823 0 0 0.142-1.3-0.275-1.747l-0.591 0.346c0.32 0.61 0.387 1.322 0.185 1.98 0.064-0.649-0.043-1.304-0.31-1.9l-0.536 0.417c0.292 0.557 0.368 1.203 0.213 1.812 0 0-0.043-1.588-0.329-1.709-0.203 0.172-0.384 0.368-0.54 0.583 0 0 0.37 0.78 0.14 1.192 0 0-0.14-1.057-0.256-1.062-0.243 0.359-0.419 0.759-0.519 1.181 0.022-0.444 0.16-0.874 0.4-1.249-0.269 0.051-0.517 0.18-0.714 0.37 0 0 0.073-0.5 0.83-0.54 0.141-0.206 0.305-0.395 0.489-0.564-0.409-0.034-0.821 0.013-1.211 0.14 0.37-0.323 0.885-0.421 1.347-0.256l0.529-0.431c-0.469-0.072-0.946-0.067-1.413 0.014 0.471-0.283 1.049-0.325 1.556-0.112l0.576-0.346c-0.443-0.098-0.897-0.137-1.351-0.118 0.491-0.183 1.033-0.175 1.518 0.024l0.413-0.169s-0.619-0.121-0.8-0.14-0.19-0.069-0.19-0.069c0.393-0.065 0.796-0.02 1.164 0.13 0.299-0.104 0.587-0.235 0.862-0.392z" fill="currentColor"/>
<path d="m161.69 140.68c1.946 0 3.523-0.448 3.523-1s-1.577-1-3.523-1-3.523 0.448-3.523 1 1.577 1 3.523 1z" fill="currentColor" opacity=".1"/>
<path d="m123.49 137.1-17.347 6.712-25.356 9.8c-0.956-1.776-2.367-4.206-4.114-7.09-6-9.952-15.941-25.432-24.785-39.035-9.968-15.327-18.546-28.27-18.546-28.27l6.21-1.8 50.726-14.712 33.212 74.395z" fill="#000" opacity=".1"/>
<path d="m123.84 135.89-17.347 6.712-25.356 9.8c-0.956-1.776-2.367-4.206-4.114-7.09-6-9.952-15.941-25.432-24.785-39.035-9.968-15.327-18.546-28.27-18.546-28.27l6.21-1.7999 50.726-14.712 33.212 74.395z" fill="#fff"/>
<path d="m123.84 135.89-17.347 6.712c-9.6885 2.019-19.576 2.928-29.47 2.71-6-9.952-15.941-25.432-24.785-39.035l-12.336-30.07 50.726-14.712 33.212 74.395z" fill="#000" opacity=".1"/>
<path class="isolated-path--lighter" d="m136.74 131.72s-26.95 15.941-67.186 12.344l-32.079-78.199 15.372-2.641 53.14-9.126 30.151 76.111 0.602 1.511z" fill="currentColor"/>
<path d="m136.14 129.92c-7.029 0.382-14.078 0.181-21.074-0.6-7.993-0.937-16.024-2.878-22.924-6.43-5.4116-2.691-10.45-6.075-14.987-10.067-11.173-10.051-18.089-24.429-24.3-49.89l53.14-9.1261 30.145 76.113z" fill="#000" opacity=".1"/>
<path d="m155.91 129.02s-20.1 4.452-40.537 1.71c-8.084-1.078-16.214-3.29-23.184-7.351-5.5485-3.134-10.647-7.005-15.156-11.509-13.991-14.235-21.374-36.027-28.989-80.055 0 0 33.4 9.112 66.409-10.848 1e-3 0 11.133 78.545 41.457 108.05z" fill="#fff"/>
<path d="m115.82 129.9c-7.993-0.943-16.033-2.878-22.924-6.43-5.4116-2.69-10.45-6.075-14.987-10.067 11.775-0.956 13.468-7.395 13.468-7.395 8.7299 13.857 24.443 23.892 24.443 23.892z" fill="#000" opacity=".1"/>
<path d="m66.33 54.674s17.743 2.025 34.35-7.307l1.138 3.654c-11.151 5.0761-23.237 7.774-35.488 7.922v-4.269z" fill="currentColor" opacity=".3"/>
<path d="m66.33 72.74c12.947-1.5328 25.547-5.2218 37.276-10.914l0.664 1.518s-7.2269 9.0949-37.94 11.471v-2.0749z" fill="#000" opacity=".3"/>
<path d="m68.421 79.8c12.947-1.5326 25.546-5.2208 37.276-10.912l0.664 1.5179s-7.2249 9.1-37.94 11.481v-2.0869z" fill="#000" opacity=".3"/>
<path d="m70.333 87.407c12.947-1.5325 25.546-5.2208 37.276-10.912l0.664 1.518s-7.236 9.0999-37.94 11.481v-2.087z" fill="#000" opacity=".3"/>
<path d="m72.604 93.926c12.947-1.5325 25.546-5.2208 37.276-10.912l0.664 1.518s-7.225 9.0999-37.94 11.483v-2.089z" fill="#000" opacity=".3"/>
<path d="m74.697 100.99c12.947-1.5324 25.547-5.2207 37.276-10.912l0.664 1.518s-7.227 9.0999-37.94 11.481v-2.087z" fill="#000" opacity=".1"/>
<path d="m111.46 57.113-4.936 1.6803 1.68 4.9358 4.936-1.6803-1.68-4.9358z" fill="currentColor" opacity=".3"/>
<path d="m114.26 64.475-4.936 1.6803 1.68 4.9358 4.936-1.6803-1.68-4.9358z" fill="currentColor" opacity=".3"/>
<path d="m118.77 78.639-4.936 1.6803 1.68 4.9359 4.936-1.6804-1.68-4.9358z" fill="currentColor" opacity=".3"/>
<path d="m121.35 86.24-4.936 1.6803 1.68 4.9358 4.936-1.6803-1.68-4.9358z" fill="currentColor" opacity=".3"/>
<path d="m116.55 72.122-4.936 1.6802 1.68 4.9359 4.936-1.6803-1.68-4.9358z" fill="currentColor" opacity=".3"/>
<path d="m168.16 93.622-0.185-0.1729c0.477-0.1 0.927-0.1401 0.927-0.1401s-1.638-5.9249-4.4-7.8999c-1.361-1.0967-2.486-2.4573-3.308-4-1.466-2.5238-3.112-4.9381-4.927-7.224l-0.5-0.6281-0.214-0.2729c0.358-0.3877 0.578-0.8832 0.624-1.409-1e-3 -0.0033-1e-3 -0.0067 0-0.01 2e-3 -0.0277 2e-3 -0.0554 0-0.083-5e-3 -0.0651-0.017-0.1294-0.035-0.192l-0.019 0.0289c-0.233-0.678-1.131-0.977-1.8-1.351-1.556-0.877-2.222-2.7929-2.554-4.5739-0.259-1.383-0.474-2.94-1.556-3.831-0.692-0.572-1.633-0.7611-2.329-1.3301-0.61-0.6058-1.1-1.3217-1.444-2.1099-0.652-1.2782-1.619-2.3691-2.81-3.17-1.199-0.7914-2.695-0.989-4.059-0.536-0.507 0.194-0.967 0.495-1.468 0.7-1.245 0.519-2.672 0.45-3.9 1-1.518 0.674-2.506 2.1649-3.409 3.5799-0.631 0.9051-1.172 1.8693-1.617 2.8791v-0.112c-0.2 0.4754-0.309 0.9842-0.322 1.5-8e-3 0.2189 0.016 0.4379 0.071 0.6499 0.22 0.6482 0.743 1.1483 1.4 1.3401 0.038 0.22 0.089 0.4377 0.152 0.6519 0.607 1.9967 2.15 3.572 4.133 4.221 0.057 0.021 0.116 0.035 0.173 0.052 0.048 0.1368 0.118 0.2651 0.206 0.38 0.552 0.692 1.658 0.4951 2.378-0.0089 0.029-0.019 0.057-0.0431 0.085-0.0641 5e-3 0.0979 0.015 0.1954 0.031 0.292 0.016 0.083 0.028 0.1731 0.045 0.2471 0.312 1.9577 1.105 3.8072 2.309 5.382 0 0 0.154 0.2319 0.4 0.6159-0.031 1.8377 0.595 3.6261 1.766 5.0431-0.877 0.507-2.767 1.5-3.936 1.416 0 0-4.3 0.555-4.794 0.277-0.069-0.038-0.135 0.0139-0.2 0.1309-1.183-0.721-4.965-2.7999-5.288-0.1309-0.292 2.421 3.154 2.7309 4.8 2.7429-0.074 0.709-0.116 1.276-0.116 1.276l7.057-0.482 3.675-0.541c-0.346 0.5028-0.793 0.9284-1.312 1.25 0 0-3.322 2.689-3.9 2.713-0.081 0-0.107 0.081-0.1 0.211-1.4 0-5.743 0.2-4.538 2.623 1.095 2.195 4.176 0.6761 5.57-0.1629 0.329 0.638 0.609 1.138 0.609 1.138l5.695-4.055 1.233-1.0381c0.418-0.0201 0.831-0.0999 1.226-0.237 3e-3 0.0159 9e-3 0.0311 0.017 0.045 0.045 0.1272 0.078 0.2581 0.1 0.3911 0.346 1.987-0.816 6.6219-0.816 6.6219s-2.556 6.5178-1.328 7.4068 0.32 4.64 0.32 4.64c0.215 0.361 0.461 0.701 0.737 1.017 0.13 0.15 0.275 0.288 0.431 0.41-0.057 0.156-0.104 0.315-0.142 0.476-0.188 0.799-0.118 1.637 0.2 2.393 0.499 1.623 0.612 3.341 0.33 5.015l-1.657 11.192c-0.723-0.174-1.477-0.174-2.2 0-0.586 0.33-0.394 2 0.967 2.712-0.413 0.317-0.891 0.537-1.4 0.645-1.211 0.277-2.061 0.453-2.622 0.56-0.036 0-2.905-0.633-3.642-0.214s-0.382 2.739 1.714 3.308c2.051 0.555 9.7 1.37 11.9 1.038l0.14-0.024c1.873-0.37 0.228-2.831 0.021-3.13-0.014-0.1-0.026-0.206-0.04-0.32-0.029-0.256-0.055-0.55-0.074-0.865 1.692 0.203 3.399 0.252 5.1 0.144 0.043-2e-3 0.084-0.01 0.125-0.022 1.658-0.329 0.206-2.5 0.019-2.767l-0.026-0.213v-0.019c0-0.05-0.012-0.1-0.017-0.156 0-0.045-5e-3 -0.09-0.014-0.135-0.014-0.047 0-0.083-0.012-0.126-7e-3 -0.085-0.014-0.173-0.021-0.265v-0.112c0-0.069-9e-3 -0.138-0.012-0.209v-0.116c0-0.1 0-0.211-0.01-0.318v-0.847c0-0.116 0.01-0.235 0.017-0.355l0.01-0.128c0-0.088 0.014-0.173 0.022-0.263-2e-3 -0.044 3e-3 -0.087 0.014-0.13 0.014-0.121 0.029-0.242 0.047-0.365 3e-3 -0.036 9e-3 -0.073 0.017-0.109 0.016-0.092 0.031-0.185 0.048-0.278 5e-3 -0.047 0.014-0.093 0.028-0.138 0.021-0.1 0.044-0.2 0.068-0.3 3e-3 -0.028 0.01-0.056 0.019-0.083 0.031-0.121 0.066-0.24 0.1-0.36 0.012-0.042 0.026-0.083 0.04-0.125 0.029-0.09 0.061-0.173 0.093-0.266l0.042-0.111c0.047-0.118 0.1-0.233 0.149-0.346 0.014-0.029 0.029-0.059 0.045-0.088 0.043-0.09 0.09-0.173 0.138-0.266l0.059-0.1c0.066-0.111 0.133-0.221 0.208-0.327 1.9-2.712 2.4-7.941 2.357-9.079s0.227-3.5 0.567-3.848c0.864-1.102 1.649-2.264 2.35-3.476 0.144-0.256 0.268-0.5 0.367-0.711 0.564-0.2 0.937-0.346 0.937-0.346-0.199-0.726-0.294-1.476-0.284-2.229-0.027-1.879 0.73-3.685 2.089-4.9837 1.637-1.3912 2.659-3.3725 2.843-5.513v-0.164c5e-3 -0.165-3e-3 -0.2441-3e-3 -0.2441z" fill="url(#a)"/>
<path d="m161.59 105.47c-0.669 1.196-1.42 2.344-2.248 3.436-0.418 1.222-0.602 2.511-0.541 3.8 0.045 1.122-0.431 6.3-2.248 8.977s-0.884 7.313-0.884 7.313l-2.9 1.017h-3.485l-2.4-0.718-0.633-1.741s0.844-0.13 2.94-0.628c1.195-0.243 2.082-1.252 2.17-2.468l1.472-10.278c0.239-1.465 0.142-2.966-0.282-4.389-0.408-1.023-0.322-2.178 0.235-3.13l0.047-0.073c1.435-1.112 2.97-2.088 4.585-2.916 2.049-0.989 4.128-1.46 4.718 0.3-0.046 0.539-0.234 1.056-0.546 1.498z" fill="#A5636D"/>
<path d="m161.59 105.47c-0.669 1.196-1.42 2.344-2.248 3.436-0.418 1.222-0.602 2.511-0.541 3.8 0.045 1.122-0.431 6.3-2.248 8.977-1.28 1.89-1.2 4.747-1.038 6.271 0.068 0.638 0.151 1.038 0.151 1.038l-2.9 1.017h-3.481l-2.4-0.713-0.634-1.742s0.211-0.033 0.692-0.126 1.211-0.253 2.258-0.5c1.191-0.247 2.073-1.255 2.16-2.468l1.472-10.278c0.239-1.465 0.142-2.966-0.282-4.389-0.408-1.023-0.322-2.179 0.235-3.13l0.047-0.073c1.435-1.112 2.97-2.088 4.585-2.916 2.049-0.989 4.128-1.46 4.718 0.3-0.046 0.539-0.234 1.055-0.546 1.496z" fill="#000" opacity=".05"/>
<path d="m155.67 131.66-2.9 1.017h-3.485l-2.4-0.719-0.633-1.743s0.211-0.033 0.692-0.126c-0.07 0.656 0.359 1.261 1 1.411l1.363 0.047c0.192 0 0.386 0.01 0.576 0.01 1.917 1e-3 3.821-0.315 5.634-0.936 0.074 0.635 0.153 1.039 0.153 1.039z" fill="#000" opacity=".1"/>
<path d="m149.31 131.84-1.364-0.047c-0.364-0.085-0.676-0.319-0.859-0.645s-0.22-0.714-0.103-1.069c0 0-2.456-0.557-3.083-0.188s-0.325 2.4 1.449 2.9c1.729 0.486 8.208 1.2 10.07 0.908l0.119-0.021c1.688-0.346 0-2.767 0-2.767-2.003 0.685-4.113 1-6.229 0.929z" fill="#BEBED0"/>
<path d="m157.71 108.52c-0.092 0.183-0.19 0.374-0.3 0.572-0.734 1.313-1.559 2.573-2.469 3.77-0.367 0.391-0.659 3.026-0.612 4.3s-0.486 7.1-2.537 10.131c-0.936 1.632-1.377 3.502-1.269 5.38 6e-3 0.578 0.039 1.155 0.1 1.729 0.076 0.7 0.173 1.143 0.173 1.143l-3.272 1.147h-3.938l-2.71-0.806-0.709-1.978s0.237-0.038 0.77-0.144 1.363-0.282 2.549-0.562c1.345-0.278 2.343-1.414 2.444-2.784l1.658-11.6c0.269-1.654 0.161-3.348-0.316-4.955-0.304-0.751-0.372-1.576-0.194-2.367 0.097-0.444 0.273-0.867 0.519-1.249 0 0 0.633-0.5 1.588-1.157 0.422-0.291 0.911-0.612 1.437-0.937 2.31-1.43 5.349-2.89 6.805-1.826 0.321 0.243 0.557 0.582 0.671 0.967-0.018 0.436-0.152 0.859-0.388 1.226z" fill="#A5636D"/>
<path d="m150.79 135.55-3.272 1.147h-3.929l-2.71-0.806-0.709-1.978s0.237-0.038 0.77-0.144c-0.069 0.476 0.104 0.956 0.46 1.278 0.273 0.232 0.617 0.362 0.975 0.367l1.24 0.04c0.216 0 0.434 0.012 0.65 0.012 2.164 0 4.314-0.358 6.361-1.058 0.076 0.703 0.164 1.142 0.164 1.142z" fill="#000" opacity=".1"/>
<path d="m143.61 135.75-1.238-0.041c-0.358-6e-3 -0.703-0.136-0.977-0.367-0.429-0.403-0.589-1.017-0.41-1.579 0 0-2.767-0.628-3.481-0.213s-0.365 2.71 1.636 3.272c1.959 0.548 9.264 1.354 11.367 1.026l0.133-0.024c1.9-0.391 0-3.127 0-3.127-2.26 0.776-4.642 1.133-7.03 1.053z" fill="#BEBED0"/>
<path d="m161.59 108.02c-1.248 0.484-2.551 0.814-3.879 0.984-0.1 4e-3 -0.2 0-0.3-0.014-1.544-0.03-3.089 0.046-4.623 0.225-0.759 0.068-1.489 0.138-2.093 0.2-0.9 0.093-1.518 0.161-1.518 0.161v-0.586c0.422-0.29 0.911-0.612 1.437-0.937 2.31-1.43 5.349-2.89 6.8-1.826 2.049-0.989 4.128-1.46 4.718 0.3-0.051 0.536-0.237 1.05-0.542 1.493z" fill="#000" opacity=".1"/>
<path d="m167.28 94.333c-0.171 2.0994-1.144 4.0523-2.717 5.453-3 2.9307-1.729 7.1407-1.729 7.1407-1.648 0.673-3.367 1.157-5.124 1.444-0.1 4e-3 -0.201 0-0.3-0.014-2.247 5e-3 -4.492 0.147-6.722 0.425-0.9 0.093-1.518 0.161-1.518 0.161v-12.451l16.59-4.0279 1.5 1.5c0.015 0.1224 0.022 0.2456 0.02 0.3689z" fill="#5C5C8E"/>
<g fill="#000" opacity=".1">
<path d="m149.45 108.79-0.273 0.029v0.131s0.619-0.068 1.518-0.161c1.518-0.154 3.837-0.37 5.371-0.434-2.211 0.024-4.42 0.17-6.616 0.435z"/>
<path d="m167.27 93.967-1.5-1.5-1 0.251 1.259 1.254c9e-3 0.1248 9e-3 0.2501 0 0.375-0.171 2.0993-1.144 4.0521-2.717 5.453-3 2.9297-1.729 7.1407-1.729 7.1407-1.51 0.599-3.069 1.067-4.659 1.4 0.162 0 0.324 8e-3 0.484 0.026 0.1 0.014 0.2 0.02 0.3 0.016 1.757-0.287 3.476-0.771 5.124-1.444 0 0-1.28-4.211 1.729-7.1407 1.573-1.4009 2.546-3.3537 2.717-5.453 6e-3 -0.1261 4e-3 -0.2523-8e-3 -0.378z"/>
</g>
<path d="m134.12 85.543s-5.015-3.479-5.383-0.346 5.383 2.6861 5.383 2.6861v-2.3401z" fill="#A5636D"/>
<path d="m142.77 83.228s-2.713 1.8-4.214 1.684c0 0-4.1 0.55-4.579 0.275s-0.768 3.978-0.768 3.978l6.745-0.476 4.323-0.661s2.162-1.318 2.162-2.454-3.669-2.346-3.669-2.346z" fill="#F7CDDD"/>
<path d="m142.77 83.228s-2.713 1.8-4.214 1.684c0 0-4.1 0.55-4.579 0.275s-0.768 3.978-0.768 3.978l6.745-0.476 4.323-0.661s2.162-1.318 2.162-2.454-3.669-2.346-3.669-2.346z" fill="#000" opacity=".05"/>
<path d="m138.79 92.311s-6.1-0.252-4.733 2.594 5.989-0.609 5.989-0.609l-1.256-1.985z" fill="#A5636D"/>
<path d="m144.93 86.203s-4.944-3.6999-4.247-8.1999 4.247 3.448 4.247 3.448v4.7519z" fill="#5C5C8E"/>
<path d="m143.56 65.718c-2e-3 1.6205-0.632 3.1771-1.759 4.342-0.273 0.2863-0.575 0.5442-0.9 0.77-0.622 0.4342-1.317 0.7551-2.051 0.948-0.292 0.0727-0.588 0.1252-0.887 0.157-0.214 0.021-0.431 0.0331-0.65 0.0331-0.701 0.0039-1.398-0.1132-2.06-0.3461-3.004-1.0487-4.74-4.1867-4.034-7.2889 0.707-3.1022 3.631-5.1784 6.793-4.8227s5.552 3.0299 5.551 6.2116l-3e-3 -4e-3z" fill="#A5636D"/>
<path d="m167.28 94.328c-0.56 0.1-1.252 0.291-1.252 0.581 0 0.489-7.813 3.127-7.813 3.127s0.292 0.681-0.488 1.854c-0.78 1.1728-7.13 7.9098-7.13 7.9098l0.021 0.2 0.081 0.776 0.387 3.711c-1.036-0.398-2.12-0.661-3.224-0.782-0.299-7e-3 -0.582-0.138-0.78-0.363 0.097-0.444 0.272-0.867 0.519-1.249 0 0 0.633-0.5 1.588-1.157v-12.449l16.59-4.028 1.5 1.5c9e-3 0.1229 9e-3 0.2461 1e-3 0.369z" fill="#000" opacity=".1"/>
<path d="m167.98 93.467s-1.954 0.194-1.954 0.683-7.813 3.127-7.813 3.127 0.292 0.681-0.488 1.854c-0.78 1.1728-7.13 7.9118-7.13 7.9118l0.489 4.687c-1.036-0.398-2.12-0.661-3.224-0.782-0.346 0.043-0.735-0.278-1.055-0.654-0.263-0.312-0.497-0.646-0.7-1 0 0 0.88-3.713-0.292-4.591s1.269-7.3238 1.269-7.3238 1.1-4.583 0.778-6.549c-0.02-0.1314-0.051-0.2608-0.093-0.387-2e-3 -0.015-7e-3 -0.0296-0.014-0.043-0.692-1.878-8.19-17.639-8.19-17.639 5e-3 -0.4471 0.036-0.8936 0.093-1.337 0.016-0.123 0.036-0.251 0.059-0.38 0.038-0.2333 0.089-0.4643 0.152-0.692 0.04-0.146 0.087-0.2899 0.142-0.431 0.232-0.595 0.586-1.053 1.115-1.064 0.544-0.4854 1.234-0.7757 1.961-0.825 1.51-0.1195 3.025 0.1653 4.389 0.825 4.588 1.951 5.664 2.051 5.664 2.051l2.305 3.026 0.474 0.621c1.737 2.2653 3.31 4.6521 4.706 7.142 0.777 1.5175 1.852 2.8633 3.16 3.957 2.634 1.954 4.197 7.813 4.197 7.813z" fill="#F7CDDD"/>
<path d="m150.86 82.349s6.52 1.6119 9.046 5.6759l-9.046-5.6759z" fill="#000" opacity=".1"/>
<path d="m152.88 89.498s1.233 8.278 0.891 8.9-0.891-8.9-0.891-8.9z" fill="#000" opacity=".1"/>
<path d="m152.44 93.731c-0.474 0.621-2.4 5.42-2.4 5.42l0.555 8.0588 0.489 4.687c-1.035-0.399-2.118-0.661-3.222-0.782-0.346 0.043-0.737-0.278-1.055-0.654 0.507-2.745 1.591-8.488 1.786-8.6 0.783-1.9462 1.336-3.9777 1.646-6.0528 0.069-1.292 1.9-4.171 1.9-4.171s0.78 1.476 0.301 2.094z" fill="#000" opacity=".1"/>
<path d="m150.59 85.744c-0.121 0.365-0.308 2.49-0.308 2.49-0.076 1.3552-1.089 2.473-2.43 2.681-0.02-0.1314-0.051-0.2609-0.093-0.387-0.586-1.658-8.2-17.676-8.2-17.676 7e-3 -0.8125 0.107-1.6216 0.3-2.411 1.43-0.2326 2.893-0.1427 4.284 0.263 0.759-0.1 3.236 4.823 3.236 4.823s1.65 3.77 1.831 4.284c0.074 0.5467 0.099 1.099 0.073 1.65 0.073 0.294 0.844 0.546 0.953 0.951s0.038 1.211 0.111 1.354c0.191 0.6412 0.273 1.3097 0.243 1.978z" fill="#000" opacity=".1"/>
<path d="m150.01 85.425c-0.121 0.367-0.308 2.49-0.308 2.49-0.042 1.1768-0.825 2.1977-1.951 2.544-0.377 0.1346-0.772 0.2131-1.172 0.2329l-1.178 1.024-5.439 4s-2.027-3.7479-1.477-3.7679 3.722-2.684 3.722-2.684c0.97-0.519 1.942-2.2481 2.393-3.1371-0.026-0.106-0.046-0.2135-0.059-0.3219-0.2-1.658-4.3-8.0091-4.3-8.0091-1.155-1.5692-1.91-3.3963-2.2-5.323-0.017-0.08-0.029-0.161-0.045-0.244-0.017-0.1075-0.028-0.216-0.031-0.3249-0.074-1.33 0.894-1.8141 2.042-1.9281 0.6-0.0478 1.204-0.0293 1.8 0.055 0.594 0.0748 1.182 0.1904 1.759 0.346 0.491-0.066 1.7 1.977 2.5 3.424 0.427 0.785 0.735 1.4001 0.735 1.4001s1.65 3.772 1.831 4.284c0.075 0.5466 0.099 1.0989 0.073 1.6499 0.073 0.292 0.844 0.548 0.953 0.953s0.038 1.211 0.111 1.354c0.191 0.643 0.272 1.3133 0.241 1.9831z" fill="#F7CDDD"/>
<path d="m156.32 76.965c-1.128 0.9667-2.723 1.1706-4.059 0.519-1.303-0.6585-2.551-1.4206-3.732-2.279-0.809-0.495-1.667-0.9-2.464-1.409-0.118-0.076-0.232-0.152-0.346-0.232-0.92-0.65-1.717-1.486-2.67-2.075-0.637-0.424-1.379-0.6634-2.144-0.692-0.352-0.0033-0.701 0.0697-1.022 0.214-0.059 0.0243-0.117 0.0527-0.173 0.085-0.314 0.18-0.604 0.398-0.865 0.649-0.27 0.242-0.528 0.5-0.811 0.726-0.017-0.08-0.029-0.161-0.045-0.244-0.017-0.1075-0.028-0.2161-0.031-0.325-0.214 0.021-0.431 0.033-0.65 0.033-0.701 4e-3 -1.398-0.1131-2.06-0.346 3e-3 -0.027-3e-3 -0.0541-0.016-0.078-0.118-1.2457-0.707-2.3995-1.646-3.227-0.729-0.369-1.495-0.659-2.286-0.865-0.757-2.6363 0.293-5.4584 2.589-6.9585 2.297-1.5 5.303-1.3275 7.412 0.4255 2.11 1.753 2.83 4.6767 1.776 7.209 1.511-0.1195 3.025 0.1652 4.389 0.825 4.588 1.951 5.664 2.051 5.664 2.051l2.305 3.026c-0.286 0.3449-0.478 0.7585-0.557 1.2-0.043 0.815 0.75 1.384 1.442 1.768z" fill="#000" opacity=".1"/>
<path d="m133.59 67.657c0.939 0.8267 1.528 1.9792 1.648 3.224 0.039 0.3886 0.168 0.7629 0.377 1.093 0.519 0.681 1.584 0.489 2.271 0 0.613-0.588 1.281-1.1161 1.994-1.5771 1.069-0.3738 2.253-0.1973 3.166 0.472 0.953 0.6 1.75 1.432 2.67 2.075 0.891 0.628 1.883 1.076 2.81 1.641 1.18 0.8603 2.428 1.6225 3.732 2.279 1.336 0.6478 2.928 0.4442 4.057-0.519-0.692-0.384-1.485-0.9509-1.432-1.7739s1.012-1.437 0.948-2.281-1.057-1.174-1.769-1.589c-1.487-0.865-2.122-2.7671-2.44-4.5221-0.247-1.373-0.451-2.907-1.477-3.789-0.662-0.567-1.556-0.7519-2.224-1.3139-0.585-0.6046-1.054-1.3122-1.383-2.0871-0.616-1.2531-1.539-2.3303-2.683-3.1319-1.132-0.7879-2.574-0.9847-3.876-0.5291-0.484 0.192-0.925 0.489-1.4 0.692-1.19 0.519-2.551 0.4441-3.728 0.9861-1.451 0.668-2.393 2.1409-3.256 3.5399-0.73 1.2-2.177 3.312-1.767 4.868 0.405 1.577 2.686 1.4921 3.762 2.2431z" fill="#4C3E42"/>
<g fill="#000" opacity=".1">
<path d="m155.83 72.267c-5e-3 -0.0641-0.016-0.1277-0.033-0.19-0.312 0.3749-0.525 0.8217-0.621 1.3-6e-3 0.1121 3e-3 0.2246 0.028 0.334 0.358-0.4019 0.577-0.908 0.626-1.444z"/>
<path d="m152.55 75.674c-1.303-0.6565-2.551-1.4187-3.73-2.279-0.929-0.566-1.921-1.013-2.812-1.641-0.92-0.65-1.717-1.486-2.67-2.075-0.914-0.6662-2.097-0.8432-3.167-0.474-0.715 0.4594-1.383 0.9883-1.994 1.579-0.688 0.5-1.743 0.692-2.271 0-0.209-0.33-0.338-0.7043-0.377-1.093-0.119-1.2445-0.708-2.3971-1.646-3.224-1.077-0.752-3.358-0.668-3.772-2.248-0.069-0.2828-0.087-0.5757-0.054-0.865-0.283 0.6376-0.367 1.346-0.24 2.032 0.415 1.588 2.7 1.5 3.772 2.248 0.939 0.8273 1.528 1.98 1.648 3.225 0.039 0.3884 0.168 0.7625 0.375 1.093 0.519 0.681 1.584 0.489 2.272-9e-3 0.611-0.5905 1.279-1.1188 1.994-1.577 1.07-0.3725 2.254-0.1953 3.167 0.474 0.953 0.6 1.75 1.432 2.67 2.075 0.891 0.63 1.883 1.076 2.81 1.641 1.179 0.8616 2.428 1.6245 3.732 2.281 1.336 0.6468 2.927 0.4432 4.057-0.519-0.266-0.1432-0.52-0.3106-0.756-0.5-0.987 0.3153-2.055 0.2642-3.008-0.144z"/>
</g>
<path d="m121.94 87.581 13.835-5.167c0.327-0.1227 0.689-0.1103 1.007 0.0344 0.317 0.1446 0.564 0.4097 0.686 0.7366 0.122 0.3271 0.109 0.6891-0.036 1.0066s-0.41 0.5644-0.737 0.6864l-13.835 5.169-2.964-0.3 2.044-2.166z" fill="#5C5C8E"/>
<path d="m137.05 82.771c0.254 0.6815-0.092 1.44-0.773 1.6949l-13.835 5.1671-2.227-0.2231-0.32 0.346 2.964 0.3 13.835-5.169c0.327-0.122 0.592-0.3689 0.737-0.6864s0.158-0.6796 0.036-1.0066c-0.101-0.2726-0.291-0.5038-0.538-0.6569 0.048 0.0741 0.088 0.1524 0.121 0.234z" fill="#fff" opacity=".1"/>
<path d="m121.94 87.608 0.922 2.466-2.433-0.244-0.533-0.054 0.728-0.771 1.316-1.397z" fill="#EFC8C4"/>
<path d="m120.62 89.013c0.058 0.0419 0.106 0.0949 0.142 0.1559 0.047 0.0732 0.047 0.1669 0 0.2401-0.039 0.0401-0.085 0.0739-0.135 0.1-0.115 0.0742-0.189 0.1976-0.2 0.3339l-0.533-0.054 0.726-0.7759z" fill="#727A9C"/>
<path d="m109.86 60.807-2.333-1.138c-0.14-0.0683-0.198-0.237-0.13-0.377l0.247-0.508c0.032-0.0676 0.091-0.1195 0.161-0.1439 0.071-0.0244 0.149-0.0194 0.216 0.0139l1.572 0.766 1.641-3.365c0.069-0.1395 0.237-0.1979 0.377-0.131l0.508 0.249c0.068 0.0323 0.119 0.0904 0.144 0.1613 0.024 0.0709 0.019 0.1486-0.014 0.2157l-2.013 4.128c-0.068 0.14-0.237 0.1982-0.377 0.13l1e-3 -1e-3z" fill="#3ACC6C"/>
<path d="m114.96 75.398-2.333-1.138c-0.14-0.0682-0.198-0.237-0.13-0.377l0.247-0.508c0.069-0.1402 0.239-0.1983 0.379-0.13l1.57 0.766 1.639-3.369c0.069-0.1395 0.237-0.1978 0.377-0.131l0.507 0.249c0.068 0.0326 0.119 0.0907 0.144 0.1614s0.02 0.1483-0.013 0.2156l-2.013 4.128c-0.069 0.1398-0.238 0.1978-0.379 0.13l5e-3 3e-3z" fill="#3ACC6C"/>
<path d="m112.67 68.205-2.333-1.138c-0.139-0.0686-0.198-0.2367-0.131-0.377l0.249-0.508c0.032-0.0676 0.091-0.1194 0.161-0.1439 0.071-0.0244 0.149-0.0194 0.216 0.0139l1.572 0.7661 1.641-3.3711c0.068-0.14 0.237-0.1982 0.377-0.13l0.508 0.247c0.14 0.0694 0.198 0.2384 0.13 0.3791l-2.015 4.1309c-0.068 0.14-0.237 0.1982-0.377 0.13l2e-3 1e-3z" fill="#3ACC6C"/>
<path d="m117.18 81.985-2.333-1.138c-0.14-0.0682-0.198-0.237-0.13-0.377l0.247-0.508c0.068-0.14 0.237-0.1982 0.377-0.13l1.572 0.766 1.641-3.365c0.069-0.1402 0.238-0.1986 0.379-0.1309l0.507 0.2489c0.068 0.0324 0.12 0.0905 0.144 0.1613 0.024 0.0709 0.019 0.1486-0.014 0.2157l-2.011 4.128c-0.069 0.1398-0.238 0.1978-0.379 0.13v-1e-3z" fill="#3ACC6C"/>
<defs>
<linearGradient id="a" x1="148.34" x2="148.34" y1="137.93" y2="54.478" gradientUnits="userSpaceOnUse">
<stop stop-color="#808080" stop-opacity=".251" offset="0"/>
<stop stop-color="#808080" stop-opacity=".122" offset=".54"/>
<stop stop-color="#808080" stop-opacity=".102" offset="1"/>
</linearGradient>
</defs>
</svg>
