<svg width="601" height="825" viewBox="0 0 601 825" fill="none" xmlns="http://www.w3.org/2000/svg">
<path d="M599.155 0.401855C560.311 295.094 323.479 390.472 412.062 631.98C454.218 746.912 517.795 768.196 585.997 824.001" stroke="#0048C1" stroke-width="2"/>
<path opacity="0.1" d="M98.562 616.09C93.422 615.57 88.053 615.014 83.185 616.374C78.317 617.734 74.285 621.707 75.729 625.505C78.958 633.971 97.909 628.075 106.647 633.862C109.767 635.93 110.983 639.183 113.419 641.723C117.362 645.847 124.14 647.77 130.683 648.828C169.983 655.183 214.795 638.828 249.244 654.579C260.4 659.679 269.199 667.803 281.431 671.208C297.637 675.719 315.384 670.9 332.152 667.808C353.064 663.986 374.38 662.868 395.577 664.482C411.257 665.691 432.112 666.096 437.131 654.71C440.36 647.387 433.531 639.236 424.457 635.771C415.383 632.306 404.768 632.415 394.64 632.748C375.09 633.448 355.54 634.864 335.985 634.175C298.185 632.833 262.467 617.848 225.654 617.353C182.783 616.833 141.634 620.431 98.562 616.09Z" fill="#4D8AF0"/>
<path opacity="0.1" d="M58.816 426.55C52.769 432.663 52.4 442.036 52.4 442.036C52.4 442.036 61.767 441.504 67.789 435.384C73.811 429.264 74.211 419.898 74.211 419.898C74.211 419.898 64.838 420.448 58.816 426.55Z" fill="#6C63FF"/>
<path opacity="0.1" d="M83.154 275.524C85.289 283.838 93.119 289.008 93.119 289.008C93.119 289.008 97.491 280.708 95.356 272.391C93.221 264.074 85.391 258.913 85.391 258.913C85.391 258.913 80.995 267.215 83.154 275.524Z" fill="#6C63FF"/>
<path opacity="0.1" d="M436.799 298.393C430.752 304.506 430.377 313.879 430.377 313.879C430.377 313.879 439.75 313.347 445.777 307.227C451.804 301.107 452.187 291.735 452.187 291.735C452.187 291.735 442.821 292.309 436.799 298.393Z" fill="#6C63FF"/>
<path opacity="0.1" d="M252.497 384.064C251.797 392.614 257.497 400.064 257.497 400.064C257.497 400.064 264.348 393.648 265.049 385.092C265.75 376.536 260.049 369.104 260.049 369.104C260.049 369.104 253.198 375.504 252.497 384.064Z" fill="#6C63FF"/>
<path opacity="0.1" d="M450.87 503.98C450.17 512.53 455.87 519.98 455.87 519.98C455.87 519.98 462.721 513.564 463.422 505.014C464.123 496.464 458.422 489.014 458.422 489.014C458.422 489.014 451.571 495.43 450.87 503.98Z" fill="#6C63FF"/>
<path opacity="0.1" d="M328.043 287.514C291.943 286.335 257.555 275.42 224.721 263.448C191.887 251.476 159.366 238.238 124.128 231.901C101.463 227.825 75.541 227.251 57.283 238.649C39.706 249.612 34.027 268.549 30.976 286.111C28.676 299.323 27.328 313.231 33.62 325.603C37.993 334.196 45.747 341.416 51.114 349.639C69.785 378.271 56.586 413.572 36.359 441.551C26.876 454.667 15.859 467.172 8.53397 481.134C1.20897 495.096 -2.17603 511.084 4.23397 525.318C10.582 539.431 25.716 550.031 42.111 557.487C75.411 572.604 114.629 576.964 152.902 579.419C237.602 584.861 322.739 582.503 407.658 580.145C439.086 579.274 470.648 578.391 501.563 573.832C518.733 571.304 536.455 567.289 548.923 557.59C564.743 545.279 568.665 524.435 558.06 508.998C540.276 483.111 491.12 476.678 478.675 448.892C471.836 433.599 478.859 416.566 488.805 402.38C510.137 371.952 545.888 345.255 547.768 310.468C549.062 286.583 531.875 262.662 505.3 251.36C477.447 239.508 438.818 241.002 418.278 260.612C397.108 280.778 359.919 288.546 328.043 287.514Z" fill="#4D8AF0"/>
<path d="M437.954 401.346C436.264 401.778 434.883 402.995 434.241 404.617L433.641 404.517L431.386 404.154C431.386 404.154 419.437 403.168 417.206 403.319C414.975 403.47 413.578 401.269 413.578 401.269L404.695 393.753L404.006 393.153C404.968 392.79 405.566 392.603 405.566 392.603C405.566 392.603 381.729 362.973 376.589 362.403C371.449 361.833 362.953 354.911 362.869 354.844L362.778 354.372C362.591 353.372 362.452 352.364 362.349 351.349L363.613 352.123C363.607 351.772 363.619 351.421 363.649 351.071C363.838 347.414 365.072 343.889 367.205 340.912C369.69 337.465 373.367 334.756 374.836 330.784C375.422 329.076 375.686 327.274 375.616 325.469C375.654 322.218 374.796 319.019 373.137 316.223C371.426 313.396 368.587 311.437 365.337 310.841C364.49 310.708 363.626 310.69 362.791 310.496C357.827 309.329 356 302.671 351.175 301.039C348.861 300.411 346.397 300.654 344.251 301.722C342.08 302.665 340.115 304.022 337.993 305.066C335.871 306.11 333.464 306.88 331.535 308.366C331.325 308.528 331.125 308.701 330.935 308.886L330.554 309.255C329.758 310.063 329.065 310.967 328.492 311.946L328.401 312.097C328.341 312.197 328.286 312.309 328.232 312.417C328.178 312.525 328.141 312.586 328.105 312.671C328.069 312.756 328.005 312.864 327.966 312.961L327.839 313.251L327.73 313.529C327.694 313.629 327.651 313.735 327.621 313.843C327.591 313.951 327.561 314.018 327.536 314.109L327.445 314.429L327.391 314.689C327.38 314.802 327.36 314.913 327.331 315.022C327.322 315.103 327.322 315.184 327.331 315.264V316.383C327.354 316.561 327.391 316.737 327.44 316.909C327.998 318.126 328.782 319.226 329.75 320.15C329.65 320.241 329.556 320.325 329.46 320.422C325.336 324.397 323.006 329.879 323.008 335.606C323.009 336.866 323.125 338.123 323.353 339.361C322.254 338.531 321.073 337.816 319.828 337.226C315.733 335.263 311.253 334.231 306.712 334.203C299.305 334.118 288.898 331.337 288.898 331.337C289.162 331.844 289.363 332.382 289.498 332.937C289.045 332.677 288.555 332.399 288.016 332.109C283.677 329.78 278.974 328.206 274.108 327.453C274.108 327.453 271.024 327.882 270.608 321.406C270.467 319.383 270.102 317.381 269.52 315.438C267.75 309.515 266.523 303.443 265.856 297.297L264.822 287.791C264.822 287.791 269.472 262.994 266.672 252.424C267.572 249.11 267.065 246.075 264.096 243.892C252.383 235.269 240.568 268.829 240.568 268.829L236.178 273.092C235.052 272.358 233.782 271.874 232.453 271.671C232.453 271.671 230.089 274.09 228.444 280.693C227.573 284.193 221.623 290.041 216.244 294.752C212.422 298.096 208.734 301.573 205.051 305.062C202.33 307.65 196.265 311.351 183.034 313.443C180.96 313.77 179.073 314.078 177.35 314.362C177.79 312.8 178.014 311.185 178.015 309.562C177.973 301.147 172.107 293.882 163.889 292.068C163.949 291.645 163.949 291.215 163.889 290.792C163.666 289.882 163.205 289.047 162.553 288.373C159.765 284.926 156.742 281.383 152.594 279.75C150.883 279.085 149.051 278.79 147.218 278.885H145.743C141.787 279.105 138.118 281.018 135.672 284.134C134.184 286.123 133.29 288.482 132.008 290.604C129.47 294.484 126.033 297.693 121.988 299.958C119.599 301.403 117.088 302.649 114.835 304.288C106.654 310.232 102.88 321.219 104.935 331.039C105.842 335.35 107.759 339.595 107.245 343.967C106.84 347.359 105.014 350.407 103.151 353.285C101.288 356.163 99.317 359.085 98.58 362.422C97.843 365.759 98.616 369.678 101.41 371.698C102.518 372.308 103.571 373.01 104.56 373.798C105.143 374.488 105.631 375.253 106.011 376.072C109.008 381.488 114.094 385.439 120.082 387.005C121.022 387.245 121.991 387.351 122.96 387.319H123.25C125.469 387.458 127.743 386.865 128.487 384.9C128.599 384.454 128.767 384.023 128.987 383.618C129.197 383.318 129.508 383.105 129.864 383.018C130.579 383.182 131.269 383.442 131.914 383.792C135.012 385.399 138.4 386.367 141.879 386.64C142.46 386.687 143.044 386.697 143.627 386.67C144.838 386.784 146.058 386.61 147.189 386.162C148.276 385.61 149.215 384.806 149.928 383.816C150.085 383.616 150.228 383.405 150.382 383.216C149.583 388.046 148.079 392.732 145.919 397.124C145.919 397.124 142.291 403.171 142.551 409.266C142.412 411.487 142.882 413.704 143.912 415.676C143.912 415.676 144.012 415.41 144.226 414.993C145.266 416.735 148.677 422.304 150.914 424.257C151.023 430.008 150.999 437.209 150.279 438.691C149.07 441.225 145.248 459.25 161.679 471.544L165.47 479.844L149.872 480.947C148.294 480.729 127.886 477.984 127.783 481.981C127.683 486.135 130.867 526.589 141.449 523.849C151.311 521.297 148.058 509.5 147.568 507.916L147.919 507.816L147.532 507.707L155.423 500.227C155.573 499.317 155.357 498.385 154.823 497.633L154.902 497.591L173.962 498.444L178.443 508.179C178.443 508.179 186.043 519.741 179.882 529.47C173.721 539.199 167.347 554.413 166.319 563.641C165.478 571.187 159.891 578.601 157.89 581.041C154.316 582.25 140.608 587.632 146.08 595.777C152.345 605.101 172.686 622.849 180.91 622.238C189.134 621.627 185.838 615.647 185.838 615.647L178.963 608.983C178.963 608.983 177.754 594.783 178.243 590.631C178.373 588.649 177.121 586.837 175.22 586.259C175.867 581.633 177.506 572.865 181.02 568.022C185.948 561.222 201.773 531.322 201.773 531.322C201.773 531.322 206.804 526.859 205.673 513.581C205.22 508.223 204.965 503.519 204.82 499.8L222.731 500.6C222.731 500.6 241.942 498.671 228.893 478.088C215.844 457.505 188.107 437.332 188.107 437.332L187.859 424.591C189.117 424.905 189.859 425.063 189.859 425.063C189.859 425.063 189.75 424.603 189.569 423.781L189.859 423.847C189.859 423.847 185.85 406.499 184.616 392.706L185.747 393.226C197.665 407.019 205.702 395.361 205.702 395.361C205.702 395.361 230.875 359.975 228.408 361.595C227.892 361.85 227.294 361.886 226.751 361.695L228.565 355.914C228.565 355.914 235.997 344.558 225.209 338.173C216.409 332.961 216.635 349.299 217.015 355.473L216.58 355.104C216.58 355.104 208.157 367.804 203.634 374.877C199.111 381.95 195.314 377.296 195.314 377.296L189.6 370.856C190.539 368.276 191 365.547 190.961 362.802C191.213 358.929 189.809 355.131 187.097 352.353C182.737 347.909 181.461 343.603 181.328 340.29C181.371 338.573 181.76 336.883 182.471 335.319L212.171 319.597C212.171 319.597 218.436 319.697 226.859 306.717C232.318 298.418 238.325 290.493 244.842 282.995C244.842 282.995 244.667 282.741 244.364 282.324C244.664 281.967 244.842 281.774 244.842 281.774C244.842 281.774 244.497 281.274 243.911 280.498L248.488 275.219C248.344 277.605 248.326 279.997 248.434 282.385L250.804 290.397L252.134 335.005C252.134 335.005 250.695 339.238 259.947 343.525C267.772 347.153 280.168 353.2 283.784 354.984C283.651 355.311 283.572 355.484 283.572 355.484L284.648 355.411L284.805 355.484C302.879 353.863 302.262 371.907 302.262 371.907C302.262 371.907 303.471 408.607 297.951 421.388C292.431 434.169 293.222 449.978 293.222 449.978C293.222 449.978 293.772 447.278 296.85 450.806C296.79 451.114 296.723 451.447 296.65 451.792C294.884 460.639 291.208 479.456 290.525 487.092C289.772 494.046 288.431 500.924 286.516 507.651L284.702 541.411L296.258 541.973L296.131 543.182C296.003 544.427 295.27 545.528 294.172 546.127C290.217 548.274 280.872 555.802 281.619 579.034L281.219 582.771C280.579 589.1 278.659 595.233 275.577 600.797C275.311 601.269 275.077 601.722 274.877 602.158C274.907 601.914 275.018 601.686 275.191 601.511C275.191 601.511 269.191 602.757 270.42 618.98C271.649 635.203 273.504 638.04 275.971 638.239C278.438 638.438 290.483 641.383 289.836 635.403C289.189 629.423 288.627 616.138 289.425 614.112C290.223 612.086 293.501 606.62 290.392 605.302C291.293 601.581 291.73 597.763 291.692 593.934C291.692 593.934 297.739 584.404 302.062 580.855C306.385 577.306 308.714 571.277 310.28 563.519C310.389 563.011 323.021 554.594 321.164 547.604C320.837 546.395 320.602 545.324 320.42 544.357C320.341 543.928 320.275 543.523 320.214 543.148H320.438L323.008 527.735V542.743L324.532 542.943L324.478 544.152L323.831 558.544C323.714 561.347 323.099 564.107 322.017 566.695C319.296 573.135 314.277 587.472 315.644 602.976L315.499 616.799C315.064 616.884 308.787 618.365 309.978 634.032C311.187 650.25 313.056 653.092 315.523 653.291C317.99 653.49 330.036 656.435 329.395 650.455C328.754 644.475 328.172 631.188 328.972 629.167C329.772 627.146 331.209 621.784 328.101 620.467C328.117 618.651 328.56 616.863 329.395 615.249C330.749 612.949 335.272 601.994 338.677 593.571C342.157 585.046 344.092 575.969 344.391 566.765V566.457C344.482 563.352 345.149 560.291 346.356 557.429C347.748 554.227 348.848 550.906 349.645 547.506C349.73 547.101 349.796 546.706 349.857 546.297L352.808 546.69L362.882 503.09C362.882 503.09 365.639 479.459 364.291 468.79C364.237 468.349 364.176 467.943 364.104 467.55L364.704 467.604C364.704 467.604 366.76 462.337 366.143 439.825C365.526 417.313 370.255 410.195 370.255 410.195C372.807 402.104 375.625 399.395 377.269 398.488C377.692 398.218 378.177 398.06 378.678 398.028L386.303 406.754L387.703 408.362C387.706 408.329 387.706 408.296 387.703 408.262L388.303 408.969C388.257 408.611 388.241 408.249 388.255 407.887C392.325 410.251 401.727 415.778 407.339 419.745C414.656 424.915 416.663 424.31 423.061 423.772C426.943 423.452 432.192 421.272 435.711 419.618L436.031 419.467C436.978 419.973 437.975 420.378 439.006 420.676C439.006 420.676 449.334 429.426 450.332 413.456C451.33 397.486 437.954 401.346 437.954 401.346ZM170.078 587.323C169.027 587.01 168.013 586.582 167.055 586.047L170.078 587.323ZM153.909 414.455L153.945 416.723L153.788 416.796C153.836 415.997 153.872 415.211 153.909 414.455ZM315.445 616.855V617.738C315.213 617.49 315.213 617.105 315.444 616.856L315.445 616.855Z" fill="url(#paint0_linear_1_2)"/>
<path d="M348.412 351.157H330.876V369.6H348.412V351.157Z" fill="#4D8AF0"/>
<path d="M309.567 564.11C308.025 571.82 305.739 577.81 301.507 581.344C297.275 584.878 291.33 594.344 291.33 594.344C291.23 606.944 287.901 610.767 287.901 610.767L284.472 611.674H276.006C275.214 609.479 274.608 607.222 274.192 604.926C274.092 604.086 274.692 602.677 275.522 601.165C278.548 595.624 280.43 589.531 281.055 583.248L281.448 579.529C280.734 556.448 289.914 548.956 293.765 546.822C294.845 546.22 295.561 545.126 295.682 543.895L296.365 537.295L319.137 538.414C319.137 538.414 318.653 540.422 319.518 545.066C319.693 546.027 319.929 547.098 320.244 548.289C322.059 555.239 309.663 563.602 309.567 564.11Z" fill="#8E5362"/>
<path d="M348.182 548.17C347.401 551.546 346.322 554.847 344.959 558.032C343.773 560.881 343.117 563.922 343.024 567.006C343.024 567.109 343.024 567.212 343.024 567.314C342.73 576.455 340.833 585.472 337.419 593.956C334.075 602.325 329.643 613.215 328.312 615.507C326.099 619.335 327.405 625.787 327.405 625.787L314.586 624.88L314.81 603.311C313.474 587.911 318.396 573.681 321.063 567.254C322.141 564.682 322.755 561.94 322.877 559.154L323.477 544.847L323.664 540.614C323.664 540.614 346.328 537.391 348.238 542.531C348.715 544.383 348.696 546.328 348.182 548.17Z" fill="#8E5362"/>
<path opacity="0.1" d="M319.52 545.068L295.659 543.895L296.342 537.295L319.142 538.414C319.142 538.414 318.637 540.418 319.52 545.068Z" fill="black"/>
<path opacity="0.1" d="M348.182 548.17L323.475 544.851L323.663 540.618C323.663 540.618 346.327 537.395 348.237 542.535C348.769 543.895 348.642 545.921 348.182 548.17Z" fill="black"/>
<path d="M361.164 504.04L351.289 547.378L322.065 543.448V528.529L319.537 543.858L284.465 542.141L286.279 508.581C288.158 501.884 289.473 495.042 290.209 488.125C290.892 480.542 294.484 461.839 296.22 453.053C296.82 450.153 297.163 448.33 297.163 448.33C297.163 448.33 357.232 460.823 361.163 465.358C361.834 466.132 362.276 467.777 362.548 469.958C363.867 480.554 361.164 504.04 361.164 504.04Z" fill="#BDD2E8"/>
<path opacity="0.1" d="M291.021 506.863C291.021 506.863 314.664 494.463 320.427 497.085L291.021 506.863Z" fill="black"/>
<path opacity="0.1" d="M303.919 466.35C303.919 466.35 323.571 481.268 324.176 485.295L303.919 466.35Z" fill="black"/>
<path opacity="0.1" d="M298.58 517.753C298.58 517.753 312.79 517.153 317.325 520.776L298.58 517.753Z" fill="black"/>
<path opacity="0.1" d="M324.176 501.797C324.176 501.797 330.93 523.904 328.004 529.951C325.078 535.998 322.06 528.536 322.06 528.536L324.176 501.797Z" fill="black"/>
<path d="M314.688 617.025C314.688 617.025 308.036 618.035 309.246 634.156C310.456 650.277 312.269 653.107 314.688 653.306C317.107 653.505 328.898 656.432 328.293 650.482C327.688 644.532 327.084 631.338 327.888 629.318C328.692 627.298 330.088 621.983 327.035 620.671L326.376 623.779C326.376 623.779 319.924 617.829 316.096 622.165C315.932 621.109 315.666 620.071 315.304 619.065C314.924 618.119 314.089 617.625 314.688 617.025Z" fill="#494457"/>
<path d="M436.418 419.184C436.418 419.184 434.894 420.037 432.657 421.101C429.204 422.746 424.057 424.91 420.249 425.231C413.972 425.763 412.007 426.368 404.83 421.231C399.321 417.288 390.1 411.792 386.085 409.446L384.338 408.412L384.163 408.312V408.239L387.495 399.084L399.286 392.813L402.213 395.322L410.927 402.79C410.927 402.79 412.288 404.979 414.482 404.828C416.676 404.677 428.39 405.656 428.39 405.656L430.603 406.019L435.265 406.793L436.418 419.184Z" fill="#8E5362"/>
<path opacity="0.1" d="M436.418 419.185C436.418 419.185 434.894 420.038 432.657 421.102C430.293 419.893 427.357 417.625 428.485 413.894C429.507 410.538 429.785 407.92 430.626 406.033L435.288 406.807L436.418 419.185Z" fill="black"/>
<path d="M434.833 402.858C434.833 402.858 447.985 399.079 447.005 414.952C446.025 430.825 435.893 422.135 435.893 422.135C435.893 422.135 427.276 419.867 429.093 413.893C430.91 407.919 430.377 404.295 434.833 402.858Z" fill="#8E5362"/>
<path d="M298.479 351.46L284.779 357.217L284.567 357.308L284.416 357.235L283.563 356.806C280.02 355.04 267.841 349 260.18 345.414C251.11 341.181 252.519 336.948 252.519 336.948L251.213 292.606L248.891 284.642C248.891 284.642 247.252 257.649 260.38 250.882C273.508 244.115 265.018 289.982 265.018 289.982L266.034 299.512C266.691 305.608 267.896 311.633 269.634 317.512C270.201 319.446 270.558 321.434 270.698 323.444C271.103 329.89 274.126 329.461 274.126 329.461C278.902 330.211 283.512 331.778 287.756 334.093C289.332 334.925 290.84 335.88 292.267 336.947L298.479 351.46Z" fill="#8E5362"/>
<path d="M347.257 372.623L335.562 371.414C337.635 368.264 339.302 364.865 340.526 361.298C340.741 360.614 340.912 359.918 341.04 359.212C341.494 357.482 341.264 355.644 340.399 354.078C336.977 349.041 360.759 341.984 360.759 341.984C360.47 344.772 360.383 347.577 360.499 350.377C360.565 352.326 360.766 354.267 361.099 356.188C361.819 360.1 363.252 363.783 365.985 365.669C373.458 370.809 347.257 372.623 347.257 372.623Z" fill="#8E5362"/>
<path opacity="0.1" d="M347.257 372.623L335.562 371.414C337.635 368.264 339.302 364.865 340.526 361.298C341.874 363.215 342.34 363.173 344.233 363.554C344.233 363.554 356.033 365.301 361.116 356.189C361.836 360.101 363.269 363.784 366.002 365.67C373.458 370.809 347.257 372.623 347.257 372.623Z" fill="black"/>
<path opacity="0.1" d="M386.108 409.443C386.094 409.803 386.11 410.163 386.156 410.519L384.342 408.409L384.191 408.234L387.523 399.079L399.314 392.808L402.241 395.317C398.05 396.92 386.295 402.008 386.108 409.443Z" fill="black"/>
<path opacity="0.1" d="M298.477 351.46L284.777 357.217H284.414L283.356 357.29C283.356 357.29 283.435 357.115 283.562 356.79C284.705 354.014 290.008 340.463 287.716 334.078C289.292 334.91 290.8 335.865 292.227 336.932L298.477 351.46Z" fill="black"/>
<path opacity="0.1" d="M362.55 469.941C357.217 469.463 303.859 464.529 298.883 456.674C298.096 455.395 297.206 454.181 296.222 453.046C296.822 450.146 297.165 448.323 297.165 448.323C297.165 448.323 357.234 460.816 361.165 465.351C361.836 466.114 362.278 467.753 362.55 469.941Z" fill="black"/>
<path d="M344.233 364.158C344.233 364.158 356.163 365.924 361.207 356.658C361.207 356.658 369.63 363.576 374.667 364.168C379.704 364.76 403.087 394.197 403.087 394.197C403.087 394.197 384.342 400.244 385.551 409.919L376.68 399.639C376.68 399.639 372.248 399.433 368.42 411.733C368.42 411.733 363.782 418.784 364.387 441.157C364.992 463.53 362.978 468.773 362.978 468.773C362.978 468.773 304.118 463.736 298.878 455.473C293.638 447.21 292.831 451.24 292.831 451.24C292.831 451.24 292.021 435.518 297.463 422.82C302.905 410.122 301.696 373.641 301.696 373.641C301.696 373.641 302.296 355.7 284.565 357.315C284.565 357.315 292.021 339.979 288.598 333.327C288.598 333.327 298.798 336.097 306.067 336.181C310.529 336.214 314.927 337.245 318.939 339.199C321.012 340.1 322.842 341.48 324.278 343.226C327.7 348.063 333.348 345.85 333.348 345.85C334.772 350.278 336.53 354.59 338.609 358.75C338.845 359.191 339.081 359.627 339.323 360.044C339.653 360.631 340.012 361.2 340.399 361.749C341.851 363.819 342.262 363.765 344.233 364.158Z" fill="#0048C1"/>
<path opacity="0.1" d="M360.499 350.359C359.856 351.272 359.14 352.132 358.358 352.929C354.385 357.006 348.933 359.304 343.241 359.302C342.512 359.303 341.783 359.266 341.058 359.193C341.512 357.463 341.282 355.625 340.417 354.059C336.994 349.022 360.777 341.965 360.777 341.965C360.482 344.753 360.389 347.558 360.499 350.359Z" fill="black"/>
<path d="M364.388 337.552C364.353 347.604 357.226 356.234 347.362 358.169C337.498 360.104 327.64 354.807 323.809 345.513C319.978 336.219 323.241 325.514 331.604 319.937C339.967 314.359 351.104 315.461 358.212 322.568C362.177 326.546 364.399 331.936 364.388 337.552Z" fill="#8E5362"/>
<path opacity="0.1" d="M374.873 385.923L375.308 400.085C375.308 400.085 381.627 394.994 381.826 390.156C382.025 385.318 374.873 385.923 374.873 385.923Z" fill="black"/>
<path opacity="0.1" d="M323.874 400.088C323.874 400.088 340.503 422.915 350.174 425.231C359.845 427.547 327.502 407.489 323.874 400.088Z" fill="black"/>
<path opacity="0.1" d="M341.512 402.465C341.512 402.465 350.782 412.938 357.433 414.244L341.512 402.465Z" fill="black"/>
<path opacity="0.1" d="M308.859 428.859C308.859 428.859 325.79 445.488 335.465 446.498L308.859 428.859Z" fill="black"/>
<path opacity="0.1" d="M364.388 337.552C364.391 343.085 362.219 348.397 358.341 352.343L356.019 350.898C355.121 350.431 354.345 349.758 353.757 348.933C352.989 347.651 353.213 346.043 353.273 344.549C353.4 341.386 352.529 337.964 350.056 335.987C346.047 332.776 339.619 334.554 335.544 331.403C334.563 330.57 333.698 329.608 332.974 328.543L329.152 323.421C328.922 323.121 328.644 322.821 328.352 322.46C334.436 316.48 343.516 314.737 351.382 318.04C359.248 321.343 364.362 329.046 364.352 337.577L364.388 337.552Z" fill="black"/>
<path d="M330.471 310.445C332.364 309 334.671 308.238 336.802 307.174C338.933 306.11 340.811 304.755 342.94 303.848C345.048 302.8 347.466 302.557 349.74 303.165C354.475 304.792 356.265 311.407 361.132 312.565C361.954 312.758 362.801 312.777 363.632 312.904C366.83 313.511 369.615 315.459 371.281 318.255C372.906 321.046 373.743 324.226 373.7 327.455C373.767 329.247 373.507 331.036 372.932 332.734C371.493 336.683 367.883 339.386 365.446 342.802C363.14 346.072 361.916 349.982 361.946 353.983L356.046 350.313C355.146 349.848 354.371 349.174 353.784 348.348C353.016 347.066 353.24 345.458 353.3 343.964C353.427 340.801 352.556 337.379 350.089 335.402C346.074 332.191 339.646 333.969 335.577 330.818C334.596 329.985 333.731 329.023 333.007 327.958L329.185 322.836C328.357 321.723 326.766 320.336 326.403 318.984C325.591 316.073 328.342 312.089 330.471 310.445Z" fill="#362133"/>
<path opacity="0.1" d="M356.696 349.633C355.797 349.168 355.021 348.494 354.435 347.668C353.667 346.386 353.891 344.778 353.951 343.284C354.078 340.122 353.207 336.699 350.734 334.722C346.725 331.511 340.297 333.289 336.222 330.138C335.241 329.305 334.376 328.343 333.652 327.278L329.83 322.156C328.995 321.043 327.411 319.656 327.048 318.304C326.389 315.97 328.058 312.928 329.842 310.981C327.842 312.831 325.642 316.345 326.389 318.963C326.776 320.318 328.342 321.702 329.17 322.815L332.992 327.937C333.716 329.002 334.581 329.964 335.562 330.797C339.619 333.947 346.047 332.17 350.074 335.381C352.541 337.358 353.412 340.781 353.285 343.943C353.225 345.437 353.001 347.043 353.769 348.327C354.356 349.153 355.131 349.827 356.031 350.292L361.931 353.962C361.925 353.613 361.937 353.264 361.967 352.916L356.696 349.633Z" fill="black"/>
<path d="M275.139 601.872C275.139 601.872 269.249 603.081 270.459 619.233C271.669 635.385 273.482 638.184 275.901 638.383C278.32 638.582 290.111 641.509 289.506 635.559C288.901 629.609 288.297 616.415 289.101 614.395C289.905 612.375 293.101 606.951 290.05 605.639L287.589 608.856C287.589 608.856 281.137 602.906 277.309 607.241C277.313 607.242 273.733 603.281 275.139 601.872Z" fill="#494457"/>
<path opacity="0.1" d="M278.867 611.886C280.143 612.486 281.334 613.228 282.604 613.833C283.854 614.488 285.25 614.817 286.661 614.789C287.26 614.778 287.84 614.577 288.318 614.215" fill="black"/>
<path opacity="0.1" d="M317.627 627.68C318.305 628.454 319.041 629.176 319.827 629.839C321.125 630.532 322.594 630.836 324.06 630.716C324.306 630.739 324.553 630.707 324.786 630.625C325.049 630.483 325.272 630.277 325.433 630.025L326.225 629.003" fill="black"/>
<path d="M218.26 359.52C218.26 359.52 215.539 333.72 226.121 340.073C236.703 346.426 229.421 357.706 229.421 357.706L226.936 365.67L218.26 359.52Z" fill="#FFC1C7"/>
<path d="M235.191 277.083L241.238 271.145C241.238 271.145 252.83 237.785 264.319 246.353C275.808 254.921 249.758 276.587 249.758 276.587L242.853 284.647L235.191 277.083Z" fill="#FFC1C7"/>
<path d="M146.701 409.014L146.401 415.865C146.401 415.865 151.946 425.54 154.262 426.247C156.578 426.954 156.378 405.784 156.378 405.784L146.701 409.014Z" fill="#0048C1"/>
<path d="M155.971 401.491L156.382 426.743H184.494L182.378 412.031L155.971 401.491Z" fill="#FFC1C7"/>
<path d="M162.525 464.536L163.837 472.596L180.266 509.083C180.266 509.083 187.722 520.572 181.675 530.247C175.628 539.922 169.382 555.039 168.375 564.206C167.368 573.373 159.408 582.347 159.408 582.347L176.744 589.706C176.744 589.706 177.953 575.296 182.791 568.542C187.629 561.788 203.145 532.061 203.145 532.061C203.145 532.061 208.085 527.623 206.979 514.422C205.873 501.221 205.969 491.946 205.969 491.946L204.258 470.885L162.525 464.536Z" fill="#575988"/>
<path opacity="0.1" d="M162.525 464.536L163.837 472.596L180.266 509.083C180.266 509.083 187.722 520.572 181.675 530.247C175.628 539.922 169.382 555.039 168.375 564.206C167.368 573.373 159.408 582.347 159.408 582.347L176.744 589.706C176.744 589.706 177.953 575.296 182.791 568.542C187.629 561.788 203.145 532.061 203.145 532.061C203.145 532.061 208.085 527.623 206.979 514.422C205.873 501.221 205.969 491.946 205.969 491.946L204.258 470.885L162.525 464.536Z" fill="black"/>
<path d="M160.911 581.24C160.911 581.24 142.365 586.882 148.511 596.158C154.657 605.434 174.611 623.067 182.676 622.458C190.741 621.849 187.513 615.903 187.513 615.903L180.759 609.251C180.759 609.251 179.55 595.144 180.059 591.014C180.568 586.884 174.314 584.967 173.504 587.386C172.694 589.805 160.911 581.24 160.911 581.24Z" fill="#C4747B"/>
<path d="M172.599 416.016L157.899 417.643C155.176 417.944 153.137 420.28 153.207 423.019C153.364 428.897 153.467 438.245 152.645 439.95C151.436 442.472 147.711 460.413 163.832 472.603L185.703 479.557L150.631 482.078L151.744 501.531L157.186 498.508L223.701 501.531C223.701 501.531 242.549 499.614 229.748 479.158C216.947 458.702 189.742 438.644 189.742 438.644L189.442 422.717L187.422 418.085L172.599 416.016Z" fill="#575988"/>
<path opacity="0.1" d="M190.843 479.249C195.662 477.144 201.141 477.144 205.96 479.249H190.843Z" fill="black"/>
<path d="M152.349 481.969C152.349 481.969 130.683 478.849 130.58 482.979C130.477 487.109 133.603 527.321 143.986 524.599C154.369 521.877 149.93 508.575 149.93 508.575L157.694 501.119C157.694 501.119 158.494 496.989 153.358 497.388L152.349 481.969Z" fill="#C4747B"/>
<path d="M188.225 369.195L196.787 378.973C196.787 378.973 200.518 383.611 204.95 376.554C209.382 369.497 217.65 356.902 217.65 356.902C217.65 356.902 226.823 364.962 229.242 363.354C231.661 361.746 206.971 396.92 206.971 396.92C206.971 396.92 199.11 408.506 187.415 394.804L183.993 393.19L188.225 369.195Z" fill="#0048C1"/>
<path d="M162.03 329.461C171.882 329.461 179.868 321.475 179.868 311.623C179.868 301.772 171.882 293.785 162.03 293.785C152.178 293.785 144.192 301.772 144.192 311.623C144.192 321.475 152.178 329.461 162.03 329.461Z" fill="#FFC1C7"/>
<path opacity="0.1" d="M162.026 321.226C162.026 321.226 146.697 328.482 148.511 341.181C149.707 350.713 150.413 360.3 150.627 369.904C150.627 369.904 157.587 380.184 148.359 399.836C148.359 399.836 142.459 409.813 146.394 417.069C146.394 417.069 150.754 405.58 162.025 414.046C173.296 422.512 191.443 426.446 191.443 426.446C191.443 426.446 182.07 385.327 187.815 379.583C187.815 379.583 197.792 364.768 188.722 355.396C179.652 346.024 184.187 337.255 184.187 337.255L213.315 321.636C213.315 321.636 219.459 321.736 227.725 308.836C233.076 300.594 238.969 292.715 245.364 285.253C245.364 285.253 239.111 275.88 233.27 275.173C233.27 275.173 230.948 277.592 229.34 284.147C228.481 287.624 222.646 293.435 217.367 298.121C213.618 301.447 210.002 304.9 206.392 308.401C203.719 310.971 197.769 314.647 184.792 316.728C163.433 320.125 162.026 321.226 162.026 321.226Z" fill="black"/>
<path d="M162.026 320.016C162.026 320.016 146.697 327.272 148.511 339.971C149.707 349.503 150.413 359.09 150.627 368.694C150.627 368.694 157.587 378.974 148.359 398.626C148.359 398.626 142.459 408.603 146.394 415.86C146.394 415.86 150.754 404.371 162.025 412.837C173.296 421.303 191.443 425.237 191.443 425.237C191.443 425.237 182.07 384.118 187.815 378.374C187.815 378.374 197.792 363.559 188.722 354.187C179.652 344.815 184.187 336.046 184.187 336.046L213.315 320.427C213.315 320.427 219.459 320.527 227.725 307.627C233.076 299.385 238.969 291.506 245.364 284.044C245.364 284.044 239.111 274.671 233.27 273.964C233.27 273.964 230.948 276.383 229.34 282.938C228.481 286.415 222.646 292.226 217.367 296.912C213.618 300.238 210.002 303.691 206.392 307.192C203.719 309.762 197.769 313.438 184.792 315.519C163.433 318.915 162.026 320.016 162.026 320.016Z" fill="#4D8AF0"/>
<path opacity="0.1" d="M175.224 396.007C175.224 396.007 187.112 413.543 187.414 416.566C187.42 416.566 185.606 397.717 175.224 396.007Z" fill="black"/>
<path opacity="0.1" d="M159.605 336.947C159.605 336.947 167.895 346.924 179.874 338.562C173.183 340.834 165.852 340.25 159.605 336.947Z" fill="black"/>
<path opacity="0.1" d="M166.033 292.968C165.816 292.062 165.366 291.228 164.727 290.549C161.994 287.12 159.027 283.601 154.955 281.975C149.41 279.904 143.163 281.683 139.542 286.365C138.079 288.336 137.208 290.682 135.942 292.793C133.46 296.637 130.09 299.826 126.116 302.093C123.776 303.526 121.309 304.766 119.102 306.393C111.078 312.301 107.371 323.221 109.391 332.999C110.28 337.28 112.16 341.499 111.653 345.849C111.26 349.223 109.464 352.249 107.644 355.113C105.824 357.977 103.883 360.882 103.157 364.183C102.431 367.484 103.193 371.397 105.933 373.398C107.018 374.011 108.051 374.711 109.023 375.49C109.595 376.178 110.073 376.938 110.444 377.752C113.354 383.122 118.344 387.058 124.244 388.636C126.844 389.319 130.333 389.071 131.283 386.556C131.392 386.112 131.557 385.683 131.773 385.28C132.632 384.071 134.524 384.748 135.855 385.443C138.883 387.027 142.202 387.979 145.609 388.243C146.961 388.422 148.337 388.258 149.609 387.765C150.682 387.22 151.606 386.421 152.3 385.437C155.481 381.295 156.394 375.883 156.938 370.689C157.426 367.319 157.412 363.896 156.896 360.53C155.868 355.172 152.609 350.166 153.096 344.736C153.61 338.936 158.32 334.184 159.04 328.41C159.406 325.387 158.651 322.335 156.918 319.83C156.279 319.057 155.737 318.208 155.304 317.302C154.881 316.365 155.073 315.265 155.788 314.526C156.171 314.258 156.596 314.055 157.046 313.926C160.934 312.432 163.008 308.538 163.286 304.553C163.27 303.083 163.41 301.616 163.703 300.175C164.364 297.89 166.377 295.399 166.033 292.968Z" fill="black"/>
<path d="M164.823 292.968C164.606 292.062 164.156 291.228 163.517 290.549C160.784 287.12 157.817 283.601 153.745 281.975C148.2 279.904 141.953 281.683 138.332 286.365C136.869 288.336 135.998 290.682 134.732 292.793C132.25 296.637 128.88 299.826 124.906 302.093C122.566 303.526 120.099 304.766 117.892 306.393C109.868 312.301 106.161 323.221 108.181 332.999C109.07 337.28 110.95 341.499 110.443 345.849C110.05 349.223 108.254 352.249 106.434 355.113C104.614 357.977 102.673 360.882 101.947 364.183C101.221 367.484 101.983 371.397 104.723 373.398C105.808 374.011 106.841 374.711 107.813 375.49C108.385 376.178 108.863 376.938 109.234 377.752C112.144 383.122 117.134 387.058 123.034 388.636C125.634 389.319 129.123 389.071 130.073 386.556C130.182 386.112 130.347 385.683 130.563 385.28C131.422 384.071 133.314 384.748 134.645 385.443C137.674 387.027 140.992 387.979 144.399 388.243C145.751 388.422 147.127 388.258 148.399 387.765C149.472 387.22 150.396 386.421 151.09 385.437C154.271 381.295 155.184 375.883 155.728 370.689C156.216 367.319 156.202 363.896 155.686 360.53C154.658 355.172 151.399 350.166 151.886 344.736C152.4 338.936 157.11 334.184 157.83 328.41C158.196 325.387 157.441 322.335 155.708 319.83C155.069 319.057 154.527 318.208 154.094 317.302C153.672 316.365 153.863 315.265 154.578 314.526C154.961 314.258 155.386 314.055 155.836 313.926C159.724 312.432 161.798 308.538 162.076 304.553C162.06 303.083 162.2 301.616 162.493 300.175C163.154 297.89 165.167 295.399 164.823 292.968Z" fill="#BB7684"/>
<g opacity="0.1">
<path d="M128.766 385.25C128.549 385.654 128.381 386.082 128.266 386.526C127.608 387.961 126.175 388.882 124.596 388.884C126.876 389.114 129.313 388.564 130.08 386.526C130.195 386.082 130.363 385.654 130.58 385.25C130.731 385.029 130.938 384.851 131.18 384.736C130.35 384.359 129.37 384.567 128.766 385.25Z" fill="black"/>
<path d="M164.854 292.963C164.643 292.055 164.192 291.219 163.548 290.544C160.815 287.115 157.848 283.596 153.776 281.97C152.007 281.28 150.106 280.995 148.213 281.136C149.498 281.217 150.763 281.498 151.962 281.97C156.032 283.597 159.001 287.116 161.734 290.544C162.378 291.219 162.829 292.055 163.04 292.963C163.385 295.382 161.377 297.891 160.712 300.129C160.404 301.568 160.264 303.037 160.295 304.507C160.011 308.486 157.943 312.368 154.049 313.88C153.599 314.009 153.174 314.212 152.791 314.48C152.076 315.222 151.886 316.325 152.313 317.262C152.744 318.168 153.284 319.017 153.922 319.79C155.656 322.292 156.414 325.342 156.05 328.364C155.324 334.151 150.608 338.892 150.1 344.69C149.616 350.132 152.882 355.127 153.9 360.478C154.414 363.844 154.429 367.268 153.945 370.638C153.401 375.832 152.494 381.25 149.307 385.386C148.616 386.37 147.694 387.169 146.622 387.714C145.996 387.989 145.327 388.155 144.645 388.204C145.93 388.357 147.232 388.189 148.436 387.714C149.508 387.183 150.435 386.399 151.136 385.428C154.323 381.292 155.23 375.874 155.774 370.68C156.262 367.31 156.248 363.887 155.732 360.521C154.71 355.17 151.445 350.157 151.932 344.733C152.452 338.922 157.157 334.181 157.882 328.406C158.246 325.384 157.489 322.334 155.754 319.832C155.116 319.059 154.576 318.21 154.146 317.304C153.719 316.367 153.909 315.264 154.624 314.522C155.007 314.254 155.432 314.051 155.882 313.922C159.776 312.422 161.844 308.528 162.128 304.549C162.109 303.079 162.249 301.611 162.545 300.171C163.191 297.891 165.198 295.4 164.854 292.963Z" fill="black"/>
</g>
<path opacity="0.1" d="M141.96 506.368C144.075 508.677 147.323 509.575 150.323 508.678L141.96 506.368Z" fill="black"/>
<path opacity="0.1" d="M180.708 609.769C179.538 610.714 178.014 611.098 176.536 610.821L180.708 609.769Z" fill="black"/>
<path opacity="0.1" d="M17.129 628.538C26.1224 628.538 33.413 627.307 33.413 625.787C33.413 624.268 26.1224 623.036 17.129 623.036C8.13557 623.036 0.844971 624.268 0.844971 625.787C0.844971 627.307 8.13557 628.538 17.129 628.538Z" fill="#4D8AF0"/>
<path d="M462.951 683.322C471.944 683.322 479.235 682.091 479.235 680.571C479.235 679.052 471.944 677.82 462.951 677.82C453.958 677.82 446.667 679.052 446.667 680.571C446.667 682.091 453.958 683.322 462.951 683.322Z" fill="#4D8AF0"/>
<path opacity="0.1" d="M462.951 630.364C471.944 630.364 479.235 629.133 479.235 627.613C479.235 626.094 471.944 624.862 462.951 624.862C453.958 624.862 446.667 626.094 446.667 627.613C446.667 629.133 453.958 630.364 462.951 630.364Z" fill="#6C63FF"/>
<path opacity="0.1" d="M63.303 654.086C72.2964 654.086 79.587 652.855 79.587 651.335C79.587 649.816 72.2964 648.584 63.303 648.584C54.3096 648.584 47.019 649.816 47.019 651.335C47.019 652.855 54.3096 654.086 63.303 654.086Z" fill="#4D8AF0"/>
<path d="M514.452 655.447C527.88 655.447 538.766 653.606 538.766 651.335C538.766 649.064 527.88 647.223 514.452 647.223C501.024 647.223 490.138 649.064 490.138 651.335C490.138 653.606 501.024 655.447 514.452 655.447Z" fill="#4D8AF0"/>
<path opacity="0.1" d="M164.859 692.799C195.169 692.799 219.74 688.646 219.74 683.523C219.74 678.4 195.169 674.247 164.859 674.247C134.549 674.247 109.978 678.4 109.978 683.523C109.978 688.646 134.549 692.799 164.859 692.799Z" fill="#4D8AF0"/>
<path d="M524.502 644.611C525.612 643.706 526.421 642.486 526.824 641.111C527.189 639.69 526.514 638.207 525.203 637.549C523.716 636.981 522.125 638.009 520.922 639.055C519.719 640.101 518.334 641.28 516.756 641.063C518.407 639.568 519.151 637.316 518.715 635.131C518.646 634.686 518.458 634.269 518.171 633.922C517.343 633.039 515.849 633.422 514.857 634.115C511.713 636.328 510.836 640.597 510.818 644.443C510.645 643.039 510.627 641.619 510.763 640.21C510.757 638.81 510.363 637.187 509.163 636.443C508.422 636.037 507.589 635.831 506.744 635.843C505.329 635.795 503.757 635.934 502.789 636.968C501.58 638.256 501.9 640.409 502.946 641.805C504.117 643.117 505.499 644.225 507.034 645.082C508.207 645.78 509.207 646.733 509.961 647.87C510.048 648.03 510.121 648.197 510.179 648.37H519.038C521.018 647.372 522.855 646.111 524.498 644.621L524.502 644.611Z" fill="#4D8AF0"/>
<path d="M473.008 673.993C474.116 673.088 474.923 671.867 475.324 670.493C475.686 669.073 475.012 667.592 473.704 666.931C472.217 666.363 470.626 667.391 469.423 668.437C468.22 669.483 466.835 670.662 465.257 670.445C466.908 668.95 467.652 666.698 467.216 664.513C467.151 664.068 466.962 663.649 466.672 663.304C465.85 662.421 464.35 662.804 463.364 663.498C460.22 665.711 459.343 669.98 459.325 673.826C459.148 672.422 459.128 671.002 459.265 669.593C459.259 668.193 458.865 666.57 457.665 665.826C456.922 665.428 456.089 665.23 455.246 665.252C453.831 665.204 452.259 665.343 451.291 666.377C450.082 667.665 450.402 669.818 451.448 671.215C452.62 672.529 454.004 673.637 455.542 674.492C456.713 675.19 457.711 676.143 458.463 677.28C458.55 677.44 458.623 677.607 458.681 677.78H467.54C469.523 676.772 471.362 675.501 473.006 674.001L473.008 673.993Z" fill="#4D8AF0"/>
<path d="M81.746 619.445C81.746 619.445 73.246 590.596 83.346 569.365C87.6429 560.484 88.9413 550.448 87.046 540.765C86.1109 536.178 84.7569 531.687 83.001 527.347" stroke="#535461" stroke-width="2"/>
<path d="M89.256 513.926C89.256 517.463 82.856 527.713 82.856 527.713C82.856 527.713 76.456 517.464 76.456 513.926C76.456 510.392 79.3213 507.526 82.856 507.526C86.3906 507.526 89.256 510.392 89.256 513.926Z" fill="#4D8AF0"/>
<path d="M99.838 533.513C97.915 536.476 86.97 541.604 86.97 541.604C86.97 541.604 87.17 529.51 89.092 526.553C90.3353 524.634 92.5081 523.524 94.792 523.641C97.0759 523.758 99.1239 525.084 100.164 527.121C101.205 529.157 101.08 531.594 99.837 533.513H99.838Z" fill="#4D8AF0"/>
<path d="M99.379 566.975C96.223 568.575 84.179 567.475 84.179 567.475C84.179 567.475 90.45 557.141 93.606 555.551C96.7617 553.958 100.611 555.225 102.204 558.381C103.798 561.537 102.531 565.386 99.375 566.979L99.379 566.975Z" fill="#4D8AF0"/>
<path d="M93.325 592.233C90.483 594.333 78.432 595.256 78.432 595.256C78.432 595.256 82.87 584.009 85.688 581.904C88.5285 579.952 92.405 580.6 94.4563 583.37C96.5076 586.14 95.9968 590.037 93.301 592.184L93.325 592.233Z" fill="#4D8AF0"/>
<path d="M73.528 542.297C76.068 544.758 87.877 547.31 87.877 547.31C87.877 547.31 84.987 535.573 82.435 533.11C79.8986 530.647 75.8459 530.707 73.383 533.243C70.92 535.78 70.9796 539.832 73.516 542.295L73.528 542.297Z" fill="#4D8AF0"/>
<path d="M66.828 571.903C69.984 573.493 82.018 572.393 82.018 572.393C82.018 572.393 75.747 562.059 72.591 560.469C69.433 558.878 65.5829 560.148 63.9915 563.306C62.4001 566.464 63.67 570.314 66.828 571.905V571.903Z" fill="#4D8AF0"/>
<path d="M64.255 601.578C67.097 603.678 79.148 604.601 79.148 604.601C79.148 604.601 74.71 593.354 71.892 591.256C69.0514 589.304 65.175 589.952 63.1237 592.722C61.0724 595.492 61.5831 599.389 64.279 601.536L64.255 601.578Z" fill="#4D8AF0"/>
<path d="M61.646 617.626C61.646 617.626 71.992 615.57 74.756 612.826C77.52 610.082 89.928 605.298 91.306 608.72C92.684 612.142 109.93 623.783 98.206 625.839C86.482 627.895 70.614 628.578 67.168 627.212C63.722 625.846 61.646 617.626 61.646 617.626Z" fill="#A8A8A8"/>
<path opacity="0.2" d="M98.223 624.56C86.498 626.616 70.631 627.299 67.185 625.927C64.555 624.887 62.728 619.88 62.009 617.54L61.646 617.631C61.646 617.631 63.714 625.849 67.167 627.221C70.62 628.593 86.481 627.904 98.206 625.848C101.592 625.248 102.56 623.865 102.197 622.099C101.924 623.23 100.746 624.119 98.223 624.56Z" fill="black"/>
<path d="M466.283 587.946C466.283 587.946 469.609 592.294 464.753 598.83C459.897 605.366 455.894 610.924 457.497 615.018C457.497 615.018 464.826 602.834 470.797 602.664C476.768 602.494 472.832 595.257 466.283 587.946Z" fill="#4D8AF0"/>
<path opacity="0.1" d="M466.283 587.946C466.574 588.368 466.804 588.828 466.966 589.313C472.783 596.146 475.879 602.525 470.286 602.683C465.08 602.834 458.833 612.146 457.334 614.498C457.383 614.68 457.442 614.86 457.509 615.036C457.509 615.036 464.838 602.852 470.809 602.682C476.78 602.512 472.832 595.257 466.283 587.946Z" fill="black"/>
<path d="M472.463 593.484C472.463 595.014 472.288 596.253 472.076 596.253C471.864 596.253 471.695 595.044 471.695 593.484C471.695 591.924 471.907 592.674 472.118 592.674C472.329 592.674 472.463 591.955 472.463 593.484Z" fill="#FFD037"/>
<path d="M474.579 595.312C473.237 596.044 472.064 596.485 471.967 596.298C471.87 596.111 472.867 595.373 474.21 594.641C475.553 593.909 475.026 594.441 475.129 594.641C475.232 594.841 475.921 594.58 474.579 595.312Z" fill="#FFD037"/>
<path d="M448.742 587.946C448.742 587.946 445.416 592.294 450.272 598.83C455.128 605.366 459.131 610.924 457.528 615.018C457.528 615.018 450.205 602.834 444.228 602.664C438.251 602.494 442.181 595.257 448.742 587.946Z" fill="#4D8AF0"/>
<path opacity="0.1" d="M448.741 587.946C448.45 588.368 448.22 588.828 448.058 589.313C442.241 596.146 439.145 602.525 444.738 602.683C449.944 602.834 456.191 612.146 457.69 614.498C457.642 614.681 457.581 614.861 457.509 615.036C457.509 615.036 450.186 602.852 444.209 602.682C438.232 602.512 442.18 595.257 448.741 587.946Z" fill="black"/>
<path d="M442.562 593.484C442.562 595.014 442.737 596.253 442.949 596.253C443.161 596.253 443.33 595.044 443.33 593.484C443.33 591.924 443.118 592.674 442.907 592.674C442.696 592.674 442.562 591.955 442.562 593.484Z" fill="#FFD037"/>
<path d="M440.445 595.312C441.787 596.044 442.954 596.485 443.057 596.298C443.16 596.111 442.157 595.373 440.814 594.641C439.471 593.909 439.998 594.441 439.895 594.641C439.792 594.841 439.103 594.58 440.445 595.312Z" fill="#FFD037"/>
<path d="M443.62 614.468C443.62 614.468 452.908 614.178 455.714 612.188C458.52 610.198 470.003 607.816 470.698 610.979C471.393 614.142 484.654 626.879 474.169 626.961C463.684 627.043 449.806 625.328 447.013 623.629C444.22 621.93 443.62 614.468 443.62 614.468Z" fill="#A8A8A8"/>
<path opacity="0.2" d="M474.35 625.877C463.865 625.962 449.987 624.244 447.194 622.545C445.065 621.251 444.213 616.601 443.935 614.454H443.62C443.62 614.454 444.22 621.946 447.006 623.645C449.792 625.344 463.677 627.062 474.162 626.977C477.185 626.977 478.232 625.877 478.177 624.286C477.754 625.261 476.599 625.859 474.35 625.877Z" fill="black"/>
<defs>
<linearGradient id="paint0_linear_1_2" x1="274.351" y1="654.191" x2="274.351" y2="242.476" gradientUnits="userSpaceOnUse">
<stop stop-color="#808080" stop-opacity="0.251"/>
<stop offset="0.54" stop-color="#808080" stop-opacity="0.122"/>
<stop offset="1" stop-color="#808080" stop-opacity="0.102"/>
</linearGradient>
</defs>
</svg>
