<svg width="553" height="825" viewBox="0 0 553 825" fill="none" xmlns="http://www.w3.org/2000/svg">
<path d="M551.157 0.401855C512.313 295.094 275.481 390.472 364.064 631.98C406.221 746.912 469.797 768.196 537.999 824.001" stroke="#0B555F" stroke-width="2"/>
<path opacity="0.1" d="M261.852 689.893C366.525 689.893 451.378 679.079 451.378 665.739C451.378 652.399 366.525 641.585 261.852 641.585C157.18 641.585 72.3262 652.399 72.3262 665.739C72.3262 679.079 157.18 689.893 261.852 689.893Z" fill="#1CE5AF"/>
<path d="M364.276 377.229H363.614C362.271 377.229 361.183 378.254 361.183 379.519V417.83C361.183 419.095 362.271 420.12 363.614 420.12H364.276C365.619 420.12 366.707 419.095 366.707 417.83V379.519C366.707 378.254 365.619 377.229 364.276 377.229Z" fill="#3A3768"/>
<path d="M180.704 345.084C180.704 344.277 180.01 343.624 179.155 343.624C178.299 343.624 177.606 344.277 177.606 345.084V356.286C177.606 357.092 178.299 357.745 179.155 357.745C180.01 357.745 180.704 357.092 180.704 356.286V345.084Z" fill="#3A3768"/>
<path d="M180.984 371.125C180.984 370.217 180.203 369.481 179.238 369.481C178.274 369.481 177.493 370.217 177.493 371.125V392.413C177.493 393.322 178.274 394.058 179.238 394.058C180.203 394.058 180.984 393.322 180.984 392.413V371.125Z" fill="#3A3768"/>
<path d="M179.211 402.657H179.21C178.293 402.657 177.549 403.358 177.549 404.222V425.88C177.549 426.744 178.293 427.445 179.21 427.445H179.211C180.129 427.445 180.873 426.744 180.873 425.88V404.222C180.873 403.358 180.129 402.657 179.211 402.657Z" fill="#3A3768"/>
<path d="M341.873 296.961H201.648C189.337 296.961 179.357 306.363 179.357 317.961V629.801C179.357 641.399 189.337 650.801 201.648 650.801H341.873C354.184 650.801 364.164 641.399 364.164 629.801V317.961C364.164 306.363 354.184 296.961 341.873 296.961Z" fill="#3A3768"/>
<path d="M338.094 306.154H316.895V308.554C316.895 311.574 315.621 314.471 313.354 316.606C311.086 318.741 308.011 319.939 304.805 319.938H237.386C234.18 319.939 231.105 318.741 228.838 316.606C226.57 314.471 225.296 311.574 225.296 308.554V306.154H205.447C197.341 306.154 190.77 312.344 190.77 319.981V627.754C190.77 635.39 197.341 641.581 205.447 641.581H338.094C341.986 641.581 345.72 640.124 348.473 637.531C351.225 634.938 352.772 631.421 352.772 627.754V320.005C352.779 316.333 351.235 312.81 348.482 310.212C345.728 307.613 341.991 306.154 338.094 306.154Z" fill="white"/>
<path d="M277.122 307.528H256.553C255.106 307.528 253.934 308.632 253.934 309.995C253.934 311.357 255.106 312.462 256.553 312.462H277.122C278.568 312.462 279.741 311.357 279.741 309.995C279.741 308.632 278.568 307.528 277.122 307.528Z" fill="#E6E8EC"/>
<path d="M286.619 312.798C288.261 312.798 289.593 311.543 289.593 309.996C289.593 308.448 288.261 307.194 286.619 307.194C284.976 307.194 283.644 308.448 283.644 309.996C283.644 311.543 284.976 312.798 286.619 312.798Z" fill="#E6E8EC"/>
<path d="M428.147 281.443C428.147 281.443 375.648 278.459 381.833 313.115C381.833 313.115 380.586 319.241 386.497 322.015C386.497 322.015 386.59 319.448 391.884 320.323C393.769 320.617 395.683 320.704 397.589 320.581C400.16 320.421 402.607 319.479 404.56 317.897C404.56 317.897 419.315 312.152 425.055 289.432C425.055 289.432 429.301 284.474 429.133 283.2L420.273 286.765C420.273 286.765 423.304 292.786 420.896 297.79C420.896 297.79 420.61 286.982 418.907 287.217C418.564 287.264 414.305 289.302 414.305 289.302C414.305 289.302 419.507 299.787 415.579 307.411C415.579 307.411 417.065 294.488 412.674 290.059L406.444 293.496C406.444 293.496 412.53 304.328 408.402 313.168C408.402 313.168 409.463 299.611 405.128 294.33L399.479 298.483C399.479 298.483 405.196 309.156 401.708 316.483C401.708 316.483 401.253 300.706 398.254 299.513C398.254 299.513 393.31 303.625 392.555 305.305C392.555 305.305 396.471 313.059 394.041 317.147C394.041 317.147 392.555 306.633 391.329 306.574C391.329 306.574 386.404 313.54 385.892 318.322C385.892 318.322 386.104 311.222 390.138 305.916C390.138 305.916 385.374 306.685 382.594 309.593C382.594 309.593 383.36 304.671 391.354 304.236C391.354 304.236 395.426 298.949 396.511 298.636C396.511 298.636 388.567 298.007 383.748 300.022C383.748 300.022 387.987 295.376 397.972 297.49L403.552 293.196C403.552 293.196 393.09 291.851 388.65 293.337C388.65 293.337 393.756 289.225 405.054 292.221L411.126 288.802C411.126 288.802 402.204 286.993 396.892 287.627C396.892 287.627 402.504 284.778 412.91 287.868L417.274 286.029C417.274 286.029 410.74 284.819 408.826 284.629C406.912 284.439 406.809 283.942 406.809 283.942C410.949 283.291 415.199 283.737 419.086 285.228C419.086 285.228 428.303 281.989 428.147 281.443Z" fill="#009B84"/>
<path d="M374.295 266.029C374.295 266.029 350.602 264.684 353.371 280.344C353.075 281.973 353.925 283.597 355.478 284.368C355.478 284.368 355.521 283.193 357.919 283.598C358.769 283.733 359.634 283.772 360.494 283.715C361.657 283.642 362.763 283.213 363.642 282.493C363.642 282.493 370.314 279.893 372.908 269.629C372.908 269.629 374.819 267.391 374.748 266.815L370.745 268.424C370.745 268.424 372.11 271.144 371.038 273.405C371.038 273.405 370.907 268.524 370.14 268.635C369.984 268.635 368.057 269.581 368.057 269.581C368.057 269.581 370.414 274.321 368.637 277.763C368.637 277.763 369.31 271.924 367.322 269.921L364.503 271.495C364.503 271.495 367.253 276.388 365.389 280.382C365.389 280.382 365.868 274.255 363.911 271.871L361.363 273.751C361.363 273.751 363.945 278.573 362.374 281.886C362.374 281.886 362.162 274.755 360.809 274.215C359.841 274.987 358.977 275.866 358.234 276.835C358.234 276.835 360.005 280.359 358.907 282.186C358.907 282.186 358.234 277.434 357.66 277.41C357.66 277.41 355.431 280.558 355.204 282.697C355.316 280.705 355.978 278.774 357.124 277.097C355.84 277.326 354.654 277.904 353.713 278.759C353.713 278.759 354.063 276.533 357.673 276.339C358.355 275.418 359.138 274.568 360.008 273.801C358.06 273.645 356.099 273.859 354.241 274.43C354.241 274.43 356.152 272.33 360.663 273.285L363.157 271.347C363.157 271.347 358.425 270.76 356.423 271.412C356.423 271.412 358.73 269.556 363.837 270.907L366.57 269.359C364.458 268.923 362.295 268.747 360.135 268.836C360.135 268.836 362.673 267.55 367.375 268.942L369.338 268.114C369.338 268.114 366.383 267.568 365.517 267.48C364.651 267.392 364.606 267.169 364.606 267.169C366.478 266.875 368.4 267.079 370.156 267.756C370.156 267.756 374.37 266.275 374.295 266.029Z" fill="#009B84"/>
<path opacity="0.1" d="M499.209 663.919C508.482 663.919 516 662.722 516 661.246C516 659.77 508.482 658.573 499.209 658.573C489.935 658.573 482.417 659.77 482.417 661.246C482.417 662.722 489.935 663.919 499.209 663.919Z" fill="#6C63FF"/>
<path opacity="0.1" d="M17.1901 685.852C26.4637 685.852 33.9815 684.655 33.9815 683.179C33.9815 681.703 26.4637 680.506 17.1901 680.506C7.91641 680.506 0.398621 681.703 0.398621 683.179C0.398621 684.655 7.91641 685.852 17.1901 685.852Z" fill="#6C63FF"/>
<path opacity="0.1" d="M82.1408 700.19C91.4144 700.19 98.9322 698.993 98.9322 697.517C98.9322 696.041 91.4144 694.844 82.1408 694.844C72.8671 694.844 65.3493 696.041 65.3493 697.517C65.3493 698.993 72.8671 700.19 82.1408 700.19Z" fill="#6C63FF"/>
<path d="M462.452 693.88C476.298 693.88 487.523 692.092 487.523 689.886C487.523 687.68 476.298 685.892 462.452 685.892C448.606 685.892 437.381 687.68 437.381 689.886C437.381 692.092 448.606 693.88 462.452 693.88Z" fill="#009B84"/>
<path d="M472.821 683.355C473.964 682.475 474.797 681.29 475.21 679.955C475.584 678.575 474.889 677.136 473.539 676.495C472.005 675.943 470.365 676.947 469.124 677.958C467.883 678.969 466.456 680.125 464.828 679.908C466.532 678.456 467.301 676.269 466.855 674.146C466.782 673.713 466.585 673.307 466.287 672.971C465.438 672.113 463.893 672.477 462.876 673.159C459.635 675.303 458.73 679.459 458.711 683.186C458.531 681.822 458.51 680.443 458.649 679.074C458.636 677.711 458.243 676.137 457.002 675.415C456.237 675.028 455.376 674.837 454.508 674.863C453.046 674.664 451.563 675.062 450.431 675.956C449.183 677.201 449.52 679.292 450.593 680.656C451.797 681.937 453.224 683.014 454.815 683.84C456.022 684.518 457.051 685.444 457.826 686.548C457.919 686.702 457.994 686.866 458.05 687.036H467.158C469.213 686.055 471.118 684.816 472.821 683.355Z" fill="#009B84"/>
<path d="M83.0067 631.835C83.0067 631.835 86.4363 636.058 81.4293 642.408C76.4223 648.758 72.2953 654.156 73.947 658.133C73.947 658.133 81.5036 646.297 87.6644 646.133C93.8252 645.969 89.7714 638.954 83.0067 631.835Z" fill="#009B84"/>
<path opacity="0.1" d="M83.0066 631.835C83.3057 632.244 83.5409 632.691 83.7051 633.163C89.7035 639.801 92.9017 645.998 87.1347 646.15C81.7668 646.297 75.3258 655.343 73.7792 657.628C73.8291 657.804 73.8918 657.975 73.9597 658.151C73.9597 658.151 81.5163 646.315 87.6771 646.151C93.8379 645.987 89.7725 638.954 83.0066 631.835Z" fill="black"/>
<path d="M89.3732 637.215C89.3732 638.701 89.1989 639.905 88.98 639.905C88.7611 639.905 88.5868 638.705 88.5868 637.215C88.5868 635.725 88.8057 636.428 89.0236 636.428C89.2415 636.428 89.3732 635.729 89.3732 637.215Z" fill="#FFD037"/>
<path d="M91.5611 638.989C90.1812 639.7 88.9669 640.129 88.8671 639.946C88.7673 639.763 89.7959 639.046 91.1801 638.331C92.5642 637.616 92.0218 638.137 92.1216 638.331C92.2214 638.525 92.9453 638.277 91.5611 638.989Z" fill="#FFD037"/>
<path d="M64.9194 631.835C64.9194 631.835 61.4898 636.058 66.4968 642.408C71.5038 648.758 75.6308 654.156 73.9791 658.133C73.9791 658.133 66.4289 646.297 60.2617 646.133C54.0945 645.969 58.1419 638.954 64.9194 631.835Z" fill="#009B84"/>
<path opacity="0.1" d="M64.9194 631.835C64.6193 632.244 64.382 632.691 64.2145 633.163C58.2162 639.801 55.0243 645.998 60.7849 646.15C66.1592 646.297 72.6002 655.343 74.1468 657.628C74.0958 657.806 74.0334 657.98 73.9599 658.151C73.9599 658.151 66.4097 646.315 60.2425 646.151C54.0753 645.987 58.1419 638.954 64.9194 631.835Z" fill="black"/>
<path d="M58.547 637.215C58.547 638.701 58.7277 639.905 58.9466 639.905C59.1655 639.905 59.3398 638.705 59.3398 637.215C59.3398 635.725 59.1209 636.428 58.903 636.428C58.6852 636.428 58.547 635.729 58.547 637.215Z" fill="#FFD037"/>
<path d="M56.3649 638.989C57.7448 639.7 58.9528 640.129 59.0589 639.946C59.1651 639.763 58.1238 639.046 56.7396 638.331C55.3555 637.616 55.9042 638.137 55.7981 638.331C55.6919 638.525 54.9808 638.277 56.3649 638.989Z" fill="#FFD037"/>
<path d="M59.6382 657.598C59.6382 657.598 69.2149 657.316 72.1084 655.384C75.002 653.452 86.8417 651.131 87.5529 654.239C88.2641 657.347 101.95 669.682 91.1386 669.764C80.3274 669.846 66.0113 668.178 63.1305 666.528C60.2497 664.878 59.6382 657.598 59.6382 657.598Z" fill="#A8A8A8"/>
<path opacity="0.2" d="M91.3243 668.682C80.5132 668.764 66.1971 667.096 63.3163 665.445C61.1275 664.182 60.2486 659.665 59.9557 657.586H59.6372C59.6372 657.586 60.2603 664.858 63.1231 666.514C65.9859 668.17 80.319 669.833 91.1311 669.751C94.2487 669.751 95.3271 668.682 95.2709 667.131C94.8346 668.083 93.6436 668.664 91.3243 668.682Z" fill="black"/>
<path d="M136.366 468.204C136.549 468.37 136.825 468.403 137.046 468.286C136.816 468.289 136.587 468.262 136.366 468.204Z" fill="url(#paint0_linear_1_69)"/>
<path d="M211.081 351.313C209.766 350.949 207.897 350.356 205.632 349.613C207.98 346.723 209.697 343.422 210.682 339.903L210.489 339.973C210.551 339.756 210.619 339.544 210.682 339.327C206.354 341.007 201.56 338.152 198.511 334.504C195.463 330.856 193.386 326.316 190.05 322.95C188.657 321.617 187.159 320.385 185.568 319.267C184.677 318.453 183.54 317.921 182.313 317.746C180.367 317.693 178.84 319.508 176.963 320.054C175.726 320.32 174.436 320.276 173.223 319.925C168.378 318.862 163.708 316.906 158.787 316.401C156.142 316.087 153.457 316.375 150.955 317.241C148.461 318.141 147.339 319.941 145.343 321.353C143.18 322.892 138.868 322.853 136.32 323.115C133.229 323.449 130.116 323.573 127.005 323.485C125.216 323.332 123.414 323.396 121.642 323.673C117.939 324.448 114.965 327.256 112.195 329.958C111.435 330.575 110.889 331.394 110.631 332.308C110.596 332.565 110.596 332.825 110.631 333.083C110.602 333.785 110.729 334.485 111.004 335.139C111.842 337.567 113.039 339.873 114.558 341.988C115.83 343.458 116.879 345.087 117.676 346.828C117.982 347.73 118.144 348.67 118.155 349.618C118.12 350.624 118.01 351.626 117.825 352.618C117.335 355.353 116.53 358.03 115.424 360.601C114.743 361.934 114.271 363.352 114.021 364.813C114.002 365.11 114.002 365.408 114.021 365.706C113.834 370.306 118.703 373.624 119.633 378.2C119.707 378.578 119.752 378.961 119.77 379.345C119.728 382.164 118.078 384.743 115.451 386.093C115.669 386.175 115.893 386.246 116.118 386.322C115.903 386.45 115.68 386.568 115.451 386.674C115.906 386.838 116.373 386.979 116.848 387.109C113.982 389.475 111.575 392.293 109.736 395.438C101.344 410.438 44.1431 439.851 44.1431 439.851C44.1431 439.851 44.4668 440.021 44.9923 440.315C44.78 440.438 44.556 440.579 44.3065 440.738C39.3558 443.886 27.7337 453.073 38.2402 464.657C38.2402 464.657 46.439 452.292 52.1816 447.035C52.4438 446.8 52.6932 446.583 52.9363 446.377C53.1961 446.752 53.2774 447.212 53.1603 447.646L90.7758 427.457C90.7758 427.457 104.144 418.517 107.872 416.496C110.494 414.942 113.351 413.772 116.346 413.024L115.909 413.206C117.315 412.836 118.765 412.638 120.224 412.619C126.883 412.719 134.091 417.377 136.472 435.827C139.657 460.533 138.18 464.985 137.158 465.596C137.031 465.587 136.906 465.565 136.784 465.531C136.815 465.558 136.848 465.581 136.884 465.601C136.744 465.593 136.606 465.569 136.472 465.531C136.618 465.662 136.827 465.711 137.021 465.66C137.161 465.699 137.313 465.682 137.439 465.613H137.944C137.944 465.836 137.907 466.071 137.888 466.3C137.838 466.3 137.589 466.435 137.888 466.453C137.814 467.845 137.819 469.39 137.888 470.947C134.577 471.123 131.273 471.311 128.373 471.482L128.635 470.172L128.754 469.585C131.292 469.391 133.705 468.685 133.985 466.707C134.608 462.384 128.373 460.075 123.105 459.787C117.837 459.499 86.1127 461.52 86.1127 461.52C86.1127 461.52 81.3552 467.394 96.4377 469.22C96.8867 469.443 97.3537 469.69 97.8282 469.948C103.733 473.167 111.75 479.088 115.586 482.007L116.122 482.412L114.401 483.722C123.754 485.743 132.744 519.776 137.714 535.348C142.684 550.92 153.569 550.345 162.58 548.045C171.029 545.877 172.107 522.445 172.207 519.504V519.204L187.227 536.89L188.368 538.235C188.81 538.452 189.24 538.658 189.665 538.852C201.044 544.027 213.614 534.112 210.035 522.834C206.425 511.434 200.812 494.598 197.072 487.479C193.954 481.517 189.895 471.619 187.439 465.405C187.757 465.281 188.067 465.14 188.368 464.982C188.368 464.982 188.311 464.706 188.212 464.195L188.368 464.119C188.368 464.119 184.751 446.174 184.552 433.434V432.345C187.27 431.758 188.991 431.523 188.991 431.523L189.041 430.971L188.722 431.036L190.231 414.507C190.231 414.507 195.78 403.235 191.534 398.536C190.241 397.156 189.378 395.467 189.04 393.655C188.328 389.332 189.04 382.136 198.935 376.155C214.167 366.927 220.08 359.426 220.08 359.426C220.08 359.426 220.409 353.91 211.081 351.313ZM180.829 362.779V355.145C183.654 355.016 186.54 355.327 189.377 355.145C190.773 355.052 192.155 354.832 193.505 354.487L194.191 354.939C190.04 357.985 185.562 360.613 180.829 362.779ZM137.645 482.496C138.761 483.236 139.884 484.006 140.987 484.775C141.672 488.54 142.277 491.201 142.321 491.383C141.061 488.289 139.495 485.314 137.645 482.496Z" fill="url(#paint1_linear_1_69)"/>
<path d="M162.061 477.673L161.388 481.115L160.87 483.747L159.928 488.564L150.8 494.585C150.8 494.585 149.977 493.921 148.617 492.876C144.877 489.976 137.014 484.065 131.24 480.893C129.755 480.001 128.148 479.304 126.463 478.82L162.061 477.673Z" fill="#FFBDC6"/>
<path opacity="0.1" d="M162.061 477.673L161.388 481.115C159.375 481.218 157.356 481.119 155.365 480.821L134.067 481.109C133.063 481.05 132.121 480.98 131.242 480.892C129.757 480 128.15 479.303 126.466 478.819L162.061 477.673Z" fill="black"/>
<path d="M155.364 480.234C155.364 480.234 166.008 481.955 166.631 477.673C167.254 473.391 161.15 471.073 155.981 470.789C150.812 470.505 119.774 472.51 119.774 472.51C119.774 472.51 114.3 479.388 134.071 480.54L155.364 480.234Z" fill="#474463"/>
<path opacity="0.1" d="M162.061 477.673L161.388 481.115L160.87 483.747L159.928 488.564L150.8 494.585C150.8 494.585 149.977 493.921 148.617 492.876C144.877 489.976 137.014 484.065 131.24 480.893C129.755 480.001 128.148 479.304 126.463 478.82L162.061 477.673Z" fill="black"/>
<path opacity="0.1" d="M162.061 477.673L161.388 481.115C159.375 481.218 157.356 481.119 155.365 480.821L134.067 481.109C133.063 481.05 132.121 480.98 131.242 480.892C129.757 480 128.15 479.303 126.466 478.819L162.061 477.673Z" fill="black"/>
<path opacity="0.1" d="M155.364 480.222C155.364 480.222 166.014 481.937 166.624 477.638C167.235 473.339 161.144 471.047 155.975 470.76C150.805 470.473 119.768 472.481 119.768 472.481C119.768 472.481 114.294 479.359 134.065 480.505L155.364 480.222Z" fill="black"/>
<path d="M178.639 338.931H122.961V401.13H178.639V338.931Z" fill="#474463"/>
<path opacity="0.1" d="M178.639 339.213H122.961V401.412H178.639V339.213Z" fill="black"/>
<path d="M57.7055 445.407C56.3999 445.898 55.236 446.672 54.3088 447.668C48.6968 452.902 40.6603 465.184 40.6603 465.184C30.3853 453.653 41.7579 444.543 46.6046 441.412C47.7828 440.654 48.5747 440.237 48.5747 440.237L57.7055 445.407Z" fill="#FFBDC6"/>
<path d="M161.45 358.561C161.45 358.561 164.187 376.618 173.62 380.917C183.054 385.216 161.45 393.252 161.45 393.252L131.941 382.926C131.941 382.926 148.676 377.763 145.327 362.573L161.45 358.561Z" fill="#FFBDC6"/>
<path d="M129.807 467.194L129.14 470.624L128.597 473.267L127.656 478.084L118.527 484.099C118.527 484.099 117.704 483.441 116.345 482.399C112.604 479.499 104.742 473.588 98.9608 470.416C97.4763 469.523 95.8692 468.825 94.1841 468.342L129.807 467.194Z" fill="#FFBDC6"/>
<path opacity="0.1" d="M129.807 467.194L129.141 470.624C127.128 470.727 125.109 470.628 123.118 470.33L101.819 470.618C100.815 470.559 99.8674 470.489 98.9885 470.401C97.504 469.508 95.8969 468.811 94.2119 468.328L129.807 467.194Z" fill="black"/>
<path d="M123.117 469.772C123.117 469.772 133.767 471.487 134.368 467.193C134.97 462.899 128.894 460.593 123.719 460.309C118.543 460.025 87.5224 462.03 87.5224 462.03C87.5224 462.03 82.042 468.908 101.819 470.06L123.117 469.772Z" fill="#474463"/>
<path opacity="0.1" d="M128.597 473.268L127.655 478.085L118.527 484.1C118.527 484.1 117.704 483.442 116.344 482.4L128.415 473.072L128.597 473.268Z" fill="black"/>
<path d="M188.884 538.885C188.466 538.691 188.049 538.491 187.637 538.298L186.515 536.965L171.795 519.378V519.683C171.695 522.62 170.635 545.893 162.368 548.042C153.545 550.333 142.902 550.908 138.052 535.431C133.201 519.954 124.334 486.131 115.23 484.122L128.772 473.661C128.772 473.661 137.738 483.541 141.392 492.998C141.255 492.411 135.064 465.156 140.145 460.333H184.57C184.57 460.333 191.428 478.733 196.129 487.852C199.789 494.93 205.282 511.665 208.817 522.99C212.322 534.174 200.02 544.053 188.884 538.885Z" fill="#474463"/>
<path opacity="0.1" d="M187.618 465.473C180.76 469.297 150.65 467.74 140.855 467.118L138.184 466.932C137.898 466.932 138.228 466.779 138.228 466.779L138.502 464.179L145.802 446.698L184.896 425.34C184.051 428.485 183.716 431.733 183.905 434.973C184.089 447.639 187.618 465.473 187.618 465.473Z" fill="black"/>
<path d="M187.619 464.609C180.761 468.433 150.651 466.876 140.856 466.254L138.188 466.078L137.745 466.043L138.231 465.926L140.638 465.339L145.806 445.849L184.9 424.497C184.054 427.642 183.72 430.89 183.909 434.13C184.09 446.782 187.619 464.609 187.619 464.609Z" fill="#F2F1F2"/>
<path opacity="0.1" d="M183.884 434.117C175.935 435.844 158.438 440.917 151.721 453.149C147.239 461.296 143.466 464.791 140.835 466.249L138.166 466.073C138.184 466.023 138.198 465.972 138.21 465.92L140.616 465.333L145.784 445.843L184.879 424.491C184.033 427.634 183.698 430.879 183.884 434.117Z" fill="black"/>
<path opacity="0.1" d="M48.5769 440.25L57.7056 445.407C56.4 445.898 55.2361 446.673 54.3088 447.668C53.5478 445.577 48.7722 442.658 46.6025 441.412C47.785 440.667 48.5769 440.25 48.5769 440.25Z" fill="black"/>
<path opacity="0.1" d="M136.535 466.412C136.33 466.512 136.08 466.479 135.912 466.33C136.114 466.386 136.324 466.413 136.535 466.412Z" fill="black"/>
<path d="M157.191 379.772C157.191 379.772 148.973 380.63 143.193 374.897C143.193 374.897 118.877 381.497 110.64 396.397C102.403 411.297 46.4197 440.535 46.4197 440.535C46.4197 440.535 56.1588 445.692 55.2427 448.271L92.0631 428.209C92.0631 428.209 105.156 419.328 108.792 417.319C112.427 415.31 132.529 402.987 136.787 436.519C141.046 470.051 136.787 466.041 136.787 466.041C136.787 466.041 142.873 468.05 151.696 451.996C160.519 435.942 187.892 432.218 187.892 432.218L189.413 415.313C189.413 415.313 194.843 404.106 190.66 399.453C189.391 398.076 188.547 396.398 188.219 394.601C187.527 390.307 188.219 383.153 197.908 377.208C212.816 368.033 218.597 360.585 218.597 360.585C218.597 360.585 218.902 355.134 209.773 352.555C200.644 349.976 163.532 335.935 163.532 335.935L162.285 340.81L191.571 360.282C191.571 360.282 176.968 371.442 165.383 371.172C165.384 371.173 167.534 379.484 157.191 379.772Z" fill="#FF748E"/>
<path opacity="0.1" d="M162.828 366.421C162.108 364.124 161.546 361.786 161.144 359.421L145.02 363.433C145.731 366.333 145.604 369.359 144.652 372.197C151.392 373.891 158.553 371.616 162.827 366.423L162.828 366.421Z" fill="black"/>
<path d="M149.435 371.888C159.011 371.888 166.774 364.575 166.774 355.553C166.774 346.531 159.011 339.218 149.435 339.218C139.859 339.218 132.096 346.531 132.096 355.553C132.096 364.575 139.859 371.888 149.435 371.888Z" fill="#FFBDC6"/>
<path opacity="0.1" d="M158.657 318.401C163.471 318.912 168.04 320.862 172.774 321.925C173.958 322.274 175.219 322.32 176.428 322.06C178.268 321.52 179.764 319.71 181.672 319.76C182.88 319.921 183.999 320.452 184.856 321.27C186.408 322.386 187.867 323.611 189.221 324.935C192.488 328.277 194.515 332.777 197.495 336.413C200.476 340.049 205.177 342.874 209.41 341.206C206.529 351.779 197.097 359.832 186.889 360.49C182.817 360.748 178.647 359.95 174.705 361.077C173.721 361.452 172.684 361.688 171.627 361.777C169.358 361.777 167.531 359.815 166.115 357.906C162.798 353.418 160.171 348.32 156.438 344.226C155.191 342.875 153.751 341.589 152.006 341.342C150.261 341.095 148.658 341.877 147.105 342.634C144.419 343.757 141.986 345.352 139.935 347.334C137.77 349.549 136.869 352.61 137.515 355.558C137.958 357.121 138.969 358.53 138.987 360.163C139.024 362.763 136.58 364.674 136.099 367.212C135.991 368.278 135.951 369.349 135.981 370.419C135.768 373.896 133.356 376.745 130.837 378.93C129.725 379.695 128.899 380.772 128.48 382.008C128.287 382.901 128.48 383.852 128.356 384.757C127.988 387.013 125.596 388.157 123.486 388.457C121.016 388.796 118.496 388.514 116.179 387.641C119.134 386.319 120.955 382.578 120.269 379.218C119.327 374.566 114.364 371.229 114.788 366.489C115.022 365.037 115.485 363.625 116.16 362.301C117.242 359.745 118.028 357.086 118.504 354.371C118.995 352.282 118.945 350.112 118.361 348.045C117.601 346.313 116.58 344.693 115.331 343.234C113.833 341.138 112.652 338.857 111.82 336.455C111.517 335.746 111.401 334.978 111.484 334.217C111.726 333.305 112.259 332.485 113.011 331.867C115.723 329.183 118.623 326.387 122.258 325.623C123.992 325.347 125.756 325.282 127.508 325.429C130.554 325.522 133.603 325.4 136.63 325.065C139.125 324.789 143.339 324.83 145.453 323.303C147.423 321.876 148.531 320.096 150.959 319.191C153.416 318.339 156.057 318.064 158.653 318.391L158.657 318.401Z" fill="black"/>
<path opacity="0.1" d="M168.296 487.112C168.296 487.112 178.334 505.744 175.292 511.471L168.296 487.112Z" fill="black"/>
<path opacity="0.1" d="M186.496 536.941L171.794 519.378V519.683C171.794 519.683 170.944 513.997 173.746 515.906C179.881 520.088 189.695 526.943 189.907 528.124C190.118 529.305 187.917 534.022 186.496 536.941Z" fill="black"/>
<g opacity="0.1">
<path d="M165.708 371.172C165.708 371.172 166.955 376.012 162.94 378.432C169.112 377.439 169.387 372.91 169.175 370.943C168.029 371.116 166.869 371.192 165.708 371.172Z" fill="black"/>
<path d="M50.0979 439.386C50.0979 439.386 106.076 410.151 114.317 395.249C120.209 384.549 134.413 378.138 141.957 375.366C136.457 377.128 117.927 383.772 110.969 396.395C102.764 411.297 46.75 440.536 46.75 440.536L50.0979 439.386Z" fill="black"/>
<path d="M176.608 368.893C186.134 366.103 195.238 359.136 195.238 359.136L166.008 339.636L166.676 336.969L163.876 335.912L162.661 340.787L191.872 360.277C187.19 363.744 182.062 366.64 176.609 368.894L176.608 368.893Z" fill="black"/>
<path d="M176.775 434.946C180.507 433.747 184.335 432.835 188.223 432.221L188.273 431.669C184.357 432.48 180.512 433.576 176.775 434.947V434.946Z" fill="black"/>
<path d="M141.373 464.973H141.104C140.899 465.072 140.65 465.039 140.481 464.891C140.684 464.946 140.894 464.974 141.104 464.973C142.102 464.427 143.599 460.145 140.481 435.373C137.127 408.94 123.922 411.002 116.704 414.045C124.087 412.13 134.243 413.787 137.13 436.519C140.278 461.295 138.777 465.577 137.753 466.119C139.052 466.074 140.309 465.676 141.373 464.973Z" fill="black"/>
<path d="M137.757 466.124C137.546 466.125 137.336 466.097 137.133 466.042C137.302 466.19 137.552 466.223 137.757 466.124Z" fill="black"/>
</g>
<path d="M158.657 317.825C163.471 318.342 168.04 320.286 172.774 321.349C173.959 321.696 175.219 321.74 176.428 321.478C178.268 320.943 179.764 319.128 181.672 319.178C182.875 319.355 183.989 319.883 184.856 320.688C186.406 321.805 187.865 323.03 189.221 324.353C192.488 327.695 194.514 332.195 197.495 335.831C200.476 339.467 205.177 342.292 209.41 340.624C206.529 351.197 197.097 359.25 186.889 359.908C182.817 360.172 178.646 359.373 174.705 360.495C173.722 360.873 172.685 361.109 171.627 361.195C169.357 361.195 167.531 359.233 166.115 357.324C162.798 352.836 160.17 347.744 156.438 343.649C155.191 342.292 153.751 341.006 152.006 340.759C150.261 340.512 148.658 341.299 147.105 342.059C144.418 343.18 141.984 344.775 139.935 346.759C137.77 348.974 136.869 352.035 137.515 354.983C137.958 356.545 138.969 357.955 138.987 359.588C139.024 362.196 136.58 364.099 136.099 366.637C135.991 367.703 135.951 368.774 135.981 369.844C135.768 373.321 133.355 376.164 130.837 378.355C129.725 379.117 128.899 380.193 128.48 381.427C128.287 382.327 128.48 383.271 128.356 384.182C127.988 386.438 125.596 387.582 123.486 387.877C121.016 388.221 118.494 387.94 116.179 387.061C119.134 385.745 120.955 381.998 120.269 378.644C119.327 373.992 114.364 370.65 114.788 365.915C115.021 364.462 115.484 363.051 116.16 361.727C117.241 359.169 118.027 356.508 118.504 353.791C118.994 351.702 118.945 349.533 118.361 347.465C117.599 345.734 116.579 344.113 115.331 342.654C113.834 340.56 112.653 338.28 111.82 335.881C111.518 335.169 111.403 334.4 111.484 333.637C111.734 332.737 112.266 331.928 113.011 331.317C115.723 328.633 118.623 325.842 122.258 325.073C123.992 324.802 125.756 324.738 127.508 324.885C130.554 324.975 133.603 324.853 136.63 324.521C139.125 324.245 143.339 324.28 145.453 322.759C147.423 321.338 148.531 319.552 150.959 318.647C153.417 317.791 156.058 317.509 158.657 317.825Z" fill="#474463"/>
<path d="M272.889 511.16C292.196 511.16 307.848 496.414 307.848 478.225C307.848 460.035 292.196 445.29 272.889 445.29C253.581 445.29 237.929 460.035 237.929 478.225C237.929 496.414 253.581 511.16 272.889 511.16Z" fill="white"/>
<path d="M318.823 473.884C318.823 498.195 297.904 517.903 272.098 517.903C246.292 517.903 225.373 498.195 225.373 473.884C225.373 449.573 246.292 429.865 272.098 429.865C297.904 429.865 318.823 449.573 318.823 473.884ZM266.698 497.184L301.363 464.533C301.93 464.001 302.248 463.278 302.248 462.524C302.248 461.77 301.93 461.047 301.363 460.515L297.098 456.527C296.534 455.994 295.768 455.694 294.969 455.694C294.169 455.694 293.403 455.994 292.839 456.527L264.565 483.155L251.367 470.695C250.188 469.59 248.282 469.59 247.102 470.695L242.837 474.736C241.664 475.847 241.664 477.643 242.837 478.754L262.434 497.21C262.999 497.744 263.767 498.044 264.567 498.044C265.367 498.044 266.134 497.744 266.699 497.21L266.698 497.184Z" fill="#009B84"/>
<defs>
<linearGradient id="paint0_linear_1_69" x1="136.71" y1="468.356" x2="136.71" y2="468.204" gradientUnits="userSpaceOnUse">
<stop stop-color="#808080" stop-opacity="0.251"/>
<stop offset="0.54" stop-color="#808080" stop-opacity="0.122"/>
<stop offset="1" stop-color="#808080" stop-opacity="0.102"/>
</linearGradient>
<linearGradient id="paint1_linear_1_69" x1="127.03" y1="549.26" x2="127.03" y2="316.278" gradientUnits="userSpaceOnUse">
<stop stop-color="#808080" stop-opacity="0.251"/>
<stop offset="0.54" stop-color="#808080" stop-opacity="0.122"/>
<stop offset="1" stop-color="#808080" stop-opacity="0.102"/>
</linearGradient>
</defs>
</svg>
