<svg width="619" height="825" viewBox="0 0 619 825" fill="none" xmlns="http://www.w3.org/2000/svg">
<path d="M617.158 0.401855C578.314 295.094 341.482 390.472 430.065 631.98C472.221 746.912 535.798 768.196 604 824.001" stroke="#B40031" stroke-width="2"/>
<g opacity="0.1">
<path d="M346.97 516.566C357.116 515.912 369.705 508.13 379.493 504.689C391.078 500.626 402.708 496.717 414.385 492.962C455.035 479.884 496.121 468.74 537.642 459.531C541.517 458.669 545.398 457.828 549.285 457.008C543.502 442.583 534.138 429.869 522.079 420.066C522.38 416.827 522.533 413.578 522.538 410.317C522.538 358.852 486.163 317.131 441.275 317.131C427.278 317.166 413.587 321.23 401.837 328.837C370.066 305.207 328.6 290.906 283.23 290.906C218.762 290.906 162.167 319.784 130.098 363.27L280.815 392.06L373.252 409.71C267.872 413.266 162.167 416.801 57.0901 408.454C28.4851 439.754 23.4601 489.554 45.0981 527.331C45.0981 529.195 45.1671 531.043 45.2911 532.875C47.9681 533.742 50.5521 534.583 52.8711 535.133C90.0937 544.022 127.556 551.462 165.257 557.454C137.473 576.822 103.641 579.566 71.5951 587.766C87.8449 602.862 109.228 611.214 131.408 611.127H477.174C514.615 611.127 544.962 581.656 544.962 545.298C550.638 534.643 554.37 523.062 555.981 511.098C486.7 518.656 416.557 512.089 346.97 516.566Z" fill="#ED1D55"/>
<path d="M556.516 496.999C556.59 466.59 543.571 438.041 521.615 420.472C521.914 417.235 522.067 413.987 522.074 410.728C522.074 359.263 485.674 317.558 440.792 317.558C426.791 317.593 413.096 321.654 401.34 329.258C369.562 305.618 328.08 291.311 282.7 291.311C208.885 291.311 145.347 329.18 117.169 383.484C115.603 383.384 114.028 383.323 112.439 383.323C67.5551 383.323 31.1557 425.044 31.1557 476.509C31.0653 494.457 35.6759 512.117 44.5301 527.73C44.5301 574.03 83.1921 611.572 130.864 611.572H476.72C514.165 611.572 544.52 582.097 544.52 545.738C552.473 530.728 556.594 513.985 556.516 496.999Z" fill="#ED1D55"/>
</g>
<path d="M579.779 474.345C578.721 473.533 577.482 472.99 576.168 472.762C574.784 472.444 573.368 472.244 571.968 472.022L553.751 469.395C551.912 469.052 550.037 468.951 548.172 469.095C546.283 469.25 544.534 470.156 543.318 471.611C542.775 472.281 542.478 473.117 542.475 473.979C542.577 474.847 542.859 475.683 543.304 476.435C543.48 476.786 543.631 477.15 543.755 477.523C543.929 478.36 544.147 479.187 544.406 480.002C544.487 480.178 544.591 480.342 544.717 480.49C544.721 480.532 544.721 480.574 544.717 480.616C544.517 481.637 545.161 482.702 544.873 483.687C544.621 484.531 543.8 485.041 543.282 485.744C542.576 486.763 542.547 488.106 543.208 489.155C543.763 490.013 544.769 490.598 545.058 491.582C545.435 492.877 544.414 494.127 543.504 495.126C541.83 496.965 540.282 498.915 538.872 500.964C538.476 501.468 538.22 502.068 538.132 502.703C538.051 503.99 539.286 505.123 539.072 506.403C538.902 507.409 537.918 508.023 537.067 508.623C533.922 510.695 531.399 514.023 531.148 517.79C530.341 511.798 527.858 506.155 523.986 501.512C522.813 500.329 521.907 498.909 521.33 497.346C521.167 496.702 521.138 496.014 520.916 495.393C520.176 493.432 517.823 492.593 516.795 490.783C516.055 489.51 516.055 487.875 515.138 486.758C514.221 485.641 512.778 485.389 511.986 484.309C511.591 483.577 511.254 482.815 510.98 482.03C510.648 481.389 510.181 480.829 509.611 480.387C509.502 480.3 509.389 480.218 509.271 480.143C509.52 479.921 509.662 479.603 509.663 479.27C509.663 478.404 508.805 477.835 508.057 477.405C507.095 476.858 506.157 476.266 505.238 475.651C506.239 475.185 507.106 474.475 507.761 473.587C508.582 472.262 508.922 470.694 508.723 469.148C508.674 467.899 508.208 466.702 507.399 465.748C506.933 465.248 506.348 464.897 505.86 464.431C504.595 463.195 504.166 461.368 503.64 459.681C502.94 457.461 501.857 455.131 499.829 453.954C498.852 453.384 497.713 453.118 496.759 452.519C495.724 451.987 495.149 450.848 495.338 449.7C495.56 448.96 496.248 448.45 496.714 447.821C497.872 446.128 497.453 443.819 495.774 442.642C495.227 442.294 494.553 441.991 494.442 441.355C493.568 441.128 492.901 440.421 492.725 439.535C492.559 438.665 492.559 437.771 492.725 436.901C492.918 435.525 493.108 434.154 493.295 432.787C493.953 433.061 494.694 433.061 495.352 432.787C495.993 433.826 496.736 434.797 497.572 435.687C499.825 438.348 501.58 441.393 502.751 444.677C503.173 445.861 503.602 447.185 504.697 447.814C505.074 448.029 505.504 448.14 505.874 448.369C506.33 448.687 506.722 449.089 507.028 449.553C507.916 450.729 508.804 451.899 509.684 453.075L509.728 453.253C509.752 453.358 509.792 453.46 509.847 453.553C510.011 453.737 510.238 453.854 510.483 453.879C513.206 454.508 516.262 455.085 518.622 453.598C520.753 452.266 521.685 449.632 523.491 447.871C524.771 446.621 526.584 445.651 526.946 443.89C526.514 443.757 526.089 443.601 525.673 443.424C526.043 443.054 526.413 442.624 526.916 442.137C527.647 441.421 528.306 440.635 528.884 439.791C529.509 438.749 530.006 437.636 530.364 436.476C531.789 432.409 533.22 428.343 534.656 424.276C535.337 422.352 536.017 420.414 536.876 418.542C537.764 416.515 538.815 414.569 539.784 412.578C542.285 407.403 544.215 401.971 545.54 396.378C545.775 395.615 545.853 394.812 545.769 394.018C545.423 392.757 544.688 391.637 543.669 390.818C542.738 389.812 541.676 388.934 540.513 388.209C539.334 387.476 537.911 387.247 536.562 387.573C534.668 388.128 533.477 390.066 533.04 392.012C532.761 393.973 532.608 395.95 532.581 397.931C532.315 400.78 531.338 403.531 531.101 406.388C530.975 408.038 531.101 409.71 530.901 411.36C530.537 413.519 529.785 415.595 528.681 417.486C526.282 421.997 523.033 426.002 519.114 429.28C518.663 429.657 518.196 430.02 517.753 430.427C517.764 430.104 517.798 429.783 517.853 429.465C517.531 429.549 517.216 429.66 516.913 429.798C516.95 429.424 516.913 429.047 516.802 428.688C516.21 426.92 513.576 426.468 513.102 424.67C513.023 424.225 512.981 423.775 512.976 423.323C512.82 421.747 511.748 420.415 511.376 418.884C511.036 417.471 511.295 415.924 510.636 414.615C510.075 413.796 509.414 413.05 508.668 412.395C507.779 411.379 507.138 410.171 506.796 408.866C506.696 408.503 506.611 408.126 506.508 407.766C506.621 406.945 506.529 406.109 506.242 405.332C505.569 403.66 503.83 402.587 503.201 400.893C502.713 399.576 502.927 397.933 502.001 396.912C501.509 396.424 500.908 396.061 500.247 395.854C496.861 394.535 493.307 393.696 489.688 393.361C487.661 393.176 485.426 393.072 483.976 391.644C482.282 389.987 482.2 387.005 480.217 385.725C478.471 384.593 475.999 385.425 474.645 387.02C474.442 387.254 474.254 387.501 474.083 387.76C473.836 386.768 473.783 385.738 473.928 384.726C473.928 384.474 473.98 384.216 474.002 383.986C477.343 382.894 480.186 380.649 482.023 377.652V377.696L482.112 377.925C482.327 378.465 482.667 378.983 483.17 379.042C483.505 379.038 483.828 378.92 484.087 378.709C484.533 378.399 484.945 378.042 485.315 377.644C485.502 377.437 485.68 377.222 485.848 377C486.189 376.538 486.482 376.042 486.721 375.52C487.089 374.735 487.338 373.899 487.461 373.041C487.594 372.183 487.609 371.302 487.761 370.441C487.899 369.776 488.08 369.121 488.301 368.48C488.375 368.265 488.449 368.051 488.516 367.836C488.583 367.621 488.679 367.336 488.753 367.096C489.216 365.574 489.465 363.995 489.493 362.405V361.605C489.438 359.508 488.543 357.522 487.007 356.093C485.734 355.05 484.047 354.613 483.115 353.2C482.612 352.158 482.243 351.056 482.015 349.922C481.232 347.212 478.976 345.184 476.199 344.691C474.561 344.512 472.916 344.964 471.599 345.956L471.499 346.037C470.765 346.597 470.143 347.29 469.664 348.079C468.688 347.809 467.794 347.3 467.064 346.599C466.324 345.911 465.754 345.045 465.007 344.379C463.585 343.076 461.566 342.651 459.739 343.269C457.865 344.02 456.465 345.624 455.973 347.583C455.566 349.107 455.64 350.861 454.789 352.133C454.13 353.124 453.05 353.613 452.295 354.515C451.826 355.087 451.506 355.765 451.363 356.491C451.273 356.897 451.231 357.311 451.237 357.727C451.229 357.911 451.244 358.095 451.281 358.275V358.364C451.307 358.567 451.35 358.767 451.407 358.964C451.617 359.714 451.993 360.406 452.507 360.991C452.995 361.55 453.605 361.99 454.29 362.278C454.57 362.387 454.857 362.478 455.148 362.552L456.028 362.752L456.339 362.826C454.185 366.869 454.033 371.684 455.925 375.856C455.911 376.064 455.887 376.272 455.851 376.478C455.731 379.391 455.859 382.309 456.236 385.201C456.474 386.337 456.282 387.521 455.696 388.523C455.376 388.881 455.016 389.201 454.623 389.477C455.023 388.959 455.43 388.449 455.844 387.938C454.67 387 453.152 386.607 451.671 386.858C448.807 387.072 446.027 387.921 443.532 389.344C441.875 390.298 440.173 391.564 438.279 391.344C437.162 391.218 436.059 390.604 434.972 390.9C434.361 391.15 433.79 391.489 433.278 391.906C432.873 392.196 432.385 392.347 431.887 392.335C430.725 390.907 428.927 389.935 427.536 388.776C425.953 387.367 424.504 385.814 423.208 384.137C420.808 381.244 418.421 378.344 416.068 375.421C414.085 372.965 412.05 370.308 411.703 367.164C411.668 366.852 411.65 366.538 411.651 366.224C411.7 364.73 411.888 363.244 412.214 361.785C412.302 361.433 412.302 361.064 412.214 360.712C411.992 359.972 411.141 359.698 410.409 359.536C410.509 358.966 410.572 358.382 410.609 357.827C411.023 351.464 410.572 344.997 411.919 338.767C412.298 336.332 413.363 334.055 414.99 332.204C417.69 329.474 422.212 328.815 424.283 325.582C426.014 322.889 425.326 319.082 423.151 316.703C420.85 314.417 417.67 313.24 414.435 313.477C413.54 313.447 412.656 313.683 411.897 314.158C411.188 314.788 410.657 315.595 410.358 316.496L407.175 324.209C406.255 326.218 405.479 328.29 404.852 330.409C403.964 333.65 403.764 337.068 403.061 340.338C403.061 342.854 401.441 345.991 400.553 348.307C399.562 350.907 398.489 353.486 397.593 356.143C397.371 356.809 396.593 358.784 396.113 360.582C395.932 360.688 395.765 360.814 395.613 360.959C395.227 361.454 394.875 361.976 394.562 362.52C393.889 363.408 392.794 363.881 392.054 364.74C391.314 365.599 391.154 367.174 392.187 367.603C392.396 367.673 392.612 367.721 392.831 367.744C392.966 367.755 393.1 367.778 393.231 367.811C394.341 368.122 394.777 369.52 394.615 370.674C394.453 371.828 393.875 372.894 393.779 374.048C393.579 376.09 394.779 377.992 395.932 379.708C397.127 381.569 398.447 383.346 399.883 385.028C400.926 386.197 402.103 387.248 403.153 388.372C407.153 392.486 410.337 397.295 413.933 401.764C415.227 403.45 416.698 404.992 418.321 406.364C419.381 407.193 420.49 407.956 421.643 408.65L427.829 412.571C428.531 413.084 429.324 413.458 430.167 413.671C430.442 413.708 430.721 413.708 430.996 413.671C431.033 413.856 431.063 414.034 431.107 414.219C431.588 416.158 432.646 417.919 432.764 419.894C432.882 421.869 432.705 423.894 432.845 425.887C432.978 427.729 433.385 429.587 433.489 431.399C433.696 434.891 432.838 438.339 432.009 441.758C430.759 446.758 430.004 451.865 427.57 456.401C426.757 457.575 426.248 458.932 426.09 460.352C426.083 460.526 426.097 460.7 426.134 460.87L425.024 461.499C424.698 461.684 424.373 461.869 424.077 462.061C422.671 462.978 421.169 463.992 420.592 465.576C420.126 466.856 420.34 468.321 419.778 469.564C419.751 469.62 419.722 469.674 419.689 469.727C419.097 470.881 417.921 471.74 417.654 473.005C417.454 473.974 417.839 475.005 417.654 475.965V476.002C417.486 476.485 417.352 476.98 417.254 477.482C417.246 477.646 417.261 477.81 417.298 477.97C417.439 478.531 417.749 479.034 418.186 479.413C418.453 479.669 418.743 479.899 419.052 480.101C419.368 480.308 419.694 480.501 420.029 480.678L420.221 480.778C420.502 480.926 420.783 481.067 421.072 481.2L421.264 481.281C421.597 481.429 421.937 481.562 422.278 481.681L422.515 481.755C422.781 481.844 423.055 481.925 423.329 481.992L423.514 482.051L423.684 482.088L424.424 482.243L424.698 482.295C425.023 482.349 425.357 482.393 425.698 482.428H425.998C426.25 482.428 426.498 482.465 426.738 482.472H428.092C428.442 482.461 428.79 482.427 429.135 482.372H429.246C429.557 482.328 429.867 482.272 430.178 482.209L430.415 482.157C430.704 482.09 430.992 482.024 431.281 481.935L431.437 481.891C431.785 481.791 432.137 481.676 432.473 481.543C433.651 481.059 434.793 480.493 435.891 479.849C436.631 479.442 437.371 479.028 438.111 478.649C438.66 478.372 439.223 478.125 439.798 477.909C441.197 477.311 442.72 477.057 444.237 477.169C444.986 477.271 445.728 477.421 446.457 477.62V477.864C447.057 481.415 447.651 484.967 448.24 488.519C449.209 487.822 450.233 487.206 451.303 486.677C451.103 487.213 450.971 487.773 450.911 488.342C450.867 488.782 450.867 489.226 450.911 489.666C451.094 490.347 451.02 491.071 450.704 491.701C450.445 492.041 449.964 492.234 449.824 492.618C449.721 493.011 449.696 493.421 449.75 493.824C449.687 494.775 448.939 495.536 447.989 495.615C448.425 496.841 447.963 498.206 446.872 498.915C446.563 499.064 446.274 499.253 446.014 499.477C445.759 499.803 445.588 500.187 445.514 500.594C444.536 504.258 442.525 507.563 439.72 510.116C438.668 510.944 437.708 511.882 436.857 512.916C436.331 513.715 435.896 514.572 435.562 515.469C433.589 520.293 431.586 525.12 429.554 529.949C428.319 532.603 427.453 535.414 426.979 538.303C426.091 546.279 418.988 553.042 420.32 560.959C420.589 562.937 421.387 564.805 422.629 566.368C424.255 568.07 426.294 569.322 428.548 570.001C434.248 572.221 440.268 573.434 446.261 574.655L455.673 576.586C457.52 577.011 459.394 577.307 461.281 577.474C463.553 577.629 465.881 577.415 468.096 577.992C469.42 578.49 470.791 578.855 472.188 579.08C473.402 579.147 474.896 578.888 475.614 579.88C476.332 580.872 475.777 582.18 476.457 583.062C477.557 584.462 480.223 583.062 481.415 584.379C481.741 584.885 481.99 585.436 482.155 586.014C482.336 586.371 482.588 586.688 482.895 586.946C482.968 587.363 482.997 587.787 482.984 588.211C482.83 589.929 482.472 591.623 481.918 593.257C481.03 596.261 480.145 599.268 479.262 602.277C478.925 603.339 478.678 604.428 478.522 605.532C478.466 606.068 478.466 606.609 478.522 607.145C478.601 608.831 479.631 610.326 481.178 611C482.39 611.321 483.68 611.162 484.778 610.556C485.837 610.003 486.83 609.332 487.738 608.556C489.376 607.315 490.816 605.831 492.007 604.156C495.707 598.622 494.507 591.134 497.107 585.015C498.831 580.931 502.19 577.615 503.307 573.31C503.569 572.49 503.599 571.615 503.396 570.779C502.93 569.299 501.354 568.456 499.881 567.923H499.801C498.591 567.492 497.356 567.139 496.101 566.865C495.79 566.798 495.472 566.747 495.154 566.695C494.45 566.122 493.89 565.392 493.519 564.564C493.461 564.124 493.344 563.693 493.171 563.284C492.932 562.926 492.535 562.705 492.105 562.692C491.365 562.618 490.374 562.884 489.567 562.825C487.917 562.707 486.822 561.086 485.342 560.339C483.86 559.762 482.247 559.606 480.681 559.888C480.118 559.966 479.544 559.932 478.994 559.788C478.337 559.485 477.736 559.072 477.218 558.567C475.372 557.13 472.957 556.645 470.699 557.257C469.991 557.542 469.241 557.711 468.479 557.757C467.036 557.676 466.015 556.388 464.95 555.412C462.035 552.741 457.884 552.038 454.35 550.284C453.808 550.081 453.356 549.691 453.077 549.184C452.67 548.178 453.588 547.171 454.416 546.484L460.498 541.431C467.157 535.897 475.481 531.731 478.574 523.614C478.896 522.526 479.397 521.498 480.054 520.573C480.293 520.29 480.569 520.042 480.875 519.833C482.22 518.961 483.851 518.643 485.425 518.945C487.344 519.374 489.162 520.168 490.782 521.283C493.431 522.883 496.008 524.609 498.514 526.462C500.996 528.235 503.357 530.173 505.58 532.262C509.465 535.962 512.698 540.349 516.316 544.337C519.934 548.325 524.07 552.047 529.094 553.956C534.118 555.865 540.194 555.784 544.506 552.58C549.486 548.88 551.084 542.266 552.342 536.199C555.117 533.521 555.953 529.444 557.307 525.84C558.158 523.554 559.245 521.401 560.163 519.122C561.258 516.444 562.116 513.676 562.975 510.916C563.948 508.144 564.608 505.273 564.943 502.355C565.298 497.745 564.063 492.84 565.357 488.511C567.037 487.963 568.686 487.329 570.3 486.611C572.8 485.79 575.479 485.923 578.128 485.938H578.298C579.209 486.034 580.126 485.817 580.898 485.324C581.68 484.469 582.069 483.326 581.971 482.172C582.08 479.362 581.901 476.18 579.779 474.345ZM472.579 348.132C471.967 348.283 471.334 348.328 470.707 348.265L472.579 348.132Z" fill="url(#paint0_linear_1_109)"/>
<path d="M475.49 394.939C474.594 395.7 473.544 396.258 472.412 396.574L467.166 398.453C464.317 399.474 461.343 400.502 458.339 400.133C456.659 399.926 449.46 398.868 448.373 397.558C446.715 395.531 452.524 392.549 454.507 390.84C454.957 390.515 455.373 390.147 455.75 389.74C456.353 388.75 456.547 387.563 456.29 386.433C455.914 383.546 455.785 380.633 455.905 377.724C455.964 377.031 456.064 376.341 456.205 375.66C456.945 372.26 460.112 373.499 462.613 374.402C465.624 375.38 468.535 376.641 471.307 378.168C472.152 378.603 472.886 379.226 473.453 379.988C474.553 381.645 474.112 383.821 473.934 385.907C473.779 387.527 473.786 389.081 474.8 390.258C475.311 390.708 475.779 391.203 476.2 391.738C476.686 392.846 476.399 394.141 475.49 394.939Z" fill="#BE6F72"/>
<path d="M403.024 341.614C403.764 338.336 403.924 334.955 404.815 331.707C405.442 329.595 406.218 327.53 407.138 325.529L410.401 317.915C410.699 317.016 411.23 316.211 411.94 315.584C412.701 315.113 413.584 314.875 414.478 314.903C417.71 314.677 420.884 315.85 423.194 318.122C425.369 320.467 426.057 324.263 424.326 326.949C422.254 330.182 417.733 330.833 415.033 333.556C413.408 335.402 412.342 337.674 411.962 340.104C410.615 346.319 411.062 352.764 410.653 359.112C410.52 361.088 410.135 363.344 408.433 364.365C407.404 364.869 406.261 365.091 405.118 365.009L400.264 365.09C399.45 365.09 396.498 365.601 395.958 364.99C395.011 363.917 397.172 358.575 397.564 357.384C398.437 354.743 399.51 352.168 400.524 349.571C401.402 347.252 403.024 344.122 403.024 341.614Z" fill="#BE6F72"/>
<path d="M503.244 574.061C502.127 578.338 498.768 581.667 497.044 585.744C494.444 591.844 495.616 599.314 491.944 604.833C490.754 606.509 489.314 607.992 487.675 609.233C486.766 610.005 485.773 610.673 484.715 611.223C483.617 611.829 482.327 611.988 481.115 611.667C479.57 610.994 478.54 609.503 478.459 607.819C478.404 607.285 478.404 606.747 478.459 606.214C478.615 605.112 478.862 604.026 479.199 602.966C480.087 599.972 480.972 596.972 481.855 593.966C482.408 592.337 482.765 590.648 482.921 588.935C483.021 587.07 481.833 584.643 482.336 582.905C482.565 582.121 483.424 581.425 483.816 580.767C484.373 579.819 484.801 578.802 485.089 577.741C485.696 575.677 486.11 573.472 487.383 571.733C488.214 570.702 489.185 569.793 490.269 569.033C491.069 568.332 492.006 567.805 493.021 567.487C494.006 567.314 495.017 567.362 495.981 567.628C497.236 567.896 498.472 568.247 499.681 568.679H499.748C501.228 569.212 502.796 570.033 503.263 571.528C503.491 572.358 503.485 573.235 503.244 574.061Z" fill="#3F3D56"/>
<path d="M581.97 483.098C582.072 484.251 581.683 485.393 580.897 486.243C580.125 486.737 579.208 486.953 578.297 486.857H578.097C575.456 486.857 572.77 486.709 570.269 487.53C568.369 488.159 566.621 489.313 564.638 489.543C561.908 489.854 559.338 488.359 556.921 487.057C554.643 485.83 552.304 484.718 549.914 483.727C548.345 483.083 545.142 482.669 544.387 480.952C544.129 480.14 543.911 479.315 543.736 478.481C543.612 478.108 543.461 477.744 543.285 477.393C542.841 476.643 542.559 475.809 542.456 474.944C542.459 474.081 542.757 473.246 543.3 472.576C544.519 471.133 546.263 470.235 548.146 470.082C550.011 469.938 551.886 470.039 553.725 470.382L571.941 473.001C573.347 473.201 574.76 473.401 576.141 473.741C577.455 473.969 578.694 474.512 579.752 475.324C581.904 477.127 582.081 480.301 581.97 483.098Z" fill="#3F3D56"/>
<path d="M565.958 487.835C563.738 492.519 565.337 498.06 564.937 503.235C564.602 506.145 563.942 509.009 562.969 511.773C562.111 514.525 561.252 517.285 560.157 519.956C559.24 522.176 558.152 524.395 557.301 526.656C555.947 530.267 555.081 534.329 552.336 537.015C551.078 543.067 549.48 549.682 544.5 553.352C540.172 556.552 534.141 556.659 529.088 554.728C524.035 552.797 519.928 549.097 516.31 545.109C512.692 541.121 509.458 536.778 505.574 533.063C503.348 530.974 500.982 529.038 498.493 527.27C495.987 525.45 493.41 523.738 490.761 522.135C489.139 521.025 487.321 520.234 485.404 519.804C483.83 519.502 482.199 519.82 480.854 520.692C480.548 520.901 480.272 521.15 480.033 521.432C479.374 522.354 478.874 523.379 478.553 524.466C475.445 532.561 467.107 536.719 460.448 542.239L454.366 547.278C453.537 547.966 452.62 548.972 453.027 549.971C453.307 550.476 453.759 550.865 454.3 551.066C457.837 552.812 461.988 553.515 464.9 556.179C465.966 557.156 466.986 558.443 468.429 558.517C469.191 558.471 469.941 558.302 470.649 558.017C472.905 557.406 475.318 557.887 477.167 559.317C477.685 559.822 478.286 560.235 478.943 560.538C479.493 560.682 480.067 560.716 480.63 560.638C482.196 560.375 483.804 560.53 485.291 561.089C486.704 561.789 487.866 563.449 489.516 563.568C490.322 563.627 491.284 563.361 492.054 563.435C492.484 563.448 492.881 563.669 493.12 564.027C493.293 564.434 493.41 564.862 493.468 565.3C493.768 566.343 494.793 566.98 495.458 567.838C496.374 569.249 496.753 570.943 496.524 572.61C496.189 577.815 493.869 582.694 490.042 586.239C488.956 587.349 487.57 588.121 486.054 588.459C484.497 588.784 482.906 588.078 482.103 586.705C481.938 586.129 481.689 585.58 481.363 585.077C480.172 583.767 477.501 585.158 476.405 583.76C475.724 582.887 476.213 581.488 475.561 580.586C474.909 579.684 473.341 579.846 472.135 579.794C470.739 579.565 469.368 579.201 468.043 578.706C465.823 578.129 463.5 578.343 461.229 578.188C459.342 578.021 457.468 577.725 455.621 577.3L446.209 575.376C440.188 574.318 434.263 572.766 428.496 570.737C426.254 570.034 424.221 568.789 422.577 567.111C421.337 565.551 420.54 563.685 420.269 561.711C418.93 553.835 426.03 547.085 426.93 539.135C427.401 536.253 428.267 533.449 429.505 530.804C431.512 525.99 433.515 521.173 435.513 516.354C435.836 515.457 436.258 514.598 436.771 513.794C437.621 512.762 438.579 511.826 439.63 511C442.434 508.456 444.446 505.158 445.424 501.5C445.498 501.093 445.669 500.709 445.924 500.383C446.186 500.163 446.474 499.977 446.782 499.828C447.87 499.12 448.332 497.759 447.899 496.535C448.849 496.456 449.597 495.695 449.66 494.744C449.606 494.343 449.631 493.935 449.734 493.544C449.912 493.159 450.355 492.967 450.615 492.627C450.931 492 451.004 491.278 450.822 490.6C450.778 490.16 450.778 489.716 450.822 489.276C450.984 487.709 451.685 486.247 452.805 485.14C454.573 483.401 457.089 483.853 459.531 483.44C461.966 482.914 464.343 482.154 466.631 481.169C473.051 478.639 479.811 477.076 486.69 476.53C493.603 475.986 500.546 477.092 506.948 479.756C507.88 480.133 508.758 480.631 509.56 481.236C510.13 481.675 510.597 482.233 510.929 482.871C511.202 483.654 511.539 484.413 511.935 485.142C512.727 486.222 514.221 486.57 515.087 487.591C515.953 488.612 516.027 490.336 516.744 491.601C517.772 493.406 520.155 494.242 520.865 496.201C521.087 496.823 521.117 497.501 521.279 498.147C521.842 499.714 522.75 501.135 523.935 502.305C527.814 506.944 530.297 512.589 531.097 518.583C531.334 514.832 533.857 511.51 537.016 509.438C537.867 508.883 538.851 508.269 539.021 507.263C539.236 505.99 538 504.863 538.081 503.563C538.171 502.931 538.426 502.334 538.821 501.832C540.231 499.788 541.779 497.843 543.453 496.009C544.363 495.009 545.384 493.789 545.007 492.472C544.719 491.488 543.712 490.911 543.157 490.052C542.497 489.007 542.526 487.667 543.231 486.652C543.749 485.952 544.57 485.439 544.822 484.603C545.111 483.619 544.467 482.553 544.667 481.54C544.938 480.728 545.475 480.032 546.191 479.565C547.173 478.671 548.289 477.937 549.498 477.39C551.451 476.65 553.627 476.924 555.698 477.212C559.161 477.693 563.045 478.433 564.998 481.333C566.254 483.142 566.89 485.895 565.958 487.835Z" fill="#65617D"/>
<path opacity="0.1" d="M581.969 483.098C582.071 484.251 581.682 485.393 580.896 486.243C580.124 486.737 579.207 486.953 578.296 486.857H578.096C578.396 485.318 580.271 484.438 580.596 482.876C580.709 481.906 580.414 480.934 579.782 480.19C578.199 478.052 575.653 476.868 573.123 476.002C565.974 473.551 558.316 472.978 550.882 474.337C548.861 474.667 546.894 475.272 545.037 476.137C544.422 476.522 543.829 476.942 543.261 477.395C542.817 476.645 542.535 475.811 542.432 474.946C542.435 474.083 542.733 473.248 543.276 472.578C544.495 471.135 546.239 470.237 548.122 470.084C549.987 469.94 551.862 470.041 553.701 470.384L571.917 473.003C573.329 473.179 574.73 473.426 576.117 473.743C577.431 473.971 578.67 474.514 579.728 475.326C581.903 477.127 582.08 480.301 581.969 483.098Z" fill="black"/>
<path opacity="0.1" d="M503.244 574.062C502.127 578.339 498.768 581.668 497.044 585.745C494.444 591.845 495.616 599.315 491.944 604.834C490.754 606.509 489.314 607.993 487.675 609.234C486.766 610.006 485.773 610.674 484.715 611.224C483.617 611.83 482.327 611.989 481.115 611.668C479.57 610.995 478.54 609.503 478.459 607.82C478.403 607.286 478.403 606.748 478.459 606.214L478.503 606.333C479.147 607.887 480.197 609.514 481.855 609.788C483.112 609.878 484.351 609.441 485.273 608.582C487.715 606.621 489.135 603.699 490.489 600.882C491.548 598.849 492.387 596.709 492.989 594.497C493.289 593.239 493.425 591.952 493.729 590.697C495.135 584.585 499.922 579.597 500.98 573.405C501.066 572.979 501.086 572.542 501.039 572.11C500.9 571.546 500.686 571.004 500.403 570.497C500.146 569.924 499.957 569.323 499.841 568.706C501.321 569.239 502.889 570.06 503.356 571.555C503.547 572.386 503.506 573.254 503.237 574.063L503.244 574.062Z" fill="black"/>
<path opacity="0.1" d="M492.072 563.451C491.387 565.241 490.235 566.815 488.735 568.009C486.629 569.614 484.163 570.681 481.551 571.117C480.335 571.427 479.059 571.412 477.851 571.073C476.208 570.503 475.024 568.964 473.345 568.52C472.145 568.194 470.859 568.483 469.645 568.305C467.462 568.005 465.768 566.337 464.007 565.005C458.613 560.95 451.532 559.641 446.138 555.586C445.898 555.438 445.699 555.232 445.561 554.986C445.458 554.72 445.42 554.433 445.45 554.15C445.47 551.691 446.023 549.265 447.07 547.04C447.928 545.487 448.95 544.031 450.118 542.697C454.95 536.778 459.803 530.814 465.589 525.82C467.931 523.614 470.701 521.914 473.728 520.826C475.428 520.301 478.789 519.805 480.861 520.693C480.556 520.902 480.279 521.151 480.04 521.433C479.381 522.355 478.881 523.38 478.56 524.467C475.445 532.567 467.106 536.727 460.447 542.247L454.365 547.286C453.536 547.974 452.619 548.98 453.026 549.979C453.305 550.486 453.757 550.876 454.299 551.079C457.836 552.825 461.987 553.528 464.899 556.192C465.964 557.169 466.986 558.456 468.428 558.53C469.19 558.484 469.94 558.315 470.648 558.03C472.905 557.419 475.318 557.9 477.167 559.33C477.685 559.835 478.286 560.248 478.943 560.551C479.493 560.695 480.067 560.729 480.63 560.651C482.196 560.388 483.804 560.543 485.291 561.102C486.704 561.802 487.866 563.462 489.516 563.581C490.34 563.644 491.302 563.363 492.072 563.451Z" fill="black"/>
<path d="M424.022 463.032C422.616 463.932 421.122 464.956 420.544 466.524C420.07 467.804 420.292 469.269 419.723 470.512C419.154 471.755 417.873 472.621 417.592 473.953C417.392 474.922 417.784 475.943 417.592 476.913C417.425 477.417 417.289 477.931 417.185 478.452C417.111 479.552 418.058 480.452 418.985 481.064C422.978 483.661 427.967 484.21 432.429 482.544C434.363 481.679 436.249 480.713 438.082 479.651C439.929 478.587 442.042 478.074 444.171 478.171C445.392 478.304 446.561 478.748 447.782 478.911C449.006 479.153 450.27 478.776 451.163 477.905C451.54 477.384 451.793 476.784 451.903 476.151C452.768 472.027 452.626 467.755 451.489 463.698C450.512 459.614 449.032 455.685 447.989 451.623C447.393 448.575 446.542 445.583 445.444 442.678C444.208 439.829 442.129 437.178 439.221 436.093C438.992 435.979 438.732 435.944 438.481 435.993C438.295 436.071 438.13 436.193 438 436.348C435.7 438.786 433.966 441.701 432.924 444.887C431.762 448.431 431.444 452.187 430.379 455.749C429.92 457.229 429.328 459.212 428.159 460.344C426.871 461.372 425.485 462.272 424.022 463.032Z" fill="#3F3D56"/>
<path opacity="0.1" d="M451.924 476.129C451.8 476.764 451.534 477.363 451.147 477.882C450.257 478.757 448.989 479.132 447.766 478.882C446.553 478.734 445.384 478.282 444.166 478.142C442.037 478.043 439.924 478.557 438.077 479.622C436.183 480.569 434.377 481.746 432.417 482.508C429.549 483.596 426.415 483.774 423.442 483.019C421.863 482.622 420.362 481.962 419.003 481.066C418.071 480.459 417.131 479.586 417.203 478.454C417.307 477.935 417.442 477.423 417.61 476.922C417.802 475.953 417.417 474.932 417.61 473.962C417.891 472.63 419.178 471.742 419.741 470.514C420.304 469.286 420.089 467.814 420.555 466.533C421.132 464.957 422.634 463.943 424.04 463.033C425.522 462.264 426.928 461.357 428.24 460.325C428.385 460.153 428.516 459.97 428.632 459.778C429.443 458.527 430.038 457.149 430.393 455.701C431.481 452.135 431.777 448.383 432.931 444.832C433.978 441.649 435.714 438.737 438.014 436.301C438.137 436.142 438.301 436.019 438.488 435.946C438.738 435.895 438.997 435.926 439.228 436.035C442.128 437.135 444.208 439.779 445.451 442.628C446.536 445.535 447.387 448.524 447.996 451.566C449.032 455.628 450.519 459.572 451.496 463.649C452.473 467.726 452.952 472.063 451.924 476.129Z" fill="black"/>
<path opacity="0.1" d="M473.929 385.89C466.724 388.178 458.953 384.669 455.905 377.751C455.964 377.058 456.064 376.368 456.205 375.687C456.945 372.287 460.112 373.526 462.612 374.429C465.623 375.407 468.534 376.668 471.306 378.195C472.151 378.63 472.885 379.253 473.452 380.015C474.545 381.65 474.107 383.825 473.929 385.89Z" fill="black"/>
<path d="M469.46 385.845C477.633 385.845 484.258 379.22 484.258 371.047C484.258 362.874 477.633 356.249 469.46 356.249C461.287 356.249 454.662 362.874 454.662 371.047C454.662 379.22 461.287 385.845 469.46 385.845Z" fill="#BE6F72"/>
<path opacity="0.1" d="M509.614 481.629C509.614 482.857 507.949 483.249 506.714 483.183C502.275 482.924 497.931 481.703 493.536 482.073C487.979 482.573 482.874 485.647 477.302 485.928C475.156 486.039 472.974 485.721 470.858 486.113C468.12 486.624 465.679 488.288 462.889 488.525C460.47 488.732 458.08 487.825 455.66 487.918C453.968 488.02 452.319 488.492 450.829 489.299C450.991 487.732 451.692 486.27 452.812 485.163C454.58 483.424 457.096 483.876 459.538 483.463C461.973 482.937 464.35 482.177 466.638 481.192C473.058 478.662 479.818 477.099 486.697 476.553C493.606 476.002 500.546 477.099 506.948 479.753C507.88 480.13 508.758 480.628 509.56 481.233C509.601 481.361 509.619 481.495 509.614 481.629Z" fill="black"/>
<path d="M462.615 398.069L456.622 395.849L454.092 394.917C453.061 394.485 451.976 394.196 450.866 394.059C447.966 393.837 445.235 395.768 443.689 398.232C442.287 400.791 441.395 403.598 441.063 406.497C440.382 410.414 439.805 414.345 439.332 418.291C438.822 421.854 438.562 425.449 438.555 429.049C438.725 438.209 440.664 447.243 442.795 456.159C443.839 460.112 444.627 464.128 445.155 468.182C445.332 469.854 445.414 471.534 445.591 473.213C445.783 475.1 446.091 476.964 446.405 478.836L448.188 489.468C450.408 487.892 452.931 486.508 455.661 486.427C458.08 486.338 460.478 487.241 462.89 487.034C465.665 486.805 468.121 485.14 470.859 484.634C472.975 484.242 475.159 484.553 477.311 484.449C482.875 484.168 487.988 481.09 493.537 480.594C497.937 480.194 502.312 481.437 506.722 481.694C507.95 481.768 509.615 481.376 509.615 480.14C509.615 479.282 508.757 478.712 508.009 478.283C504.486 476.162 501.134 473.77 497.983 471.128C495.068 468.819 492.108 466.452 490.103 463.328C485.271 455.818 486.929 445.659 482.803 437.735C479.451 431.298 482.803 422.863 482.803 415.605C483.274 409.932 482.299 404.232 479.969 399.039L477.091 391.751C477.031 391.538 476.914 391.346 476.751 391.196C476.558 391.063 476.328 390.993 476.093 390.996C474.364 390.892 472.66 391.439 471.313 392.528C469.959 393.628 469.093 395.214 467.761 396.361C466.308 397.625 464.428 398.735 462.615 398.069Z" fill="#E3E8F4"/>
<path d="M472.287 393.866C472.6 391.801 473.402 389.84 474.625 388.147C475.979 386.564 478.45 385.728 480.197 386.86C482.18 388.147 482.261 391.122 483.956 392.779C485.436 394.2 487.656 394.311 489.668 394.496C493.287 394.825 496.841 395.662 500.226 396.982C500.887 397.187 501.488 397.547 501.98 398.033C502.905 399.084 502.72 400.697 503.18 402.006C503.809 403.693 505.548 404.766 506.221 406.445C506.961 408.31 506.221 410.396 505.599 412.312C504.482 415.753 503.779 419.326 502.691 422.782C501.728 426.298 499.955 429.539 497.512 432.245C496.387 433.399 494.712 434.465 493.235 433.777L492.665 437.883C492.499 438.751 492.499 439.642 492.665 440.51C492.84 441.396 493.507 442.103 494.381 442.33C494.492 442.966 495.165 443.27 495.713 443.617C496.529 444.175 497.088 445.037 497.265 446.01C497.441 446.983 497.221 447.986 496.653 448.796C496.187 449.425 495.499 449.921 495.277 450.668C495.085 451.815 495.661 452.954 496.698 453.48C497.66 454.072 498.792 454.346 499.769 454.915C501.796 456.084 502.884 458.385 503.579 460.615C504.097 462.302 504.526 464.13 505.799 465.358C506.287 465.824 506.872 466.179 507.338 466.668C508.146 467.622 508.611 468.819 508.662 470.068C508.864 471.614 508.525 473.183 507.7 474.507C506.22 476.623 503.46 477.252 501.041 478.207C497.112 479.82 493.879 482.707 490.416 485.162C489.006 486.298 487.344 487.079 485.569 487.441C483.169 487.759 480.812 486.701 478.399 486.605C476.956 486.618 475.52 486.807 474.122 487.167L469.683 488.129C469.92 484.688 468.026 481.241 466.968 477.963C465.104 471.732 464.461 465.2 465.074 458.726C465.691 452.268 466.724 445.857 468.167 439.533C469.077 435.094 468.988 430.454 470.387 426.141C471.696 421.99 473.569 418.002 474.257 413.681C475.379 406.693 470.703 400.762 472.287 393.866Z" fill="#3F3D56"/>
<path d="M505.945 407.547C506.353 408.297 506.64 409.107 506.796 409.947C507.138 411.25 507.779 412.456 508.668 413.469C509.412 414.126 510.073 414.871 510.636 415.689C511.317 416.976 511.058 418.545 511.376 419.951C511.746 421.483 512.819 422.814 512.976 424.39C512.981 424.842 513.023 425.292 513.102 425.737C513.583 427.528 516.217 427.957 516.802 429.747C517.194 430.909 516.521 432.174 516.647 433.395C516.739 433.772 516.762 434.163 516.714 434.549C516.547 434.985 516.253 435.361 515.87 435.629C513.422 437.968 511.727 440.985 511.002 444.293C510.288 447.584 509.912 450.939 509.881 454.306L506.988 450.481C506.682 450.017 506.29 449.615 505.834 449.297C505.464 449.075 505.034 448.964 504.657 448.742C503.557 448.12 503.133 446.803 502.711 445.62C501.54 442.343 499.785 439.304 497.532 436.652C496.356 435.268 494.987 433.877 494.732 432.079C494.655 431.253 494.699 430.42 494.865 429.608C495.605 424.762 496.396 419.797 498.757 415.498C499.857 413.485 501.288 411.665 502.346 409.623C503.052 408.272 504.051 404.75 505.945 407.547Z" fill="#3F3D56"/>
<path d="M432.953 412.201C432.967 412.824 432.808 413.438 432.494 413.977C431.917 414.645 431.013 414.931 430.156 414.717C429.313 414.504 428.519 414.13 427.818 413.617C425.756 412.315 423.694 411.01 421.632 409.703C420.481 409.009 419.372 408.248 418.31 407.424C416.687 406.054 415.216 404.513 413.922 402.829C410.322 398.39 407.144 393.573 403.142 389.511C402.054 388.401 400.922 387.336 399.872 386.174C398.436 384.495 397.116 382.72 395.921 380.862C394.767 379.153 393.568 377.262 393.768 375.216C393.886 374.062 394.441 372.996 394.604 371.849C394.767 370.702 394.33 369.304 393.22 368.993C393.089 368.96 392.955 368.937 392.82 368.926C392.601 368.902 392.385 368.855 392.176 368.785C391.148 368.356 391.303 366.765 392.043 365.929C392.783 365.093 393.878 364.629 394.551 363.709C394.864 363.165 395.216 362.643 395.602 362.148C396.097 361.723 396.689 361.426 397.326 361.282C401.594 360.023 406.108 359.851 410.459 360.782C411.199 360.945 412.042 361.241 412.264 361.958C412.353 362.307 412.353 362.673 412.264 363.023C411.938 364.482 411.75 365.968 411.702 367.462C411.701 367.773 411.718 368.084 411.754 368.394C412.102 371.531 414.136 374.187 416.119 376.637C418.472 379.552 420.862 382.445 423.259 385.331C424.555 387.003 426.004 388.551 427.587 389.955C429.067 391.183 430.987 392.175 432.137 393.755C433.077 395.028 432.773 396.766 432.877 398.298C433.222 402.925 433.248 407.57 432.953 412.201Z" fill="#3F3D56"/>
<path d="M526.921 443.07C527.652 442.359 528.311 441.579 528.889 440.739C529.511 439.699 530.008 438.589 530.369 437.432L534.66 425.261C535.341 423.337 536.022 421.406 536.88 419.534C537.768 417.514 538.818 415.568 539.788 413.615C542.281 408.474 544.209 403.078 545.537 397.522C545.771 396.758 545.849 395.956 545.766 395.162C545.419 393.904 544.684 392.788 543.666 391.973C542.736 390.97 541.676 390.095 540.514 389.373C539.335 388.64 537.912 388.411 536.563 388.737C534.669 389.292 533.478 391.23 533.041 393.176C532.762 395.137 532.609 397.114 532.582 399.095C532.316 401.936 531.339 404.681 531.102 407.53C530.976 409.18 531.102 410.845 530.902 412.487C530.538 414.644 529.786 416.717 528.682 418.606C526.278 423.105 523.03 427.099 519.115 430.37C518.043 431.162 517.077 432.089 516.244 433.13C515.548 434.17 515.077 435.345 514.86 436.578C514.369 438.455 514.582 440.447 515.46 442.178C516.666 444.235 518.982 445.138 521.194 445.596C524.184 446.214 524.872 445.193 526.921 443.07Z" fill="#BE6F72"/>
<path d="M469.549 349.605C470.85 347.158 473.489 345.728 476.249 345.972C479.024 346.463 481.279 348.489 482.065 351.196C482.29 352.328 482.66 353.427 483.165 354.466C484.082 355.894 485.784 356.308 487.057 357.344C488.591 358.769 489.487 360.751 489.543 362.844C489.614 364.962 489.28 367.074 488.559 369.067C488.253 369.916 488.006 370.784 487.819 371.667C487.671 372.525 487.656 373.398 487.519 374.257C487.187 376.505 485.961 378.525 484.119 379.857C483.86 380.068 483.537 380.186 483.202 380.19C482.625 380.123 482.27 379.45 482.055 378.843C480.879 375.443 481.155 371.296 478.992 368.588C478.006 367.495 476.814 366.608 475.485 365.976C474.943 365.626 474.332 365.397 473.694 365.303C472.756 365.353 471.854 365.683 471.104 366.25C469.542 367.297 467.81 368.064 465.984 368.514C464.139 368.951 462.196 368.533 460.694 367.375C459.673 366.531 458.925 365.266 457.794 364.608C456.663 363.95 455.478 363.986 454.361 363.535C452.918 362.921 451.839 361.676 451.437 360.161C451.035 358.645 451.355 357.029 452.304 355.781C453.044 354.893 454.139 354.39 454.797 353.406C455.648 352.133 455.574 350.387 455.981 348.863C456.469 346.906 457.872 345.305 459.747 344.563C461.572 343.942 463.591 344.364 465.015 345.663C465.755 346.329 466.347 347.187 467.072 347.883C468.527 349.275 470.589 349.833 472.547 349.363" fill="#3F3D56"/>
<path opacity="0.1" d="M481.711 458.511C480.83 459.296 480.519 460.54 480.927 461.648C481.09 461.996 488.727 460.523 489.532 460.412C491.545 460.123 495.074 460.264 496.432 458.422C498.844 455.159 491.371 455.884 490.002 456.003C487.395 456.225 483.696 456.58 481.711 458.511Z" fill="black"/>
<path d="M412.251 363.064C411.925 364.523 411.737 366.009 411.689 367.503C409.469 367.954 407.161 367.214 405.03 366.474L398.911 364.387C398.138 363.893 397.115 364.085 396.573 364.824C395.414 366.257 394.179 367.628 392.873 368.93C392.654 368.907 392.438 368.859 392.229 368.789C391.201 368.36 391.356 366.769 392.096 365.933C392.836 365.097 393.931 364.633 394.604 363.713C394.917 363.169 395.269 362.647 395.655 362.152C396.15 361.727 396.742 361.43 397.379 361.286C401.647 360.027 406.161 359.855 410.512 360.786C411.252 360.949 412.095 361.245 412.318 361.962C412.391 362.329 412.368 362.708 412.251 363.064Z" fill="#3F3D56"/>
<path opacity="0.1" d="M412.251 363.064C411.925 364.523 411.737 366.009 411.689 367.503C409.469 367.954 407.161 367.214 405.03 366.474L398.911 364.387C398.138 363.893 397.115 364.085 396.573 364.824C395.414 366.257 394.179 367.628 392.873 368.93C392.654 368.907 392.438 368.859 392.229 368.789C391.201 368.36 391.356 366.769 392.096 365.933C392.836 365.097 393.931 364.633 394.604 363.713C394.917 363.169 395.269 362.647 395.655 362.152C396.15 361.727 396.742 361.43 397.379 361.286C401.647 360.027 406.161 359.855 410.512 360.786C411.252 360.949 412.095 361.245 412.318 361.962C412.391 362.329 412.368 362.708 412.251 363.064Z" fill="black"/>
<path opacity="0.1" d="M468.224 503.535C469.337 503.751 470.289 504.466 470.806 505.474L462.238 503.299L457.799 502.167C457.015 501.967 454.199 501.738 453.685 501.124C452.945 500.224 455.572 500.843 456.045 500.909C457.48 501.124 458.916 501.346 460.345 501.609C463.038 502.084 465.627 502.876 468.224 503.535Z" fill="black"/>
<path opacity="0.1" d="M471.546 511.118C470.806 510.618 468.682 510.681 467.772 510.467C466.44 510.149 465.131 509.727 463.821 509.32C461.165 508.454 458.531 507.47 455.8 506.834C455.3 506.723 453.58 506.693 453.662 506.057C453.744 505.421 455.379 505.199 455.786 505.169C458.205 504.992 461.224 506.124 463.474 506.93C466.341 507.957 469.056 509.365 471.546 511.118Z" fill="black"/>
<path opacity="0.1" d="M466.115 496.772C463.4 496.032 460.936 494.345 458.139 494.019C457.41 494.047 456.693 493.828 456.104 493.398C455.775 493.075 455.546 492.664 455.445 492.214C457.443 492.272 459.405 492.765 461.194 493.657C462.131 494.058 463.031 494.539 463.887 495.092C464.506 495.47 465.442 496.557 466.115 496.772Z" fill="black"/>
<path d="M517.883 430.521C516.935 436.879 520.798 442.969 526.954 444.821C526.592 446.575 524.779 447.544 523.499 448.794C521.694 450.548 520.761 453.174 518.63 454.506C516.255 455.986 513.199 455.406 510.491 454.787C510.245 454.759 510.018 454.64 509.855 454.454C509.799 454.365 509.759 454.267 509.737 454.165C508.837 450.887 508.257 447.388 509.175 444.102C509.915 441.302 511.691 438.923 513.111 436.451C514.531 433.979 514.66 431.335 517.883 430.521Z" fill="#3F3D56"/>
<path d="M451.724 388.094C448.86 388.302 446.079 389.149 443.585 390.573C441.928 391.52 440.226 392.793 438.332 392.563C437.215 392.437 436.112 391.823 435.025 392.119C434.412 392.366 433.841 392.705 433.331 393.125C432.805 393.546 432.097 393.66 431.466 393.425L430.726 403.665C430.445 407.557 430.171 411.53 431.103 415.326C431.584 417.265 432.642 419.026 432.76 420.994C432.878 422.962 432.701 424.982 432.841 426.972C432.974 428.814 433.381 430.627 433.485 432.472C433.692 435.95 432.834 439.397 432.005 442.779C430.754 447.766 430 452.864 427.565 457.379C426.753 458.551 426.244 459.906 426.085 461.323C426.077 461.497 426.092 461.671 426.129 461.841C425.389 462.248 424.701 462.633 424.072 463.032C422.666 463.942 421.164 464.956 420.587 466.532C420.121 467.812 420.335 469.277 419.773 470.513C419.211 471.749 417.923 472.629 417.642 473.961C417.442 474.93 417.827 475.951 417.642 476.921C417.474 477.423 417.339 477.934 417.235 478.453C417.161 479.563 418.1 480.458 419.035 481.065C420.394 481.961 421.895 482.621 423.474 483.018L427.891 465.482C431.918 458.036 435.269 450.243 437.902 442.197C438.655 439.567 439.623 437.004 440.795 434.532C441.633 433.133 442.374 431.68 443.015 430.181C443.547 428.266 443.904 426.307 444.081 424.328C444.468 422.031 445.049 419.771 445.82 417.573C446.759 415.252 447.393 412.82 447.707 410.337C447.951 406.771 446.656 403.005 448.033 399.705C448.617 398.468 449.377 397.323 450.29 396.305C452.199 393.967 453.938 391.518 455.847 389.18C454.854 388.117 453.204 388.006 451.724 388.094Z" fill="#3F3D56"/>
<g opacity="0.1">
<path d="M472.574 347.171L471.649 347.238L471.549 347.312C471.894 347.297 472.238 347.25 472.574 347.171Z" fill="black"/>
<path d="M489.504 362.531C489.35 364.002 489.032 365.451 488.557 366.852C488.251 367.701 488.004 368.569 487.817 369.452C487.669 370.31 487.654 371.183 487.517 372.042C487.184 374.29 485.959 376.309 484.117 377.642C483.858 377.853 483.535 377.971 483.2 377.975C482.623 377.908 482.268 377.235 482.053 376.628C480.876 373.228 481.153 369.081 478.99 366.373C478.004 365.28 476.812 364.393 475.483 363.761C474.941 363.411 474.33 363.182 473.692 363.088C472.754 363.138 471.852 363.468 471.102 364.035C469.541 365.082 467.808 365.849 465.982 366.299C464.137 366.736 462.194 366.318 460.692 365.16C459.671 364.317 458.924 363.051 457.792 362.393C456.66 361.735 455.476 361.771 454.359 361.32C452.945 360.716 451.883 359.502 451.473 358.02C451.447 357.928 451.427 357.834 451.414 357.739C451.229 358.564 451.25 359.423 451.473 360.239C451.883 361.72 452.945 362.935 454.358 363.539C455.475 363.99 456.733 363.998 457.791 364.612C458.849 365.226 459.67 366.536 460.691 367.379C462.193 368.537 464.137 368.955 465.982 368.518C467.808 368.067 469.54 367.301 471.102 366.254C471.852 365.687 472.754 365.357 473.692 365.307C474.33 365.401 474.94 365.63 475.482 365.98C476.794 366.624 477.968 367.519 478.937 368.614C481.105 371.322 480.824 375.473 482 378.869C482.215 379.483 482.57 380.149 483.147 380.216C483.502 380.218 483.846 380.092 484.116 379.861C485.963 378.523 487.189 376.495 487.516 374.238C487.649 373.38 487.664 372.507 487.816 371.648C488.003 370.765 488.25 369.897 488.556 369.048C489.277 367.055 489.611 364.943 489.54 362.825C489.533 362.738 489.518 362.635 489.504 362.531Z" fill="black"/>
</g>
<path opacity="0.1" d="M348.959 543.386C389.728 527.36 411.333 498.851 422.424 476.958C435.357 451.431 437.118 429.604 437.185 428.672L437.685 421.917H442.864L442.364 428.672C442.297 429.589 440.536 451.431 427.603 476.958C416.503 498.852 394.903 527.358 354.138 543.386C350.957 544.644 347.652 545.82 344.223 546.915L343.723 545.339C345.507 544.704 347.252 544.053 348.959 543.386Z" fill="white"/>
<path d="M164.462 387.668C162.753 387.098 152.69 379.137 151.928 375.534C151.166 371.931 157.248 338.361 157.248 338.361C156.753 338.351 156.259 338.314 155.768 338.25V337.71L157.018 293.61C157.018 293.61 162.145 264.01 152.46 265.738C142.775 267.466 148.849 293.61 148.849 293.61C148.849 293.61 147.749 306.884 146.97 310.865C146.23 314.705 142.841 330.347 145.15 335.208C145.235 335.379 145.328 335.546 145.431 335.708C145.431 335.708 145.816 352.393 141.631 354.672C137.643 356.84 135.986 367.753 135.845 368.73L135.63 368.641C134.439 367.896 133.394 366.941 132.545 365.822C132.456 365.711 132.39 365.593 132.308 365.474C135.683 361.666 137.087 356.501 136.102 351.509C135.118 346.517 131.859 342.27 127.291 340.029C127.241 338.615 126.907 337.226 126.307 335.945C124.383 331.831 113.729 326.452 106.159 326.326C102.667 326.226 99.8031 327.214 98.7591 329.944C98.2261 331.328 98.3891 332.904 98.1671 334.344C97.7231 337.304 95.8211 339.62 93.3801 341.462C92.3941 340.361 91.3283 339.335 90.1911 338.391C87.7201 336.497 82.7911 330.252 82.7911 330.252C82.7911 330.252 67.4081 314.322 66.2691 309.952C65.1301 305.582 49.7621 279.372 46.3431 283.937C42.9241 288.502 58.1151 308.398 58.1151 308.398C58.1151 308.398 61.0011 315.627 63.2201 318.068C65.4391 320.509 82.4571 345.222 82.4571 345.222L83.2711 346.909C79.6711 348.803 76.3901 351.215 75.2281 354.974C73.5281 360.508 77.2481 366.074 79.8231 371.252C84.8401 381.359 85.5571 394.252 79.0831 403.482C73.2831 411.636 63.2191 415.513 53.8011 418.902C58.35 422.474 64.0011 424.35 69.7831 424.207C67.6081 430.507 59.8981 432.598 53.3281 433.767C56.7761 437.082 61.7111 438.288 66.4461 439.02C68.7654 439.415 71.1155 439.6 73.4681 439.575H74.0451L74.6221 439.531C75.424 439.479 76.2221 439.379 77.0121 439.231C80.5005 438.649 83.5819 436.624 85.4991 433.652C86.9791 431.07 87.4991 427.552 90.1831 426.252C90.8826 425.936 91.6363 425.758 92.4031 425.727H93.8461L105.041 425.838H106.469C109.628 425.764 113.002 425.217 114.608 422.605C115.269 421.337 115.616 419.929 115.622 418.499C115.859 414.955 115.622 411.307 115.722 407.733C116.676 414.233 117.675 424.373 115.3 428.117C113.371 430.954 111.032 433.49 108.36 435.642C107.688 436.206 107.073 436.836 106.525 437.521C106.162 437.78 105.948 437.921 105.948 437.921L105.719 438.609C104.876 439.888 104.265 441.306 103.914 442.797C103.785 443.18 103.737 443.585 103.773 443.988C104.032 444.513 101.923 446.681 102.537 447.588C97.2691 453.766 96.2701 463.126 96.2701 463.126L86.6511 477.732C81.7081 490.717 74.3091 492.049 74.3091 492.049C74.3091 492.049 56.9291 480.388 56.4551 479.818C55.9811 479.248 49.3371 476.4 49.3371 476.4C48.5537 475.026 47.3579 473.934 45.9191 473.278C43.6401 472.331 43.4481 468.839 43.4481 468.839C43.1671 460.589 38.3201 459.96 38.3201 459.96C35.1645 459.565 31.9634 460.135 29.1381 461.595L28.4381 461.647C25.0791 461.921 21.0381 462.224 16.6001 462.52C4.25108 463.334 1.31408 471.332 1.31408 471.332C0.883986 471.859 0.690937 472.54 0.780716 473.214C0.870496 473.888 1.23511 474.495 1.78808 474.891C3.77808 476.741 16.5191 474.891 17.0601 474.847C16.0892 474.952 15.1074 474.884 14.1601 474.647C16.1651 474.573 18.9251 474.499 21.2781 474.499H21.8481C21.6998 475.746 21.628 477.002 21.6331 478.258C21.6331 480.626 28.1811 482.143 28.1811 482.143L48.1211 499.901C48.1211 499.901 60.6551 505.501 68.6311 513.56C76.6071 521.619 83.6581 514.66 83.6581 514.66C92.1001 512.573 116.391 483.207 116.413 483.177C116.413 484.035 116.924 512.596 117.893 518.33C117.932 518.621 118.004 518.906 118.108 519.181C119.247 521.645 117.723 528.381 117.065 531.219C116.645 533.597 116.484 536.013 116.584 538.426C116.584 538.426 107.476 573.202 108.23 576.257C108.984 579.312 103.295 593.512 103.295 593.512V605.355L104.286 605.303C104.157 605.494 104.039 605.691 103.931 605.895L103.864 606.021C103.864 606.021 109.939 607.345 114.023 606.968C118.107 606.591 125.123 610.113 125.123 610.113C125.123 610.113 127.498 611.238 134.808 611.713C142.118 612.188 142.118 608.487 142.118 608.487C141.282 603.448 129.732 601.761 129.377 601.71C128.445 601.126 127.572 600.489 126.854 599.942L126.706 599.824C126.755 599.713 126.797 599.599 126.832 599.484C128.068 594.453 121.232 592.27 121.232 592.27V591.042C125.671 588.763 126.552 573.121 126.552 573.121C126.552 573.121 133.211 553.78 134.143 550.554C135.075 547.328 134.143 542.497 134.143 542.497L134.809 538.324C135.387 537.232 135.865 536.091 136.237 534.913C136.422 533.469 136.978 532.097 137.85 530.932C138.893 529.696 136.711 526.759 136.711 526.759L138.611 521.831V516.422L143.05 496.8C143.05 496.8 147.704 473.944 146.091 466.464C144.478 458.984 147.991 455.181 147.991 455.181C147.674 455.347 147.348 455.496 147.014 455.625C147.458 454.598 147.842 453.545 148.161 452.473L158.15 453.709V453.857H161.75C161.75 453.857 160.61 439.799 160.61 434.131C160.61 428.463 164.45 408.123 164.45 408.123C164.45 408.123 166.171 388.238 164.462 387.668ZM120.12 371.257C120.12 371.812 120.068 372.389 120.031 372.981L119.831 373.281L119.461 372.97L119.01 373.67L118.877 373.737C117.9 373.237 117.397 370.356 116.694 370.977L116.594 371.058C116.439 370.88 116.283 370.829 116.12 370.977L115.972 371.103V370.444C117.326 370.792 118.718 370.968 120.115 370.969C120.127 371.072 120.119 371.168 120.119 371.257H120.12ZM153.342 436.723H153.557L153.202 437.655C153.245 437.345 153.285 437.042 153.341 436.724L153.342 436.723ZM116.872 604.511L115.511 604.171L116.251 604.045L116.939 604.496L117.02 604.555L116.872 604.511ZM130.782 602.521C130.331 602.284 129.872 602.011 129.428 601.729C129.575 601.811 130.16 602.114 130.785 602.521H130.782Z" fill="url(#paint1_linear_1_109)"/>
<path d="M158.253 422.747L149.293 446.098H151.471L143.041 452.817L158.253 454.711V422.747Z" fill="#F86D70"/>
<path opacity="0.1" d="M158.253 422.747L149.293 446.098L147.036 445.491L143.036 452.816L158.248 454.71L158.253 422.747Z" fill="black"/>
<path d="M144.203 437.683H158.254L163.411 395.25H144.203V437.683Z" fill="#F86D70"/>
<path opacity="0.1" d="M144.203 437.683H158.254L163.411 395.25H144.203V437.683Z" fill="black"/>
<path d="M116.76 405.3L119.794 404.79L126.764 403.606C126.764 403.606 147.696 398.885 152.017 398.501C154.635 398.155 157.188 397.428 159.594 396.341C160.726 395.853 161.444 395.483 161.444 395.483L153.904 381.713L142.204 373.041C142.204 373.041 134.804 371.465 131.675 367.159C130.256 365.276 129.891 362.801 130.706 360.589C132.615 354.67 119.306 366.249 119.306 366.249C119.306 366.249 119.432 369.024 119.306 372.56C119.306 373.26 119.239 373.981 119.188 374.721C119.174 375.216 119.135 375.71 119.07 376.201C118.744 379.716 118.079 383.334 116.762 385.494C113.542 390.776 116.76 405.3 116.76 405.3Z" fill="#FBBEBE"/>
<path opacity="0.1" d="M119.305 372.856H119.605C120.138 372.856 120.567 371.724 121.085 371.672C125.251 371.272 129.054 370.399 131.695 367.447C130.28 365.565 129.915 363.094 130.726 360.884C132.635 354.965 119.326 366.537 119.326 366.537C119.326 366.537 119.46 369.317 119.305 372.856Z" fill="black"/>
<path d="M103.101 356.075C103.099 360.377 104.807 364.504 107.849 367.546C110.891 370.588 115.018 372.296 119.32 372.294C119.849 372.306 120.378 372.282 120.903 372.22C129.613 371.367 136.075 363.757 135.507 355.024C134.938 346.291 127.544 339.584 118.796 339.868C110.049 340.151 103.105 347.323 103.103 356.075H103.101Z" fill="#FBBEBE"/>
<path d="M98.1231 331.458C97.5901 332.834 97.7531 334.373 97.5381 335.831C96.7461 341.092 91.3971 344.244 86.5581 346.449C81.7191 348.654 76.2581 351.266 74.7191 356.349C73.0321 361.849 76.7191 367.359 79.2771 372.516C84.2641 382.564 84.9771 395.379 78.5371 404.569C72.8181 412.708 62.8511 416.569 53.4691 419.959C57.9845 423.511 63.5965 425.379 69.3401 425.242C67.1871 431.509 59.5291 433.588 53.0031 434.742C56.4291 438.042 61.3341 439.242 66.0331 439.966C69.4478 440.64 72.9547 440.705 76.3921 440.158C79.856 439.579 82.9142 437.564 84.8121 434.609C86.2921 432.042 86.7951 428.542 89.4661 427.247C90.6731 426.772 91.9736 426.582 93.2661 426.692L104.366 426.81C107.821 426.81 111.913 426.544 113.696 423.591C114.354 422.33 114.699 420.929 114.702 419.507C115.183 412.226 113.785 404.531 116.781 397.887C117.681 395.882 111.89 392.708 112.497 390.587C114.412 383.876 115.285 376.911 115.087 369.936C115.087 364.054 118.912 358.985 122.072 354.021C125.232 349.057 127.872 342.789 125.379 337.462C122.561 331.518 101.444 322.883 98.1231 331.458Z" fill="#3F3D56"/>
<path d="M112.898 602.381L115.724 604.253L116.161 604.542L116.242 604.594L119.594 606.814L127.422 608.131L134.303 607.657C134.303 607.657 136.286 603.514 133.171 603.61C132.173 603.559 131.201 603.278 130.33 602.789L129.901 602.575C129.45 602.338 129.001 602.075 128.554 601.791C127.629 601.206 126.754 600.57 126.054 600.03C125.018 599.23 124.33 598.624 124.33 598.624L112.898 602.381Z" fill="#FBBEBE"/>
<path opacity="0.1" d="M115.761 604.253L116.198 604.542L116.279 604.594L119.631 606.814L127.459 608.131L134.34 607.658C134.34 607.658 136.323 603.514 133.208 603.611C132.21 603.56 131.238 603.279 130.367 602.79C130.915 603.219 131.373 603.69 131.418 604.077C131.544 605.135 126.327 607.037 126.327 607.037L118.972 605.091C118.972 605.091 117.722 604.736 116.012 604.291L115.849 604.247L115.761 604.253Z" fill="black"/>
<path d="M103.183 606.058C103.183 606.058 109.213 607.375 113.268 606.998C117.323 606.621 124.307 610.113 124.307 610.113C124.307 610.113 126.667 611.223 133.926 611.696C141.185 612.169 141.183 608.485 141.183 608.485C140.354 603.476 128.883 601.826 128.531 601.752C128.994 601.988 129.444 602.25 129.878 602.536C130.692 603.069 131.572 603.764 131.639 604.327C131.765 605.378 126.548 607.286 126.548 607.286L119.193 605.348C119.193 605.348 117.943 604.985 116.233 604.541H116.07C113.536 603.851 110.961 603.319 108.36 602.95C105.193 602.61 103.573 605.303 103.24 605.91C103.216 605.957 103.196 606.007 103.181 606.058H103.183Z" fill="#3F3D56"/>
<path d="M8.13507 473.001L11.3351 475.458C11.3351 475.458 12.2671 475.413 13.6581 475.369H14.1021C16.0921 475.295 18.8371 475.221 21.1681 475.221C22.6747 475.153 24.1844 475.238 25.6741 475.473C27.2741 476.035 30.1131 466.328 30.1131 466.328L26.9021 465.588L25.8371 465.337L25.0971 465.159L22.4851 464.545L14.5681 465.445L9.00407 469.026L8.13507 473.001Z" fill="#FBBEBE"/>
<path opacity="0.1" d="M8.13507 473.001L11.3351 475.458C11.3351 475.458 12.2671 475.413 13.6581 475.369C13.0195 475.123 12.4931 474.652 12.1781 474.045C10.1061 468.296 20.3841 465.84 20.3841 465.84L25.1711 465.633L26.1031 465.589H26.8431L25.7781 465.337L25.0381 465.159L22.4261 464.545L14.5091 465.445L8.94507 469.026L8.13507 473.001Z" fill="black"/>
<path d="M1.81709 475.599C3.75609 477.39 16.4521 475.599 16.9851 475.555C16.0216 475.663 15.0463 475.596 14.1071 475.355C13.1651 475.186 12.3494 474.602 11.8871 473.764C9.81509 468.008 20.0931 465.558 20.0931 465.558L24.8801 465.351L25.8051 465.306L37.4441 464.806L38.0061 461.606C38.0061 461.606 34.2251 461.961 28.2911 462.435C24.9541 462.709 20.8911 463.012 16.5041 463.301C4.24409 464.115 1.32909 472.069 1.32909 472.069C0.909206 472.596 0.723728 473.271 0.815963 473.939C0.908199 474.606 1.27007 475.206 1.81709 475.599Z" fill="#3F3D56"/>
<path d="M144.21 336.718C144.289 336.892 144.383 337.06 144.491 337.218L147.317 341.361L154.672 342.101L154.753 339.186L155.989 295.325C155.989 295.325 161.08 265.906 151.461 267.601C141.842 269.296 147.88 295.325 147.88 295.325C147.88 295.325 146.78 308.525 146.015 312.491C145.268 316.327 141.916 331.909 144.21 336.718Z" fill="#FBBEBE"/>
<path d="M127.703 445.663L129.797 449.244L134.481 457.257C134.481 457.257 142.975 460.372 145.15 457.997C146.341 456.702 147.629 452.181 148.531 448.378C149.271 445.3 149.767 442.703 149.767 442.703L127.703 445.663Z" fill="#FBBEBE"/>
<path opacity="0.1" d="M127.703 445.663L129.797 449.244C129.928 449.131 130.047 449.005 130.152 448.867C132.52 445.848 142.945 448.223 148.531 448.416C149.271 445.338 149.767 442.741 149.767 442.741L127.703 445.663Z" fill="black"/>
<path opacity="0.1" d="M21.1721 475.207C22.6787 475.139 24.1884 475.224 25.6781 475.459C27.2781 476.021 30.1171 466.314 30.1171 466.314L25.8401 465.308L37.4791 464.808L38.0411 461.608C38.0411 461.608 34.2601 461.963 28.3261 462.437C27.1001 463.143 26.0062 464.056 25.0931 465.137L24.9151 465.359C22.7825 468.233 21.487 471.642 21.1721 475.207Z" fill="black"/>
<path opacity="0.1" d="M112.898 602.381L116.161 604.542C121.03 603.661 125.476 602.278 126.002 600.103C126.004 600.07 126.004 600.036 126.002 600.003C124.966 599.203 124.278 598.597 124.278 598.597L112.898 602.381Z" fill="black"/>
<path opacity="0.1" d="M103.249 605.932C107.548 605.718 111.832 605.259 116.079 604.556C113.543 603.86 110.965 603.324 108.362 602.95C105.202 602.61 103.582 605.303 103.249 605.932Z" fill="black"/>
<path d="M21.5271 478.943C21.5271 481.303 28.0271 482.813 28.0271 482.813L47.8341 500.445C47.8341 500.445 60.2791 506.009 68.1961 514.022C76.1131 522.035 83.0961 515.154 83.0961 515.154C91.4861 513.082 115.652 483.849 115.652 483.849C115.652 483.849 116.214 517.233 117.346 519.682C118.478 522.131 116.969 528.827 116.31 531.661C115.895 534.024 115.736 536.425 115.836 538.823C115.836 538.823 106.787 573.428 107.542 576.447C108.297 579.466 102.636 593.613 102.636 593.613V605.4C102.636 605.4 124.796 604.549 126.017 599.555C127.238 594.561 120.46 592.385 120.46 592.385V591.157C124.899 588.893 125.735 573.34 125.735 573.34C125.735 573.34 132.342 554.103 133.282 550.899C134.222 547.695 133.282 542.878 133.282 542.878L133.941 538.735C134.512 537.646 134.985 536.508 135.354 535.335C135.539 533.899 136.092 532.536 136.96 531.377C137.996 530.149 135.828 527.226 135.828 527.226L137.715 522.32V516.948L142.154 497.429C142.154 497.429 146.778 474.699 145.173 467.248C143.568 459.797 147.06 456.031 147.06 456.031C139.491 459.997 135.673 451.17 134.422 447.374C134.104 446.397 133.948 445.746 133.948 445.746C133.948 445.746 123.548 441.913 113.874 442.831C111.909 442.99 109.971 443.401 108.11 444.052C97.3591 447.922 95.6651 463.952 95.6651 463.952L86.1421 478.476C81.2441 491.396 73.8871 492.713 73.8871 492.713C73.8871 492.713 56.6321 481.119 56.1291 480.549C55.6261 479.979 49.0561 477.149 49.0561 477.149C48.2782 475.781 47.0884 474.693 45.6561 474.041C43.3921 473.094 43.2071 469.602 43.2071 469.602C42.9261 461.396 38.1161 460.723 38.1161 460.723C21.4311 459.336 21.5271 476.59 21.5271 478.943Z" fill="#3F3D56"/>
<path d="M117.522 432.84H127.703V401.254H117.522V432.84Z" fill="#F86D70"/>
<path opacity="0.1" d="M117.522 432.84H127.703V401.254H117.522V432.84Z" fill="black"/>
<path opacity="0.1" d="M144.203 336.652C144.201 336.674 144.201 336.697 144.203 336.719C144.282 336.893 144.376 337.061 144.484 337.219L147.31 341.362L154.665 342.102L154.746 339.187C152.452 339.012 147.229 338.383 144.203 336.652Z" fill="black"/>
<path d="M144.491 337.222C144.491 337.222 144.868 353.811 140.718 356.075C136.568 358.339 134.954 370.133 134.954 370.133C134.954 370.133 147.532 378.405 150.337 382.045C153.142 385.685 159.578 394.357 158.254 396.429C156.93 398.501 161.465 407.934 161.465 407.934C161.465 407.934 153.165 424.907 155.05 431.322C156.935 437.737 157.122 454.703 157.122 454.703H160.714C160.714 454.703 159.582 440.748 159.582 435.088C159.582 429.428 163.348 409.251 163.348 409.251C163.348 409.251 165.048 389.451 163.348 388.889C161.648 388.327 151.658 380.402 150.903 376.814C150.148 373.226 156.186 339.814 156.186 339.814C156.186 339.814 148.45 339.486 144.491 337.222Z" fill="#F86D70"/>
<path opacity="0.1" d="M117.33 398.323C117.674 400.631 118.515 402.838 119.794 404.79L126.764 403.606C126.764 403.606 147.696 398.885 152.017 398.501C154.635 398.155 157.188 397.428 159.594 396.341C157.936 390.464 154.698 385.154 150.234 380.988L147.578 378.524C143.664 374.89 139.128 371.99 134.186 369.963C134.497 370.222 156.457 388.971 151.648 392.648C146.839 396.325 133.89 387.373 133.89 387.373L119.166 374.721L118.633 374.262L117.782 375.586C118.215 375.764 118.637 375.967 119.047 376.193C124.067 378.946 127.793 383.575 129.41 389.067C132.431 399.241 117.33 398.323 117.33 398.323Z" fill="black"/>
<path d="M112.802 445.47C112.802 445.47 126.757 453.202 130.145 448.87C130.885 447.916 132.445 447.501 134.392 447.39C134.074 446.413 133.918 445.762 133.918 445.762C133.918 445.762 123.518 441.929 113.844 442.847C113.209 444.441 112.802 445.47 112.802 445.47Z" fill="#444053"/>
<path d="M119.224 374.276L134.481 387.402C134.481 387.402 147.381 396.384 152.239 392.678C157.097 388.972 134.77 369.985 134.77 369.985C139.701 372.018 144.233 374.91 148.155 378.525L150.811 380.989C157.796 387.463 159.372 387.463 159.611 396.978C159.67 399.324 158.871 402.69 158.257 403.297C155.993 405.517 154.409 421.639 154.757 423.526C155.105 425.413 150.54 441.698 152.019 446.226C153.498 450.754 133.519 443.962 130.14 448.305C126.761 452.648 112.804 444.905 112.804 444.905C112.804 444.905 120.536 425.098 122.423 423.781C124.31 422.464 126.574 412.276 122.423 407.562C120.03 405.002 118.455 401.785 117.902 398.325C117.902 398.325 132.996 399.257 129.97 389.084C128.248 383.117 124.013 378.196 118.37 375.603L119.224 374.276Z" fill="#E8E8F0"/>
<path opacity="0.1" d="M139.586 407.661C139.586 407.661 133.733 418.693 126.164 421.561C125.92 421.65 125.683 421.731 125.424 421.805C117.522 424.205 140.178 411.081 139.586 407.661Z" fill="black"/>
<path d="M57.7381 310.06C57.7381 310.06 60.5641 317.23 62.8281 319.679C65.0921 322.128 81.8731 346.648 81.8731 346.648L83.2941 349.608L84.5151 352.131L95.2661 350.999L96.0061 346.663L95.5921 346.163C93.7754 343.899 91.7681 341.795 89.5921 339.874C87.1431 337.995 82.2371 331.774 82.2371 331.774C82.2371 331.774 66.9651 315.925 65.8371 311.589C64.7091 307.253 49.4261 281.253 46.0371 285.752C42.6481 290.251 57.7381 310.06 57.7381 310.06Z" fill="#FBBEBE"/>
<g opacity="0.1">
<path d="M88.9321 426.691C87.6402 426.578 86.3398 426.766 85.1321 427.238C82.4681 428.533 81.9651 432.033 80.4851 434.6C78.5857 437.557 75.5246 439.572 72.0581 440.149C71.3831 440.28 70.7014 440.374 70.0161 440.43C72.1792 440.64 74.3613 440.546 76.4981 440.149C79.9658 439.574 83.0284 437.559 84.9291 434.602C86.4091 432.034 86.9121 428.535 89.5761 427.24C90.2756 426.925 91.0295 426.749 91.7961 426.722L88.9321 426.691Z" fill="black"/>
<path d="M115.213 369.935C115.213 364.053 119.038 358.984 122.19 354.02C125.342 349.056 127.99 342.788 125.497 337.461C123.366 332.911 110.521 326.806 103.108 328.012C110.366 328.952 119.308 333.731 121.058 337.461C123.552 342.788 120.903 349.055 117.751 354.02C114.599 358.985 110.759 364.053 110.774 369.935C110.956 376.91 110.079 383.873 108.174 390.586C107.574 392.695 113.353 395.886 112.465 397.886C109.465 404.545 110.865 412.225 110.386 419.506C110.376 420.928 110.028 422.328 109.372 423.59C107.892 426.024 104.859 426.653 101.906 426.79H104.488C107.936 426.79 112.028 426.524 113.811 423.571C114.467 422.309 114.815 420.909 114.825 419.487C115.306 412.206 113.9 404.519 116.904 397.867C117.804 395.867 112.013 392.688 112.613 390.567C114.529 383.863 115.405 376.905 115.213 369.935Z" fill="black"/>
</g>
<path opacity="0.1" d="M83.2941 349.593L84.5151 352.116L95.2661 350.984L96.0061 346.648L95.5921 346.148C94.4441 346.705 85.8541 350.843 83.2941 349.593Z" fill="black"/>
<path opacity="0.1" d="M122.99 377.953C122.99 377.953 120.349 373.81 118.839 374.934C117.329 376.058 116.745 371.534 115.879 372.293C115.013 373.052 112.49 375.149 111.44 372.212C110.619 369.874 101.681 355.083 98.0551 349.134C97.1231 347.595 96.5381 346.648 96.5381 346.648C96.5381 346.648 86.3571 351.739 83.9081 350.048V353.628L85.9801 353.82L97.0801 374.537C97.0801 374.537 100.572 380.094 100.336 382.037C100.1 383.98 104.812 392.462 105.567 393.025C106.322 393.588 114.446 403.025 114.446 403.025C114.446 403.025 118.597 423.394 115.008 429.055C111.419 434.716 105.208 438.855 105.208 438.855C105.208 438.855 103.336 444.323 103.608 444.893C103.88 445.463 101.433 447.912 102.565 448.666C103.697 449.42 105.206 454.696 105.206 454.696C105.206 454.696 110.489 446.209 113.345 444.896C116.201 443.583 119.856 426.221 119.856 426.221C119.856 426.221 120.899 415.996 120.981 409.396C121.063 402.796 120.726 377.953 122.99 377.953Z" fill="black"/>
<path d="M122.421 377.953C122.421 377.953 119.787 373.81 118.278 374.934C116.769 376.058 116.178 371.534 115.318 372.293C114.458 373.052 111.937 375.149 110.879 372.212C110.05 369.874 101.112 355.083 97.4941 349.134L95.9771 346.648C95.9771 346.648 85.7961 351.739 83.3391 350.048V353.628L85.4181 353.82L96.5181 374.537C96.5181 374.537 100.018 380.094 99.7741 382.037C99.5301 383.98 104.213 392.462 105.005 393.025C105.797 393.588 113.884 403.025 113.884 403.025C113.884 403.025 118.035 423.394 114.454 429.055C112.562 431.898 110.261 434.446 107.625 436.617C105.411 438.441 103.852 440.938 103.183 443.728C103.055 444.108 103.009 444.512 103.05 444.912C103.324 445.474 100.875 447.931 102.007 448.685C103.139 449.439 104.663 454.737 104.663 454.737C104.663 454.737 109.946 446.25 112.802 444.937C115.658 443.624 119.321 426.262 119.321 426.262C119.321 426.262 120.359 416.028 120.445 409.428C120.531 402.828 120.201 377.953 122.421 377.953Z" fill="#F86D70"/>
<path opacity="0.1" d="M96.5831 463.768C96.5831 463.768 104.507 465.248 107.683 467.534C110.859 469.82 95.6141 463.958 95.6141 463.958L96.5831 463.768Z" fill="black"/>
<path opacity="0.1" d="M115.635 483.848C115.635 483.848 123.9 490.736 122.42 496.959C120.94 503.182 117.12 518.838 117.12 518.838L115.635 483.848Z" fill="black"/>
<path opacity="0.1" d="M43.3551 470.604C43.3551 470.604 31.7091 471.877 32.4641 473.386C33.2191 474.895 43.3551 471.995 43.3551 471.995V470.604Z" fill="black"/>
<path opacity="0.1" d="M132.779 527.887C132.779 527.887 133.519 528.827 129.198 527.887C124.877 526.947 128.066 524.047 128.066 524.047L132.779 527.887Z" fill="black"/>
<path opacity="0.1" d="M131.299 540.902C131.299 540.902 125.38 541.842 122.206 540.902C119.032 539.962 131.299 540.902 131.299 540.902Z" fill="black"/>
<path opacity="0.1" d="M119.12 591.822C119.12 591.822 118.084 590.69 112.897 592.762C107.71 594.834 105.639 594.93 104.129 594.242C102.619 593.554 119.12 591.822 119.12 591.822Z" fill="black"/>
<path opacity="0.1" d="M124.877 468.999L117.522 479.232C117.522 479.232 121.481 470.272 124.877 468.999Z" fill="black"/>
<path opacity="0.1" d="M110.581 374.935C110.581 374.935 110.263 378.335 105.52 379.656C100.777 380.977 99.8751 382.056 99.8751 382.056" fill="black"/>
<path opacity="0.1" d="M98.2551 350.318C98.2551 350.318 91.9951 354.757 85.4621 353.818Z" fill="black"/>
<path opacity="0.1" d="M103.02 445.374C103.02 445.374 104.848 446.521 109.235 441.504Z" fill="black"/>
<path opacity="0.1" d="M148.59 392.182C148.62 391.238 148.233 390.329 147.532 389.696L146.304 388.216C146.064 387.913 145.794 387.635 145.497 387.387C144.757 386.817 143.81 386.647 143.041 386.137" fill="black"/>
<path d="M507.242 656.661C523.673 656.661 536.993 654.408 536.993 651.63C536.993 648.851 523.673 646.599 507.242 646.599C490.811 646.599 477.491 648.851 477.491 651.63C477.491 654.408 490.811 656.661 507.242 656.661Z" fill="#ED1D55"/>
<path d="M519.547 643.403C520.905 642.296 521.894 640.802 522.381 639.119C522.825 637.381 522.001 635.568 520.399 634.761C518.579 634.061 516.633 635.331 515.161 636.603C513.689 637.875 511.994 639.333 510.07 639.059C512.088 637.228 512.998 634.473 512.47 631.8C512.386 631.255 512.156 630.744 511.804 630.32C510.79 629.24 508.963 629.698 507.749 630.549C503.901 633.257 502.829 638.488 502.806 643.187C502.421 641.493 502.747 639.724 502.739 638.008C502.731 636.292 502.251 634.308 500.778 633.398C499.87 632.908 498.849 632.666 497.818 632.698C496.094 632.631 494.163 632.809 492.986 634.074C491.506 635.643 491.898 638.274 493.171 639.993C494.444 641.712 496.389 642.812 498.18 644.003C499.613 644.857 500.834 646.023 501.754 647.414C501.865 647.608 501.954 647.814 502.02 648.028H512.867C515.292 646.795 517.539 645.239 519.547 643.403Z" fill="#ED1D55"/>
<path d="M178.905 431.142C183.244 426.22 186.163 421.702 185.425 421.051C184.687 420.4 180.571 423.863 176.232 428.785C171.893 433.707 168.974 438.224 169.712 438.875C170.451 439.526 174.567 436.064 178.905 431.142Z" fill="#E0E0E0"/>
<path d="M302.771 540.419C307.11 535.497 310.221 531.149 309.719 530.706C309.217 530.264 305.293 533.895 300.954 538.817C296.615 543.739 293.504 548.088 294.006 548.53C294.508 548.973 298.432 545.341 302.771 540.419Z" fill="#E0E0E0"/>
<path d="M233.677 491.131L229.544 485.324L210.186 499.103L214.32 504.91L233.677 491.131Z" fill="#F55F44"/>
<path opacity="0.05" d="M216.346 506.968L223.413 510.763L234.655 489.83L227.589 486.035L216.346 506.968Z" fill="#ED1D55"/>
<path d="M217.133 507.39L223.413 510.763L234.655 489.83L228.376 486.457L217.133 507.39Z" fill="#ED1D55"/>
<path d="M185.818 420.604L169.319 439.32L293.641 548.916L310.14 530.201L185.818 420.604Z" fill="url(#paint2_linear_1_109)"/>
<path d="M294.034 548.471C291.587 546.373 167.929 437.303 169.712 438.874C180.869 428.913 185.424 421.05 185.424 421.05L309.746 530.647C309.746 530.647 302.341 538.132 294.034 548.471Z" fill="#F5F5F5"/>
<path opacity="0.05" d="M250.035 478.01L239.786 468.975L224.074 486.799L234.323 495.834L250.035 478.01Z" fill="black"/>
<path d="M249.59 477.618L240.233 469.368L224.52 487.192L233.878 495.441L249.59 477.618Z" fill="#F55F44"/>
<path opacity="0.05" d="M247.808 476.046L241.569 470.547L225.857 488.371L232.095 493.87L247.808 476.046Z" fill="black"/>
<path d="M247.362 475.653L242.015 470.94L226.302 488.763L231.649 493.477L247.362 475.653Z" fill="#ED1D55"/>
<path d="M228.662 468.339L217.659 478.004C217.659 478.004 217.031 490.806 274.993 505.996C332.956 521.186 340.603 510.967 340.603 510.967L334.019 492.382L307.044 460.966L228.662 468.339Z" fill="#B40031"/>
<path d="M407.286 469.442L292.102 487.277L178.73 408.163L307.853 386.705L357.367 427.904L359.145 429.383L407.286 469.442Z" fill="#B40031"/>
<path d="M351.557 466.178L349.564 465.77L357.367 427.904L359.145 429.383L351.557 466.178Z" fill="#F5F5F5"/>
<path d="M241.718 424.875L217.658 478.007C217.658 478.007 289.079 474.376 340.602 510.97L347.881 449.835C347.881 449.835 273.584 419.75 241.718 424.875Z" fill="#ED1D55"/>
<path d="M348.355 477.475C353.592 478.879 358.622 477.089 359.59 473.477C360.559 469.865 357.098 465.799 351.862 464.395C346.625 462.991 341.594 464.781 340.626 468.393C339.657 472.004 343.118 476.071 348.355 477.475Z" fill="#F5F5F5"/>
<defs>
<linearGradient id="paint0_linear_1_109" x1="486.726" y1="611.162" x2="486.726" y2="313.447" gradientUnits="userSpaceOnUse">
<stop stop-color="#808080" stop-opacity="0.251"/>
<stop offset="0.54" stop-color="#808080" stop-opacity="0.122"/>
<stop offset="1" stop-color="#808080" stop-opacity="0.102"/>
</linearGradient>
<linearGradient id="paint1_linear_1_109" x1="0.759155" y1="438.71" x2="165.219" y2="438.71" gradientUnits="userSpaceOnUse">
<stop stop-color="#808080" stop-opacity="0.251"/>
<stop offset="0.54" stop-color="#808080" stop-opacity="0.122"/>
<stop offset="1" stop-color="#808080" stop-opacity="0.102"/>
</linearGradient>
<linearGradient id="paint2_linear_1_109" x1="607.665" y1="1216.24" x2="588.892" y2="1199.69" gradientUnits="userSpaceOnUse">
<stop stop-color="#808080" stop-opacity="0.251"/>
<stop offset="0.535" stop-color="#808080" stop-opacity="0.122"/>
<stop offset="1" stop-color="#808080" stop-opacity="0.102"/>
</linearGradient>
</defs>
</svg>
