<svg width="391" height="164" viewBox="0 0 391 164" fill="none" xmlns="http://www.w3.org/2000/svg">
<g opacity="0.5">
<path d="M77.8242 36.7981V40.0571H96.2912V36.7981H77.8242Z" fill="#47E6B1"/>
<path d="M88.6872 29.1941H85.4282V47.6611H88.6872V29.1941Z" fill="#47E6B1"/>
</g>
<path opacity="0.5" d="M193.802 101.536C193.802 97.9359 190.884 95.0178 187.284 95.0178C183.684 95.0178 180.766 97.9359 180.766 101.536C180.766 105.135 183.684 108.054 187.284 108.054C190.884 108.054 193.802 105.135 193.802 101.536Z" fill="#F55F44"/>
<path opacity="0.5" d="M277.389 2.13998C276.579 3.99883 274.504 4.95532 272.565 4.36398C272.421 4.31764 272.273 4.28846 272.122 4.277C271.237 4.21807 270.419 4.74879 270.112 5.58084C269.806 6.41288 270.084 7.34754 270.795 7.87698C270.917 7.96578 271.049 8.03996 271.188 8.09799C273.047 8.90784 274.003 10.9826 273.412 12.922C273.365 13.0657 273.336 13.2144 273.325 13.365C273.266 14.2498 273.797 15.0678 274.629 15.3745C275.461 15.6812 276.395 15.4034 276.925 14.692C277.014 14.5701 277.088 14.4383 277.146 14.299C277.956 12.4402 280.03 11.4837 281.97 12.075C282.113 12.1213 282.263 12.1505 282.413 12.162C283.298 12.2209 284.116 11.6902 284.422 10.8582C284.729 10.0261 284.451 9.09148 283.74 8.56204C283.618 8.47283 283.486 8.39826 283.347 8.33999C281.488 7.53014 280.532 5.45548 281.123 3.51602C281.169 3.37228 281.198 3.22359 281.21 3.07302C281.269 2.18821 280.738 1.3702 279.906 1.0635C279.074 0.756803 278.139 1.03462 277.61 1.746C277.521 1.86818 277.447 2.00041 277.389 2.13998Z" fill="#4D8AF0"/>
<path opacity="0.5" d="M8.38869 150.14C7.57884 151.999 5.50441 152.955 3.56495 152.364C3.42122 152.318 3.27266 152.288 3.12208 152.277C2.23727 152.218 1.41902 152.749 1.11232 153.581C0.805616 154.413 1.08356 155.348 1.79494 155.877C1.91684 155.966 2.0488 156.04 2.188 156.098C4.04685 156.908 5.00297 158.983 4.41163 160.922C4.36527 161.066 4.33616 161.214 4.32472 161.365C4.26579 162.25 4.79688 163.068 5.62892 163.374C6.46097 163.681 7.39538 163.403 7.92482 162.692C8.01371 162.57 8.08808 162.438 8.14601 162.299C8.95586 160.44 11.0303 159.484 12.9697 160.075C13.1135 160.121 13.2625 160.151 13.4131 160.162C14.2979 160.221 15.1157 159.69 15.4224 158.858C15.7291 158.026 15.4511 157.091 14.7398 156.562C14.6179 156.473 14.486 156.398 14.3467 156.34C12.4878 155.53 11.5317 153.455 12.1231 151.516C12.1693 151.372 12.1985 151.224 12.21 151.073C12.2689 150.188 11.7383 149.37 10.9063 149.064C10.0742 148.757 9.13932 149.035 8.60988 149.746C8.52097 149.868 8.4466 150 8.38869 150.14Z" fill="#4D8AF0"/>
<path opacity="0.5" d="M390.079 81.9234C390.079 78.3236 387.161 75.4054 383.561 75.4054C379.961 75.4054 377.043 78.3236 377.043 81.9234C377.043 85.5232 379.961 88.4414 383.561 88.4414C387.161 88.4414 390.079 85.5232 390.079 81.9234Z" fill="#4D8AF0"/>
</svg>
