<svg width="801" height="82" viewBox="0 0 801 82" fill="none" xmlns="http://www.w3.org/2000/svg">
<path opacity="0.5" d="M6.90521 13.822C10.505 13.822 13.4232 10.9037 13.4232 7.30396C13.4232 3.70416 10.505 0.785889 6.90521 0.785889C3.30542 0.785889 0.387207 3.70416 0.387207 7.30396C0.387207 10.9037 3.30542 13.822 6.90521 13.822Z" fill="#F55F44"/>
<path opacity="0.5" d="M793.905 81.822C797.505 81.822 800.423 78.9037 800.423 75.304C800.423 71.7042 797.505 68.7859 793.905 68.7859C790.305 68.7859 787.387 71.7042 787.387 75.304C787.387 78.9037 790.305 81.822 793.905 81.822Z" fill="#F55F44"/>
<g opacity="0.5">
<path d="M195.642 37.8455H192.383V56.3125H195.642V37.8455Z" fill="#47E6B1"/>
<path d="M203.246 48.7085V45.4495H184.779V48.7085H203.246Z" fill="#47E6B1"/>
</g>
<g opacity="0.5">
<path d="M492.642 43.8455H489.383V62.3125H492.642V43.8455Z" fill="#47E6B1"/>
<path d="M500.246 54.7085V51.4495H481.779V54.7085H500.246Z" fill="#47E6B1"/>
</g>
<path opacity="0.5" d="M422.3 21.3875C420.441 20.5776 419.485 18.5027 420.076 16.5632C420.122 16.4195 420.152 16.271 420.163 16.1204C420.222 15.2356 419.691 14.4173 418.859 14.1106C418.027 13.8039 417.092 14.0818 416.563 14.7932C416.474 14.9151 416.4 15.0471 416.342 15.1863C415.532 17.0451 413.457 18.0018 411.518 17.4104C411.374 17.3641 411.226 17.3349 411.075 17.3235C410.19 17.2646 409.372 17.7952 409.065 18.6272C408.759 19.4593 409.037 20.3937 409.748 20.9231C409.87 21.012 410.002 21.0864 410.141 21.1443C412 21.9542 412.956 24.0291 412.365 25.9685C412.319 26.1123 412.289 26.2608 412.278 26.4114C412.219 27.2962 412.75 28.114 413.582 28.4207C414.414 28.7274 415.349 28.4499 415.878 27.7385C415.967 27.6167 416.042 27.4848 416.1 27.3455C416.91 25.4866 418.985 24.53 420.924 25.1214C421.068 25.1676 421.216 25.1968 421.367 25.2083C422.252 25.2672 423.07 24.7366 423.376 23.9046C423.683 23.0725 423.405 22.1376 422.694 21.6082C422.572 21.5193 422.44 21.4454 422.3 21.3875Z" fill="#4D8AF0"/>
</svg>
