<svg width="431" height="91" viewBox="0 0 431 91" fill="none" xmlns="http://www.w3.org/2000/svg">
<g opacity="0.5" filter="url(#filter0_d_8802_339)">
<path d="M15.6421 13.8457H12.3831V32.3127H15.6421V13.8457Z" fill="#47E6B1"/>
<path d="M23.2461 24.7087V21.4497H4.77905V24.7087H23.2461Z" fill="#47E6B1"/>
<path d="M419.905 13.8223C423.505 13.8223 426.423 10.904 426.423 7.3042C426.423 3.70441 423.505 0.786133 419.905 0.786133C416.305 0.786133 413.387 3.70441 413.387 7.3042C413.387 10.904 416.305 13.8223 419.905 13.8223Z" fill="#F55F44"/>
<path d="M157.3 75.3877C155.441 74.5779 154.485 72.503 155.076 70.5635C155.122 70.4198 155.151 70.2712 155.163 70.1206C155.222 69.2358 154.691 68.4176 153.859 68.1109C153.027 67.8042 152.092 68.0821 151.563 68.7935C151.474 68.9154 151.4 69.0473 151.342 69.1865C150.532 71.0454 148.457 72.002 146.518 71.4107C146.374 71.3643 146.225 71.3352 146.075 71.3237C145.19 71.2648 144.372 71.7954 144.065 72.6275C143.759 73.4595 144.037 74.3939 144.748 74.9234C144.87 75.0122 145.002 75.0866 145.141 75.1445C147 75.9544 147.956 78.0293 147.365 79.9688C147.319 80.1125 147.289 80.2611 147.278 80.4116C147.219 81.2964 147.75 82.1142 148.582 82.4209C149.414 82.7276 150.349 82.4502 150.878 81.7388C150.967 81.617 151.042 81.485 151.1 81.3457C151.91 79.4869 153.984 78.5303 155.924 79.1216C156.068 79.1679 156.216 79.197 156.367 79.2085C157.252 79.2674 158.07 78.7368 158.376 77.9048C158.683 77.0728 158.405 76.1379 157.694 75.6084C157.572 75.5195 157.44 75.4456 157.3 75.3877Z" fill="#4D8AF0"/>
</g>
<defs>
<filter id="filter0_d_8802_339" x="0.779053" y="0.786133" width="429.644" height="89.7584" filterUnits="userSpaceOnUse" color-interpolation-filters="sRGB">
<feFlood flood-opacity="0" result="BackgroundImageFix"/>
<feColorMatrix in="SourceAlpha" values="0 0 0 0 0 0 0 0 0 0 0 0 0 0 0 0 0 0 127 0" result="hardAlpha"/>
<feOffset dy="4"/>
<feGaussianBlur stdDeviation="2"/>
<feComposite in2="hardAlpha" operator="out"/>
<feColorMatrix values="0 0 0 0 0 0 0 0 0 0 0 0 0 0 0 0 0 0 0.25 0"/>
<feBlend in2="BackgroundImageFix" result="effect1_dropShadow_8802_339"/>
<feBlend in="SourceGraphic" in2="effect1_dropShadow_8802_339" result="shape"/>
</filter>
</defs>
</svg>
