<svg width="1022" height="92" viewBox="0 0 1022 92" fill="none" xmlns="http://www.w3.org/2000/svg">
<g opacity="0.5">
<path d="M850.642 9.8457H847.383V28.3127H850.642V9.8457Z" fill="#47E6B1"/>
<path d="M858.246 20.7087V17.4497H839.779V20.7087H858.246Z" fill="#47E6B1"/>
<path d="M247.642 0.845703H244.383V19.3127H247.642V0.845703Z" fill="#47E6B1"/>
<path d="M255.246 11.7087V8.4497H236.779V11.7087H255.246Z" fill="#47E6B1"/>
<path d="M499.905 51.8223C503.505 51.8223 506.423 48.904 506.423 45.3042C506.423 41.7044 503.505 38.7861 499.905 38.7861C496.305 38.7861 493.387 41.7044 493.387 45.3042C493.387 48.904 496.305 51.8223 499.905 51.8223Z" fill="#F55F44"/>
<path d="M14.3 81.3877C12.4411 80.5779 11.4846 78.503 12.076 76.5635C12.1223 76.4198 12.1515 76.2712 12.1629 76.1206C12.2219 75.2358 11.6912 74.4176 10.8591 74.1109C10.0271 73.8042 9.0924 74.0821 8.56296 74.7935C8.47416 74.9154 8.39998 75.0473 8.34196 75.1865C7.5321 77.0454 5.45738 78.002 3.51792 77.4107C3.3742 77.3643 3.22551 77.3352 3.07493 77.3237C2.19011 77.2648 1.37217 77.7954 1.06547 78.6275C0.758764 79.4595 1.03658 80.3939 1.74796 80.9234C1.8698 81.0122 2.00172 81.0866 2.14097 81.1445C3.99982 81.9544 4.95631 84.0293 4.36497 85.9688C4.31867 86.1125 4.28943 86.2611 4.27793 86.4116C4.219 87.2964 4.74978 88.1142 5.58182 88.4209C6.41387 88.7276 7.34853 88.4502 7.87797 87.7388C7.96718 87.617 8.04168 87.485 8.09995 87.3457C8.9098 85.4869 10.9845 84.5303 12.9239 85.1216C13.0677 85.1679 13.2163 85.197 13.3669 85.2085C14.2517 85.2674 15.0697 84.7368 15.3764 83.9048C15.6831 83.0728 15.4053 82.1379 14.6939 81.6084C14.5718 81.5195 14.4395 81.4456 14.3 81.3877Z" fill="#4D8AF0"/>
<path d="M1020.3 70.3877C1018.44 69.5779 1017.48 67.503 1018.08 65.5635C1018.12 65.4198 1018.15 65.2712 1018.16 65.1206C1018.22 64.2358 1017.69 63.4176 1016.86 63.1109C1016.03 62.8042 1015.09 63.0821 1014.56 63.7935C1014.47 63.9154 1014.4 64.0473 1014.34 64.1865C1013.53 66.0454 1011.46 67.002 1009.52 66.4107C1009.37 66.3643 1009.23 66.3352 1009.08 66.3237C1008.19 66.2648 1007.37 66.7954 1007.07 67.6275C1006.76 68.4595 1007.04 69.3939 1007.75 69.9234C1007.87 70.0122 1008 70.0866 1008.14 70.1445C1010 70.9544 1010.96 73.0293 1010.36 74.9688C1010.32 75.1125 1010.29 75.2611 1010.28 75.4116C1010.22 76.2964 1010.75 77.1142 1011.58 77.4209C1012.41 77.7276 1013.35 77.4502 1013.88 76.7388C1013.97 76.617 1014.04 76.485 1014.1 76.3457C1014.91 74.4869 1016.98 73.5303 1018.92 74.1216C1019.07 74.1679 1019.22 74.197 1019.37 74.2085C1020.25 74.2674 1021.07 73.7368 1021.38 72.9048C1021.68 72.0728 1021.41 71.1379 1020.69 70.6084C1020.57 70.5195 1020.44 70.4456 1020.3 70.3877Z" fill="#4D8AF0"/>
<path d="M657.844 91.7524C659.599 91.7524 661.022 90.3299 661.022 88.5747C661.022 86.8195 659.599 85.3965 657.844 85.3965C656.089 85.3965 654.666 86.8195 654.666 88.5747C654.666 90.3299 656.089 91.7524 657.844 91.7524Z" fill="#DBDBDB"/>
</g>
</svg>
