<svg width="40" height="40" viewBox="0 0 40 40" fill="none" xmlns="http://www.w3.org/2000/svg">
<mask id="mask0_105_1851" style="mask-type:alpha" maskUnits="userSpaceOnUse" x="0" y="0" width="40" height="40">
<path d="M20 40C31.0457 40 40 31.0457 40 20C40 8.9543 31.0457 0 20 0C8.9543 0 0 8.9543 0 20C0 31.0457 8.9543 40 20 40Z" fill="white"/>
</mask>
<g mask="url(#mask0_105_1851)">
<path d="M24.4819 14.2847V16.4057L29.8609 21.7847L24.4819 27.1637V29.2847L31.9819 21.7847L24.4819 14.2847Z" fill="#3D3691"/>
<path d="M15.4819 29.2847V27.1637L10.1029 21.7847L15.4819 16.4057V14.2847L7.98193 21.7847L15.4819 29.2847Z" fill="#3D3691"/>
<path d="M15.574 33.3311L22.9515 9.79206L24.3825 10.2406L17.005 33.7796L15.574 33.3311Z" fill="#3D3691"/>
<path d="M17.7319 14.2847C18.1743 13.2798 18.9771 12.4771 19.9819 12.0347C18.9771 11.5923 18.1743 10.7895 17.7319 9.78467C17.2895 10.7895 16.4868 11.5923 15.4819 12.0347C16.4868 12.4771 17.2895 13.2798 17.7319 14.2847Z" fill="#3D3691"/>
<path d="M21.65 8.57871C21.8862 8.04298 22.3142 7.61495 22.85 7.37871C22.3142 7.14247 21.8862 6.71444 21.65 6.17871C21.4137 6.71444 20.9857 7.14247 20.45 7.37871C20.9857 7.61495 21.4137 8.04298 21.65 8.57871Z" fill="#3D3691"/>
<path d="M28.9819 14.2847C29.2769 13.6148 29.812 13.0796 30.4819 12.7847C29.812 12.4897 29.2769 11.9546 28.9819 11.2847C28.687 11.9546 28.1518 12.4897 27.4819 12.7847C28.1518 13.0796 28.687 13.6148 28.9819 14.2847Z" fill="#3D3691"/>
<path d="M20.001 39.2315C30.622 39.2315 39.232 30.6215 39.232 20.0005C39.232 9.37954 30.622 0.769531 20.001 0.769531C9.38003 0.769531 0.77002 9.37954 0.77002 20.0005C0.77002 30.6215 9.38003 39.2315 20.001 39.2315Z" stroke="#3D3691" stroke-width="1.538"/>
</g>
</svg>
