<svg width="816" height="243" viewBox="0 0 816 243" fill="none" xmlns="http://www.w3.org/2000/svg">
<path d="M276.523 179.742C278.278 179.742 279.701 178.319 279.701 176.564C279.701 174.809 278.278 173.386 276.523 173.386C274.768 173.386 273.345 174.809 273.345 176.564C273.345 178.319 274.768 179.742 276.523 179.742Z" fill="#DBDBDB"/>
<path d="M11.1848 22.583H7.92578V41.05H11.1848V22.583Z" fill="#47E6B1"/>
<path d="M18.467 33.434V30.175H0V33.434H18.467Z" fill="#47E6B1"/>
<path d="M561.643 40.8469H558.384V59.3139H561.643V40.8469Z" fill="#47E6B1"/>
<path d="M568.925 51.698V48.439H550.458V51.698H568.925Z" fill="#47E6B1"/>
<path opacity="0.5" d="M411.979 235.4C410.12 234.59 409.164 232.516 409.755 230.576C409.801 230.432 409.83 230.284 409.842 230.133C409.901 229.248 409.37 228.43 408.538 228.124C407.706 227.817 406.771 228.095 406.242 228.806C406.153 228.928 406.079 229.06 406.021 229.199C405.211 231.058 403.136 232.014 401.197 231.423C401.053 231.377 400.905 231.347 400.754 231.336C399.869 231.277 399.051 231.808 398.744 232.64C398.438 233.472 398.716 234.407 399.427 234.936C399.549 235.025 399.681 235.099 399.82 235.157C401.679 235.967 402.635 238.042 402.044 239.981C401.998 240.125 401.968 240.273 401.957 240.424C401.898 241.309 402.429 242.127 403.261 242.434C404.093 242.74 405.028 242.462 405.557 241.751C405.646 241.629 405.721 241.497 405.779 241.358C406.589 239.499 408.663 238.543 410.603 239.134C410.747 239.18 410.895 239.209 411.046 239.221C411.931 239.28 412.749 238.749 413.055 237.917C413.362 237.085 413.084 236.15 412.373 235.621C412.251 235.532 412.119 235.458 411.979 235.4Z" fill="#4D8AF0"/>
<path opacity="0.5" d="M744.979 7.40006C743.12 6.59021 742.164 4.51555 742.755 2.57609C742.801 2.43236 742.83 2.28364 742.842 2.13307C742.901 1.24825 742.37 0.430273 741.538 0.123571C740.706 -0.183131 739.771 0.0946864 739.242 0.806066C739.153 0.927962 739.079 1.05987 739.021 1.19907C738.211 3.05793 736.136 4.01442 734.197 3.42307C734.053 3.37672 733.904 3.34751 733.754 3.33607C732.869 3.27713 732.051 3.80788 731.744 4.63993C731.438 5.47198 731.716 6.40663 732.427 6.93607C732.549 7.02497 732.681 7.09916 732.82 7.15708C734.679 7.96693 735.635 10.0416 735.044 11.981C734.998 12.1248 734.968 12.2735 734.957 12.424C734.898 13.3089 735.429 14.1268 736.261 14.4335C737.093 14.7402 738.027 14.4624 738.557 13.751C738.646 13.6292 738.721 13.4973 738.779 13.358C739.589 11.4992 741.663 10.5427 743.603 11.134C743.747 11.1803 743.895 11.2095 744.046 11.221C744.931 11.28 745.749 10.7492 746.055 9.91721C746.362 9.08517 746.084 8.15051 745.373 7.62107C745.251 7.53217 745.118 7.45798 744.979 7.40006Z" fill="#4D8AF0"/>
<path opacity="0.5" d="M808.583 107.811C812.183 107.811 815.101 104.893 815.101 101.293C815.101 97.6933 812.183 94.7751 808.583 94.7751C804.983 94.7751 802.065 97.6933 802.065 101.293C802.065 104.893 804.983 107.811 808.583 107.811Z" fill="#F55F44"/>
<path opacity="0.5" d="M171.583 62.8111C175.183 62.8111 178.101 59.8929 178.101 56.2931C178.101 52.6933 175.183 49.7751 171.583 49.7751C167.983 49.7751 165.065 52.6933 165.065 56.2931C165.065 59.8929 167.983 62.8111 171.583 62.8111Z" fill="#F55F44"/>
<path opacity="0.5" d="M661.195 147.09C664.795 147.09 667.713 144.172 667.713 140.572C667.713 136.972 664.795 134.054 661.195 134.054C657.595 134.054 654.677 136.972 654.677 140.572C654.677 144.172 657.595 147.09 661.195 147.09Z" fill="#4D8AF0"/>
<path opacity="0.5" d="M82.9884 176.18C86.5882 176.18 89.5064 173.262 89.5064 169.662C89.5064 166.062 86.5882 163.144 82.9884 163.144C79.3886 163.144 76.4704 166.062 76.4704 169.662C76.4704 173.262 79.3886 176.18 82.9884 176.18Z" fill="#47E6B1"/>
</svg>
