<svg width="200" height="162" viewBox="0 0 200 162" fill="none" xmlns="http://www.w3.org/2000/svg">
<path d="M80 160.999C123.63 160.999 159 125.63 159 81.9993C159 38.3688 123.63 2.99927 80 2.99927C36.3695 2.99927 1 38.3688 1 81.9993C1 125.63 36.3695 160.999 80 160.999Z" stroke="currentColor" stroke-width="2"/>
<path d="M27 57.9993C41.9117 57.9993 54 45.911 54 30.9993C54 16.0876 41.9117 3.99927 27 3.99927C12.0883 3.99927 0 16.0876 0 30.9993C0 45.911 12.0883 57.9993 27 57.9993Z" fill="white"/>
<path d="M32.832 13.3993V46.9993H25.056V19.6393H18.336V13.3993H32.832Z" fill="currentColor"/>
<path opacity="0.1" d="M61.6971 23.8622C68.4761 17.8062 79.1192 16.5722 88.8052 17.0542C119.23 18.5692 146.694 33.2782 170.45 49.9182C179.05 55.9422 187.517 62.4392 193.105 70.7292C204.47 87.6152 201.098 111.009 185.297 124.92C179.92 129.654 173.402 133.282 166.712 136.499C154.812 142.218 141.982 146.807 128.478 148.114C118.849 149.045 109.109 148.286 99.5292 146.989C72.7842 143.356 46.5292 135.326 24.5292 121.58C14.8742 115.553 5.77816 108.059 1.80016 98.3032C-2.17784 88.5472 0.365162 76.2002 10.2192 70.4242C14.2952 68.0362 19.1672 66.9592 23.9382 65.9462C30.9612 64.4572 38.0951 62.9872 44.4332 59.9582C50.9792 56.8292 58.7281 50.7782 57.4332 43.8522C56.0422 36.4262 54.9271 29.9002 61.6971 23.8622Z" fill="currentColor"/>
<path d="M44.3931 93.1953C45.4617 92.4595 46.817 92.2771 48.0421 92.7043C48.0421 92.7043 47.5231 93.8043 45.2111 93.7933L44.3931 93.1953Z" fill="currentColor"/>
<path d="M44.1702 93.2664C43.9125 94.5384 44.2769 95.8571 45.1512 96.8163C45.1512 96.8163 45.9602 95.9054 45.0402 93.7844L44.1702 93.2664Z" fill="currentColor"/>
<path d="M41.7991 91.3023C41.7991 91.3023 41.8651 89.4843 45.9811 89.9293C45.9468 90.7461 45.4079 91.4554 44.6301 91.7073C43.7029 92.2256 42.5437 92.0597 41.7991 91.3023Z" fill="currentColor"/>
<path d="M41.5452 91.2974C41.5452 91.2974 39.8352 91.9203 41.5262 95.6973C42.2926 95.413 42.8012 94.6818 42.8012 93.8643C43.0056 92.8238 42.4922 91.7745 41.5452 91.2974Z" fill="currentColor"/>
<path d="M39.129 88.8063C39.129 88.8063 38.783 85.8323 42.975 85.9773C42.975 85.9773 43.375 88.6663 39.895 89.4953L39.129 88.8063Z" fill="currentColor"/>
<path d="M113.974 69.0407C114.904 68.1356 116.21 67.7274 117.49 67.9415C117.49 67.9415 117.164 69.1179 114.88 69.4962L113.974 69.0407Z" fill="currentColor"/>
<path d="M113.766 69.1501C113.727 70.4469 114.307 71.6849 115.33 72.4835C115.33 72.4835 115.969 71.4527 114.714 69.5132L113.766 69.1501Z" fill="currentColor"/>
<path d="M111.097 67.62C111.097 67.62 110.857 65.8163 114.987 65.5618C115.094 66.3739 114.682 67.1662 113.956 67.5459C113.128 68.2103 111.959 68.2406 111.097 67.62Z" fill="currentColor"/>
<path d="M110.849 67.6602C110.849 67.6602 109.274 68.559 111.572 72.0053C112.281 71.5954 112.659 70.7872 112.52 69.9802C112.548 68.919 111.864 67.9696 110.849 67.6602Z" fill="currentColor"/>
<path d="M108.048 65.6149C108.048 65.6149 107.205 62.7447 111.361 62.1791C111.361 62.1791 112.209 64.7617 108.918 66.1646L108.048 65.6149Z" fill="currentColor"/>
<path d="M104.646 62.8837C104.646 62.8837 104.511 59.4585 108.812 59.5801C108.812 59.5801 109.43 62.439 105.48 63.5339L104.646 62.8837Z" fill="currentColor"/>
<path d="M101.952 59.8982C101.952 59.8982 102.212 56.466 106.474 56.5839C106.081 58.6274 104.414 60.1837 102.348 60.4359L101.952 59.8982Z" fill="currentColor"/>
<path d="M99.3719 56.965C99.3719 56.965 99.5878 53.424 103.714 53.6064C103.714 53.6064 103.077 57.0603 99.7515 57.4809L99.3719 56.965Z" fill="currentColor"/>
<path d="M97.4951 54.057C97.4951 54.057 97.3408 49.8158 101.184 49.953C101.184 49.953 100.906 53.8992 97.8897 54.5956L97.4951 54.057Z" fill="currentColor"/>
<path d="M95.556 50.4738C95.556 50.4738 95.5349 46.1703 99.4791 46.5938C99.4791 46.5938 98.8505 50.7963 95.9334 50.9898L95.556 50.4738Z" fill="currentColor"/>
<path d="M94.1043 47.0653C94.1043 47.0653 94.5766 42.6596 97.4628 42.1677C97.4628 42.1677 97.0022 46.8143 94.5185 47.843L94.1043 47.0653Z" fill="currentColor"/>
<path d="M92.9342 43.6851C92.9342 43.6851 93.3525 38.4114 95.7604 38.3046C95.7604 38.3046 95.544 42.3138 93.181 44.4449L92.9342 43.6851Z" fill="currentColor"/>
<path d="M91.8008 39.5995C91.8008 39.5995 92.3047 35.1722 94.5623 34.5235C94.5623 34.5235 94.4914 38.7897 92.079 40.6631L91.8008 39.5995Z" fill="currentColor"/>
<path d="M90.7113 35.7965C90.7113 35.7965 91.5491 31.2888 93.0501 30.8821C93.0501 30.8821 93.1641 35.1169 91.0047 36.445L90.7113 35.7965Z" fill="currentColor"/>
<path d="M89.7655 32.2438C89.7655 32.2438 89.875 27.5292 91.3079 26.8305C91.3079 26.8305 91.8743 30.5542 89.9901 32.5525L89.7655 32.2438Z" fill="currentColor"/>
<path d="M88.2047 27.6608C88.2047 27.6608 88.5589 23.8428 89.6681 23.033C89.6681 23.033 90.3152 27.3116 88.671 28.4726L88.2047 27.6608Z" fill="currentColor"/>
<path d="M87.0799 24.6715L85.5286 18.3913C85.5286 18.3913 88.8197 22.6829 87.479 25.7432L87.0799 24.6715Z" fill="currentColor"/>
<path d="M83.9872 18.7604C83.9872 18.7604 81.3644 14.4918 80.9109 14.311C80.9109 14.311 84.7827 16.6233 85.2754 20.5462L83.9872 18.7604Z" fill="currentColor"/>
<path d="M107.933 65.6208C107.933 65.6208 104.941 65.8555 105.9 69.9404C105.9 69.9404 108.615 69.8155 108.757 66.2402L107.933 65.6208Z" fill="currentColor"/>
<path d="M104.487 62.8088C104.487 62.8088 101.129 63.5052 102.285 67.6498C102.285 67.6498 105.21 67.5614 105.315 63.464L104.487 62.8088Z" fill="currentColor"/>
<path d="M101.977 60.1773C101.977 60.1773 98.6296 59.3892 97.4541 63.4899C99.5212 63.7315 101.508 62.6109 102.37 60.7168L101.977 60.1773Z" fill="currentColor"/>
<path d="M99.3114 57.0093C99.3114 57.0093 95.8706 56.1463 94.7972 60.1344C94.7972 60.1344 98.2839 60.5698 99.6906 57.5287L99.3114 57.0093Z" fill="currentColor"/>
<path d="M97.5552 54.1375C97.5552 54.1375 93.9474 51.9029 92.1607 55.306C92.1607 55.306 95.7278 57.0204 97.825 54.7486L97.5552 54.1375Z" fill="currentColor"/>
<path d="M95.7056 50.3403C95.7056 50.3403 92.0661 48.0433 90.3361 51.6106C90.3361 51.6106 94.2336 53.3126 95.94 50.9347L95.7056 50.3403Z" fill="currentColor"/>
<path d="M94.387 46.8844C94.387 46.8844 91.2904 43.7125 88.7241 45.1099C88.7241 45.1099 91.9568 48.4829 94.5457 47.7552L94.387 46.8844Z" fill="currentColor"/>
<path d="M92.9917 43.6526C92.9917 43.6526 89.6733 39.5298 87.6261 40.7985C87.6261 40.7985 90.0636 43.9897 93.2153 44.4152L92.9917 43.6526Z" fill="currentColor"/>
<path d="M91.9132 39.3288C91.9132 39.3288 88.7369 36.2031 86.5713 37.1226C86.5713 37.1226 89.3175 40.391 92.368 40.3316L91.9132 39.3288Z" fill="currentColor"/>
<path d="M90.9501 35.6615C90.9501 35.6615 88.2284 31.9787 86.6917 32.2668C86.6917 32.2668 88.442 36.1246 90.9627 36.3756L90.9501 35.6615Z" fill="currentColor"/>
<path d="M89.8214 32.14C89.8214 32.14 86.8747 28.4495 85.3127 28.7695C85.3127 28.7695 87.1192 32.0747 89.8291 32.5165L89.8214 32.14Z" fill="currentColor"/>
<path d="M88.5897 27.8439C88.5897 27.8439 86.318 24.7556 84.95 24.639C84.95 24.639 86.5998 28.639 88.6161 28.7878L88.5897 27.8439Z" fill="currentColor"/>
<path d="M86.8672 24.5846L82.282 20.0264C82.282 20.0264 84.2643 25.0601 87.5864 25.4852L86.8672 24.5846Z" fill="currentColor"/>
<path d="M83.28 19.353C83.28 19.353 78.6579 17.4164 78.4177 16.9978C78.4177 16.9978 81.2983 20.4683 85.246 20.3546L83.28 19.353Z" fill="currentColor"/>
<path d="M82.7751 18.1524C82.7751 18.1524 77.2035 14.6738 76.0225 14.9265C78.6508 14.6875 81.2195 15.8052 82.8361 17.8912L82.7751 18.1524Z" fill="currentColor"/>
<path d="M88.6819 28.5119L88.5124 28.5713C86.2116 21.939 84.0949 18.1769 82.5554 17.9816L82.5791 17.8079C84.2126 18.0182 86.3213 21.7204 88.6819 28.5119Z" fill="#444053"/>
<path d="M93.3981 44.5475L93.1469 44.6227C92.9606 43.9971 92.7786 43.3514 92.6154 42.7118C91.1861 37.1225 89.7202 32.0232 88.4057 28.2451L88.5159 28.0296C89.8345 31.8224 91.4369 37.0508 92.8694 42.6463C93.0249 43.282 93.2078 43.9183 93.3981 44.5475Z" fill="#444053"/>
<path d="M119.416 71.2803C115.617 70.2827 112.02 68.6353 108.783 66.4108C105.466 64.1871 102.522 61.4514 100.062 58.3058C96.8693 54.0404 94.4758 49.2319 92.9974 44.1132L93.2887 44.1825C95.8253 53.0852 101.366 60.835 108.97 66.1147C112.169 68.3221 115.728 69.9556 119.487 70.9421L119.416 71.2803Z" fill="#444053"/>
<g opacity="0.7">
<path d="M109.628 67.4453C110.868 67.0613 112.217 67.2904 113.26 68.0623C113.26 68.0623 112.435 68.9623 110.232 68.2623L109.628 67.4453Z" fill="currentColor"/>
<path d="M109.393 67.4482C108.77 68.586 108.726 69.9526 109.274 71.1282C109.274 71.1282 110.312 70.5002 110.074 68.2022L109.393 67.4482Z" fill="currentColor"/>
<path d="M107.71 64.8771C107.71 64.8771 108.315 63.1612 112.11 64.8102C111.837 65.5822 111.11 66.1014 110.291 66.1102C109.252 66.326 108.196 65.8216 107.71 64.8771Z" fill="currentColor"/>
<path d="M107.47 64.7952C107.47 64.7952 105.654 64.8812 106.142 68.9952C106.959 68.9522 107.663 68.4052 107.906 67.6242C108.415 66.6906 108.236 65.5324 107.47 64.7952Z" fill="currentColor"/>
<path d="M105.903 61.7023C105.903 61.7023 106.455 58.7623 110.415 60.1463C110.415 60.1463 109.998 62.8323 106.429 62.5883L105.903 61.7023Z" fill="currentColor"/>
<path d="M104.112 57.7262C104.112 57.7262 105.547 54.6132 109.324 56.6752C109.324 56.6752 108.577 59.5032 104.56 58.6852L104.112 57.7262Z" fill="currentColor"/>
<path d="M103.067 53.8373C103.067 53.8373 104.857 50.8973 108.601 52.9373C107.322 54.5785 105.131 55.2071 103.176 54.4933L103.067 53.8373Z" fill="currentColor"/>
<path d="M102.1 50.0562C102.1 50.0562 103.9 46.9982 107.494 49.0342C107.494 49.0342 105.358 51.8222 102.204 50.6872L102.1 50.0562Z" fill="currentColor"/>
<path d="M101.748 46.6133C101.748 46.6133 103.536 42.7633 106.898 44.6313C106.898 44.6313 104.859 48.0213 101.855 47.2723L101.748 46.6133Z" fill="currentColor"/>
<path d="M101.647 42.5403C101.647 42.5403 103.582 38.6963 106.904 40.8643C106.904 40.8643 104.436 44.3233 101.749 43.1713L101.647 42.5403Z" fill="currentColor"/>
<path d="M101.901 38.8452C101.901 38.8452 104.322 35.1342 107.117 36.0052C107.117 36.0052 104.597 39.9362 101.917 39.7252L101.901 38.8452Z" fill="currentColor"/>
<path d="M102.388 35.3012C102.388 35.3012 105.155 30.7932 107.35 31.7902C107.35 31.7902 105.337 35.2642 102.264 36.0902L102.388 35.3012Z" fill="currentColor"/>
<path d="M103.238 31.1463C103.238 31.1463 105.697 27.4303 108.004 27.8783C108.004 27.8783 105.998 31.6463 103.004 32.2203L103.238 31.1463Z" fill="currentColor"/>
<path d="M103.991 27.2592C103.991 27.2592 106.784 23.6272 108.306 23.9422C108.306 23.9422 106.485 27.7672 103.958 27.9702L103.991 27.2592Z" fill="currentColor"/>
<path d="M104.764 23.6683C104.764 23.6683 107.002 19.5183 108.596 19.5453C108.596 19.5453 107.41 23.1203 104.824 24.0453L104.764 23.6683Z" fill="currentColor"/>
<path d="M105.454 18.8762C105.454 18.8762 107.503 15.6352 108.859 15.4172C108.859 15.4172 107.493 19.5232 105.501 19.8112L105.454 18.8762Z" fill="currentColor"/>
<path d="M105.809 15.7001L107.274 9.40015C107.274 9.40015 108.261 14.7181 105.674 16.8361L105.809 15.7001Z" fill="currentColor"/>
<path d="M105.737 9.03117C105.737 9.03117 105.337 4.03717 105.016 3.67017C105.016 3.67017 107.416 7.48817 106.074 11.2072L105.737 9.03117Z" fill="currentColor"/>
<path d="M105.798 61.6552C105.798 61.6552 103.031 60.5072 102.026 64.5812C102.026 64.5812 104.501 65.7022 106.251 62.5812L105.798 61.6552Z" fill="currentColor"/>
<path d="M104.004 57.5853C104.004 57.5853 100.696 56.6853 99.8452 60.8983C99.8452 60.8983 102.491 62.1473 104.445 58.5443L104.004 57.5853Z" fill="currentColor"/>
<path d="M102.963 54.1013C102.963 54.1013 100.338 51.8793 97.4292 55.0013C99.1612 56.1551 101.44 56.0585 103.068 54.7623L102.963 54.1013Z" fill="currentColor"/>
<path d="M102.026 50.0693C102.026 50.0693 99.3522 47.7383 96.5852 50.8043C96.5852 50.8043 99.4942 52.7753 102.128 50.7043L102.026 50.0693Z" fill="currentColor"/>
<path d="M101.765 46.7124C101.765 46.7124 99.5652 43.0804 96.4282 45.3044C96.4282 45.3044 98.8282 48.4514 101.728 47.3794L101.765 46.7124Z" fill="currentColor"/>
<path d="M101.841 42.4882C101.841 42.4882 99.6412 38.7882 96.4802 41.1822C96.4802 41.1822 99.1802 44.4682 101.78 43.1242L101.841 42.4882Z" fill="currentColor"/>
<path d="M102.235 38.8104C102.235 38.8104 100.916 34.5784 97.9951 34.6604C97.9951 34.6604 99.3441 39.1324 101.981 39.6604L102.235 38.8104Z" fill="currentColor"/>
<path d="M102.459 35.2984C102.459 35.2984 101.373 30.1194 98.9741 30.3194C98.9741 30.3194 99.6971 34.2694 102.312 36.0794L102.459 35.2984Z" fill="currentColor"/>
<path d="M103.461 30.9562C103.461 30.9562 102.05 26.7292 99.7031 26.5652C99.7031 26.5652 100.666 30.7242 103.411 32.0562L103.461 30.9562Z" fill="currentColor"/>
<path d="M104.267 27.2512C104.267 27.2512 103.51 22.7342 102.019 22.2932C102.019 22.2932 101.827 26.5252 103.959 27.8932L104.267 27.2512Z" fill="currentColor"/>
<path d="M104.861 23.6013C104.861 23.6013 103.912 18.9753 102.374 18.5513C102.374 18.5513 102.483 22.3163 104.697 23.9403L104.861 23.6013Z" fill="currentColor"/>
<path d="M105.714 19.2143C105.714 19.2143 105.091 15.4303 103.926 14.7063C103.926 14.7063 103.58 19.0193 105.309 20.0673L105.714 19.2143Z" fill="currentColor"/>
<path d="M105.659 15.5283L103.643 9.38525C103.643 9.38525 103.124 14.7703 105.891 16.6573L105.659 15.5283Z" fill="currentColor"/>
<path d="M104.838 9.23837C104.838 9.23837 101.599 5.41437 101.575 4.93237C101.575 4.93237 102.566 9.33237 106.135 11.0234L104.838 9.23837Z" fill="currentColor"/>
<path d="M104.933 7.93927C104.933 7.93927 101.549 2.31027 100.381 1.99927C102.831 2.97954 104.613 5.14164 105.106 7.73427L104.933 7.93927Z" fill="currentColor"/>
<path d="M105.493 19.8512L105.32 19.8272C106.276 12.8732 106.098 8.56021 104.82 7.68721L104.92 7.54321C106.275 8.47221 106.473 12.7282 105.493 19.8512Z" fill="#444053"/>
<path d="M102.417 36.2802L102.159 36.2332C102.277 35.5912 102.408 34.9332 102.553 34.2892C103.817 28.6602 104.825 23.4512 105.37 19.4892L105.57 19.3472C105.023 23.3252 104.078 28.7112 102.813 34.3472C102.662 34.9832 102.531 35.6332 102.417 36.2802Z" fill="#444053"/>
<path d="M113.461 71.9132C110.529 69.2998 108.072 66.1987 106.198 62.7472C104.251 59.259 102.87 55.4841 102.106 51.5632C101.197 46.3135 101.246 40.9424 102.251 35.7102L102.479 35.9042C100.698 44.989 102.119 54.4101 106.498 62.5662C108.346 65.9853 110.775 69.0565 113.677 71.6422L113.461 71.9132Z" fill="#444053"/>
</g>
<path d="M189.443 132.787C189.443 132.787 185.322 132.54 185.811 135.428C185.758 135.729 185.906 136.029 186.176 136.17C186.176 136.17 186.185 135.956 186.6 136.028C186.748 136.054 186.898 136.061 187.048 136.05C187.25 136.037 187.443 135.957 187.595 135.823C188.468 135.322 189.062 134.447 189.205 133.45C189.205 133.45 189.539 133.037 189.525 132.931L188.833 133.231C188.966 133.52 188.984 133.848 188.883 134.149C188.883 134.149 188.861 133.249 188.727 133.27C188.699 133.27 188.365 133.443 188.365 133.443C188.589 133.916 188.624 134.455 188.465 134.953C188.465 134.953 188.583 133.876 188.237 133.507L187.748 133.792C188.013 134.297 188.069 134.886 187.902 135.431C187.955 134.894 187.866 134.353 187.644 133.861L187.201 134.207C187.442 134.669 187.503 135.203 187.374 135.707C187.374 135.707 187.338 134.393 187.103 134.292C186.935 134.434 186.785 134.596 186.655 134.774C186.655 134.774 186.963 135.421 186.773 135.762C186.773 135.762 186.655 134.885 186.56 134.882C186.358 135.179 186.214 135.511 186.133 135.861C186.152 135.492 186.267 135.134 186.467 134.823C186.244 134.865 186.038 134.972 185.874 135.129C185.874 135.129 185.935 134.719 186.566 134.683C186.681 134.513 186.815 134.356 186.966 134.216C186.628 134.188 186.288 134.227 185.966 134.332C186.273 134.065 186.7 133.984 187.083 134.119L187.522 133.763C187.134 133.704 186.738 133.708 186.351 133.775C186.74 133.538 187.22 133.504 187.639 133.682L188.116 133.397C187.749 133.316 187.373 133.282 186.997 133.297C187.404 133.145 187.853 133.152 188.254 133.318L188.6 133.164C188.6 133.164 188.081 133.064 187.936 133.048C187.791 133.032 187.777 132.989 187.777 132.989C188.102 132.935 188.436 132.972 188.742 133.096C188.985 133.015 189.22 132.912 189.443 132.787Z" fill="currentColor"/>
<path opacity="0.1" d="M186.605 137.422C188.216 137.422 189.522 136.975 189.522 136.422C189.522 135.87 188.216 135.422 186.605 135.422C184.994 135.422 183.688 135.87 183.688 136.422C183.688 136.975 184.994 137.422 186.605 137.422Z" fill="currentColor"/>
<path d="M165.112 135.295C165.112 135.295 160.135 134.995 160.723 138.482C160.658 138.846 160.837 139.21 161.164 139.382C161.164 139.382 161.164 139.124 161.674 139.209C161.853 139.239 162.034 139.249 162.215 139.237C162.459 139.22 162.691 139.124 162.876 138.964C163.931 138.359 164.648 137.302 164.82 136.098C164.82 136.098 165.22 135.598 165.206 135.472L164.367 135.83C164.528 136.179 164.55 136.576 164.428 136.94C164.428 136.94 164.402 135.852 164.24 135.878C164.207 135.878 163.804 136.087 163.804 136.087C164.074 136.658 164.117 137.309 163.925 137.91C163.925 137.91 164.067 136.61 163.65 136.163L163.059 136.509C163.379 137.119 163.446 137.831 163.244 138.489C163.308 137.84 163.201 137.185 162.934 136.589L162.398 137.006C162.69 137.563 162.766 138.209 162.611 138.818C162.611 138.818 162.568 137.23 162.282 137.109C162.079 137.281 161.898 137.477 161.742 137.692C161.742 137.692 162.112 138.472 161.882 138.884C161.882 138.884 161.742 137.827 161.626 137.822C161.383 138.181 161.207 138.581 161.107 139.003C161.129 138.559 161.267 138.129 161.507 137.754C161.238 137.805 160.99 137.934 160.793 138.124C160.793 138.124 160.866 137.624 161.623 137.584C161.764 137.378 161.928 137.189 162.112 137.02C161.703 136.986 161.291 137.033 160.901 137.16C161.271 136.837 161.786 136.739 162.248 136.904L162.777 136.473C162.308 136.401 161.831 136.406 161.364 136.487C161.835 136.204 162.413 136.162 162.92 136.375L163.496 136.029C163.053 135.931 162.599 135.892 162.145 135.911C162.636 135.728 163.178 135.736 163.663 135.935L164.076 135.766C164.076 135.766 163.457 135.645 163.276 135.626C163.095 135.607 163.086 135.557 163.086 135.557C163.479 135.492 163.882 135.537 164.25 135.687C164.549 135.583 164.837 135.452 165.112 135.295Z" fill="currentColor"/>
<path opacity="0.1" d="M161.686 140.682C163.632 140.682 165.209 140.234 165.209 139.682C165.209 139.13 163.632 138.682 161.686 138.682C159.74 138.682 158.163 139.13 158.163 139.682C158.163 140.234 159.74 140.682 161.686 140.682Z" fill="currentColor"/>
<path opacity="0.1" d="M123.489 137.103L106.142 143.815L80.7861 153.615C79.8301 151.839 78.4191 149.409 76.6721 146.525C70.6721 136.573 60.7311 121.093 51.8871 107.49C41.9191 92.1633 33.3411 79.2203 33.3411 79.2203L39.5511 77.4203L90.2771 62.7083L123.489 137.103Z" fill="black"/>
<path d="M123.835 135.892L106.488 142.604L81.132 152.404C80.176 150.628 78.765 148.198 77.018 145.314C71.018 135.362 61.077 119.882 52.233 106.279C42.265 90.9524 33.687 78.0093 33.687 78.0093L39.897 76.2094L90.623 61.4973L123.835 135.892Z" fill="white"/>
<path opacity="0.1" d="M123.835 135.892L106.488 142.604C96.7995 144.623 86.9125 145.532 77.0182 145.314C71.0182 135.362 61.0772 119.882 52.2332 106.279L39.8972 76.2094L90.6232 61.4973L123.835 135.892Z" fill="black"/>
<path d="M136.741 131.718C136.741 131.718 109.791 147.659 69.5551 144.062L37.4761 65.8632L52.8481 63.2222L105.988 54.0962L136.139 130.207L136.741 131.718Z" fill="currentColor"/>
<path opacity="0.1" d="M136.139 129.915C129.11 130.297 122.061 130.096 115.065 129.315C107.072 128.378 99.0411 126.437 92.1411 122.885C86.7295 120.194 81.6915 116.81 77.1541 112.818C65.9811 102.767 59.065 88.3893 52.854 62.9283L105.994 53.8022L136.139 129.915Z" fill="black"/>
<path d="M155.907 129.015C155.907 129.015 135.807 133.467 115.37 130.725C107.286 129.647 99.156 127.435 92.186 123.374C86.6375 120.24 81.5392 116.369 77.03 111.865C63.039 97.6304 55.656 75.8384 48.041 31.8104C48.041 31.8104 81.441 40.9224 114.45 20.9624C114.451 20.9624 125.583 99.5074 155.907 129.015Z" fill="white"/>
<path opacity="0.1" d="M115.824 129.899C107.831 128.956 99.7911 127.021 92.9001 123.469C87.4885 120.779 82.4505 117.394 77.9131 113.402C89.6881 112.446 91.3811 106.007 91.3811 106.007C100.111 119.864 115.824 129.899 115.824 129.899Z" fill="black"/>
<path opacity="0.3" d="M66.3301 54.6742C66.3301 54.6742 84.0731 56.6992 100.68 47.3672L101.818 51.0212C90.6671 56.0973 78.5811 58.7952 66.3301 58.9432V54.6742Z" fill="currentColor"/>
<path opacity="0.3" d="M66.3301 72.7402C79.2773 71.2074 91.8767 67.5184 103.606 61.8262L104.27 63.3442C104.27 63.3442 97.0431 72.4391 66.3301 74.8151V72.7402Z" fill="black"/>
<path opacity="0.3" d="M68.4211 79.8002C81.3682 78.2676 93.9675 74.5794 105.697 68.8882L106.361 70.4061C106.361 70.4061 99.1361 79.5061 68.4211 81.8871V79.8002Z" fill="black"/>
<path opacity="0.3" d="M70.333 87.4073C83.28 85.8748 95.8794 82.1865 107.609 76.4954L108.273 78.0134C108.273 78.0134 101.037 87.1133 70.333 89.4943V87.4073Z" fill="black"/>
<path opacity="0.3" d="M72.604 93.9261C85.551 92.3936 98.1503 88.7053 109.88 83.0142L110.544 84.5322C110.544 84.5322 103.319 93.6321 72.604 96.0151V93.9261Z" fill="black"/>
<path opacity="0.1" d="M74.6973 100.99C87.6443 99.4576 100.244 95.7693 111.973 90.0781L112.637 91.5961C112.637 91.5961 105.41 100.696 74.6973 103.077V100.99Z" fill="black"/>
<path opacity="0.3" d="M111.456 57.1129L106.52 58.7932L108.2 63.729L113.136 62.0487L111.456 57.1129Z" fill="currentColor"/>
<path opacity="0.3" d="M114.264 64.475L109.328 66.1553L111.008 71.0911L115.944 69.4108L114.264 64.475Z" fill="currentColor"/>
<path opacity="0.3" d="M118.766 78.639L113.83 80.3193L115.51 85.2552L120.446 83.5748L118.766 78.639Z" fill="currentColor"/>
<path opacity="0.3" d="M121.349 86.2401L116.413 87.9204L118.093 92.8562L123.029 91.1759L121.349 86.2401Z" fill="currentColor"/>
<path opacity="0.3" d="M116.554 72.122L111.618 73.8022L113.298 78.7381L118.234 77.0578L116.554 72.122Z" fill="currentColor"/>
<path d="M168.163 93.6222L167.978 93.4493C168.455 93.3493 168.905 93.3092 168.905 93.3092C168.905 93.3092 167.267 87.3843 164.505 85.4093C163.144 84.3126 162.019 82.952 161.197 81.4093C159.731 78.8855 158.085 76.4712 156.27 74.1853L155.77 73.5572L155.556 73.2843C155.914 72.8966 156.134 72.4011 156.18 71.8753C156.179 71.872 156.179 71.8686 156.18 71.8653C156.182 71.8376 156.182 71.8099 156.18 71.7823C156.175 71.7172 156.163 71.6529 156.145 71.5903L156.126 71.6192C155.893 70.9412 154.995 70.6422 154.326 70.2682C152.77 69.3912 152.104 67.4753 151.772 65.6943C151.513 64.3113 151.298 62.7543 150.216 61.8633C149.524 61.2913 148.583 61.1022 147.887 60.5332C147.277 59.9274 146.787 59.2115 146.443 58.4233C145.791 57.1451 144.824 56.0542 143.633 55.2533C142.434 54.4619 140.938 54.2643 139.574 54.7173C139.067 54.9113 138.607 55.2123 138.106 55.4173C136.861 55.9363 135.434 55.8673 134.206 56.4173C132.688 57.0913 131.7 58.5822 130.797 59.9972C130.166 60.9023 129.625 61.8665 129.18 62.8763V62.7643C128.98 63.2397 128.871 63.7485 128.858 64.2643C128.85 64.4832 128.874 64.7022 128.929 64.9142C129.149 65.5624 129.672 66.0625 130.329 66.2543C130.367 66.4743 130.418 66.692 130.481 66.9062C131.088 68.9029 132.631 70.4782 134.614 71.1272C134.671 71.1482 134.73 71.1622 134.787 71.1792C134.835 71.316 134.905 71.4443 134.993 71.5592C135.545 72.2512 136.651 72.0543 137.371 71.5503C137.4 71.5313 137.428 71.5072 137.456 71.4862C137.461 71.5841 137.471 71.6816 137.487 71.7782C137.503 71.8612 137.515 71.9513 137.532 72.0253C137.844 73.983 138.637 75.8325 139.841 77.4073C139.841 77.4073 139.995 77.6392 140.241 78.0232C140.21 79.8609 140.836 81.6493 142.007 83.0663C141.13 83.5733 139.24 84.5663 138.071 84.4823C138.071 84.4823 133.771 85.0373 133.277 84.7593C133.208 84.7213 133.142 84.7732 133.077 84.8902C131.894 84.1692 128.112 82.0903 127.789 84.7593C127.497 87.1803 130.943 87.4902 132.589 87.5022C132.515 88.2112 132.473 88.7782 132.473 88.7782L139.53 88.2962L143.205 87.7552C142.859 88.258 142.412 88.6836 141.893 89.0052C141.893 89.0052 138.571 91.6942 137.993 91.7182C137.912 91.7182 137.886 91.7992 137.893 91.9292C136.493 91.9292 132.15 92.1292 133.355 94.5522C134.45 96.7472 137.531 95.2283 138.925 94.3893C139.254 95.0273 139.534 95.5273 139.534 95.5273L145.229 91.4723L146.462 90.4342C146.88 90.4141 147.293 90.3343 147.688 90.1972C147.691 90.2131 147.697 90.2283 147.705 90.2422C147.75 90.3694 147.783 90.5003 147.805 90.6333C148.151 92.6203 146.989 97.2552 146.989 97.2552C146.989 97.2552 144.433 103.773 145.661 104.662C146.889 105.551 145.981 109.302 145.981 109.302C146.196 109.663 146.442 110.003 146.718 110.319C146.848 110.469 146.993 110.607 147.149 110.729C147.092 110.885 147.045 111.044 147.007 111.205C146.819 112.004 146.889 112.842 147.207 113.598C147.706 115.221 147.819 116.939 147.537 118.613L145.88 129.805C145.157 129.631 144.403 129.631 143.68 129.805C143.094 130.135 143.286 131.805 144.647 132.517C144.234 132.834 143.756 133.054 143.247 133.162C142.036 133.439 141.186 133.615 140.625 133.722C140.589 133.722 137.72 133.089 136.983 133.508C136.246 133.927 136.601 136.247 138.697 136.816C140.748 137.371 148.397 138.186 150.597 137.854L150.737 137.83C152.61 137.46 150.965 134.999 150.758 134.7C150.744 134.6 150.732 134.494 150.718 134.38C150.689 134.124 150.663 133.83 150.644 133.515C152.336 133.718 154.043 133.767 155.744 133.659C155.787 133.657 155.828 133.649 155.869 133.637C157.527 133.308 156.075 131.137 155.888 130.87L155.862 130.657V130.638C155.862 130.588 155.85 130.538 155.845 130.482C155.845 130.437 155.84 130.392 155.831 130.347C155.817 130.3 155.831 130.264 155.819 130.221C155.812 130.136 155.805 130.048 155.798 129.956V129.844C155.798 129.775 155.789 129.706 155.786 129.635V129.519C155.786 129.419 155.786 129.308 155.776 129.201V128.354C155.776 128.238 155.786 128.119 155.793 127.999L155.803 127.871C155.803 127.783 155.817 127.698 155.825 127.608C155.823 127.564 155.828 127.521 155.839 127.478C155.853 127.357 155.868 127.236 155.886 127.113C155.889 127.077 155.895 127.04 155.903 127.004C155.919 126.912 155.934 126.819 155.951 126.726C155.956 126.679 155.965 126.633 155.979 126.588C156 126.488 156.023 126.388 156.047 126.288C156.05 126.26 156.057 126.232 156.066 126.205C156.097 126.084 156.132 125.965 156.166 125.845C156.178 125.803 156.192 125.762 156.206 125.72C156.235 125.63 156.267 125.547 156.299 125.454L156.341 125.343C156.388 125.225 156.441 125.11 156.49 124.997C156.504 124.968 156.519 124.938 156.535 124.909C156.578 124.819 156.625 124.736 156.673 124.643L156.732 124.543C156.798 124.432 156.865 124.322 156.94 124.216C158.84 121.504 159.34 116.275 159.297 115.137C159.254 113.999 159.524 111.637 159.864 111.289C160.728 110.187 161.513 109.025 162.214 107.813C162.358 107.557 162.482 107.313 162.581 107.102C163.145 106.902 163.518 106.756 163.518 106.756C163.319 106.03 163.224 105.28 163.234 104.527C163.207 102.648 163.964 100.842 165.323 99.5433C166.96 98.1521 167.982 96.1708 168.166 94.0303V93.8663C168.171 93.7013 168.163 93.6222 168.163 93.6222Z" fill="url(#paint0_linear_123_6549)"/>
<path d="M161.591 105.473C160.922 106.669 160.171 107.817 159.343 108.909C158.925 110.131 158.741 111.42 158.802 112.709C158.847 113.831 158.371 119.009 156.554 121.686C154.737 124.363 155.67 128.999 155.67 128.999L152.77 130.016H149.285L146.885 129.298L146.252 127.557C146.252 127.557 147.096 127.427 149.192 126.929C150.387 126.686 151.274 125.677 151.362 124.461L152.834 114.183C153.073 112.718 152.976 111.217 152.552 109.794C152.144 108.771 152.23 107.616 152.787 106.664L152.834 106.591C154.269 105.479 155.804 104.503 157.419 103.675C159.468 102.686 161.547 102.215 162.137 103.975C162.091 104.514 161.903 105.031 161.591 105.473Z" fill="#A5636D"/>
<path opacity="0.05" d="M161.591 105.473C160.922 106.669 160.171 107.817 159.343 108.909C158.925 110.131 158.741 111.42 158.802 112.709C158.847 113.831 158.371 119.009 156.554 121.686C155.274 123.576 155.354 126.433 155.516 127.957C155.584 128.595 155.667 128.995 155.667 128.995L152.767 130.012H149.286L146.886 129.299L146.252 127.557C146.252 127.557 146.463 127.524 146.944 127.431C147.425 127.338 148.155 127.178 149.202 126.931C150.393 126.684 151.275 125.676 151.362 124.463L152.834 114.185C153.073 112.72 152.976 111.219 152.552 109.796C152.144 108.773 152.23 107.617 152.787 106.666L152.834 106.593C154.269 105.481 155.804 104.505 157.419 103.677C159.468 102.688 161.547 102.217 162.137 103.977C162.091 104.516 161.903 105.032 161.591 105.473Z" fill="black"/>
<path opacity="0.1" d="M155.67 131.659L152.77 132.676H149.285L146.885 131.957L146.252 130.214C146.252 130.214 146.463 130.181 146.944 130.088C146.874 130.744 147.303 131.349 147.944 131.499L149.307 131.546C149.499 131.546 149.693 131.556 149.883 131.556C151.8 131.557 153.704 131.241 155.517 130.62C155.591 131.255 155.67 131.659 155.67 131.659Z" fill="black"/>
<path d="M149.31 131.836L147.946 131.789C147.582 131.704 147.27 131.47 147.087 131.144C146.904 130.818 146.867 130.43 146.984 130.075C146.984 130.075 144.528 129.518 143.901 129.887C143.274 130.256 143.576 132.287 145.35 132.787C147.079 133.273 153.558 133.987 155.42 133.695L155.539 133.674C157.227 133.328 155.539 130.907 155.539 130.907C153.536 131.592 151.426 131.907 149.31 131.836Z" fill="#BEBED0"/>
<path d="M157.712 108.524C157.62 108.707 157.522 108.898 157.412 109.096C156.678 110.409 155.853 111.669 154.943 112.866C154.576 113.257 154.284 115.892 154.331 117.166C154.378 118.44 153.845 124.266 151.794 127.297C150.858 128.929 150.417 130.799 150.525 132.677C150.531 133.255 150.564 133.832 150.625 134.406C150.701 135.106 150.798 135.549 150.798 135.549L147.526 136.696H143.588L140.878 135.89L140.169 133.912C140.169 133.912 140.406 133.874 140.939 133.768C141.472 133.662 142.302 133.486 143.488 133.206C144.833 132.928 145.831 131.792 145.932 130.422L147.59 118.822C147.859 117.168 147.751 115.474 147.274 113.867C146.97 113.116 146.902 112.291 147.08 111.5C147.177 111.056 147.353 110.633 147.599 110.251C147.599 110.251 148.232 109.751 149.187 109.094C149.609 108.803 150.098 108.482 150.624 108.157C152.934 106.727 155.973 105.267 157.429 106.331C157.75 106.574 157.986 106.913 158.1 107.298C158.082 107.734 157.948 108.157 157.712 108.524Z" fill="#A5636D"/>
<path opacity="0.1" d="M150.788 135.55L147.516 136.697H143.587L140.877 135.891L140.168 133.913C140.168 133.913 140.405 133.875 140.938 133.769C140.869 134.245 141.042 134.725 141.398 135.047C141.671 135.279 142.015 135.409 142.373 135.414L143.613 135.454C143.829 135.454 144.047 135.466 144.263 135.466C146.427 135.466 148.577 135.108 150.624 134.408C150.7 135.111 150.788 135.55 150.788 135.55Z" fill="black"/>
<path d="M143.612 135.747L142.374 135.706C142.016 135.7 141.671 135.57 141.397 135.339C140.968 134.936 140.808 134.322 140.987 133.76C140.987 133.76 138.22 133.132 137.506 133.547C136.792 133.962 137.141 136.257 139.142 136.819C141.101 137.367 148.406 138.173 150.509 137.845L150.642 137.821C152.542 137.43 150.642 134.694 150.642 134.694C148.382 135.47 146 135.827 143.612 135.747Z" fill="#BEBED0"/>
<path opacity="0.1" d="M161.592 108.023C160.344 108.507 159.041 108.837 157.713 109.007C157.613 109.011 157.513 109.007 157.413 108.993C155.869 108.963 154.324 109.039 152.79 109.218C152.031 109.286 151.301 109.356 150.697 109.418C149.797 109.511 149.179 109.579 149.179 109.579V108.993C149.601 108.703 150.09 108.381 150.616 108.056C152.926 106.626 155.965 105.166 157.416 106.23C159.465 105.241 161.544 104.77 162.134 106.53C162.083 107.066 161.897 107.58 161.592 108.023Z" fill="black"/>
<path d="M167.276 94.3333C167.105 96.4327 166.132 98.3856 164.559 99.7863C161.559 102.717 162.83 106.927 162.83 106.927C161.182 107.6 159.463 108.084 157.706 108.371C157.606 108.375 157.505 108.371 157.406 108.357C155.159 108.362 152.914 108.504 150.684 108.782C149.784 108.875 149.166 108.943 149.166 108.943V96.4923L165.756 92.4644L167.256 93.9644C167.271 94.0868 167.278 94.21 167.276 94.3333Z" fill="#5C5C8E"/>
<g opacity="0.1">
<path d="M149.45 108.789L149.177 108.818V108.949C149.177 108.949 149.796 108.881 150.695 108.788C152.213 108.634 154.532 108.418 156.066 108.354C153.855 108.378 151.646 108.524 149.45 108.789Z" fill="black"/>
<path d="M167.269 93.9673L165.769 92.4673L164.769 92.7183L166.028 93.9723C166.037 94.0971 166.037 94.2224 166.028 94.3473C165.857 96.4466 164.884 98.3994 163.311 99.8003C160.311 102.73 161.582 106.941 161.582 106.941C160.072 107.54 158.513 108.008 156.923 108.341C157.085 108.341 157.247 108.349 157.407 108.367C157.507 108.381 157.607 108.387 157.707 108.383C159.464 108.096 161.183 107.612 162.831 106.939C162.831 106.939 161.551 102.728 164.56 99.7983C166.133 98.3974 167.106 96.4446 167.277 94.3453C167.283 94.2192 167.281 94.093 167.269 93.9673Z" fill="black"/>
</g>
<path d="M134.124 85.5432C134.124 85.5432 129.109 82.0642 128.741 85.1972C128.373 88.3302 134.124 87.8833 134.124 87.8833V85.5432Z" fill="#A5636D"/>
<path d="M142.771 83.2283C142.771 83.2283 140.058 85.0283 138.557 84.9123C138.557 84.9123 134.457 85.4623 133.978 85.1873C133.499 84.9123 133.21 89.1653 133.21 89.1653L139.955 88.6893L144.278 88.0283C144.278 88.0283 146.44 86.7103 146.44 85.5743C146.44 84.4383 142.771 83.2283 142.771 83.2283Z" fill="#F7CDDD"/>
<path opacity="0.05" d="M142.771 83.2283C142.771 83.2283 140.058 85.0283 138.557 84.9123C138.557 84.9123 134.457 85.4623 133.978 85.1873C133.499 84.9123 133.21 89.1653 133.21 89.1653L139.955 88.6893L144.278 88.0283C144.278 88.0283 146.44 86.7103 146.44 85.5743C146.44 84.4383 142.771 83.2283 142.771 83.2283Z" fill="black"/>
<path d="M138.791 92.3114C138.791 92.3114 132.691 92.0594 134.058 94.9054C135.425 97.7514 140.047 94.2964 140.047 94.2964L138.791 92.3114Z" fill="#A5636D"/>
<path d="M144.927 86.2032C144.927 86.2032 139.983 82.5033 140.68 78.0033C141.377 73.5033 144.927 81.4513 144.927 81.4513V86.2032Z" fill="#5C5C8E"/>
<path d="M143.561 65.7184C143.559 67.3389 142.929 68.8955 141.802 70.0604C141.529 70.3467 141.227 70.6046 140.902 70.8304C140.28 71.2646 139.585 71.5855 138.851 71.7784C138.559 71.8511 138.263 71.9036 137.964 71.9354C137.75 71.9564 137.533 71.9685 137.314 71.9685C136.613 71.9724 135.916 71.8553 135.254 71.6224C132.25 70.5737 130.514 67.4357 131.22 64.3335C131.927 61.2313 134.851 59.1551 138.013 59.5108C141.175 59.8665 143.565 62.5407 143.564 65.7224L143.561 65.7184Z" fill="#A5636D"/>
<path opacity="0.1" d="M167.276 94.3282C166.716 94.4282 166.024 94.6192 166.024 94.9092C166.024 95.3982 158.211 98.0362 158.211 98.0362C158.211 98.0362 158.503 98.7172 157.723 99.8902C156.943 101.063 150.593 107.8 150.593 107.8L150.614 108L150.695 108.776L151.082 112.487C150.046 112.089 148.962 111.826 147.858 111.705C147.559 111.698 147.276 111.567 147.078 111.342C147.175 110.898 147.35 110.475 147.597 110.093C147.597 110.093 148.23 109.593 149.185 108.936V96.4872L165.775 92.4592L167.275 93.9592C167.284 94.0821 167.284 94.2053 167.276 94.3282Z" fill="black"/>
<path d="M167.978 93.4672C167.978 93.4672 166.024 93.6612 166.024 94.1502C166.024 94.6392 158.211 97.2772 158.211 97.2772C158.211 97.2772 158.503 97.9582 157.723 99.1312C156.943 100.304 150.593 107.043 150.593 107.043L151.082 111.73C150.046 111.332 148.962 111.069 147.858 110.948C147.512 110.991 147.123 110.67 146.803 110.294C146.54 109.982 146.306 109.648 146.103 109.294C146.103 109.294 146.983 105.581 145.811 104.703C144.639 103.825 147.08 97.3792 147.08 97.3792C147.08 97.3792 148.18 92.7962 147.858 90.8302C147.838 90.6988 147.807 90.5694 147.765 90.4432C147.763 90.4282 147.758 90.4136 147.751 90.4002C147.059 88.5222 139.561 72.7612 139.561 72.7612C139.566 72.3141 139.597 71.8676 139.654 71.4242C139.67 71.3012 139.69 71.1732 139.713 71.0442C139.751 70.8109 139.802 70.5799 139.865 70.3522C139.905 70.2062 139.952 70.0623 140.007 69.9212C140.239 69.3262 140.593 68.8682 141.122 68.8572C141.666 68.3718 142.356 68.0815 143.083 68.0322C144.593 67.9127 146.108 68.1975 147.472 68.8572C152.06 70.8082 153.136 70.9082 153.136 70.9082L155.441 73.9342L155.915 74.5552C157.652 76.8205 159.225 79.2073 160.621 81.6972C161.398 83.2147 162.473 84.5605 163.781 85.6542C166.415 87.6082 167.978 93.4672 167.978 93.4672Z" fill="#F7CDDD"/>
<path opacity="0.1" d="M150.861 82.3494C150.861 82.3494 157.381 83.9613 159.907 88.0253L150.861 82.3494Z" fill="black"/>
<path opacity="0.1" d="M152.876 89.4983C152.876 89.4983 154.109 97.7763 153.767 98.3983C153.425 99.0203 152.876 89.4983 152.876 89.4983Z" fill="black"/>
<path opacity="0.1" d="M152.435 93.7312C151.961 94.3522 150.035 99.1512 150.035 99.1512L150.59 107.21L151.079 111.897C150.044 111.498 148.961 111.236 147.857 111.115C147.511 111.158 147.12 110.837 146.802 110.461C147.309 107.716 148.393 101.973 148.588 101.861C149.371 99.9148 149.924 97.8833 150.234 95.8082C150.303 94.5162 152.134 91.6372 152.134 91.6372C152.134 91.6372 152.914 93.1132 152.435 93.7312Z" fill="black"/>
<path opacity="0.1" d="M150.593 85.7443C150.472 86.1093 150.285 88.2343 150.285 88.2343C150.209 89.5895 149.196 90.7073 147.855 90.9153C147.835 90.7839 147.804 90.6544 147.762 90.5283C147.176 88.8703 139.562 72.8523 139.562 72.8523C139.569 72.0398 139.669 71.2307 139.862 70.4413C141.292 70.2087 142.755 70.2986 144.146 70.7043C144.905 70.6043 147.382 75.5273 147.382 75.5273C147.382 75.5273 149.032 79.2973 149.213 79.8113C149.287 80.358 149.312 80.9103 149.286 81.4613C149.359 81.7553 150.13 82.0073 150.239 82.4123C150.348 82.8173 150.277 83.6233 150.35 83.7663C150.541 84.4075 150.623 85.076 150.593 85.7443Z" fill="black"/>
<path d="M150.007 85.4254C149.886 85.7924 149.699 87.9154 149.699 87.9154C149.657 89.0922 148.874 90.1131 147.748 90.4594C147.371 90.594 146.976 90.6725 146.576 90.6923L145.398 91.7163L139.959 95.7163C139.959 95.7163 137.932 91.9684 138.482 91.9484C139.032 91.9284 142.204 89.2644 142.204 89.2644C143.174 88.7454 144.146 87.0163 144.597 86.1273C144.571 86.0213 144.551 85.9138 144.538 85.8054C144.338 84.1474 140.238 77.7963 140.238 77.7963C139.083 76.2271 138.328 74.4 138.038 72.4733C138.021 72.3933 138.009 72.3123 137.993 72.2293C137.976 72.1218 137.965 72.0133 137.962 71.9044C137.888 70.5744 138.856 70.0903 140.004 69.9763C140.604 69.9285 141.208 69.947 141.804 70.0313C142.398 70.1061 142.986 70.2217 143.563 70.3773C144.054 70.3113 145.263 72.3543 146.063 73.8013C146.49 74.5863 146.798 75.2014 146.798 75.2014C146.798 75.2014 148.448 78.9734 148.629 79.4854C148.704 80.032 148.728 80.5843 148.702 81.1353C148.775 81.4273 149.546 81.6833 149.655 82.0883C149.764 82.4933 149.693 83.2993 149.766 83.4423C149.957 84.0853 150.038 84.7556 150.007 85.4254Z" fill="#F7CDDD"/>
<path opacity="0.1" d="M156.315 76.9653C155.187 77.932 153.592 78.1359 152.256 77.4843C150.953 76.8258 149.705 76.0637 148.524 75.2053C147.715 74.7103 146.857 74.3053 146.06 73.7963C145.942 73.7203 145.828 73.6443 145.714 73.5643C144.794 72.9143 143.997 72.0783 143.044 71.4893C142.407 71.0653 141.665 70.8259 140.9 70.7973C140.548 70.794 140.199 70.867 139.878 71.0113C139.819 71.0356 139.761 71.064 139.705 71.0963C139.391 71.2763 139.101 71.4943 138.84 71.7453C138.57 71.9873 138.312 72.2453 138.029 72.4713C138.012 72.3913 138 72.3103 137.984 72.2273C137.967 72.1198 137.956 72.0112 137.953 71.9023C137.739 71.9233 137.522 71.9353 137.303 71.9353C136.602 71.9393 135.905 71.8222 135.243 71.5893C135.246 71.5623 135.24 71.5352 135.227 71.5113C135.109 70.2656 134.52 69.1118 133.581 68.2843C132.852 67.9153 132.086 67.6253 131.295 67.4193C130.538 64.783 131.588 61.9609 133.884 60.4608C136.181 58.9608 139.187 59.1333 141.296 60.8863C143.406 62.6393 144.126 65.563 143.072 68.0953C144.583 67.9758 146.097 68.2605 147.461 68.9203C152.049 70.8713 153.125 70.9713 153.125 70.9713L155.43 73.9973C155.144 74.3422 154.952 74.7558 154.873 75.1973C154.83 76.0123 155.623 76.5813 156.315 76.9653Z" fill="black"/>
<path d="M133.589 67.6573C134.528 68.484 135.117 69.6365 135.237 70.8813C135.276 71.2699 135.405 71.6442 135.614 71.9743C136.133 72.6553 137.198 72.4633 137.885 71.9743C138.498 71.3863 139.166 70.8582 139.879 70.3972C140.948 70.0234 142.132 70.1999 143.045 70.8692C143.998 71.4692 144.795 72.3012 145.715 72.9442C146.606 73.5722 147.598 74.0202 148.525 74.5852C149.705 75.4455 150.953 76.2077 152.257 76.8642C153.593 77.512 155.185 77.3084 156.314 76.3452C155.622 75.9612 154.829 75.3943 154.882 74.5713C154.935 73.7483 155.894 73.1343 155.83 72.2903C155.766 71.4463 154.773 71.1163 154.061 70.7013C152.574 69.8363 151.939 67.9342 151.621 66.1792C151.374 64.8062 151.17 63.2722 150.144 62.3902C149.482 61.8232 148.588 61.6383 147.92 61.0763C147.335 60.4717 146.866 59.7641 146.537 58.9892C145.921 57.7361 144.998 56.6589 143.854 55.8573C142.722 55.0694 141.28 54.8726 139.978 55.3282C139.494 55.5202 139.053 55.8172 138.578 56.0202C137.388 56.5392 136.027 56.4643 134.85 57.0063C133.399 57.6743 132.457 59.1472 131.594 60.5462C130.864 61.7462 129.417 63.8582 129.827 65.4142C130.232 66.9912 132.513 66.9063 133.589 67.6573Z" fill="#4C3E42"/>
<g opacity="0.1">
<path d="M155.829 72.2671C155.824 72.203 155.813 72.1394 155.796 72.0771C155.484 72.452 155.271 72.8988 155.175 73.3771C155.169 73.4892 155.178 73.6017 155.203 73.7111C155.561 73.3092 155.78 72.8031 155.829 72.2671Z" fill="black"/>
<path d="M152.549 75.6742C151.246 75.0177 149.998 74.2555 148.819 73.3952C147.89 72.8292 146.898 72.3822 146.007 71.7542C145.087 71.1042 144.29 70.2682 143.337 69.6792C142.423 69.013 141.24 68.836 140.17 69.2052C139.455 69.6646 138.787 70.1935 138.176 70.7842C137.488 71.2842 136.433 71.4762 135.905 70.7842C135.696 70.4542 135.567 70.0799 135.528 69.6912C135.409 68.4467 134.82 67.2941 133.882 66.4672C132.805 65.7152 130.524 65.7992 130.11 64.2192C130.041 63.9364 130.023 63.6435 130.056 63.3542C129.773 63.9918 129.689 64.7002 129.816 65.3862C130.231 66.9742 132.516 66.8862 133.588 67.6342C134.527 68.4615 135.116 69.6142 135.236 70.8592C135.275 71.2476 135.404 71.6217 135.611 71.9522C136.13 72.6332 137.195 72.4412 137.883 71.9432C138.494 71.3527 139.162 70.8244 139.877 70.3662C140.947 69.9937 142.131 70.1709 143.044 70.8402C143.997 71.4402 144.794 72.2722 145.714 72.9152C146.605 73.5452 147.597 73.9912 148.524 74.5562C149.703 75.4178 150.952 76.1807 152.256 76.8372C153.592 77.484 155.183 77.2804 156.313 76.3182C156.047 76.175 155.793 76.0076 155.557 75.8182C154.57 76.1335 153.502 76.0824 152.549 75.6742Z" fill="black"/>
</g>
<path d="M121.941 87.5814L135.776 82.4144C136.103 82.2917 136.465 82.3041 136.783 82.4488C137.1 82.5934 137.347 82.8585 137.469 83.1854C137.591 83.5125 137.578 83.8745 137.433 84.192C137.288 84.5095 137.023 84.7564 136.696 84.8784L122.861 90.0474L119.897 89.7474L121.941 87.5814Z" fill="#5C5C8E"/>
<path opacity="0.1" d="M137.048 82.7714C137.302 83.4529 136.956 84.2114 136.275 84.4663L122.44 89.6334L120.213 89.4103L119.893 89.7563L122.857 90.0563L136.692 84.8873C137.019 84.7653 137.284 84.5184 137.429 84.2009C137.574 83.8834 137.587 83.5213 137.465 83.1943C137.364 82.9217 137.174 82.6905 136.927 82.5374C136.975 82.6115 137.015 82.6898 137.048 82.7714Z" fill="white"/>
<path d="M121.941 87.6084L122.863 90.0744L120.43 89.8304L119.897 89.7764L120.625 89.0054L121.941 87.6084Z" fill="#EFC8C4"/>
<path d="M120.623 89.0132C120.681 89.0551 120.729 89.1081 120.765 89.1691C120.812 89.2423 120.812 89.336 120.765 89.4092C120.726 89.4493 120.68 89.4831 120.63 89.5092C120.515 89.5834 120.441 89.7068 120.43 89.8431L119.897 89.7891L120.623 89.0132Z" fill="#727A9C"/>
<path d="M109.865 60.8072L107.532 59.6692C107.392 59.6009 107.334 59.4322 107.402 59.2922L107.649 58.7842C107.681 58.7166 107.74 58.6647 107.81 58.6403C107.881 58.6159 107.959 58.6209 108.026 58.6542L109.598 59.4202L111.239 56.0552C111.308 55.9157 111.476 55.8573 111.616 55.9242L112.124 56.1732C112.192 56.2055 112.243 56.2636 112.268 56.3345C112.292 56.4054 112.287 56.4831 112.254 56.5502L110.241 60.6782C110.173 60.8182 110.004 60.8764 109.864 60.8082L109.865 60.8072Z" fill="#3ACC6C"/>
<path d="M114.961 75.3983L112.628 74.2603C112.488 74.1921 112.43 74.0233 112.498 73.8833L112.745 73.3753C112.814 73.2351 112.984 73.177 113.124 73.2453L114.694 74.0113L116.333 70.6423C116.402 70.5028 116.57 70.4445 116.71 70.5113L117.217 70.7603C117.285 70.7929 117.336 70.851 117.361 70.9217C117.386 70.9924 117.381 71.07 117.348 71.1373L115.335 75.2653C115.266 75.4051 115.097 75.4631 114.956 75.3953L114.961 75.3983Z" fill="#3ACC6C"/>
<path d="M112.674 68.2051L110.341 67.0671C110.202 66.9985 110.143 66.8304 110.21 66.6901L110.459 66.1821C110.491 66.1145 110.55 66.0627 110.62 66.0382C110.691 66.0138 110.769 66.0188 110.836 66.0521L112.408 66.8182L114.049 63.4471C114.117 63.3071 114.286 63.2489 114.426 63.3171L114.934 63.5641C115.074 63.6335 115.132 63.8025 115.064 63.9432L113.049 68.0741C112.981 68.2141 112.812 68.2723 112.672 68.2041L112.674 68.2051Z" fill="#3ACC6C"/>
<path d="M117.175 81.9853L114.842 80.8473C114.702 80.7791 114.644 80.6103 114.712 80.4703L114.959 79.9623C115.027 79.8223 115.196 79.7641 115.336 79.8323L116.908 80.5983L118.549 77.2333C118.618 77.0931 118.787 77.0347 118.928 77.1024L119.435 77.3513C119.503 77.3837 119.555 77.4418 119.579 77.5126C119.603 77.5835 119.598 77.6612 119.565 77.7283L117.554 81.8563C117.485 81.9961 117.316 82.0541 117.175 81.9863V81.9853Z" fill="#3ACC6C"/>
<defs>
<linearGradient id="paint0_linear_123_6549" x1="148.338" y1="137.931" x2="148.338" y2="54.4783" gradientUnits="userSpaceOnUse">
<stop stop-color="#808080" stop-opacity="0.251"/>
<stop offset="0.54" stop-color="#808080" stop-opacity="0.122"/>
<stop offset="1" stop-color="#808080" stop-opacity="0.102"/>
</linearGradient>
</defs>
</svg>
