<svg width="816" height="243" viewBox="0 0 816 243" fill="none" xmlns="http://www.w3.org/2000/svg">
<g clip-path="url(#clip0_1_26)">
<path d="M276.845 179.754C278.6 179.754 280.023 178.331 280.023 176.576C280.023 174.821 278.6 173.398 276.845 173.398C275.09 173.398 273.667 174.821 273.667 176.576C273.667 178.331 275.09 179.754 276.845 179.754Z" fill="#DBDBDB"/>
<path d="M11.1848 22.583H7.92578V41.05H11.1848V22.583Z" fill="#47E6B1"/>
<path d="M18.7886 33.446V30.187H0.321564V33.446H18.7886Z" fill="#47E6B1"/>
<path d="M561.643 40.8469H558.384V59.3139H561.643V40.8469Z" fill="#47E6B1"/>
<path d="M569.247 51.7099V48.4509H550.78V51.7099H569.247Z" fill="#47E6B1"/>
<path opacity="0.5" d="M412.301 235.412C410.442 234.602 409.486 232.528 410.077 230.588C410.123 230.444 410.152 230.296 410.164 230.145C410.223 229.26 409.692 228.442 408.86 228.136C408.028 227.829 407.093 228.107 406.564 228.818C406.475 228.94 406.401 229.072 406.343 229.211C405.533 231.07 403.458 232.026 401.519 231.435C401.375 231.389 401.227 231.359 401.076 231.348C400.191 231.289 399.373 231.82 399.066 232.652C398.76 233.484 399.038 234.419 399.749 234.948C399.871 235.037 400.003 235.111 400.142 235.169C402.001 235.979 402.957 238.054 402.366 239.993C402.32 240.137 402.29 240.285 402.279 240.436C402.22 241.321 402.751 242.139 403.583 242.446C404.415 242.752 405.35 242.474 405.879 241.763C405.968 241.641 406.043 241.509 406.101 241.37C406.911 239.511 408.985 238.555 410.925 239.146C411.069 239.192 411.217 239.221 411.368 239.233C412.253 239.292 413.071 238.761 413.377 237.929C413.684 237.097 413.406 236.162 412.695 235.633C412.573 235.544 412.441 235.47 412.301 235.412Z" fill="#4D8AF0"/>
<path opacity="0.5" d="M745.301 7.41202C743.442 6.60217 742.486 4.52751 743.077 2.58805C743.123 2.44432 743.152 2.2956 743.164 2.14503C743.223 1.26021 742.692 0.442236 741.86 0.135534C741.028 -0.171168 740.093 0.106649 739.564 0.818029C739.475 0.939925 739.401 1.07183 739.343 1.21103C738.533 3.06989 736.458 4.02638 734.519 3.43503C734.375 3.38868 734.226 3.35947 734.076 3.34803C733.191 3.28909 732.373 3.81984 732.066 4.65189C731.76 5.48394 732.038 6.41859 732.749 6.94803C732.871 7.03693 733.003 7.11112 733.142 7.16904C735.001 7.97889 735.957 10.0536 735.366 11.993C735.32 12.1368 735.29 12.2855 735.279 12.436C735.22 13.3209 735.751 14.1388 736.583 14.4455C737.415 14.7522 738.349 14.4744 738.879 13.763C738.968 13.6412 739.043 13.5093 739.101 13.37C739.911 11.5112 741.985 10.5547 743.925 11.146C744.069 11.1923 744.217 11.2215 744.368 11.233C745.253 11.292 746.071 10.7612 746.377 9.92917C746.684 9.09713 746.406 8.16247 745.695 7.63303C745.573 7.54413 745.44 7.46994 745.301 7.41202Z" fill="#4D8AF0"/>
<path opacity="0.5" d="M808.905 107.823C812.505 107.823 815.423 104.905 815.423 101.305C815.423 97.7053 812.505 94.7871 808.905 94.7871C805.305 94.7871 802.387 97.7053 802.387 101.305C802.387 104.905 805.305 107.823 808.905 107.823Z" fill="#F55F44"/>
<path opacity="0.5" d="M171.905 62.8231C175.505 62.8231 178.423 59.9049 178.423 56.3051C178.423 52.7053 175.505 49.7871 171.905 49.7871C168.305 49.7871 165.387 52.7053 165.387 56.3051C165.387 59.9049 168.305 62.8231 171.905 62.8231Z" fill="#F55F44"/>
<path opacity="0.5" d="M661.517 147.102C665.117 147.102 668.035 144.184 668.035 140.584C668.035 136.984 665.117 134.066 661.517 134.066C657.917 134.066 654.999 136.984 654.999 140.584C654.999 144.184 657.917 147.102 661.517 147.102Z" fill="#4D8AF0"/>
<path opacity="0.5" d="M83.31 176.192C86.9098 176.192 89.828 173.274 89.828 169.674C89.828 166.074 86.9098 163.156 83.31 163.156C79.7102 163.156 76.792 166.074 76.792 169.674C76.792 173.274 79.7102 176.192 83.31 176.192Z" fill="#47E6B1"/>
</g>
<defs>
<clipPath id="clip0_1_26">
<rect width="816" height="243" fill="white"/>
</clipPath>
</defs>
</svg>
