<svg width="14" height="14" viewBox="0 0 14 14" xmlns="http://www.w3.org/2000/svg">
<path d="M7 1.663C8.01455 1.663 8.837 2.48545 8.837 3.5C8.837 4.51455 8.01455 5.337 7 5.337C5.98545 5.337 5.163 4.51455 5.163 3.5C5.163 2.48545 5.98545 1.663 7 1.663ZM7 9.538C9.6 9.538 12.337 10.815 12.337 11.375V12.338H1.663V11.375C1.663 10.815 4.402 9.538 7.001 9.538M7 0C5.067 0 3.5 1.567 3.5 3.5C3.5 5.433 5.067 7 7 7C8.933 7 10.5 5.433 10.5 3.5C10.5 2.57174 10.1313 1.6815 9.47487 1.02513C8.8185 0.368749 7.92826 0 7 0ZM7 7.875C4.664 7.875 0 9.048 0 11.375V14H14V11.375C14 9.047 9.336 7.875 7 7.875Z" fill="currentColor"/>
</svg>
