<svg width="230" height="87" viewBox="0 0 230 87" fill="none" xmlns="http://www.w3.org/2000/svg">
<g clip-path="url(#clip0_19_65)">
<path d="M110.642 0.846924H107.383V19.3139H110.642V0.846924Z" fill="#47E6B1"/>
<path d="M118.246 11.7099V8.45093H99.7786V11.7099H118.246Z" fill="#47E6B1"/>
<path opacity="0.5" d="M225.905 86.823C227.848 86.823 229.423 85.2479 229.423 83.3049C229.423 81.362 227.848 79.7871 225.905 79.7871C223.962 79.7871 222.387 81.362 222.387 83.3049C222.387 85.2479 223.962 86.823 225.905 86.823Z" fill="#F55F44"/>
<path opacity="0.5" d="M6.51703 60.1021C10.1168 60.1021 13.035 57.1838 13.035 53.584C13.035 49.9842 10.1168 47.0659 6.51703 47.0659C2.91724 47.0659 -0.000976562 49.9842 -0.000976562 53.584C-0.000976562 57.1838 2.91724 60.1021 6.51703 60.1021Z" fill="#4D8AF0"/>
</g>
<defs>
<clipPath id="clip0_19_65">
<rect width="230" height="87" fill="white"/>
</clipPath>
</defs>
</svg>
