<svg width="695" height="876" viewBox="0 0 695 876" fill="none" xmlns="http://www.w3.org/2000/svg">
<path d="M0.748047 1.86047C176.085 89.9075 323.972 14.5665 493.619 70.4905C663.266 126.414 730.121 263.281 675 386.245C619.879 509.209 340.322 508.532 156 654.345" stroke="#3D3691" stroke-width="2"/>
<path opacity="0.136" d="M387.063 298.04C484.433 298.04 563.363 304.169 563.363 311.729C563.363 319.289 484.436 325.419 387.063 325.419C289.69 325.419 210.763 319.29 210.763 311.729C210.763 304.168 289.697 298.04 387.063 298.04Z" fill="#584DFC"/>
<path opacity="0.587" d="M448.047 359.851C474.395 359.851 495.753 356.136 495.753 351.554C495.753 346.972 474.395 343.257 448.047 343.257C421.7 343.257 400.341 346.972 400.341 351.554C400.341 356.136 421.7 359.851 448.047 359.851Z" fill="#DEDBFF"/>
<path d="M423.078 312.145L349.159 311.195L349.379 309.295L352.951 278.021H417.868L422.643 309.295L423.008 311.668L423.078 312.145Z" fill="#D0D2D5"/>
<path opacity="0.1" d="M423.009 311.672H386.12L349.159 311.195L349.379 309.295H422.642L423.009 311.672Z" fill="black"/>
<path d="M434.926 309.776H336.839V312.145H434.926V309.776Z" fill="#D0D2D5"/>
<path d="M528.507 90.189C528.518 86.7858 525.771 84.0165 522.368 84H248.446C246.81 84.0079 245.244 84.6656 244.093 85.8284C242.941 86.9912 242.299 88.5637 242.307 90.2V256.234H528.507V90.189Z" fill="#3F3D56"/>
<path d="M242.307 254.574V274.021C242.307 277.411 245.056 280.16 248.446 280.16H522.368C525.758 280.159 528.507 277.411 528.507 274.021V254.574H242.307Z" fill="#D0D2D5"/>
<path d="M518.082 94.412H254.154V243.673H518.082V94.412Z" fill="white"/>
<path d="M386.831 272.781C388.795 272.783 390.65 271.882 391.863 270.338C392.046 270.106 392.213 269.862 392.363 269.608L388.849 269.015L392.649 269.04C393.384 267.44 393.427 265.608 392.769 263.975L387.679 266.613L392.379 263.162C391.185 261.077 388.925 259.837 386.526 259.949C384.126 260.061 381.992 261.508 380.998 263.695C380.004 265.882 380.319 268.441 381.813 270.322C383.021 271.872 384.876 272.779 386.841 272.782L386.831 272.781Z" fill="#584DFC"/>
<path opacity="0.1" d="M393.227 280.157L422.717 309.776L418.191 280.157H393.227Z" fill="black"/>
<path opacity="0.1" d="M518.162 94.429H253.947V103.149H518.162V94.429Z" fill="#444053"/>
<path opacity="0.3" d="M424.709 95.947H346.263C345.943 95.947 345.683 96.2067 345.683 96.527V100.673C345.683 100.993 345.943 101.253 346.263 101.253H424.709C425.029 101.253 425.289 100.993 425.289 100.673V96.527C425.289 96.2067 425.029 95.947 424.709 95.947Z" fill="#584DFC"/>
<path d="M422.924 99.15H422.724L422.654 99.088C422.895 98.7979 423.027 98.4324 423.027 98.055C423.02 97.1901 422.315 96.4939 421.45 96.4991C420.585 96.5042 419.887 97.2088 419.891 98.0737C419.895 98.9386 420.598 99.6372 421.463 99.635C421.841 99.6338 422.206 99.5005 422.496 99.258L422.567 99.32V99.515L423.782 100.73L424.143 100.365L422.924 99.15ZM421.468 99.15C420.95 99.1483 420.505 98.7812 420.405 98.2729C420.305 97.7647 420.578 97.2564 421.057 97.0585C421.535 96.8606 422.087 97.028 422.375 97.4585C422.663 97.889 422.608 98.463 422.242 98.83C422.036 99.0346 421.758 99.1496 421.468 99.15Z" fill="#3F3D56"/>
<path opacity="0.8" d="M258.697 100.386C259.579 100.386 260.294 99.671 260.294 98.789C260.294 97.907 259.579 97.192 258.697 97.192C257.815 97.192 257.1 97.907 257.1 98.789C257.1 99.671 257.815 100.386 258.697 100.386Z" fill="#FA5959"/>
<path opacity="0.8" d="M263.09 100.386C263.972 100.386 264.687 99.671 264.687 98.789C264.687 97.907 263.972 97.192 263.09 97.192C262.208 97.192 261.493 97.907 261.493 98.789C261.493 99.671 262.208 100.386 263.09 100.386Z" fill="#FED253"/>
<path opacity="0.8" d="M267.487 100.386C268.369 100.386 269.084 99.671 269.084 98.789C269.084 97.907 268.369 97.192 267.487 97.192C266.605 97.192 265.89 97.907 265.89 98.789C265.89 99.671 266.605 100.386 267.487 100.386Z" fill="#8CCF4D"/>
<path d="M400.101 158.458C396.48 153.646 391.232 150.609 385.391 150.609C379.55 150.609 374.303 153.646 370.681 158.458C373.116 164.441 378.932 168.354 385.391 168.354C391.851 168.354 397.667 164.441 400.101 158.458Z" fill="#584DFC"/>
<path d="M368.768 161.274C368.51 161.163 368.266 161.024 368.038 160.859C367.696 160.577 367.423 160.221 367.238 159.818C367.897 158.466 367.444 156.835 366.184 156.016C364.923 155.196 363.249 155.445 362.281 156.596C361.313 157.746 361.354 159.438 362.376 160.54C362.584 160.761 362.822 160.952 363.081 161.108C363.419 161.304 363.694 161.592 363.873 161.938C364.213 162.623 364.68 163.237 365.25 163.747C365.836 164.249 366.468 164.693 367.138 165.074C366.216 167.685 365.692 170.421 365.586 173.188C364.514 173.206 363.449 173.378 362.425 173.698C361.901 173.861 361.407 174.107 360.961 174.428C360.842 174.413 360.721 174.405 360.6 174.403C359.091 174.403 357.819 175.53 357.638 177.029C357.458 178.528 358.425 179.925 359.892 180.284C361.358 180.642 362.861 179.848 363.392 178.435C363.632 177.764 364.226 177.284 364.931 177.19C365.186 177.159 365.442 177.142 365.698 177.14C366.055 181.044 367.266 184.821 369.245 188.204C367.68 189.302 366.52 190.885 365.945 192.709C365.86 192.756 365.781 192.813 365.709 192.879C365.584 192.977 365.468 193.085 365.361 193.203C364.379 194.285 364.327 195.919 365.238 197.061C366.148 198.204 367.753 198.517 369.027 197.8C370.3 197.084 370.865 195.549 370.361 194.178C370.084 193.442 370.275 192.612 370.846 192.071C371.07 191.856 371.305 191.654 371.551 191.465C374.915 195.393 378.918 197.911 383.917 198.21V171.558C377.4 171.064 371.633 167.149 368.768 161.274ZM410.181 174.432C410.061 174.434 409.94 174.442 409.82 174.457C409.371 174.144 408.877 173.898 408.356 173.727C407.333 173.406 406.268 173.234 405.195 173.217C405.08 170.452 404.558 167.719 403.644 165.107C404.315 164.726 404.947 164.282 405.532 163.78C406.121 163.24 406.605 162.596 406.959 161.88C407.125 161.57 407.381 161.317 407.693 161.154C409.104 160.361 409.623 158.586 408.862 157.157C408.101 155.729 406.338 155.17 404.893 155.899C403.448 156.628 402.849 158.378 403.545 159.839C403.364 160.244 403.09 160.601 402.745 160.88C402.513 161.072 402.269 161.251 402.015 161.415C399.141 167.255 393.376 171.125 386.882 171.574V198.252C391.86 197.952 395.888 195.423 399.248 191.507C399.509 191.714 399.729 191.901 399.916 192.075C400.512 192.627 400.718 193.482 400.439 194.245C399.938 195.615 400.502 197.146 401.773 197.863C403.043 198.579 404.646 198.27 405.559 197.132C406.472 195.994 406.426 194.363 405.45 193.278C405.343 193.16 405.227 193.052 405.101 192.954C404.964 192.846 404.865 192.784 404.865 192.784C404.293 190.954 403.125 189.368 401.546 188.279C403.526 184.896 404.737 181.119 405.093 177.215C405.339 177.218 405.584 177.235 405.827 177.265C406.548 177.357 407.161 177.834 407.427 178.51C407.938 179.808 409.282 180.578 410.661 180.362C412.039 180.146 413.083 179.002 413.172 177.61C413.214 176.789 412.92 175.986 412.357 175.386C411.794 174.787 411.012 174.442 410.189 174.432H410.181Z" fill="#584DFC"/>
<path d="M475.164 346.716C474.924 346.334 474.619 345.996 474.264 345.716C472.552 343.868 471.467 341.526 471.164 339.025C470.869 336.54 470.437 334.074 469.87 331.637C469.48 330.4 468.992 329.196 468.41 328.037C467.995 327.149 467.472 325.411 466.71 324.789C466.561 324.66 466.381 324.573 466.187 324.536C465.829 323.774 465.319 323.093 464.687 322.536C463.501 321.462 462.053 320.607 461.26 319.217C461.043 318.735 460.775 318.277 460.46 317.852C459.925 317.263 459.079 317.022 458.585 316.4C457.942 315.6 458.085 314.442 458.17 313.417C458.255 312.392 458.17 311.164 457.282 310.625C456.751 310.297 456.067 310.33 455.515 310.04C454.719 309.517 454.279 308.594 454.374 307.646C454.391 306.713 454.681 305.804 454.756 304.871C454.988 301.901 453.03 298.947 453.785 296.071C454.164 295.011 454.642 293.988 455.212 293.018C455.382 292.68 455.521 292.327 455.627 291.964C456.922 292.477 458.282 292.805 459.668 292.939C457.382 287.812 457.963 281.855 456.897 276.346L457.034 276.159C458.111 274.739 458.723 273.02 458.785 271.239C458.785 269.19 457.827 267.273 457.395 265.265C457.026 263.56 457.042 261.776 456.565 260.1C456.235 259.057 455.795 258.051 455.254 257.1C454.737 256.141 454.194 255.196 453.624 254.267C453.091 252.508 452.558 250.749 452.024 248.99C451.402 246.483 450.401 244.086 449.058 241.88C448.527 241.1 448.365 239.515 447.548 239.043C446.885 238.7 446.132 238.568 445.391 238.666C444.207 238.14 443.347 237.077 443.08 235.808C443.066 235.529 443.094 235.249 443.163 234.978H443.304C445.129 234.812 446.054 233.202 447.004 231.792C448.539 229.51 447.954 226.424 447.004 223.827C446.769 223.007 446.342 222.256 445.759 221.633C444.427 220.388 442.32 220.662 440.603 220.061C440.026 219.861 439.487 219.561 438.903 219.418C437.737 219.232 436.542 219.456 435.522 220.053C434.513 220.647 433.473 221.189 432.407 221.675C431.307 222.09 429.959 222.417 429.69 223.542C429.615 223.921 429.646 224.313 429.781 224.675C430.034 225.396 430.477 226.036 431.063 226.525C430.118 228.471 430.074 230.734 430.941 232.715C431.809 234.697 433.501 236.199 435.572 236.825C435.887 237.331 436.182 237.845 436.451 238.372C437 239.279 437.253 240.335 437.173 241.392C436.873 241.711 436.596 242.05 436.343 242.408C435.23 244.116 434.39 245.987 433.854 247.954C433.02 250.433 432.352 252.965 431.854 255.533C430.726 257.626 429.73 259.787 428.871 262.004C427.557 262.005 426.248 261.83 424.98 261.481L421.48 260.689C420.24 260.508 419.059 260.035 418.037 259.308C417.531 258.893 417.137 258.341 416.622 257.931C416.107 257.521 415.075 257.039 414.511 257.379C414.408 257.442 414.312 257.515 414.225 257.599C413.711 256.558 413.225 255.525 412.625 254.517C411.855 253.037 410.489 251.956 408.871 251.547C407.883 251.388 406.871 251.623 406.054 252.202C405.108 252.874 404.515 254.276 405.224 255.222C405.402 255.432 405.595 255.629 405.801 255.811C406.282 256.364 406.711 256.96 407.083 257.591C408.422 259.469 410.423 260.768 412.683 261.225L412.538 261.64C412.243 262.503 411.617 263.54 411.775 264.44L427.348 269.771C428.347 270.177 429.408 270.411 430.484 270.464C430.905 270.461 431.323 270.405 431.729 270.298V271.128C431.771 276.6 430.899 282.034 430.738 287.501C430.604 288.497 430.828 289.508 431.369 290.355C432.169 291.149 433.327 291.464 434.418 291.185C434.679 291.141 434.937 291.083 435.19 291.011C435.561 292.387 435.828 293.789 435.99 295.205L437.019 302.614C437.152 303.373 437.206 304.144 437.181 304.914C437.061 306.652 436.144 308.208 435.481 309.814C434.818 311.42 434.423 313.34 435.294 314.842C435.568 315.307 435.945 315.701 436.194 316.182C436.506 316.927 436.647 317.732 436.609 318.538C436.676 320.773 436.737 323.01 436.791 325.25C436.611 325.219 436.425 325.255 436.268 325.35C435.405 326.022 435.501 329.22 435.438 330.212C435.372 331.871 435.438 333.564 435.347 335.24C435.239 337.499 434.876 339.738 434.264 341.915C434.115 342.622 433.788 343.28 433.314 343.827C432.829 344.249 432.251 344.549 431.626 344.702C429.559 345.349 427.398 345.644 425.233 345.573C424.361 345.464 423.475 345.539 422.633 345.793C421.772 346.086 421.267 346.978 421.459 347.867C421.82 348.522 422.443 348.992 423.172 349.157C424.755 349.715 426.283 350.418 427.735 351.257C428.295 351.638 428.884 351.973 429.498 352.257C430.087 352.468 430.696 352.618 431.315 352.705L438.67 353.974C440.176 354.231 441.989 354.389 442.947 353.144C443.409 352.419 443.61 351.559 443.515 350.705C443.334 349.042 443.282 347.369 443.357 345.698C443.521 344.717 443.78 343.754 444.129 342.823C444.863 340.646 445.598 338.471 446.336 336.298C447.15 334.138 447.743 331.902 448.107 329.623C448.324 328.816 448.122 327.955 447.568 327.329C447.408 327.197 447.221 327.101 447.02 327.047C446.995 325.047 446.734 323.047 446.846 321.047C446.875 320.547 446.925 320.047 446.966 319.547C447.351 319.912 447.695 320.318 447.991 320.758C448.7 321.87 448.962 323.338 450.044 324.077C450.965 324.708 452.33 324.677 452.977 325.587C453.185 325.937 453.342 326.316 453.442 326.711C453.818 327.689 454.382 328.584 455.101 329.345C455.349 330.256 455.692 331.137 456.126 331.975C456.738 333.266 457.346 334.554 457.951 335.837C458.574 337.222 459.266 338.575 460.025 339.89C460.605 340.718 461.073 341.619 461.415 342.57C461.861 344.702 461.146 346.911 459.536 348.378C457.943 349.79 456.087 350.872 454.073 351.564C453.867 351.634 453.677 351.747 453.517 351.896C453.347 352.097 453.257 352.354 453.264 352.618C453.339 353.595 454.014 354.423 454.956 354.692C455.881 354.939 456.85 354.973 457.789 354.792C463.122 354.274 468.306 352.742 473.063 350.279C473.764 349.947 474.386 349.467 474.884 348.873C475.366 348.26 475.473 347.432 475.164 346.716Z" fill="url(#paint0_linear_3_156)"/>
<path d="M452.759 253.693C453.644 255.051 454.474 256.442 455.248 257.866C455.791 258.808 456.231 259.805 456.563 260.84C457.044 262.499 457.032 264.271 457.393 265.963C457.808 267.954 458.779 269.854 458.779 271.895C458.716 273.663 458.104 275.368 457.028 276.773C455.956 278.166 454.728 279.433 453.369 280.548C450.237 272.433 448.487 263.85 448.192 255.156C448.079 253.953 448.211 252.739 448.582 251.588C448.852 250.883 450.146 248.95 450.982 249.709C451.282 249.987 451.364 251.24 451.55 251.659C451.9 252.368 452.305 253.047 452.761 253.692L452.759 253.693Z" fill="#2F2E41"/>
<path opacity="0.1" d="M452.759 253.693C453.644 255.051 454.474 256.442 455.248 257.866C455.791 258.808 456.231 259.805 456.563 260.84C457.044 262.499 457.032 264.271 457.393 265.963C457.808 267.954 458.779 269.854 458.779 271.895C458.716 273.663 458.104 275.368 457.028 276.773C455.956 278.166 454.728 279.433 453.369 280.548C450.237 272.433 448.487 263.85 448.192 255.156C448.079 253.953 448.211 252.739 448.582 251.588C448.852 250.883 450.146 248.95 450.982 249.709C451.282 249.987 451.364 251.24 451.55 251.659C451.9 252.368 452.305 253.047 452.761 253.692L452.759 253.693Z" fill="black"/>
<path d="M343.393 197.095C340.112 200.372 339.718 201.816 337.747 202.467C335.776 203.118 328.687 206.79 330.915 210.859L336.905 214.816L337.079 214.932L337.996 217.686L328.936 233.815C328.936 233.815 314.002 226.987 312.536 237.088C311.07 247.189 312.001 249.948 311.607 255.341C311.213 260.734 311.736 262.294 310.421 262.294C309.106 262.294 308.587 258.751 308.587 258.751C308.587 258.751 308.504 258.589 308.359 258.286C306.405 254.225 293.143 224.411 314.386 203.918C314.386 203.918 324.226 203.271 326.594 191.987C328.228 184.187 333.945 184.86 337.745 186.449C338.98 186.932 340.131 187.607 341.155 188.449C342.076 189.32 342.896 190.293 343.598 191.349C344.683 193.067 345.272 195.212 343.393 197.095Z" fill="#D0D2D5"/>
<path opacity="0.1" d="M337.079 214.938L337.996 217.693L328.936 233.822C328.936 233.822 314.002 226.994 312.536 237.095C311.07 247.196 312.001 249.955 311.607 255.348C311.213 260.741 311.736 262.301 310.421 262.301C309.106 262.301 308.587 258.758 308.587 258.758C308.587 258.758 308.504 258.596 308.359 258.293C307.699 253.249 304.359 223.742 316.477 225.31C316.477 225.31 326.313 229.91 327.885 228.073C329.13 226.621 334.655 218.273 336.903 214.844L337.079 214.938Z" fill="black"/>
<path opacity="0.1" d="M343.6 191.333L337.61 198.14C337.61 198.14 330.653 207.449 329.21 207.055C328.778 206.961 328.337 206.91 327.895 206.902C326.912 206.827 326.06 206.193 325.706 205.273C325.351 204.353 325.558 203.311 326.236 202.596C328.609 200.107 332.981 195.382 333.267 194.333C333.553 193.284 336.337 188.683 337.731 186.433C338.966 186.916 340.117 187.591 341.141 188.433C342.068 189.303 342.893 190.276 343.6 191.333Z" fill="black"/>
<path d="M513.084 289.274C512.068 291.307 506.862 298.931 504.584 302.262L503.518 303.83C503.518 303.83 503.103 306.584 496.304 303.17C489.505 299.756 329.755 232.348 329.755 232.348L328.672 229.096L336.554 217.296L511.645 284.941C511.645 284.941 514.399 286.646 513.084 289.274Z" fill="#454B69"/>
<path opacity="0.1" d="M504.584 302.26L503.518 303.828C503.518 303.828 503.103 306.582 496.304 303.168C489.505 299.754 329.755 232.348 329.755 232.348L328.672 229.096L504.584 302.26Z" fill="black"/>
<path d="M408.226 258.229C406.606 257.851 404.902 258.185 403.543 259.146C402.781 259.791 402.299 260.707 402.199 261.701C402.091 262.85 402.759 264.215 403.912 264.301C404.19 264.304 404.467 264.286 404.742 264.247C405.471 264.244 406.198 264.305 406.916 264.429C409.783 264.699 412.602 263.56 414.478 261.376C415.469 260.131 414.163 259.592 412.993 259.343C411.392 259.004 409.828 258.486 408.226 258.229Z" fill="#FBBEBE"/>
<path d="M435.971 295.692L437 303.001C437.131 303.756 437.184 304.522 437.158 305.287C437.038 307.008 436.121 308.552 435.458 310.145C434.795 311.738 434.396 313.645 435.271 315.123C435.541 315.583 435.918 315.978 436.163 316.455C436.474 317.193 436.616 317.99 436.578 318.79L436.86 329.161C440.063 329.379 443.277 329.361 446.476 329.107C446.601 329.113 446.725 329.075 446.824 328.999C446.909 328.892 446.951 328.758 446.944 328.622C447.085 326.195 446.662 323.764 446.799 321.338C446.849 320.45 446.973 319.567 446.99 318.675C447.04 315.062 445.256 311.523 445.795 307.952C445.965 307.051 446.186 306.16 446.459 305.285C448.159 299.063 447.803 292.525 447.426 286.099C447.433 285.996 447.403 285.893 447.343 285.809C447.282 285.748 447.204 285.706 447.119 285.689C443.436 284.584 439.446 285.342 436.425 287.722C435.973 288.087 434.832 288.44 434.533 288.875C434.118 289.481 434.662 290.086 434.902 290.729C435.436 292.34 435.794 294.004 435.971 295.692Z" fill="#3F3D56"/>
<path opacity="0.1" d="M435.971 295.692L437 303.001C437.131 303.756 437.184 304.522 437.158 305.287C437.038 307.008 436.121 308.552 435.458 310.145C434.795 311.738 434.396 313.645 435.271 315.123C435.541 315.583 435.918 315.978 436.163 316.455C436.474 317.193 436.616 317.99 436.578 318.79L436.86 329.161C440.063 329.379 443.277 329.361 446.476 329.107C446.601 329.113 446.725 329.075 446.824 328.999C446.909 328.892 446.951 328.758 446.944 328.622C447.085 326.195 446.662 323.764 446.799 321.338C446.849 320.45 446.973 319.567 446.99 318.675C447.04 315.062 445.256 311.523 445.795 307.952C445.965 307.051 446.186 306.16 446.459 305.285C448.159 299.063 447.803 292.525 447.426 286.099C447.433 285.996 447.403 285.893 447.343 285.809C447.282 285.748 447.204 285.706 447.119 285.689C443.436 284.584 439.446 285.342 436.425 287.722C435.973 288.087 434.832 288.44 434.533 288.875C434.118 289.481 434.662 290.086 434.902 290.729C435.436 292.34 435.794 294.004 435.971 295.692Z" fill="black"/>
<path d="M455.206 293.49C454.638 294.453 454.16 295.467 453.779 296.518C453.024 299.376 454.979 302.326 454.746 305.254C454.671 306.179 454.385 307.079 454.364 308.004C454.276 308.947 454.715 309.863 455.505 310.385C456.057 310.667 456.75 310.638 457.268 310.962C458.143 311.497 458.243 312.713 458.156 313.733C458.069 314.753 457.924 315.894 458.571 316.691C459.065 317.309 459.911 317.55 460.442 318.135C460.758 318.555 461.026 319.008 461.242 319.487C462.034 320.873 463.482 321.719 464.669 322.806C465.856 323.893 466.859 325.486 466.328 326.992C465.808 328.056 464.899 328.879 463.789 329.292C461.867 330.242 459.838 330.959 457.745 331.428C457.521 331.496 457.283 331.509 457.052 331.465C456.819 331.38 456.61 331.237 456.446 331.05C455.131 329.944 454.087 328.552 453.393 326.98C453.293 326.589 453.136 326.214 452.928 325.868C452.281 324.96 450.916 324.993 449.995 324.368C448.916 323.634 448.655 322.178 447.95 321.078C447.167 320.13 446.336 319.222 445.461 318.357C444.192 316.747 443.881 314.599 442.972 312.757C442.586 311.977 442.093 311.247 441.786 310.434C441.477 309.461 441.286 308.453 441.218 307.434C440.633 302.589 439.144 297.71 440.081 292.915C440.288 291.861 440.608 290.841 440.741 289.754C440.969 287.875 440.608 285.954 440.886 284.075C440.9 283.598 441.131 283.154 441.512 282.868C441.737 282.767 441.981 282.718 442.226 282.723C444.686 282.592 447.151 282.647 449.602 282.889C450.847 283.009 452.24 283.262 452.987 284.279C453.476 285.24 453.749 286.296 453.787 287.374C454.085 288.493 454.634 289.53 455.392 290.406C456.09 291.428 455.717 292.436 455.206 293.49Z" fill="#3F3D56"/>
<path d="M445.636 327.199C446.289 327.106 446.954 327.237 447.523 327.572C448.07 328.194 448.272 329.048 448.062 329.849C447.695 332.115 447.1 334.339 446.287 336.486L444.08 342.961C443.731 343.885 443.472 344.841 443.308 345.815C443.232 347.476 443.285 349.14 443.466 350.793C443.544 351.64 443.343 352.49 442.894 353.212C441.956 354.419 440.127 354.278 438.621 354.042L431.274 352.797C430.654 352.714 430.045 352.566 429.457 352.353C428.844 352.07 428.254 351.739 427.694 351.362C426.24 350.531 424.713 349.837 423.131 349.288C422.442 349.031 421.671 348.703 421.422 348.01C421.23 347.121 421.735 346.229 422.596 345.936C423.438 345.682 424.323 345.606 425.196 345.712C427.358 345.781 429.517 345.489 431.584 344.849C432.206 344.696 432.784 344.398 433.268 343.978C433.76 343.425 434.095 342.75 434.239 342.024C434.865 339.862 435.238 337.635 435.351 335.387C435.438 333.728 435.38 332.068 435.451 330.409C435.493 329.426 435.397 326.261 436.26 325.584C436.92 325.078 439.633 326.476 440.524 326.684C442.2 327.067 443.917 327.24 445.636 327.199Z" fill="#2F2E41"/>
<path d="M469.838 331.812C470.397 334.232 470.829 336.68 471.132 339.146C471.444 341.629 472.528 343.95 474.232 345.783C474.585 346.064 474.889 346.402 475.132 346.783C475.444 347.507 475.324 348.345 474.821 348.952C474.32 349.543 473.7 350.02 473 350.352C468.24 352.8 463.058 354.322 457.73 354.836C456.791 355.013 455.825 354.979 454.901 354.736C453.959 354.468 453.284 353.639 453.213 352.662C453.204 352.4 453.293 352.144 453.462 351.944C453.623 351.796 453.814 351.684 454.022 351.616C456.029 350.919 457.883 349.842 459.482 348.443C461.09 346.999 461.807 344.808 461.361 342.693C461.014 341.749 460.543 340.854 459.961 340.034C459.203 338.73 458.51 337.388 457.887 336.014L456.062 332.185C455.459 331.097 455.064 329.907 454.896 328.675C457.189 328.778 459.479 328.41 461.625 327.596C462.627 327.188 463.56 326.628 464.392 325.937C465.097 325.348 465.74 324.249 466.692 325.016C467.455 325.63 467.936 327.36 468.385 328.235C468.966 329.386 469.452 330.582 469.838 331.812Z" fill="#2F2E41"/>
<path d="M443.089 236.737C443.272 238.33 444.815 239.379 446.289 240.01L436.968 242.984C437.568 241.831 437.084 240.42 436.487 239.25C436.001 238.324 435.446 237.435 434.828 236.591C434.737 236.462 434.633 236.301 434.699 236.151C434.759 236.055 434.852 235.984 434.96 235.951C436.854 235.001 438.867 234.311 440.946 233.902C441.552 233.815 442.697 233.574 443.146 234.188C443.595 234.802 443.002 236.003 443.089 236.737Z" fill="#FBBEBE"/>
<path opacity="0.1" d="M443.089 236.737C443.272 238.33 444.815 239.379 446.289 240.01L436.968 242.984C437.568 241.831 437.084 240.42 436.487 239.25C436.001 238.324 435.446 237.435 434.828 236.591C434.737 236.462 434.633 236.301 434.699 236.151C434.759 236.055 434.852 235.984 434.96 235.951C436.854 235.001 438.867 234.311 440.946 233.902C441.552 233.815 442.697 233.574 443.146 234.188C443.595 234.802 443.002 236.003 443.089 236.737Z" fill="black"/>
<path d="M437.671 238.026C441.708 238.026 444.98 234.754 444.98 230.717C444.98 226.68 441.708 223.408 437.671 223.408C433.635 223.408 430.362 226.68 430.362 230.717C430.362 234.754 433.635 238.026 437.671 238.026Z" fill="#FBBEBE"/>
<path d="M431.338 290.868C432.14 291.657 433.296 291.971 434.387 291.698C436.938 291.283 439.025 289.404 441.522 288.728C444.584 287.898 447.822 288.964 450.715 290.271C453.608 291.578 456.481 293.171 459.642 293.399C456.784 287.027 458.418 279.361 455.684 272.935C455.016 271.363 454.084 269.849 453.934 268.148C453.747 266.037 454.801 264 454.963 261.901C454.99 260.019 454.666 258.148 454.009 256.384L452.009 249.813C451.387 247.325 450.388 244.947 449.047 242.761C448.512 241.985 448.347 240.413 447.537 239.944C445.762 238.919 443.069 240.21 441.144 240.28C439.181 240.515 437.423 241.609 436.344 243.267C435.23 244.958 434.39 246.814 433.855 248.767C432.863 251.635 432.122 254.583 431.64 257.579C431.578 258.027 431.524 258.479 431.482 258.927C431.067 263.187 431.673 267.473 431.706 271.754V271.783C431.748 277.213 430.876 282.61 430.715 288.036C430.592 289.024 430.812 290.023 431.338 290.868Z" fill="#2F2E41"/>
<path opacity="0.1" d="M431.717 271.757C433.163 271.312 434.48 270.523 435.554 269.457C436.517 268.596 437.372 267.623 438.101 266.557C439.019 265.123 439.756 263.58 440.295 261.965C441.83 257.645 442.804 253.146 443.195 248.578C443.437 247.355 443.223 246.087 442.595 245.01C441.737 243.907 440.232 243.543 438.965 244.13C438.029 244.704 437.268 245.523 436.765 246.499C435.534 248.295 434.497 250.216 433.674 252.232C433.342 253.132 433.097 254.066 432.774 254.974C432.445 255.87 432.065 256.747 431.637 257.6C431.575 258.048 431.521 258.5 431.479 258.948C431.097 263.211 431.686 267.476 431.717 271.757Z" fill="black"/>
<path d="M442.58 244.208C443.207 245.283 443.422 246.549 443.186 247.771C442.796 252.339 441.821 256.838 440.286 261.158C439.751 262.787 439.014 264.343 438.091 265.788C437.361 266.853 436.506 267.826 435.544 268.688C434.218 270.09 432.426 270.962 430.504 271.14C429.428 271.089 428.368 270.858 427.368 270.456L411.791 265.156C411.633 264.268 412.26 263.231 412.554 262.377L413.384 259.917C413.542 259.21 413.941 258.579 414.512 258.133C415.13 257.764 416.112 258.27 416.623 258.68C417.134 259.09 417.523 259.63 418.033 260.049C419.057 260.77 420.237 261.239 421.476 261.418L424.976 262.202C426.244 262.549 427.553 262.723 428.867 262.72C429.842 259.742 431.696 257.12 432.746 254.166C433.07 253.266 433.314 252.328 433.646 251.424C434.469 249.408 435.505 247.486 436.737 245.691C437.24 244.715 438.001 243.896 438.937 243.322C440.209 242.729 441.723 243.097 442.58 244.208Z" fill="#2F2E41"/>
<path d="M440.003 232.369C439.948 231.888 439.798 231.423 439.563 231C439.313 230.565 438.809 230.343 438.318 230.452C437.588 230.68 437.343 231.809 436.58 231.846C436.066 231.871 435.696 231.346 435.535 230.859C435.448 230.347 435.229 229.867 434.9 229.465C434.633 229.265 434.326 229.123 434 229.05C432.229 228.49 430.4 227.457 429.81 225.694C429.67 225.337 429.636 224.947 429.71 224.57C429.98 223.454 431.369 223.118 432.427 222.716C433.485 222.314 434.501 221.625 435.538 221.102C436.559 220.509 437.754 220.288 438.919 220.476C439.498 220.658 440.067 220.87 440.624 221.111C442.341 221.711 444.445 221.43 445.776 222.671C446.359 223.286 446.785 224.032 447.021 224.845C447.95 227.425 448.539 230.487 447 232.752C446.05 234.152 445.129 235.752 443.3 235.917C441.182 236.094 440.339 234.169 440.003 232.369Z" fill="#2F2E41"/>
<g opacity="0.1">
<path d="M436.76 229.98C436.672 229.469 436.455 228.989 436.129 228.586C435.862 228.386 435.555 228.244 435.229 228.171C433.453 227.611 431.629 226.578 431.035 224.815C430.9 224.456 430.869 224.067 430.944 223.691C430.985 223.514 431.06 223.346 431.164 223.197C430.494 223.398 429.962 223.909 429.733 224.57C429.659 224.947 429.693 225.337 429.833 225.694C430.422 227.457 432.251 228.494 434.023 229.05C434.349 229.123 434.656 229.265 434.923 229.465C435.251 229.868 435.469 230.348 435.558 230.859C435.724 231.353 436.089 231.871 436.603 231.846C437.117 231.821 437.366 231.352 437.694 230.958C437.227 230.828 436.868 230.453 436.76 229.98Z" fill="black"/>
<path d="M444.525 235.024C442.393 235.224 441.551 233.278 441.206 231.49C441.161 231.011 441.02 230.545 440.791 230.121C440.54 229.687 440.036 229.465 439.546 229.573C439.168 229.757 438.85 230.045 438.629 230.403C439.015 230.44 439.362 230.655 439.567 230.984C439.802 231.407 439.952 231.872 440.007 232.353C440.343 234.141 441.185 236.086 443.326 235.887C444.172 235.794 444.953 235.388 445.516 234.75C445.204 234.896 444.869 234.989 444.525 235.024Z" fill="black"/>
</g>
<path opacity="0.1" d="M524.442 829.598C576.416 829.598 618.55 821.409 618.55 811.307C618.55 801.205 576.416 793.016 524.442 793.016C472.468 793.016 430.334 801.205 430.334 811.307C430.334 821.409 472.468 829.598 524.442 829.598Z" fill="#584DFC"/>
<path d="M502.081 655.246C502.081 655.246 491.974 660.589 481.809 639.391" stroke="#535461" stroke-width="2"/>
<path d="M457.365 664.694C457.365 664.694 478.795 663.924 480.015 654.418" stroke="#535461" stroke-width="2"/>
<path d="M599.111 806.329C599.927 805.663 600.521 804.766 600.816 803.755C601.089 802.708 600.591 801.613 599.623 801.132C598.523 800.714 597.357 801.471 596.471 802.241C595.585 803.011 594.565 803.884 593.403 803.719C594.618 802.618 595.166 800.959 594.846 799.351C594.796 799.023 594.658 798.716 594.446 798.461C593.836 797.811 592.736 798.091 592.006 798.603C589.691 800.233 589.045 803.376 589.032 806.203C588.906 805.168 588.891 804.123 588.988 803.086C589.078 802.025 588.638 800.989 587.812 800.317C587.265 800.023 586.651 799.877 586.031 799.894C584.987 799.743 583.927 800.044 583.119 800.722C582.324 801.792 582.372 803.268 583.235 804.284C584.097 805.251 585.116 806.067 586.249 806.697C587.112 807.21 587.849 807.912 588.404 808.75C588.469 808.866 588.522 808.988 588.564 809.115H595.087C596.548 808.372 597.901 807.435 599.111 806.329Z" fill="#584DFC"/>
<path opacity="0.1" d="M227.041 764.6C241.209 782.615 235.706 808.934 226.703 830.008C223.689 837.065 220.278 844.532 221.551 852.097C223.105 861.349 231.351 868.126 240.038 871.688C256.172 878.197 274.435 876.693 289.287 867.632C301.839 859.822 310.828 847.124 323.594 839.67C344.966 827.203 372.153 831.909 395.351 840.498C411.763 846.576 429.707 854.483 446.016 848.13C457.49 843.678 465.425 832.782 469.748 821.25C471.836 815.68 473.348 809.673 477.317 805.221C479.787 802.679 482.715 800.624 485.946 799.166C514.887 784.824 551.398 792.487 579.485 776.601C598.457 765.862 610.604 745.601 615.996 724.471C621.388 703.341 620.747 681.188 619.38 659.433C618.409 643.969 616.668 627.464 606.788 615.527C596.338 602.904 578.399 598.207 562.188 600.607C545.977 603.007 531.274 611.6 518.362 621.672C502.204 634.259 487.221 649.937 467.381 655.039C453.872 658.512 439.66 656.611 425.723 655.956C402.423 654.856 379.123 657.292 355.961 659.963C333.783 662.528 311.436 665.351 290.318 672.563C275.366 677.67 263.38 686.936 249.261 693.41C240.061 697.631 230.022 698.798 221.313 704.172C210.578 710.793 200.742 722.311 203.503 735.785C206.096 748.611 219.521 755.04 227.041 764.6Z" fill="#584DFC"/>
<path opacity="0.1" d="M407.648 764.591C512.815 764.591 598.069 756.402 598.069 746.3C598.069 736.198 512.815 728.009 407.648 728.009C302.481 728.009 217.227 736.198 217.227 746.3C217.227 756.402 302.481 764.591 407.648 764.591Z" fill="#584DFC"/>
<path opacity="0.1" d="M261.298 833.534C302.254 833.534 337.098 838.619 350.318 845.877C353.512 847.628 355.406 849.684 355.406 851.825C355.406 861.925 313.272 870.116 261.298 870.116C209.324 870.116 167.19 861.927 167.19 851.825C167.19 841.723 209.324 833.534 261.298 833.534Z" fill="#6C63FF"/>
<path d="M357.5 740.597L356.008 742.765C356.008 742.765 357.633 744.933 357.789 745.205C357.945 745.477 362.531 745.071 362.531 745.071L362.936 743.446L362.259 741.546L357.5 740.597Z" fill="#E6E6F0"/>
<path d="M307.351 739.377L304.368 739.916L306.268 743.58L308.303 744.662L310.203 746.016L310.746 744.529L309.388 741.679L307.351 739.377Z" fill="#FDC2CC"/>
<path d="M356.146 704.135C356.146 704.135 372.006 707.929 374.985 712.15C374.985 712.15 377.697 714.456 374.985 718.655C372.273 722.854 368.48 732.346 368.48 732.346C368.48 732.346 365.768 741.563 364.686 742.239C363.604 742.915 357.366 743.459 356.823 740.903C356.823 740.903 360.345 735.346 360.345 732.768C360.345 730.19 366.173 717.995 366.173 717.995C366.173 717.995 352.891 716.503 348.688 717.452C344.485 718.401 350.589 702.643 356.146 704.135Z" fill="#565171"/>
<path opacity="0.1" d="M356.146 704.135C356.146 704.135 372.006 707.929 374.985 712.15C374.985 712.15 377.697 714.456 374.985 718.655C372.273 722.854 368.48 732.346 368.48 732.346C368.48 732.346 365.768 741.563 364.686 742.239C363.604 742.915 357.366 743.459 356.823 740.903C356.823 740.903 360.345 735.346 360.345 732.768C360.345 730.19 366.173 717.995 366.173 717.995C366.173 717.995 352.891 716.503 348.688 717.452C344.485 718.401 350.589 702.643 356.146 704.135Z" fill="black"/>
<path d="M352.891 707.795C352.86 708.583 352.775 709.469 352.655 710.422C351.746 716.209 350.511 721.94 348.955 727.587C347.441 730.816 346.216 734.173 345.295 737.618C344.48 741.55 338.923 742.518 338.923 742.518C338.923 742.518 323.74 744.299 320.623 743.604C317.506 742.909 312.608 745.639 310.186 745.229C307.764 744.819 306.254 739.129 306.254 739.129C310.458 739.153 314.618 738.276 318.454 736.555C324.688 733.71 333.637 735.063 333.637 735.063C334.986 734.671 336.114 733.74 336.754 732.49C337.702 730.455 337.702 718.122 337.431 717.307C335.65 711.964 335.797 708.536 336.309 706.536C336.48 705.663 336.866 704.846 337.431 704.158L352.891 707.795Z" fill="#565171"/>
<path opacity="0.1" d="M352.891 707.795C352.86 708.583 352.775 709.469 352.655 710.422C351.293 710.529 347.472 710.631 344.64 708.881C341.968 707.242 338.081 706.681 336.332 706.512C336.503 705.639 336.889 704.821 337.454 704.134L352.891 707.795Z" fill="black"/>
<path d="M354.766 706.099C354.134 707.88 353.166 709.968 353.166 709.968C353.166 709.968 348.152 710.645 344.626 708.476C341.1 706.307 335.409 706.036 335.409 706.036C336.331 705.471 336.954 703.752 337.341 702.247C337.558 701.396 337.727 700.534 337.849 699.665C337.849 699.665 354.519 703.053 355.214 703.597C355.469 703.815 355.193 704.888 354.766 706.099Z" fill="#E6E6F0"/>
<path d="M384.476 648.968L364.257 661.168L362.249 662.379V656.417L363.642 655.749L380.676 647.608C380.676 647.608 381.491 632.835 383.659 635.141C385.827 637.447 384.476 648.968 384.476 648.968Z" fill="#FDC2CC"/>
<path opacity="0.1" d="M364.254 661.173L362.246 662.384V656.424L363.639 655.756C363.732 657.573 363.937 659.382 364.254 661.173Z" fill="black"/>
<path d="M348.692 663.355L363.192 654.955C363.192 654.955 363.463 663.09 365.092 664.305C365.092 664.305 359.13 666.086 356.824 669.862L348.692 663.355Z" fill="#B45181"/>
<path opacity="0.1" d="M348.692 663.355L363.192 654.955C363.192 654.955 363.463 663.09 365.092 664.305C365.092 664.305 359.13 666.086 356.824 669.862L348.692 663.355Z" fill="black"/>
<path d="M384.344 670.519C380.619 672.145 376.789 673.518 372.879 674.629C371.851 674.939 370.776 675.063 369.704 674.994C366.587 674.451 370.519 670.541 370.519 670.541L372.158 670.287L380.958 668.916C380.958 668.916 381.906 655.363 383.532 656.449C385.158 657.535 384.344 670.519 384.344 670.519Z" fill="#FDC2CC"/>
<path d="M355.197 658.319C355.197 658.319 349.369 662.656 351.537 668.079C353.705 673.502 340.285 664.824 340.285 664.824C340.285 664.824 344.622 658.319 345.57 653.439C346.518 648.559 355.197 658.319 355.197 658.319Z" fill="#FDC2CC"/>
<path opacity="0.1" d="M354.766 706.099C352.245 705.15 349.61 704.536 346.93 704.274C343.666 703.977 340.449 703.297 337.344 702.248C337.56 701.397 337.73 700.535 337.852 699.666C337.852 699.666 354.522 703.054 355.217 703.598C355.469 703.815 355.193 704.888 354.766 706.099Z" fill="black"/>
<path opacity="0.1" d="M372.874 674.628C371.846 674.938 370.771 675.062 369.699 674.993C366.582 674.45 370.514 670.541 370.514 670.541L372.153 670.287C373.085 671.531 373.354 673.15 372.874 674.628Z" fill="black"/>
<path d="M345.71 660.758C345.71 660.758 340.425 660.624 338.528 662.793C336.631 664.962 337.036 670.808 337.036 670.808C337.036 670.808 336.636 682.514 339.61 689.063C339.708 689.274 339.719 689.515 339.641 689.735C339.61 689.815 339.61 689.766 339.61 689.766C339.61 689.766 337.71 698.306 335.816 699.797C333.922 701.288 339.881 703.052 346.947 703.862C354.013 704.672 356.84 706.707 356.84 706.707C357.75 705.447 358.219 703.923 358.176 702.37C358.292 699.37 356.293 677.57 356.293 677.57C356.293 677.57 363.746 679.47 368.221 677.165C368.221 677.165 370.256 678.251 372.153 675.265C374.05 672.279 370.817 669.031 370.817 669.031C370.817 669.031 367.834 672.014 359.565 668.083C351.296 664.152 348.279 660.625 345.71 660.758Z" fill="#B45181"/>
<path d="M305.182 739.648H303.557V741.954L305.182 745.614C305.182 745.614 307.35 746.019 307.488 746.019C307.626 746.019 309.388 745.614 309.388 745.614L309.931 744.666C309.931 744.666 303.962 742.355 305.182 739.648Z" fill="#E6E6F0"/>
<path d="M356.146 741.817L353.706 747.24L364.006 752.14L372.141 752.412C372.141 752.412 372.818 750.512 370.106 749.567L367.938 749.162C367.938 749.162 365.093 744.011 364.821 741.593C364.821 741.593 362.11 742.136 361.704 744.167C360.664 744.67 359.457 744.7 358.393 744.25C357.329 743.8 356.51 742.913 356.146 741.817Z" fill="#B45181"/>
<path d="M303.962 739.105L303.134 739.782L299.492 742.765L307.892 753.896C307.892 753.896 312.634 755.931 314.807 753.896C314.807 753.896 316.143 752.56 313.182 751.456C312.611 751.597 312.006 751.46 311.552 751.085C311.098 750.711 310.847 750.144 310.876 749.556C310.876 747.256 311.419 744.814 312.212 744.271C312.212 744.271 310.177 743.594 309.638 744.137C309.224 744.594 308.86 745.094 308.552 745.629C308.552 745.629 303.691 743.713 303.962 739.105Z" fill="#B45181"/>
<path opacity="0.1" d="M345.304 653.711C345.166 654.399 344.985 655.077 344.761 655.741C346.225 659.262 350.224 660.981 353.786 659.619C354.143 659.25 354.525 658.906 354.93 658.59C354.93 658.59 346.253 648.831 345.304 653.711Z" fill="black"/>
<path opacity="0.1" d="M344.556 671.814C344.556 671.814 348.756 677.371 354.856 677.509L344.556 671.814Z" fill="black"/>
<g opacity="0.1">
<path d="M369.677 677.252C369.592 677.228 369.508 677.197 369.428 677.159C369.295 677.226 369.162 677.289 369.028 677.35C369.248 677.345 369.467 677.311 369.678 677.25L369.677 677.252Z" fill="black"/>
<path d="M371.119 669.588C370.972 669.399 370.814 669.218 370.647 669.045C369.763 669.731 368.676 670.104 367.557 670.105C368.769 670.226 369.991 670.048 371.119 669.589V669.588Z" fill="black"/>
<path d="M357.499 677.567L357.526 677.856C359.314 678.187 361.131 678.336 362.949 678.301C361.113 678.234 359.287 677.989 357.499 677.567Z" fill="black"/>
<path d="M348.149 703.872C341.101 703.057 335.139 701.298 337.018 699.807C338.897 698.316 340.812 689.776 340.812 689.776C340.812 689.776 340.812 689.825 340.843 689.745C340.921 689.526 340.91 689.284 340.812 689.073C337.842 682.506 338.238 670.818 338.238 670.818C338.238 670.818 337.833 664.99 339.73 662.803C341.141 661.187 344.43 660.853 346.021 660.786C345.873 660.774 345.724 660.774 345.576 660.786C345.576 660.786 340.291 660.652 338.394 662.821C336.497 664.99 336.902 670.836 336.902 670.836C336.902 670.836 336.502 682.542 339.475 689.091C339.573 689.302 339.584 689.544 339.506 689.763C339.475 689.843 339.475 689.794 339.475 689.794C339.475 689.794 337.592 698.307 335.675 699.794C333.758 701.281 339.74 703.049 346.806 703.859C353.872 704.669 356.699 706.704 356.699 706.704C356.841 706.534 356.966 706.35 357.073 706.156C354.246 704.904 351.23 704.132 348.149 703.872Z" fill="black"/>
</g>
<path d="M351.537 659.81C355.429 659.81 358.585 656.654 358.585 652.762C358.585 648.869 355.429 645.714 351.537 645.714C347.644 645.714 344.489 648.869 344.489 652.762C344.489 656.654 347.644 659.81 351.537 659.81Z" fill="#FDC2CC"/>
<path opacity="0.1" d="M361.569 649.609C360.986 651.069 359.245 651.622 357.718 652C355.536 652.534 353.185 653.06 351.097 652.232C350.826 652.08 350.514 652.019 350.207 652.058C349.959 652.157 349.751 652.338 349.619 652.57C347.319 655.847 347.691 660.215 347.094 664.178C346.991 665.426 346.527 666.617 345.758 667.606C344.137 669.387 341.078 669.32 339.587 671.213C338.603 672.46 338.594 674.192 338.603 675.781C338.603 677.476 338.588 679.172 338.558 680.87C338.607 681.985 338.408 683.097 337.975 684.125C337.12 685.799 335.214 686.596 333.456 687.242C332.391 687.734 331.228 687.977 330.056 687.954C328.85 687.912 327.824 687.064 327.556 685.888C327.347 684.294 328.99 683.181 330.121 682.032C331.849 680.089 332.784 677.566 332.739 674.966C332.802 673.927 332.651 672.885 332.294 671.907C331.88 670.896 331.141 670.046 330.694 669.049C329.323 665.977 331.015 662.424 333.04 659.734C335.065 657.044 337.555 654.422 337.987 651.087C338.024 650.365 338.127 649.648 338.294 648.945C338.606 647.974 339.345 645.294 340.16 644.679C341.464 643.696 342.995 643.059 344.612 642.827C345.863 642.644 347.141 642.711 348.383 642.471C349.835 642.19 351.183 641.5 352.635 641.242C355.774 640.685 359.18 644.332 360.556 647.208C360.932 648.091 361.924 648.715 361.569 649.609Z" fill="black"/>
<path d="M361.569 649.337C360.986 650.797 359.245 651.35 357.718 651.728C355.536 652.262 353.185 652.788 351.097 651.959C350.826 651.807 350.514 651.746 350.207 651.785C349.959 651.884 349.751 652.065 349.619 652.297C347.319 655.574 347.691 659.942 347.094 663.905C346.991 665.153 346.527 666.344 345.758 667.333C344.137 669.114 341.078 669.047 339.587 670.94C338.603 672.187 338.594 673.919 338.603 675.508C338.603 677.203 338.588 678.899 338.558 680.597C338.607 681.712 338.408 682.824 337.975 683.852C337.12 685.526 335.214 686.323 333.456 686.969C332.391 687.461 331.228 687.704 330.056 687.681C328.85 687.639 327.824 686.791 327.556 685.615C327.347 684.021 328.99 682.908 330.121 681.759C331.849 679.816 332.783 677.293 332.739 674.693C332.802 673.654 332.651 672.612 332.294 671.634C331.88 670.623 331.141 669.773 330.694 668.776C329.323 665.704 331.015 662.151 333.04 659.461C335.065 656.771 337.555 654.149 337.987 650.814C338.024 650.092 338.127 649.375 338.294 648.672C338.606 647.701 339.345 645.021 340.16 644.407C341.464 643.424 342.995 642.787 344.612 642.555C345.863 642.372 347.141 642.439 348.383 642.199C349.835 641.919 351.183 641.228 352.635 640.97C355.774 640.413 359.18 644.06 360.556 646.936C360.932 647.819 361.924 648.443 361.569 649.337Z" fill="#F569BC"/>
<path d="M384.344 635.789H501.521V752.957H384.344V635.789Z" fill="#F7DF1E"/>
<path d="M415.16 733.705L424.127 728.277C425.859 731.345 427.427 733.941 431.206 733.941C434.826 733.941 437.106 732.525 437.106 727.022V689.579H448.117V727.172C448.117 738.572 441.438 743.767 431.678 743.767C422.871 743.767 417.759 739.203 415.164 733.7M454.097 732.52L463.06 727.328C465.42 731.184 468.487 734.007 473.915 734.007C478.479 734.007 481.386 731.727 481.386 728.579C481.386 724.803 478.398 723.467 473.371 721.264L470.619 720.084C462.676 716.704 457.404 712.457 457.404 703.489C457.404 695.23 463.696 688.938 473.527 688.938C480.527 688.938 485.549 691.378 489.178 697.745L480.607 703.253C478.719 699.869 476.675 698.533 473.528 698.533C470.304 698.533 468.256 700.577 468.256 703.253C468.256 706.553 470.3 707.893 475.019 709.932L477.771 711.112C487.121 715.119 492.402 719.212 492.402 728.412C492.402 738.323 484.615 743.751 474.147 743.751C463.906 743.751 457.316 738.851 454.111 732.504" fill="black"/>
<path d="M552.921 817.982C549.794 817.954 546.942 816.19 545.521 813.405C544.969 812.419 544.317 811.492 543.575 810.64C542.664 809.145 542.19 807.425 542.208 805.675C542.364 802.046 538.579 782.175 538.579 782.175C538.579 782.175 539.051 774.606 535.266 769.875C532.773 766.758 529.188 757.853 527.029 752.101C527.174 752.23 527.348 752.322 527.537 752.368L527.448 751.874H527.537L526.419 745.734C524.792 743.864 523.421 741.785 522.341 739.554L522.595 739.501L525.943 738.801C525.943 738.801 531.384 731.067 531.731 727.265H532.804C537.84 727.237 542.874 727.5 547.88 728.053C547.88 728.031 547.844 727.933 547.8 727.777C547.588 727.012 547.424 726.234 547.31 725.448H547.622L550.739 725.248C550.739 725.248 561.465 713.262 557.52 711.053C553.575 708.844 549.474 720.991 549.474 720.991L548.138 721.231L547.777 721.298C547.813 721.245 547.848 721.198 547.888 721.147C547.928 721.096 530.381 720.363 527.678 716.098C527.678 716.098 519.948 709.945 519.632 705.857C519.516 704.128 518.444 702.609 516.854 701.921C515.899 701.465 514.841 701.267 513.786 701.347L510.166 701.596L510.42 702.041H510.32C510.093 701.521 509.903 700.987 509.75 700.441H509.826C509.799 700.33 509.777 700.218 509.755 700.107C511.996 699.578 513.928 698.165 515.11 696.189C516.292 694.212 516.624 691.842 516.029 689.617C516.383 689.662 516.742 689.652 517.093 689.586C518.444 689.224 519.389 688.006 519.404 686.607V686.291C519.377 684.914 518.731 683.622 517.645 682.774C516.873 682.248 516.13 681.681 515.419 681.074C514.723 680.202 514.116 679.262 513.607 678.269C512.593 676.715 511.089 675.544 509.333 674.943C508.044 674.382 506.554 674.551 505.424 675.388C504.908 675.873 504.609 676.577 504.03 676.988C503.197 677.588 502.066 677.407 501.047 677.527C499.172 677.815 497.564 679.019 496.759 680.737C496.261 681.797 496.021 682.959 496.059 684.13C496.048 684.933 496.144 685.734 496.344 686.512C496.544 687.287 496.829 688.035 497.044 688.812C497.489 690.412 497.592 692.102 498.104 693.683C498.447 694.857 499.134 695.902 500.076 696.683L499.925 697.333C499.825 697.333 497.369 697.881 495.673 701.59C494.337 704.515 489.791 707.534 487.792 708.754C487.039 709.215 486.503 709.959 486.305 710.82C486.113 711.68 486.028 712.561 486.051 713.442C486.081 716.173 486.726 718.863 487.939 721.31C489.573 725.126 491.581 728.771 493.932 732.192C493.932 732.192 494.124 734.512 494.132 736.956C494.207 738.488 494.031 740.022 493.611 741.498C493.222 743.119 493.081 744.79 493.192 746.454C493.192 750.737 493.611 756.325 493.611 756.325C493.611 756.325 494.818 756.557 496.683 756.825L497.845 777.271C497.991 779.747 497.196 782.187 495.619 784.101C494.804 785.108 493.863 786.006 492.819 786.773C489.506 789.137 482.409 814.062 482.409 814.062C482.716 814.068 483.022 814.09 483.326 814.129L481.144 820.216C481.144 820.216 489.862 826.895 495.165 825.069C495.739 824.882 496.342 824.798 496.946 824.82C497.992 824.82 500.232 823.992 498.985 822.901C496.577 820.684 494.306 818.322 492.185 815.83C492.356 815.913 492.52 816.01 492.675 816.119V816.07L492.751 816.119C492.756 815.903 492.776 815.687 492.809 815.473L492.733 815.446C492.893 813.807 493.401 809.658 494.407 809.177C495.667 808.545 504.977 790.089 504.977 790.089L514.283 766.112C514.283 766.112 521.696 778.891 528.006 781.095V786.418C528.006 786.418 531.475 802.193 532.739 803.925C534.003 805.657 532.739 812.599 532.739 812.599C532.988 812.884 533.274 813.136 533.589 813.347L532.578 819.064C532.578 819.064 539.836 818.748 552.138 822.532C552.136 822.554 556.865 820.506 552.921 817.982ZM523.9 735.482L522.364 735.865L522.064 735.941C522.033 735.75 522.01 735.641 522.01 735.641C521.657 735.8 521.278 735.892 520.892 735.913C520.348 734.188 520.033 732.399 519.957 730.592C519.44 728.429 519.126 726.223 519.018 724.002C518.948 723.055 519.165 722.108 519.641 721.286L520.153 721.326L520.509 721.664L520.536 721.686L520.718 721.851L520.909 722.02L520.94 722.047L521.14 722.23L521.176 722.261L521.385 722.439L521.621 722.639L521.674 722.683L521.923 722.883L522.168 723.083L522.226 723.128L522.498 723.328L522.556 723.368L522.814 723.559L522.858 723.59L523.152 723.799L523.223 723.848L523.535 724.062H523.562L523.862 724.262L523.933 724.311L524.258 724.52L524.329 724.564L524.629 724.751L524.687 724.787L525.034 724.987L525.119 725.036L525.48 725.236H525.507L525.859 725.423L525.944 725.468L526.318 725.655L526.394 725.691L526.741 725.851L526.808 725.882L527.2 726.051L527.294 726.091L527.699 726.256C525.19 729.029 523.899 735.485 523.899 735.485L523.9 735.482Z" fill="url(#paint1_linear_3_156)"/>
<path d="M484.992 810.359L482.067 818.521C482.067 818.521 490.082 824.665 495.291 823.392C496.076 823.197 496.876 823.067 497.682 823.005C498.76 822.925 500.616 822.137 499.463 821.139C496.393 818.247 493.512 815.161 490.838 811.9L484.992 810.359Z" fill="#4F4D59"/>
<path d="M533.655 809.589L532.27 817.443C532.27 817.443 539.354 817.136 551.37 820.831C551.37 820.831 555.992 818.831 552.14 816.378C549.091 816.345 546.309 814.632 544.905 811.925C542.122 807.165 540.452 807.766 540.452 807.766L533.655 809.589Z" fill="#4F4D59"/>
<path d="M496.995 752.614L498.331 776.514C498.477 779.061 497.634 781.565 495.976 783.504C495.227 784.394 494.374 785.191 493.434 785.877C490.201 788.188 483.269 812.517 483.269 812.517C483.269 812.517 491.123 812.962 493.278 814.517C493.278 814.517 493.723 808.359 494.97 807.74C496.217 807.121 505.286 789.106 505.286 789.106L514.374 765.699C514.374 765.699 521.609 778.166 527.774 780.33V785.566C527.774 785.566 531.162 800.966 532.396 802.659C533.63 804.352 532.396 811.119 532.396 811.119C532.396 811.119 535.958 815.572 544.096 810.812C542.552 809.005 541.682 806.718 541.634 804.342C541.79 800.798 538.072 781.398 538.072 781.398C538.072 781.398 538.517 774.007 534.839 769.376C531.161 764.745 525.048 747.056 525.048 747.056L520.809 737.937L496.995 752.614Z" fill="#C48C96"/>
<g opacity="0.1">
<path d="M484.757 812.517C484.757 812.517 491.685 788.189 494.922 785.878C495.915 785.15 496.813 784.301 497.594 783.349C499.174 781.436 499.969 778.995 499.82 776.519L498.462 752.613L521.17 738.613L520.863 737.95L497.082 752.617L498.44 776.523C498.59 778.999 497.794 781.44 496.214 783.353C495.433 784.305 494.536 785.154 493.543 785.882C490.315 788.188 483.378 812.517 483.378 812.517C483.378 812.517 491.232 812.962 493.387 814.517C493.392 814.307 493.412 814.097 493.445 813.889C490.603 813.137 487.692 812.678 484.757 812.517Z" fill="black"/>
<path d="M533.887 811.129C533.887 811.129 535.12 804.352 533.887 802.669C532.654 800.986 529.265 785.576 529.265 785.576V780.331C523.107 778.176 515.865 765.7 515.865 765.7L515.331 767.1C517.419 770.413 522.989 778.632 527.883 780.342V785.578C527.883 785.578 531.271 800.978 532.505 802.671C533.739 804.364 532.505 811.131 532.505 811.131C533.939 812.598 535.987 813.293 538.017 813.001C536.449 812.938 534.968 812.266 533.887 811.129Z" fill="black"/>
</g>
<path d="M549.977 725.819L546.954 726.019L545.36 726.124V722.274L547.453 721.896L548.753 721.66C548.753 721.66 552.76 709.803 556.607 711.96C560.454 714.117 549.977 725.819 549.977 725.819Z" fill="#714B4F"/>
<path d="M501.471 694.077C501.471 694.077 499.471 701.777 498.853 706.544C498.235 711.311 513.172 707.47 513.172 707.47C513.172 707.47 507.472 700.542 510.71 696.846L501.471 694.077Z" fill="#714B4F"/>
<path d="M517.639 726.134L517.946 729.059L513.173 728.752L508.4 724.593L503.627 711.193L500.555 706.416L498.244 703.487L499.17 699.925C499.17 699.925 499.593 700.295 500.305 700.838C502.652 702.619 508.15 706.364 512.171 705.331C512.357 705.284 512.54 705.226 512.719 705.157L518.725 715.474L517.639 726.134Z" fill="#E6E6F0"/>
<path opacity="0.1" d="M500.394 699.019C500.394 699.019 497.932 699.464 496.235 703.178C494.935 706.019 490.535 708.966 488.572 710.155C487.815 710.617 487.277 711.365 487.08 712.23C486.68 713.984 486.532 717.257 488.687 721.963C490.283 725.688 492.243 729.247 494.538 732.587C494.538 732.587 495.152 739.978 494.231 742.133C493.31 744.288 494.231 756.145 494.231 756.145C494.231 756.145 510.398 759.226 515.79 756.145C521.182 753.064 520.412 741.207 520.412 741.207C520.412 741.207 525.492 751.987 527.34 752.294L526.263 746.288C526.263 746.288 520.256 739.819 519.949 731.506C519.949 731.506 518.101 723.959 519.642 721.96C519.642 721.96 545.667 724.115 547.208 722.267C547.208 722.267 530.115 721.497 527.497 717.338C527.497 717.338 519.95 711.332 519.643 707.329C519.552 705.801 518.678 704.429 517.332 703.7C516.284 703.104 515.082 702.836 513.881 702.93L510.403 703.17C510.403 703.17 516.41 713.794 516.103 715.192C515.796 716.59 516.41 727.819 516.41 727.819C516.41 727.819 509.46 712.881 506.401 711.189C503.342 709.497 499.776 702.533 499.776 702.533L500.39 699.016" fill="black"/>
<path opacity="0.1" d="M517.639 726.134L517.946 729.059L513.173 728.752L508.4 724.593L503.627 711.193L500.555 706.416L498.244 703.487L499.17 699.925C499.17 699.925 499.593 700.295 500.305 700.838L500.091 702.053C500.091 702.053 503.653 709.008 506.712 710.704C509.771 712.4 516.721 727.334 516.721 727.334C516.721 727.334 516.107 716.091 516.414 714.707C516.623 713.768 513.925 708.576 512.171 705.33C512.357 705.283 512.539 705.225 512.718 705.156L518.725 715.473L517.639 726.134Z" fill="black"/>
<path opacity="0.1" d="M546.954 726.016L545.36 726.123V722.272L547.453 721.894C546.722 722.862 546.749 724.572 546.954 726.016Z" fill="black"/>
<path d="M500.394 698.565C500.394 698.565 497.932 699.01 496.235 702.724C494.935 705.565 490.535 708.512 488.572 709.701C487.815 710.163 487.277 710.911 487.08 711.776C486.68 713.53 486.532 716.803 488.687 721.509C490.283 725.234 492.243 728.793 494.538 732.133C494.538 732.133 495.152 739.524 494.231 741.679C493.31 743.834 494.231 755.691 494.231 755.691C494.231 755.691 510.398 758.772 515.79 755.691C521.182 752.61 520.412 740.753 520.412 740.753C520.412 740.753 525.488 751.515 527.34 751.844L526.263 745.837C526.263 745.837 520.256 739.368 519.949 731.055C519.949 731.055 518.101 723.508 519.642 721.509C519.642 721.509 525.648 727.978 532.425 727.823C537.363 727.793 542.299 728.05 547.207 728.593C547.207 728.593 545.666 723.664 547.207 721.816C547.207 721.816 530.114 721.046 527.496 716.887C527.496 716.887 519.949 710.881 519.642 706.878C519.551 705.35 518.677 703.978 517.331 703.249C516.283 702.653 515.081 702.385 513.88 702.479L510.402 702.719C510.402 702.719 516.409 713.343 516.102 714.741C515.795 716.139 516.409 727.368 516.409 727.368C516.409 727.368 509.459 712.421 506.4 710.729C503.341 709.037 499.775 702.091 499.775 702.091L500.389 698.574" fill="#C48C96"/>
<path opacity="0.1" d="M496.993 714.732C496.993 714.732 500.693 727.199 502.844 728.744C504.995 730.289 518.089 738.139 521.944 736.291C521.944 736.291 522.87 740.913 521.499 741.991C521.499 741.991 507.14 741.43 507.024 741.377C507.024 741.377 497.629 740.144 496.089 735.526C494.549 730.908 492.701 723.059 492.701 723.059L496.993 714.732Z" fill="black"/>
<path d="M516.717 729.054C517.269 729.054 517.717 728.606 517.717 728.054C517.717 727.502 517.269 727.054 516.717 727.054C516.165 727.054 515.717 727.502 515.717 728.054C515.717 728.606 516.165 729.054 516.717 729.054Z" fill="#BA7855"/>
<path d="M518.253 734.441C518.805 734.441 519.253 733.993 519.253 733.441C519.253 732.889 518.805 732.441 518.253 732.441C517.701 732.441 517.253 732.889 517.253 733.441C517.253 733.993 517.701 734.441 518.253 734.441Z" fill="#BA7855"/>
<g opacity="0.1">
<path d="M495.314 755.522C495.314 755.522 494.388 743.665 495.314 741.51C496.24 739.355 495.621 731.964 495.621 731.964C493.326 728.624 491.366 725.065 489.77 721.34C487.611 716.634 487.77 713.361 488.163 711.607C488.36 710.742 488.898 709.994 489.655 709.532C491.619 708.332 496.013 705.396 497.318 702.555C497.932 701.058 498.985 699.781 500.337 698.891L500.395 698.553C500.395 698.553 497.933 698.998 496.236 702.712C494.936 705.553 490.536 708.5 488.573 709.689C487.816 710.151 487.278 710.899 487.081 711.764C486.681 713.518 486.533 716.791 488.688 721.497C490.284 725.222 492.244 728.781 494.539 732.121C494.539 732.121 495.153 739.512 494.232 741.667C493.311 743.822 494.232 755.679 494.232 755.679C494.232 755.679 505.782 757.879 512.612 756.699C505.715 757.521 495.314 755.522 495.314 755.522Z" fill="black"/>
<path d="M516.098 714.732C515.98 718.048 516.038 721.369 516.272 724.679C517.016 726.197 517.483 727.208 517.483 727.208C517.483 727.208 516.868 715.965 517.176 714.581C517.47 713.245 512.06 703.601 511.521 702.648L510.399 702.724C510.399 702.724 516.41 713.347 516.098 714.732Z" fill="black"/>
<path d="M533.503 727.667C526.726 727.823 520.72 721.353 520.72 721.353C520.54 721.604 520.409 721.887 520.333 722.186C522.114 723.842 527.012 727.943 532.426 727.818C537.364 727.788 542.3 728.045 547.208 728.588C547.208 728.588 547.177 728.488 547.128 728.312C542.602 727.844 538.053 727.628 533.503 727.666V727.667Z" fill="black"/>
<path d="M521.482 740.602C521.482 740.602 521.544 741.564 521.509 743.002C523.109 746.181 526.028 751.618 527.333 751.836L527.106 750.571C524.866 747.762 521.482 740.602 521.482 740.602Z" fill="black"/>
</g>
<path d="M525.8 739.047L522.527 739.737L519.945 740.28L521.33 736.429L522.296 736.189L523.796 735.815C523.796 735.815 525.951 725.035 530.266 725.806C534.581 726.577 525.8 739.047 525.8 739.047Z" fill="#714B4F"/>
<path opacity="0.1" d="M522.532 739.751L519.949 740.294L521.334 736.443L522.3 736.203C522.514 737.373 522.592 738.563 522.532 739.751Z" fill="black"/>
<path d="M496.993 714.425C496.993 714.425 500.693 726.892 502.844 728.437C504.995 729.982 518.089 737.832 521.944 735.984C521.944 735.984 522.87 740.606 521.499 741.684C521.499 741.684 507.14 741.123 507.024 741.07C507.024 741.07 497.629 739.837 496.089 735.219C494.549 730.601 492.701 722.752 492.701 722.752L496.993 714.425Z" fill="#C48C96"/>
<path opacity="0.1" d="M501.623 694.406C501.623 694.406 501.311 695.613 500.893 697.367C502.646 700.688 506.407 702.421 510.07 701.597C509.585 700.084 509.882 698.429 510.863 697.18L501.623 694.406Z" fill="black"/>
<path d="M508.092 701.49C512.685 701.49 516.409 697.766 516.409 693.173C516.409 688.58 512.685 684.856 508.092 684.856C503.499 684.856 499.775 688.58 499.775 693.173C499.775 697.766 503.499 701.49 508.092 701.49Z" fill="#714B4F"/>
<path opacity="0.1" d="M515.315 690.884C515.917 691.052 516.548 691.092 517.167 691C518.484 690.644 519.404 689.456 519.42 688.092C519.396 686.748 518.766 685.486 517.706 684.659C517.006 684.071 516.161 683.659 515.515 683.003C514.835 682.15 514.238 681.233 513.734 680.265C512.744 678.748 511.275 677.606 509.562 677.019C508.304 676.462 506.842 676.633 505.746 677.464C505.246 677.94 504.946 678.622 504.388 679.027C503.573 679.606 502.469 679.437 501.476 679.552C499.649 679.83 498.08 680.998 497.291 682.669C496.531 684.347 496.386 686.238 496.881 688.012C497.073 688.769 497.357 689.499 497.562 690.238C498.007 691.805 498.096 693.448 498.595 694.993C498.995 696.596 500.144 697.908 501.681 698.515C501.558 696.781 501.901 695.045 502.674 693.488C502.8 693.148 503.05 692.868 503.374 692.704C503.651 692.633 503.942 692.633 504.22 692.704C506.173 692.993 508.165 692.59 509.852 691.564C510.444 691.208 511.366 689.979 511.994 689.859C512.808 689.722 514.469 690.697 515.315 690.884Z" fill="black"/>
<path d="M515.315 690.577C515.917 690.745 516.548 690.785 517.167 690.693C518.483 690.337 519.403 689.15 519.42 687.786C519.396 686.442 518.766 685.18 517.706 684.353C517.006 683.765 516.161 683.353 515.515 682.697C514.835 681.844 514.238 680.927 513.734 679.959C512.744 678.442 511.275 677.3 509.562 676.713C508.304 676.156 506.842 676.327 505.746 677.158C505.246 677.634 504.946 678.316 504.388 678.721C503.573 679.3 502.469 679.131 501.476 679.246C499.649 679.524 498.08 680.692 497.291 682.363C496.531 684.041 496.386 685.932 496.881 687.706C497.073 688.463 497.357 689.193 497.562 689.932C498.007 691.499 498.096 693.142 498.595 694.687C498.995 696.29 500.144 697.602 501.681 698.209C501.561 696.475 501.906 694.741 502.681 693.186C502.807 692.846 503.057 692.566 503.381 692.402C503.658 692.331 503.949 692.331 504.227 692.402C506.18 692.691 508.172 692.287 509.859 691.262C510.451 690.906 511.373 689.677 512.001 689.557C512.808 689.415 514.469 690.39 515.315 690.577Z" fill="#503F43"/>
<path d="M598.287 663.127L591.501 739.127L561.001 747.587L530.586 739.127L523.809 663.127H598.287Z" fill="#E44D26"/>
<path d="M561.046 741.126L585.691 734.296L591.479 669.343H561.046V741.126Z" fill="#F16529"/>
<path d="M547.858 687.991H561.046V678.667H537.671L537.894 681.167L540.187 706.858H561.051V697.537H548.711L547.858 687.991ZM549.978 711.523H540.628L541.928 726.163L561.011 731.477H561.055V721.748H561.015L550.632 718.943L549.978 711.523Z" fill="#EBEBEB"/>
<path d="M530.742 642.468H535.479V647.148H539.811V642.468H544.549V656.645H539.812V651.898H535.48V656.644H530.742V642.468ZM550.778 647.168H546.606V642.468H559.687V647.168H555.515V656.643H550.782V647.168H550.778ZM561.767 642.468H566.709L569.75 647.45L572.787 642.468H577.729V656.645H573.009V649.619L569.75 654.659H569.67L566.406 649.619V656.645H561.766L561.767 642.468ZM580.085 642.468H584.822V651.956H591.501V656.64H580.101V642.468H580.085Z" fill="black"/>
<path d="M561.015 706.86H572.494L571.412 718.953L561.012 721.758V731.478L580.127 726.178L580.265 724.602L582.456 700.055L582.683 697.555H561.015V706.882V706.86ZM561.015 687.968V687.99H583.536L583.723 685.89L584.168 681.161L584.391 678.661H561.015V687.961V687.968Z" fill="white"/>
<path d="M325 719.238C324.132 716.696 322.881 713.45 321.883 712.711C321.821 712.663 321.754 712.622 321.683 712.591H321.558V709.452L319.216 709.826C318.84 708.691 318.556 707.529 318.366 706.349C318.827 706.811 319.521 706.95 320.125 706.701C320.085 706.639 320.054 706.572 320.018 706.501L320.125 706.456C319.756 705.805 319.561 705.071 319.559 704.323C319.578 703.641 319.687 702.964 319.884 702.31C320.302 700.863 321.01 699.51 321.407 698.058C321.66 697.121 321.78 696.153 321.763 695.182C321.773 693.537 321.396 691.912 320.663 690.44C320.481 690.016 320.197 689.644 319.835 689.358C319.505 689.176 319.167 689.011 318.82 688.864C318.239 688.473 317.739 687.974 317.346 687.395C315.682 685.37 313.455 683.883 310.946 683.125C310.293 682.882 309.585 682.827 308.902 682.965C307.33 683.41 306.756 685.338 305.483 686.358C304.356 687.248 302.811 687.351 301.404 687.658C299.959 687.903 298.628 688.6 297.604 689.648C296.938 690.409 296.575 691.389 296.584 692.4C296.506 693.359 296.932 694.29 297.71 694.858C298.591 695.437 299.685 695.592 300.693 695.281C299.907 697.996 300.289 700.915 301.747 703.337C303.205 705.758 305.607 707.462 308.374 708.037L308.65 708.527C309.491 710.097 310.13 711.768 310.55 713.5C308.395 714.724 306.04 715.869 304.619 715.976C304.562 716.531 304.46 717.081 304.312 717.619C303.98 718.97 303.341 720.227 302.446 721.292C300.514 723.465 291.818 739.892 291.818 739.892C291.818 739.892 291.542 740.546 291.097 741.673C285.697 742.336 276.885 743.294 274.422 742.799L264.76 733.618C264.76 733.618 261.643 736 261.91 738.894L260.169 737.238C260.169 737.238 250.988 744.238 265.485 748.815L287.543 751.375C285.443 757.715 283.482 765.093 284.088 769.109H284.271C284.693 769.108 285.114 769.074 285.531 769.009L285.491 769.721L283.367 807.759C283.367 807.759 282.882 814.759 289.405 817.906C289.405 817.906 297.379 841.34 294.236 843.998C294.236 843.998 294.61 844.198 295.236 844.47L288.677 850.258C288.677 850.258 283.846 851.465 281.188 851.224C280.221 851.092 279.309 851.707 279.069 852.653C279.072 852.705 279.063 852.757 279.042 852.804V853.272C279.037 853.326 279.048 853.38 279.073 853.428V853.486C279.087 853.542 279.105 853.597 279.126 853.651V853.704C279.148 853.757 279.175 853.811 279.202 853.864V853.9C279.233 853.953 279.264 854.007 279.302 854.06L279.333 854.104C279.371 854.161 279.414 854.217 279.462 854.273L279.498 854.317C279.547 854.375 279.598 854.428 279.658 854.486H279.685L279.863 854.637L279.903 854.668L280.121 854.824L280.174 854.86L280.428 855.007H280.468L280.74 855.141H280.78L281.096 855.27L281.163 855.297L281.515 855.413H281.573L281.951 855.513H281.982L282.427 855.598H282.512L282.957 855.665H283.042L283.554 855.714C284.547 855.79 285.887 855.814 287.437 855.814V856.063C287.432 856.117 287.443 856.171 287.468 856.219V856.277C287.482 856.333 287.5 856.388 287.521 856.442V856.495C287.543 856.548 287.57 856.602 287.597 856.655V856.691C287.628 856.744 287.659 856.798 287.697 856.851L287.728 856.896C287.766 856.953 287.809 857.009 287.857 857.065L287.893 857.11C287.942 857.168 287.993 857.221 288.053 857.279H288.075L288.253 857.43L288.293 857.461L288.511 857.617L288.564 857.653L288.813 857.8H288.853L289.125 857.934H289.165L289.481 858.063L289.548 858.09L289.9 858.206H289.958L290.336 858.306H290.367L290.812 858.391H290.897L291.342 858.458H291.427L291.939 858.507C298.222 858.992 318.271 857.541 318.271 857.541V857.483V857.41C318.471 856.475 319.433 851.038 316.014 847.018C316.116 846.911 316.214 846.8 316.308 846.684C316.308 846.684 313.636 842.093 315.101 840.646C316.566 839.199 308.026 814.296 308.026 814.296C308.026 814.296 303.436 807.047 306.094 798.832C308.752 790.617 305.854 781.681 305.854 781.681C305.854 781.681 312.199 779.802 312.315 771.997V771.271C312.447 771.29 312.581 771.299 312.715 771.298C312.804 771.304 312.893 771.304 312.982 771.298C312.982 771.298 311.775 766.948 313.222 763.809C314.669 760.67 317.813 763.569 320.711 750.763C322.811 741.497 324.651 730.842 325.511 725.655C325.872 723.506 325.696 721.302 325 719.238ZM269.869 746.398L267.669 744.305C268.399 744.605 269.21 744.905 270.113 745.196L278.413 746.171C274.713 746.505 271.249 746.692 269.869 746.411V746.398Z" fill="url(#paint2_linear_3_156)"/>
<path d="M290.899 745.178C290.899 745.178 273.81 747.551 270.248 746.839L260.755 737.818C260.755 737.818 251.734 744.702 265.978 749.212L292.56 752.298L290.899 745.178Z" fill="#FDC2CC"/>
<path opacity="0.05" d="M290.899 745.178C290.899 745.178 273.81 747.551 270.248 746.839L260.755 737.818C260.755 737.818 251.734 744.702 265.978 749.212L292.56 752.298L290.899 745.178Z" fill="black"/>
<path d="M257.446 751.167L220.517 740.926L212.289 648.626H302.715L294.478 740.913L257.446 751.167Z" fill="#264DE4"/>
<path d="M287.425 735.04L294.469 656.177H257.509V743.317L287.425 735.04Z" fill="#2965F1"/>
<path d="M231.178 690.395L232.193 701.713H257.528V690.395H231.178ZM229.139 667.482L230.168 678.8H257.524V667.482H229.116H229.139ZM257.524 719.795H257.475L244.865 716.389L244.059 707.359H232.674L234.259 725.133L257.448 731.585H257.501L257.524 719.795Z" fill="#EBEBEB"/>
<path d="M233.572 623.531H247.281V629.266H239.302V635.001H247.281V640.736H233.572V623.531ZM250.046 623.531H263.755V628.518H255.755V629.518H263.734V640.988H250.024V635.752H258.003V634.752H250.024V623.531H250.046ZM266.52 623.531H280.229V628.518H272.21V629.518H280.192V640.988H266.476V635.752H274.455V634.752H266.476V623.531H266.52Z" fill="black"/>
<path d="M283.779 690.395L285.823 667.482H257.447V678.8H273.4L272.371 690.377H257.447V701.695H271.388L270.052 716.388L257.447 719.804V731.581L280.654 725.147L280.823 723.232L283.494 693.427L283.77 690.386L283.779 690.395Z" fill="white"/>
<path d="M297.074 841.54L288.766 848.896C288.766 848.896 284.02 850.085 281.41 849.844C278.8 849.603 277.61 853.878 283.783 854.354C289.956 854.83 309.652 853.406 309.652 853.406C309.652 853.406 311.552 845.806 305.852 841.54H297.074Z" fill="#47465A"/>
<path opacity="0.05" d="M297.074 841.54L288.766 848.896C288.766 848.896 284.02 850.085 281.41 849.844C278.8 849.603 277.61 853.878 283.783 854.354C289.956 854.83 309.652 853.406 309.652 853.406C309.652 853.406 311.552 845.806 305.852 841.54H297.074Z" fill="black"/>
<path opacity="0.3" d="M309.946 850.124C309.931 850.99 309.831 851.851 309.646 852.697C309.646 852.697 289.946 854.122 283.777 853.645C280.807 853.418 279.547 852.309 279.324 851.245C279.052 852.465 280.13 854.072 283.777 854.362C289.948 854.838 309.646 853.414 309.646 853.414C309.878 852.333 309.979 851.229 309.946 850.124Z" fill="white"/>
<path d="M306.799 706.989C306.799 706.989 312.022 714.345 310.121 719.331C308.22 724.317 320.09 714.108 320.09 714.108C320.09 714.108 316.29 707.434 318.19 700.308L306.799 706.989Z" fill="#FDC2CC"/>
<path d="M305.374 844.389L297.074 851.745C297.074 851.745 292.328 852.934 289.718 852.693C287.108 852.452 285.918 856.727 292.091 857.203C298.264 857.679 317.96 856.255 317.96 856.255C317.96 856.255 319.86 848.655 314.16 844.389H305.374Z" fill="#47465A"/>
<path d="M307.761 842.729C306.558 844.132 304.8 844.936 302.952 844.929C298.802 845.129 294.234 842.729 294.234 842.729C297.32 840.12 289.488 817.096 289.488 817.096C283.081 814.01 283.553 807.127 283.553 807.127L285.632 769.77L286.157 760.384L292.805 756.35L298.041 760.357L303.01 764.168C303.333 765.379 303.542 766.618 303.633 767.868C304.212 776.59 297.315 778.643 297.315 778.643C297.315 778.643 300.165 787.423 297.551 795.496C294.937 803.569 299.451 810.688 299.451 810.688C299.451 810.688 307.995 835.373 306.575 836.797C305.155 838.221 307.761 842.729 307.761 842.729Z" fill="#565171"/>
<path opacity="0.05" d="M307.761 842.729C306.558 844.132 304.8 844.936 302.952 844.929C298.802 845.129 294.234 842.729 294.234 842.729C297.32 840.12 289.488 817.096 289.488 817.096C283.081 814.01 283.553 807.127 283.553 807.127L285.632 769.77L286.157 760.384L292.805 756.35L298.041 760.357L303.01 764.168C303.333 765.379 303.542 766.618 303.633 767.868C304.212 776.59 297.315 778.643 297.315 778.643C297.315 778.643 300.165 787.423 297.551 795.496C294.937 803.569 299.451 810.688 299.451 810.688C299.451 810.688 307.995 835.373 306.575 836.797C305.155 838.221 307.761 842.729 307.761 842.729Z" fill="black"/>
<path d="M316.055 845.574C312.021 850.556 302.528 845.574 302.528 845.574C302.719 845.398 302.861 845.176 302.942 844.929C304.683 840.196 297.069 817.568 297.069 817.568C290.662 814.482 289.945 807.127 289.945 807.127L288.266 769.094L288.048 764.17L298.035 760.359L301.103 759.188L311.319 767.018C311.758 768.641 311.973 770.315 311.96 771.996C311.831 779.659 305.611 781.511 305.611 781.511C305.611 781.511 308.461 790.291 305.847 798.364C303.233 806.437 307.757 813.534 307.757 813.534C307.757 813.534 316.301 838.219 314.881 839.644C313.461 841.069 316.055 845.574 316.055 845.574Z" fill="#565171"/>
<path opacity="0.1" d="M311.964 771.996C309.911 771.702 305.757 769.231 303.624 767.891C302.809 767.379 302.288 767.036 302.288 767.036C302.288 767.036 300.151 761.101 294.456 765.611C292.603 767.116 290.511 768.299 288.267 769.111C287.41 769.414 286.526 769.636 285.627 769.774L286.152 760.388L292.8 756.354L298.036 760.361L301.104 759.19L311.322 767.018C311.761 768.641 311.976 770.315 311.963 771.996H311.964Z" fill="black"/>
<path d="M324.809 726.451C323.963 731.545 322.137 742.035 320.089 751.113C317.239 763.691 314.154 760.842 312.734 763.927C311.314 767.012 312.498 771.283 312.498 771.283C310.125 771.519 302.293 766.301 302.293 766.301C302.293 766.301 300.156 760.366 294.461 764.876C288.766 769.386 284.256 769.146 284.256 769.146C283.067 761.314 291.856 740.427 291.856 740.427C291.856 740.427 300.4 724.287 302.297 722.172C303.177 721.126 303.805 719.892 304.131 718.565C304.276 718.037 304.376 717.498 304.431 716.953C307.517 716.717 315.117 711.494 315.117 711.494L321.052 710.546V713.632C321.124 713.663 321.191 713.703 321.252 713.752C322.227 714.496 323.478 717.666 324.311 720.164C324.991 722.187 325.162 724.346 324.809 726.451Z" fill="#E1A0A7"/>
<path d="M297.074 748.741L294.006 748.385L270.492 745.656C256.244 741.146 265.269 734.262 265.269 734.262L274.762 743.283C277.5 743.831 288.244 742.553 293.062 741.947C294.505 741.76 295.417 741.635 295.417 741.635L297.074 748.741Z" fill="#FDC2CC"/>
<path opacity="0.1" d="M320.09 716.7C320.09 716.7 313.919 711.718 304.644 727.854C295.369 743.99 293.25 741.381 293.25 741.381C293.25 741.381 295.15 748.505 294.198 749.925C294.198 749.925 300.605 749.448 302.978 749.925C305.351 750.402 320.067 731.888 320.067 731.888C320.067 731.888 327.686 721.447 320.09 716.7Z" fill="black"/>
<path opacity="0.1" d="M319.853 715.751C319.853 715.751 313.682 710.769 304.425 726.905C295.168 743.041 293.031 740.432 293.031 740.432C293.031 740.432 300.387 748.5 302.76 748.976C305.133 749.452 319.849 730.939 319.849 730.939C319.849 730.939 327.449 720.498 319.853 715.751Z" fill="black"/>
<path opacity="0.1" d="M294.002 748.397C293.933 746.217 293.615 744.052 293.054 741.945C294.497 741.758 295.409 741.633 295.409 741.633L297.07 748.757L294.002 748.397Z" fill="black"/>
<path d="M320.09 716.223C320.09 716.223 313.919 711.241 304.644 727.381C295.369 743.521 293.25 740.908 293.25 740.908C293.25 740.908 295.15 748.032 294.198 749.452C294.198 749.452 300.605 748.976 302.978 749.452C305.351 749.928 320.067 731.415 320.067 731.415C320.067 731.415 327.686 720.97 320.09 716.223Z" fill="#E1A0A7"/>
<path opacity="0.1" d="M318.447 700.796L307.035 707.435C307.518 708.135 307.964 708.861 308.371 709.608C309.028 709.741 309.696 709.808 310.366 709.808C313.407 709.808 314.818 706.616 316.657 704.465C316.523 702.755 317.921 702.706 318.447 700.796Z" fill="black"/>
<path d="M310.12 709.344C315.626 709.344 320.089 704.881 320.089 699.375C320.089 693.869 315.626 689.406 310.12 689.406C304.614 689.406 300.151 693.869 300.151 699.375C300.151 704.881 304.614 709.344 310.12 709.344Z" fill="#FDC2CC"/>
<path opacity="0.1" d="M297.52 691.311C298.525 690.28 299.831 689.594 301.251 689.352C302.636 689.052 304.151 688.965 305.258 688.079C306.509 687.079 307.07 685.172 308.615 684.744C309.286 684.61 309.981 684.665 310.623 684.904C313.087 685.649 315.276 687.109 316.91 689.098C317.297 689.669 317.79 690.16 318.362 690.545C318.704 690.689 319.037 690.851 319.362 691.03C319.716 691.312 319.995 691.677 320.172 692.094C321.284 694.341 321.54 696.916 320.893 699.338C320.506 700.767 319.811 702.094 319.393 703.519C318.882 704.928 318.968 706.484 319.629 707.829C318.829 708.113 317.941 707.785 317.518 707.05C317.127 706.327 316.845 705.55 316.681 704.744C316.208 703.197 315.317 701.81 314.107 700.737C313.359 700.078 312.023 699.637 311.507 700.483C311.307 700.812 311.32 701.235 311.146 701.583C310.711 702.231 309.845 702.426 309.174 702.028C308.547 701.595 308.107 700.942 307.941 700.198C306.966 696.89 305.296 694.81 301.761 696.222C300.425 696.747 298.889 697.113 297.62 696.222C295.993 695.025 296.318 692.66 297.52 691.311Z" fill="black"/>
<path d="M297.52 691.071C298.525 690.04 299.832 689.354 301.251 689.112C302.636 688.812 304.151 688.725 305.258 687.839C306.509 686.839 307.07 684.931 308.615 684.504C309.286 684.37 309.982 684.425 310.623 684.664C313.088 685.409 315.276 686.869 316.91 688.858C317.297 689.429 317.789 689.92 318.361 690.305C318.703 690.449 319.036 690.611 319.361 690.79C319.715 691.072 319.994 691.437 320.171 691.854C321.283 694.101 321.54 696.676 320.892 699.098C320.505 700.527 319.81 701.854 319.392 703.279C318.882 704.688 318.967 706.244 319.628 707.589C318.829 707.873 317.941 707.545 317.517 706.81C317.126 706.087 316.844 705.31 316.68 704.504C316.207 702.957 315.316 701.57 314.106 700.497C313.358 699.838 312.022 699.397 311.506 700.243C311.306 700.572 311.319 700.996 311.145 701.343C310.71 701.991 309.844 702.186 309.173 701.788C308.546 701.355 308.106 700.702 307.94 699.958C306.965 696.65 305.295 694.57 301.76 695.982C300.424 696.507 298.888 696.873 297.619 695.982C295.993 694.793 296.318 692.425 297.52 691.071Z" fill="#8F5A6A"/>
<path opacity="0.05" d="M321.234 713.734H316.412C316.412 713.734 306.919 718.48 306.683 718.244C305.819 718.21 304.955 718.314 304.123 718.551C304.268 718.023 304.368 717.484 304.423 716.939C307.509 716.703 315.109 711.48 315.109 711.48L321.044 710.532V713.618C321.112 713.649 321.176 713.688 321.234 713.734Z" fill="black"/>
<path opacity="0.3" d="M318.25 852.969C318.235 853.835 318.135 854.697 317.95 855.543C317.95 855.543 298.25 856.968 292.081 856.491C289.111 856.264 287.851 855.155 287.628 854.091C287.356 855.311 288.434 856.918 292.081 857.208C298.252 857.684 317.95 856.26 317.95 856.26C318.182 855.179 318.283 854.074 318.25 852.969Z" fill="white"/>
<g opacity="0.05">
<path d="M292.203 764.64C289.898 766.54 287.203 767.908 284.309 768.647C284.316 768.822 284.337 768.996 284.371 769.168C284.371 769.168 288.881 769.404 294.576 764.898C295.458 764.142 296.502 763.597 297.626 763.304C296.384 762.695 294.612 762.735 292.203 764.64Z" fill="black"/>
<path d="M324.413 720.14C323.563 717.64 322.329 714.476 321.354 713.728C321.293 713.679 321.226 713.639 321.154 713.608C321.154 713.608 319.19 713.675 319.254 713.728C320.229 714.472 321.182 717.406 322.032 719.899C322.721 721.924 322.898 724.088 322.549 726.199C321.703 731.293 319.878 741.783 317.829 750.861C314.979 763.439 311.894 760.59 310.473 763.675C309.306 766.204 309.89 769.526 310.144 770.643C310.912 771.027 311.753 771.241 312.611 771.271C312.611 771.271 311.422 767.001 312.847 763.915C314.272 760.829 317.357 763.679 320.203 751.101C322.265 742.001 324.077 731.51 324.923 726.438C325.274 724.329 325.099 722.165 324.413 720.14Z" fill="black"/>
</g>
<path d="M351.996 764.476C352.812 763.81 353.406 762.913 353.701 761.902C353.975 760.855 353.477 759.76 352.508 759.279C351.408 758.86 350.242 759.617 349.356 760.388C348.47 761.159 347.45 762.031 346.288 761.866C347.503 760.765 348.051 759.106 347.731 757.498C347.681 757.17 347.543 756.862 347.331 756.607C346.721 755.957 345.621 756.237 344.891 756.749C342.576 758.379 341.93 761.522 341.917 764.349C341.791 763.314 341.776 762.27 341.872 761.232C341.962 760.171 341.523 759.135 340.697 758.463C340.15 758.169 339.536 758.023 338.916 758.04C337.872 757.889 336.813 758.19 336.004 758.868C335.209 759.938 335.257 761.414 336.12 762.43C336.983 763.397 338.002 764.213 339.134 764.843C339.997 765.359 340.732 766.063 341.285 766.903C341.35 767.019 341.404 767.141 341.445 767.268H347.968C349.431 766.523 350.786 765.584 351.996 764.476Z" fill="#584DFC"/>
<defs>
<linearGradient id="paint0_linear_3_156" x1="437.238" y1="354.771" x2="437.238" y2="218.541" gradientUnits="userSpaceOnUse">
<stop stop-color="#808080" stop-opacity="0.251"/>
<stop offset="0.54" stop-color="#808080" stop-opacity="0.122"/>
<stop offset="1" stop-color="#808080" stop-opacity="0.102"/>
</linearGradient>
<linearGradient id="paint1_linear_3_156" x1="519.768" y1="825.385" x2="519.768" y2="674.616" gradientUnits="userSpaceOnUse">
<stop stop-color="#808080" stop-opacity="0.251"/>
<stop offset="0.54" stop-color="#808080" stop-opacity="0.122"/>
<stop offset="1" stop-color="#808080" stop-opacity="0.102"/>
</linearGradient>
<linearGradient id="paint2_linear_3_156" x1="291.498" y1="858.782" x2="291.498" y2="682.891" gradientUnits="userSpaceOnUse">
<stop stop-color="#808080" stop-opacity="0.251"/>
<stop offset="0.54" stop-color="#808080" stop-opacity="0.122"/>
<stop offset="1" stop-color="#808080" stop-opacity="0.102"/>
</linearGradient>
</defs>
</svg>
