<svg width="15" height="21" viewBox="0 0 15 21" fill="none" xmlns="http://www.w3.org/2000/svg">
<path d="M7.20001 0.5C3.33402 0.5 0.200012 3.63401 0.200012 7.5C0.200012 12.75 7.20001 20.5 7.20001 20.5C7.20001 20.5 14.2 12.75 14.2 7.5C14.2 3.63401 11.066 0.5 7.20001 0.5ZM7.20001 10C5.8193 10 4.70001 8.88071 4.70001 7.5C4.70001 6.11929 5.8193 5 7.20001 5C8.58072 5 9.70001 6.11929 9.70001 7.5C9.70001 8.16304 9.43662 8.79893 8.96778 9.26777C8.49894 9.73661 7.86305 10 7.20001 10Z" fill="currentColor"/>
</svg>
