<svg width="192" height="85" viewBox="0 0 192 85" fill="none" xmlns="http://www.w3.org/2000/svg">
<g clip-path="url(#clip0_19_11)">
<path opacity="0.5" d="M151.905 84.823C155.505 84.823 158.423 81.9047 158.423 78.3049C158.423 74.7051 155.505 71.7871 151.905 71.7871C148.305 71.7871 145.387 74.7051 145.387 78.3049C145.387 81.9047 148.305 84.823 151.905 84.823Z" fill="#F55F44"/>
<path opacity="0.5" d="M14.3 21.4119C12.4411 20.6021 11.4846 18.5272 12.076 16.5877C12.1223 16.444 12.1515 16.2954 12.163 16.1448C12.2219 15.26 11.6912 14.442 10.8591 14.1353C10.0271 13.8286 9.0924 14.1065 8.56296 14.8179C8.47416 14.9398 8.39998 15.0716 8.34196 15.2108C7.5321 17.0696 5.45744 18.0262 3.51798 17.4349C3.37426 17.3885 3.22557 17.3592 3.07499 17.3477C2.19017 17.2888 1.37217 17.8196 1.06547 18.6517C0.758763 19.4837 1.03658 20.4184 1.74796 20.9478C1.8698 21.0367 2.00172 21.1108 2.14097 21.1688C3.99982 21.9786 4.95631 24.0533 4.36497 25.9927C4.31867 26.1365 4.2895 26.2853 4.27799 26.4358C4.21906 27.3207 4.74978 28.1387 5.58182 28.4454C6.41387 28.7521 7.34853 28.4741 7.87797 27.7628C7.96718 27.6409 8.04168 27.5092 8.09995 27.3699C8.9098 25.5111 10.9845 24.5545 12.924 25.1458C13.0677 25.1921 13.2164 25.2212 13.367 25.2327C14.2518 25.2917 15.0697 24.7611 15.3764 23.929C15.6831 23.097 15.4053 22.1623 14.6939 21.6329C14.5718 21.544 14.4395 21.4698 14.3 21.4119Z" fill="#4D8AF0"/>
<path d="M187.844 6.75391C189.599 6.75391 191.022 5.33109 191.022 3.57593C191.022 1.82077 189.599 0.397949 187.844 0.397949C186.089 0.397949 184.666 1.82077 184.666 3.57593C184.666 5.33109 186.089 6.75391 187.844 6.75391Z" fill="#DBDBDB"/>
</g>
<defs>
<clipPath id="clip0_19_11">
<rect width="192" height="85" fill="white"/>
</clipPath>
</defs>
</svg>
