<?xml version="1.0" encoding="UTF-8"?>
<svg fill="none" viewBox="0 0 553 162" xmlns="http://www.w3.org/2000/svg">
<path d="m171.89 82h379.75" stroke="currentColor" stroke-linecap="round" stroke-width="2"/>
<path d="m79.947 161c43.602 0 78.948-35.37 78.948-79 0-43.63-35.346-79-78.948-79-43.602 0-78.948 35.37-78.948 79 0 43.63 35.346 79 78.948 79z" stroke="currentColor" stroke-width="2"/>
<path d="m27.982 4c14.902 0 26.982 12.088 26.982 27s-12.08 27-26.982 27c-14.902 0-26.982-12.088-26.982-27s12.08-27 26.982-27z" fill="#fff"/>
<path d="m40.967 40.664v6.336h-25.392v-5.04l12.96-12.24c1.376-1.312 2.304-2.432 2.784-3.36 0.48-0.96 0.72-1.904 0.72-2.832 0-1.344-0.464-2.368-1.392-3.072-0.896-0.736-2.224-1.104-3.984-1.104-1.472 0-2.8 0.288-3.984 0.864-1.184 0.544-2.176 1.376-2.976 2.496l-5.664-3.648c1.312-1.952 3.12-3.472 5.424-4.56 2.304-1.12 4.944-1.68 7.92-1.68 2.496 0 4.672 0.416 6.528 1.248 1.888 0.8 3.344 1.952 4.368 3.456 1.056 1.472 1.584 3.216 1.584 5.232 0 1.824-0.384 3.536-1.152 5.136s-2.256 3.424-4.464 5.472l-7.728 7.296h14.448z" fill="currentColor"/>
<path d="m107.1 151.34c32.599 0 59.025-7.555 59.025-16.875s-26.426-16.875-59.025-16.875c-32.598 0-59.024 7.555-59.024 16.875s26.426 16.875 59.024 16.875z" fill="#F5F5F5"/>
<path d="m154.26 68.82c-6.338 7.089-8.103 17.164-4.553 25.988 5.902 15.525-10.118 41.344-10.118 41.344s0.169-0.025 0.491-0.081c10.063-1.782 18.562-8.497 22.627-17.88 4.065-9.382 3.155-20.18-2.425-28.748-4.433-6.787-8.081-14.75-6.022-20.623z" fill="currentColor"/>
<path d="m154.26 68.82s-5.902 12.825 0 23.288c5.902 10.463 1.013 39.825-14.671 44.044" stroke="#535461" stroke-width="2"/>
<path d="m172.89 111.14s-11.931-1.9-13.019 8.8c-1.089 10.7-22.935 12.182-22.935 12.182s0.142 0.1 0.409 0.273c18.045 11.853 35.295 7.55 32.696-8.19-0.972-5.851-0.896-11.729 2.849-13.065z" fill="currentColor"/>
<path d="m172.89 111.14s-9.262 2.035-8.501 10.463c0.76 8.428-13.759 18.525-27.46 10.515" stroke="#535461" stroke-width="2"/>
<path d="m49.631 10.48c-1.8552-0.1393-3.7201 0.0734-5.4964 0.627-4.7359 1.705-6.9814 7.284-6.2509 12.116 0.7306 4.832 3.7326 9.027 6.8475 12.872 3.115 3.845 6.4908 7.64 8.1946 12.229 0.9803 2.2595 1.1168 4.7962 0.3848 7.148-1.3352 3.529-5.3625 5.5-9.2279 5.91-3.8655 0.41-7.7479-0.389-11.627-0.667-3.433-0.5599-6.9124 0.6868-9.2099 3.3-5.0307 4.691-9.058 11.1-8.4065 17.819 0.7366 7.622 7.3082 13.648 14.506 16.878 2.3834 1.072 4.9037 1.9391 7.0014 3.4691 5.5253 4.033 6.7665 11.591 6.2169 18.264-0.5497 6.673-2.4244 13.352-1.3811 19.967 1.4023 7.917 6.6429 14.62 13.985 17.888 6.5277 2.89 14.696 2.71 20.486-1.379 2.7348-2.086 5.0489-4.672 6.8195-7.622 2.7967-4.302 5.0728-8.92 6.7806-13.759 0.8084-2.292 1.5679-4.758 3.4537-6.352 1.2208-0.934 2.6243-1.601 4.1193-1.957 4.4478-1.285 9.1338-1.639 13.623-2.782s9.007-3.273 11.448-7.082c3.453-5.405 1.841-12.318 1.857-18.677 0.028-14.488 9.005-27.46 12.318-41.579 1.083-4.616 1.485-9.723-0.932-13.839-1.814-2.7531-4.348-4.9551-7.326-6.366-6.396-3.433-13.676-4.961-20.835-6.448-9.948-2.063-22.029-2.33-29.74-9.005-7.3931-6.406-17.516-10.973-27.608-10.973z" fill="currentColor" opacity=".128"/>
<g opacity=".5">
<path d="m71.952 71.09c-6e-4 -2.6482-0.415-5.28-1.2282-7.8l-2.0247-6.283v-0.311c0.062-4.025-3.0729-6.033-4.2802-5.815-1.2361 0.223-4.6659-1.5-4.6659-1.5v0.047c-0.2353-0.2708-0.4476-0.5608-0.6346-0.867 1.1984-0.8718 1.9942-2.1908 2.2072-3.6579 0.2129-1.4671-0.175-2.9582-1.0759-4.1351 0.3708-0.2789 0.6535-0.6587 0.8145-1.094 0.242-0.8144 0.0984-1.6948-0.3898-2.39-0.1939-0.2913-0.4202-0.5597-0.6745-0.8-0.3858-0.3822-0.8071-0.7268-1.2582-1.029-1.1013-0.823-2.3669-1.3987-3.7106-1.688-0.2333-0.0551-0.4762-0.0551-0.7095 0-0.2025 0.082-0.3952 0.1863-0.5746 0.311-1.0031 0.3743-2.0913 0.4586-3.1399 0.243-1.0653-0.056-2.3615 0.243-2.6983 1.244-0.0733 0.3168-0.1297 0.6372-0.1689 0.96-0.2695 0.7508-0.6876 1.4395-1.2291 2.025-0.5443 0.6032-0.7077 1.4595-0.4238 2.221 0.1319 0.236 0.3368 0.454 0.3368 0.724-0.0302 0.1913-0.087 0.3775-0.1689 0.553-0.0825 0.4354 0.0877 0.8801 0.4397 1.149 0.1453 0.1566 0.3164 0.2872 0.5057 0.386 0.5347 0.273 1.1502 0.358 1.6989 0.611 0.2718 0.1277 0.5212 0.2986 0.7385 0.506 0.5371 0.5644 0.8252 1.321 0.7995 2.1l0.1129 0.012v0.1c0.1179 0.013 0.2428 0.025 0.3658 0.03 0.1773 0.2844 0.38 0.5521 0.6056 0.8-0.038 0.144-0.0813 0.2903-0.13 0.439-2.147 1.4658-4.735 2.1425-7.3241 1.915-3.9344-0.555-6.184 16.657-6.184 16.657-0.1459 0.9842-0.217 1.978-0.2128 2.973-0.017 2.531 0.5146 5.844 3.4737 5.356l1.573-0.518v8.513c0.1202 1.3199-0.0722 2.6495-0.5617 3.881-0.7855 1.549 2.4744 1 2.4744 1s0.1249 0.13 0.3538 0.351l-0.073 0.2 0.0999 0.1c-0.4286 1.4667-1.0066 2.8855-1.7248 4.234l0.0929 0.047c-0.0589 0.113-0.0929 0.169-0.0929 0.169s1.2112 0.619 2.8771 1.417c1.3391 4.529 4.2702 15.019 3.3058 17.017l0.027 0.057c0.6979 1.433 1.0362 3.014 0.9853 4.607-0.1838 1.809 2.3185 10.029 3.2529 13.014l-0.4417 0.089 1.5729 5.663-0.3377 3.665s-1.9108 5.108 2.5853 4.109c1.1592-0.151 2.1923-0.807 2.8214-1.793s0.7897-2.199 0.4384-3.315l0.1129-8.33s-0.4337-0.241-0.9683-0.473c-0.6333-1.589-1.027-3.263-1.1682-4.968 0-2.109-1.4621-11.217-1.4621-11.217v-0.064l-8e-3 -0.122v-0.02c0-0.113-0.019-0.268-0.032-0.457v-0.01c-0.392-5.053-0.4937-10.124-0.3048-15.188 0.3251-0.2202 0.6632-0.4206 1.0124-0.6 1.0993 2.768 3.9154 10.245 3.7355 13.382-0.2238 3.881-0.056 0.834 0 0.337 0.017-0.154 0.029 0.032 0.034 0.449v1.642c0 0.337 0 0.712-0.012 1.1v0.236c0 0.238 0 0.481-0.012 0.727 0 0.337-0.013 0.665-0.02 1-0.017 0.759-0.039 1.527-0.0659 2.246 0 0.08-0.0027 0.159-8e-3 0.238-0.0054 0.157-0.0117 0.311-0.019 0.462s-0.014 0.298-0.02 0.442c-0.0067 0.143-0.014 0.282-0.022 0.417-8e-3 0.159-0.019 0.311-0.027 0.456l-0.6106-0.088-0.1299 1.4c-0.2044 2.229 0.0836 4.476 0.8435 6.581 0.2088 0.577 0.3707 1.055 0.4067 1.225 0.1129 0.555 0 4.556 0 4.556s0.6745 5.219 3.8235 4.219c1.32-0.557 2.246-1.773 2.4334-3.194 0.3649-1.593 0.2287-3.259-0.3898-4.771-0.5723-1.221-0.7746-2.583-0.5816-3.918 0.3674-1.678 0.5557-3.39 0.5616-5.108l-0.3477-0.049c0.0867-0.165 0.1651-0.334 0.2348-0.506 0 0-0.1129-7.663 0.8994-8.662 0.5566-0.55 0.5057-1.871 0.3378-2.951-0.241-1.563-0.2977-3.149-0.1689-4.725 0.024-0.599 0.1196-1.194 0.2848-1.77 0.2998-0.587 0.5936-6.5071-0.7205-9.3561l0.2698-0.084-0.042-0.209 0.042-0.014c0.1982 0.5292 0.4233 1.0479 0.6746 1.554 0.0662 0.0519 0.1424 0.0896 0.2238 0.111 3.6406-0.64 3.7875-4.04 3.5857-5.9 0.1539 0.074 0.2378 0.122 0.2378 0.122l0.3368-4.894c0.3462-0.9075 0.502-1.8766 0.4577-2.847-0.178-3.0413-0.7939-6.0409-1.8288-8.906zm-4.0134 13.91c-0.2498-2.131-0.5996-4.138-0.5996-4.138l-1.6859-6v-2.184l2.6743 9.99-0.3888 2.332z" fill="url(#b)"/>
</g>
<path d="m60.356 117.76-0.1249 1.372c-0.197 2.18 0.0819 4.377 0.8175 6.438 0.1999 0.565 0.3578 1.031 0.3907 1.2 0.108 0.543 0 4.45 0 4.45s0.6506 5.1 3.6886 4.124c1.2775-0.554 2.1693-1.74 2.3475-3.122 0.351-1.556 0.2192-3.182-0.3778-4.661-0.5536-1.195-0.7487-2.525-0.5616-3.829 0.3552-1.64 0.537-3.314 0.5426-4.992l-6.7226-0.98z" fill="#5A5773"/>
<path d="m57.102 94.209s4.2292 10.311 4.0124 14.108c-0.2169 3.797-0.054 0.813 0 0.326 0.0746 3.547-0.0342 7.095-0.3258 10.631 0 0 4.4471 3.255 6.1819-1.085 0 0-0.1079-7.487 0.8664-8.465 0.5367-0.537 0.4837-1.829 0.3258-2.884-0.234-1.526-0.2907-3.073-0.1689-4.612 0.0189-0.586 0.1112-1.167 0.2749-1.73 0.3257-0.651 0.6505-8.031-1.2992-10.093l-9.8675 3.804z" fill="#605D82"/>
<path d="m61.333 119.28c0.2915-3.536 0.4002-7.084 0.3258-10.631-0.054 0.488-0.2179 3.473 0-0.326s-4.0123-14.108-4.0123-14.108l9.4627-3.642c-0.044-0.056-0.0889-0.108-0.1349-0.157l-9.8685 3.8s4.2282 10.311 4.0114 14.111c-0.2169 3.8-0.054 0.813 0 0.326 0.0745 3.547-0.0342 7.095-0.3258 10.631 1.0279 0.737 2.2569 1.143 3.5217 1.161-1.073-0.141-2.0956-0.541-2.9801-1.165z" fill="#000" opacity=".1"/>
<path d="m53.415 127.64 1.518 5.535-0.3258 3.581s-1.8428 4.992 2.4983 4.015c1.1241-0.16 2.1211-0.807 2.7266-1.768 0.6056-0.961 0.7585-2.14 0.4183-3.224l0.108-8.139c-0.7636-0.46-1.6145-0.755-2.4984-0.867-0.7585 0.109-4.445 0.867-4.445 0.867z" fill="#5A5773"/>
<path d="m45.932 91.605s4.9887 16.17 3.7975 18.666c0.6862 1.418 1.0211 2.981 0.9763 4.556-0.2158 2.168 3.4707 13.782 3.4707 13.782l5.4234-0.977c-0.6881-1.7-1.1257-3.491-1.2991-5.317 0-2.062-1.4101-10.969-1.4101-10.969s-1.1922-16.279 0.2179-18.016l-11.177-1.725z" fill="#605D82"/>
<g fill="#000" opacity=".1">
<path d="m56.683 94.653c-0.8994 3.686 0.0949 17.248 0.0949 17.248s1.4101 8.9 1.4101 10.969c0.1336 1.655 0.5097 3.282 1.1162 4.828l0.2939-0.052c-0.6882-1.7-1.1258-3.491-1.2992-5.317 0-2.062-1.4101-10.969-1.4101-10.969s-0.9114-12.395-0.2058-16.707z"/>
<path d="m49.728 110.27 0.027 0.056c8e-3 -0.056 0.017-0.115 0.022-0.169-0.0144 0.038-0.0308 0.076-0.049 0.113z"/>
<path d="m56.858 93.865c0.0494-0.1871 0.1324-0.3636 0.2448-0.521l-11.171-1.739s0.0659 0.211 0.1788 0.587l10.747 1.673z"/>
</g>
<path d="m71.96 85.744s1.627 6.075-3.2528 6.946c-0.0793-0.0205-0.1535-0.0573-0.2179-0.108 0 0-2.8201-5.5349-0.6506-7.7049l4.1213 0.8669z" fill="#A1616A"/>
<path d="m52.006 45.377s0.3258 4.556-3.2528 6.728 7.589 8.139 7.589 8.139l5.8571-9.334s-2.4923 0.322-4.0103-4.015l-6.183-1.518z" fill="#A1616A"/>
<path d="m49.618 52.428s5.5314 11.5 10.52 0.651l7.6999 38.2s-11.931 3.691-12.037 5.427c-0.106 1.736-12.036-4.449-12.036-4.449s2.5983-4.776 1.9527-7.705 3.9004-32.124 3.9004-32.124z" fill="#000" opacity=".1"/>
<path d="m49.618 52.21s5.5314 11.5 10.52 0.651l7.6999 38.2s-11.931 3.691-12.037 5.427c-0.106 1.736-12.036-4.449-12.036-4.449s2.5983-4.776 1.9527-7.705 3.9004-32.124 3.9004-32.124z" fill="#E1E7EF"/>
<path d="m55.042 130.67s-1.4101-3.147 1.8428-3.147c3.2528 0 2.7122 2.822 2.7122 2.822l-4.555 0.325z" fill="#5A5773"/>
<path d="m62.416 122.53s-1.2992-3.365 1.9527-3.473c3.2518-0.108 1.6269 3.038 1.6269 3.038l-3.5796 0.435z" fill="#5A5773"/>
<path d="m59.651 49.765s3.3068 1.688 4.497 1.465 4.3371 1.844 4.1213 5.969l1.9597 6.153c0.7838 2.467 1.1819 5.0403 1.1802 7.629 0 0 2.8201 7.813 1.2991 11.286l-0.3257 4.776c-1.5616-0.8324-3.3382-1.1729-5.0967-0.977l0.6556-3.9-2.9341-11.072-4.8738-11.829-0.4826-9.5z" fill="#000" opacity=".1"/>
<path d="m59.651 49.55s3.3068 1.688 4.497 1.465 4.3371 1.844 4.1213 5.969l1.9597 6.153c0.7838 2.467 1.1819 5.0404 1.1802 7.629 0 0 2.8201 7.813 1.2991 11.286l-0.3257 4.776c-1.5616-0.8324-3.3382-1.1729-5.0967-0.977l0.6506-3.907-2.9291-11.068-4.8758-11.829-0.4806-9.497z" fill="#67647E"/>
<path d="m65.128 62.737v12.263l1.6269 5.861s1.0843 6.4 0.7585 8.357-5.5314 2.388-6.9414 0.759c-1.4101-1.629-0.6506-15.525-0.6506-15.525l-0.2718-20.343 0.2178-0.651 5.2606 9.279z" fill="#000" opacity=".1"/>
<path d="m65.35 62.195v12.267l1.6269 5.861s1.0843 6.4 0.7585 8.357-5.5313 2.388-6.9414 0.759-0.6506-15.525-0.6506-15.525l-0.2698-20.352 5.4764 8.633z" fill="#67647E"/>
<path d="m43.492 72.397 3.4707 10.8-1.6269 4.612s7.6999 8.139 12.581 4.232c0 0 0.5426-16.605-0.5427-20.512s-6.2898-17.044-6.2898-17.044l-1.0763-3.468-5.7472 3.255-0.7685 18.125z" fill="#000" opacity=".1"/>
<path d="m43.22 71.852v10.631c0.117 1.2916-0.0688 2.5928-0.5426 3.8-0.7605 1.519 2.3864 0.977 2.3864 0.977s7.6999 8.139 12.581 4.232c0 0 0.5427-16.605-0.5426-20.512s-6.2899-17.044-6.2899-17.044l-1.0843-3.473-5.7472 3.255-0.7605 18.134z" fill="#67647E"/>
<path d="m51.626 48.575c-2.0726 1.4457-4.5863 2.1181-7.1034 1.9-3.7974-0.543-5.965 16.279-5.965 16.279s-1.4101 8.6819 3.1449 7.9229l10.086-3.3649c-1.2816-1.4224-1.9447-3.2967-1.8428-5.209l-4.8818 1.952 0.2188-9.3321 6.3429-10.148z" fill="#000" opacity=".1"/>
<path d="m38.773 66.535s-1.41 8.682 3.145 7.923l10.086-3.365c-1.2822-1.4219-1.9453-3.2965-1.8428-5.209l-4.8788 1.954-6.5097-1.303z" fill="#000" opacity=".1"/>
<path d="m49.922 67.028s3.3847-4.453 5.8771-2.315-4.9837 6.056-4.9837 6.056l-0.8934-3.741z" fill="#A1616A"/>
<path d="m51.626 48.357c-2.0726 1.4458-4.5863 2.1182-7.1034 1.9-3.7974-0.543-5.965 16.279-5.965 16.279s-1.4101 8.682 3.1449 7.923l10.086-3.365c-1.2816-1.4223-1.9447-3.2966-1.8428-5.209l-4.8818 1.954 0.2188-9.334 5.5314-4.556 0.8115-5.592z" fill="#67647E"/>
<path d="m58.295 47.109-6.1819-1.519s0.3218 0.365-0.054 1.79c0.9994 1.142 2.2176 2.6601 3.8505 2.6601 1.1681 2e-3 2.3053-0.3752 3.2408-1.0751-0.3493-0.5869-0.636-1.209-0.8554-1.856z" fill="#000" opacity=".1"/>
<path d="m55.801 49.824c2.9953 0 5.4234-2.4298 5.4234-5.427 0-2.9973-2.4281-5.427-5.4234-5.427s-5.4234 2.4297-5.4234 5.427c0 2.9972 2.4281 5.427 5.4234 5.427z" fill="#A1616A"/>
<path d="m57.857 42.041c1.2582-0.214 2.6412-0.773 3.063-1.978 0.2339-0.7954 0.0958-1.6541-0.3758-2.336-0.4717-0.6701-1.0678-1.2432-1.7558-1.688-1.0606-0.8045-2.2845-1.3667-3.5857-1.647-0.225-0.0538-0.4595-0.0538-0.6845 0-0.1955 0.079-0.3815 0.1796-0.5546 0.3-0.9689 0.3661-2.022 0.4487-3.036 0.238-1.0334-0.054-2.2735 0.238-2.5983 1.215-0.1 0.3-0.094 0.628-0.1689 0.938-0.2617 0.7311-0.6625 1.4045-1.1802 1.983-0.5222 0.5944-0.6786 1.4265-0.4078 2.17 0.1269 0.231 0.3378 0.444 0.3378 0.707-0.0326 0.1873-0.0894 0.3695-0.1689 0.542-0.0753 0.5937 0.2565 1.1642 0.8095 1.392 0.5156 0.267 1.1093 0.349 1.6359 0.6 1.0064 0.4961 1.6311 1.5339 1.599 2.656 0.4713 0.1281 0.9754 0.027 1.3611-0.273 0.1449-0.16 0.2158-0.375 0.3477-0.545 0.1949-0.2017 0.4122-0.3805 0.6476-0.533 1.1353-0.933 0.3288-2.222 0.9714-3.228 0.3367-0.518 0.8734-0.359 1.417-0.351 0.7789 0.0186 1.5577-0.0356 2.3265-0.162z" fill="#000" opacity=".1"/>
<path d="m57.749 41.933c1.2582-0.214 2.6413-0.773 3.063-1.978 0.2341-0.7954 0.0959-1.6542-0.3758-2.336-0.4716-0.6701-1.0677-1.2432-1.7558-1.688-1.0606-0.8046-2.2845-1.3668-3.5856-1.647-0.225-0.0538-0.4596-0.0538-0.6846 0-0.1955 0.079-0.3815 0.1796-0.5546 0.3-0.9689 0.3661-2.022 0.4487-3.036 0.238-1.0333-0.054-2.2735 0.238-2.5983 1.215-0.0999 0.3-0.0949 0.628-0.1689 0.938-0.2617 0.7311-0.6625 1.4045-1.1802 1.983-0.5222 0.5943-0.6786 1.4265-0.4077 2.17 0.1269 0.231 0.3367 0.444 0.3367 0.707-0.0326 0.1872-0.0893 0.3694-0.1688 0.542-0.0753 0.5937 0.2564 1.1642 0.8094 1.392 0.5157 0.267 1.1093 0.349 1.6359 0.6 1.0087 0.4972 1.634 1.5384 1.599 2.663 0.4713 0.1281 0.9755 0.027 1.3611-0.273 0.1449-0.16 0.2158-0.375 0.3478-0.545 0.1948-0.2017 0.4121-0.3806 0.6475-0.533 1.1353-0.933 0.3288-2.222 0.9714-3.228 0.3368-0.518 0.8734-0.359 1.4171-0.351 0.7793 0.0163 1.5586-0.0402 2.3274-0.169z" fill="#4A4347"/>
<path d="m64.314 60.187s1.193 6.186 0.651 8.574c-0.3309 1.389-0.2819 2.8415 0.142 4.205" fill="#000" opacity=".1"/>
<path d="m45.042 62.791s-0.52 4.124 0.346 4.992l-0.346-4.992z" fill="#000" opacity=".1"/>
<path d="m75.323 113.62c0.1397 0 0.253-0.113 0.253-0.253s-0.1133-0.253-0.253-0.253-0.253 0.113-0.253 0.253 0.1133 0.253 0.253 0.253z" fill="#000"/>
<g opacity=".5">
<path d="m153.21 84.127v-0.14l-46.012-35.4c-0.059-0.0437-0.14-0.0437-0.199 0l-46.014 35.4v54.878h0.0879v0.088h92.23v-54.878l-0.093 0.052z" fill="url(#a)"/>
</g>
<path d="m151.62 137.33h-89.041v-52.988l44.52-34.256 44.521 34.256v52.988z" fill="#fff"/>
<path d="m148.42 134.19h-82.633v-49.174l41.316-31.791 41.317 31.791v49.174z" fill="#E0E0E0"/>
<path d="m121.12 52.494-50.407 13.223 16.807 64.151 50.406-13.223-16.806-64.151z" fill="currentColor"/>
<path d="m133.41 62.24h-52.11v66.319h52.11v-66.319z" fill="#F5F5F5"/>
<path d="m63.004 84.431 44.52 26.494-44.52 26.494v-52.988z" fill="#000" opacity=".05"/>
<path d="m62.667 84.431 44.52 26.494-44.52 26.494v-52.988z" fill="#fff"/>
<path d="m151.37 84.431-44.52 26.494 44.52 26.494v-52.988z" fill="#000" opacity=".05"/>
<path d="m151.71 84.431-44.521 26.494 44.521 26.494v-52.988z" fill="#fff"/>
<path d="m62.667 136.58 44.52-34.763 44.521 34.763h-89.041z" fill="#000" opacity=".05"/>
<path d="m62.667 137.42 44.52-34.763 44.521 34.763h-89.041z" fill="#fff"/>
<path d="m71.714 141.44s-2.2365-7.594 0.4197-13.186c1.1282-2.338 1.4683-4.978 0.9694-7.526-0.2463-1.207-0.6025-2.39-1.0643-3.532" stroke="#535461" stroke-width="2"/>
<path d="m73.69 113.66c0 0.932-1.6869 3.63-1.6869 3.63s-1.6859-2.7-1.6859-3.63c0.0223-0.916 0.7707-1.647 1.6864-1.647 0.9156 0 1.6641 0.731 1.6864 1.647z" fill="currentColor"/>
<path d="m76.482 118.82c-0.5057 0.781-3.3868 2.131-3.3868 2.131s0.052-3.183 0.5587-3.964c0.5258-0.729 1.5308-0.918 2.2852-0.429s0.9931 1.484 0.5429 2.262z" fill="currentColor"/>
<path d="m76.353 127.63c-0.8314 0.419-3.9974 0.13-3.9974 0.13s1.651-2.72 2.4804-3.139c0.5412-0.305 1.2061-0.288 1.7307 0.045 0.5247 0.332 0.8243 0.927 0.7798 1.547-0.0444 0.619-0.4257 1.165-0.9925 1.419l-1e-3 -2e-3z" fill="currentColor"/>
<path d="m74.762 134.28c-0.7485 0.554-3.9195 0.8-3.9195 0.8s1.1673-2.96 1.9158-3.513c0.7479-0.477 1.7372-0.293 2.2638 0.421s0.4108 1.714-0.2651 2.289l5e-3 3e-3z" fill="currentColor"/>
<path d="m69.551 121.13c0.6745 0.648 3.7755 1.321 3.7755 1.321s-0.7605-3.09-1.4281-3.738c-0.6756-0.59-1.694-0.548-2.3187 0.096-0.6246 0.643-0.6373 1.663-0.0287 2.322v-1e-3z" fill="currentColor"/>
<path d="m67.788 128.93c0.8314 0.419 3.9973 0.13 3.9973 0.13s-1.6509-2.72-2.4803-3.139c-0.8215-0.363-1.7833-0.019-2.1879 0.783-0.4046 0.803-0.1101 1.782 0.6699 2.227l1e-3 -1e-3z" fill="currentColor"/>
<path d="m67.114 136.74c0.7485 0.553 3.9194 0.8 3.9194 0.8s-1.1672-2.96-1.9157-3.513c-0.4803-0.408-1.1481-0.515-1.7313-0.276-0.5833 0.239-0.9848 0.784-1.041 1.412-0.0563 0.628 0.2421 1.235 0.7736 1.574l-5e-3 3e-3z" fill="currentColor"/>
<path d="m105.25 65.278h-20.912v1.688h20.912v-1.688z" fill="currentColor" opacity=".5"/>
<path d="m129.53 72.028h-45.196v1.688h45.196v-1.688z" fill="currentColor" opacity=".5"/>
<path d="m129.53 76.416h-45.196v1.688h45.196v-1.688z" fill="currentColor" opacity=".5"/>
<path d="m129.53 80.803h-45.196v1.688h45.196v-1.688z" fill="currentColor" opacity=".4"/>
<path d="m129.53 85.191h-45.196v1.688h45.196v-1.688z" fill="currentColor" opacity=".4"/>
<path d="m110.14 89.578h-25.802v1.688h25.802v-1.688z" fill="currentColor" opacity=".3"/>
<path d="m119.58 93.966h-35.246v1.688h35.246v-1.688z" fill="currentColor" opacity=".3"/>
<defs>
<linearGradient id="b" x1="37.67" x2="73.752" y1="88.276" y2="88.276" gradientUnits="userSpaceOnUse">
<stop stop-color="#808080" stop-opacity=".251" offset="0"/>
<stop stop-color="#808080" stop-opacity=".122" offset=".54"/>
<stop stop-color="#808080" stop-opacity=".102" offset="1"/>
</linearGradient>
<linearGradient id="a" x1="107.15" x2="107.15" y1="138.95" y2="48.554" gradientUnits="userSpaceOnUse">
<stop stop-color="#808080" stop-opacity=".251" offset="0"/>
<stop stop-color="#808080" stop-opacity=".122" offset=".54"/>
<stop stop-color="#808080" stop-opacity=".102" offset="1"/>
</linearGradient>
</defs>
</svg>
