<svg width="634" height="475" viewBox="0 0 634 475" fill="none" xmlns="http://www.w3.org/2000/svg">
<path opacity="0.1" d="M279.436 17.905C254.344 7.60503 227.835 -0.988974 200.778 0.0920258C160.989 1.67203 122.828 25.835 104.091 61.307C88.2146 91.36 86.2591 126.584 79.4236 159.935C70.9872 201.035 54.8555 240.072 37.6182 278.262C28.3625 298.776 18.5977 319.733 17.08 342.223C14.968 373.437 29.7514 404.547 52.9416 425.314C76.1317 446.081 106.916 457.039 137.819 459.429C154.264 460.699 171.45 459.521 186.064 451.792C201.513 443.621 212.784 428.847 228.296 420.792C242.674 413.322 259.495 412.27 275.639 413.247C296.782 414.528 317.615 418.998 337.446 426.509C360.01 435.065 380.992 447.448 403.506 456.125C426.019 464.802 451.173 469.634 474.188 462.4C495.784 455.6 512.895 439.093 528.264 422.372C553.554 394.919 576.62 365.461 597.238 334.282C611.133 313.274 624.066 291.105 630.214 266.614C641.957 219.794 625.791 166.968 589.935 135.025C560.245 108.518 520.375 97.025 481.348 90.025C445.76 83.664 404.61 83.267 371.851 66.684C340.605 50.871 312.179 31.35 279.436 17.905Z" fill="#584DFC"/>
<path opacity="0.1" d="M12.3128 88.9229C19.113 88.9229 24.6256 83.3583 24.6256 76.4939C24.6256 69.6296 19.113 64.0649 12.3128 64.0649C5.51262 64.0649 0 69.6296 0 76.4939C0 83.3583 5.51262 88.9229 12.3128 88.9229Z" fill="#584DFC"/>
<path opacity="0.1" d="M346.514 36.5521C353.315 36.5521 358.827 30.9874 358.827 24.1231C358.827 17.2587 353.315 11.6941 346.514 11.6941C339.714 11.6941 334.202 17.2587 334.202 24.1231C334.202 30.9874 339.714 36.5521 346.514 36.5521Z" fill="#584DFC"/>
<path opacity="0.1" d="M541.843 85.6529C548.643 85.6529 554.156 80.0883 554.156 73.2239C554.156 66.3596 548.643 60.7949 541.843 60.7949C535.043 60.7949 529.53 66.3596 529.53 73.2239C529.53 80.0883 535.043 85.6529 541.843 85.6529Z" fill="#584DFC"/>
<path opacity="0.1" d="M36.9326 165.894C48.3291 165.894 57.5678 156.568 57.5678 145.064C57.5678 133.56 48.3291 124.234 36.9326 124.234C25.5361 124.234 16.2974 133.56 16.2974 145.064C16.2974 156.568 25.5361 165.894 36.9326 165.894Z" fill="#584DFC"/>
<path opacity="0.1" d="M288.964 474.472C300.361 474.472 309.6 465.146 309.6 453.642C309.6 442.138 300.361 432.812 288.964 432.812C277.568 432.812 268.329 442.138 268.329 453.642C268.329 465.146 277.568 474.472 288.964 474.472Z" fill="#584DFC"/>
<path opacity="0.1" d="M563.85 462.463C575.247 462.463 584.486 453.137 584.486 441.633C584.486 430.129 575.247 420.803 563.85 420.803C552.454 420.803 543.215 430.129 543.215 441.633C543.215 453.137 552.454 462.463 563.85 462.463Z" fill="#584DFC"/>
</svg>
